<?xml version="1.0" encoding="UTF-8" standalone="no"?>
<svg
   xmlns:dc="http://purl.org/dc/elements/1.1/"
   xmlns:cc="http://creativecommons.org/ns#"
   xmlns:rdf="http://www.w3.org/1999/02/22-rdf-syntax-ns#"
   xmlns:svg="http://www.w3.org/2000/svg"
   xmlns="http://www.w3.org/2000/svg"
   xmlns:xlink="http://www.w3.org/1999/xlink"
   xmlns:sodipodi="http://sodipodi.sourceforge.net/DTD/sodipodi-0.dtd"
   xmlns:inkscape="http://www.inkscape.org/namespaces/inkscape"
   width="800"
   height="600"
   viewBox="0 0 800 600"
   id="svg3783"
   version="1.1"
   inkscape:version="0.48.4 r9939"
   sodipodi:docname="balding_nichols_pdf.svg">
  <metadata
     id="metadata4063">
    <rdf:RDF>
      <cc:Work
         rdf:about="">
        <dc:format>image/svg+xml</dc:format>
        <dc:type
           rdf:resource="http://purl.org/dc/dcmitype/StillImage" />
      </cc:Work>
    </rdf:RDF>
  </metadata>
  <sodipodi:namedview
     pagecolor="#ffffff"
     bordercolor="#666666"
     borderopacity="1"
     objecttolerance="10"
     gridtolerance="10"
     guidetolerance="10"
     inkscape:pageopacity="0"
     inkscape:pageshadow="2"
     inkscape:window-width="1366"
     inkscape:window-height="706"
     id="namedview4061"
     showgrid="false"
     inkscape:zoom="1.0217693"
     inkscape:cx="400"
     inkscape:cy="339.14778"
     inkscape:window-x="-8"
     inkscape:window-y="-8"
     inkscape:window-maximized="1"
     inkscape:current-layer="svg3783" />
  <desc
     id="desc3785">Produced by GNUPLOT 4.2 patchlevel 6  </desc>
  <defs
     id="defs3787">
    <circle
       id="gpDot"
       r="0.5"
       stroke-width="0.5" />
    <path
       id="gpPt0"
       stroke-width="0.111"
       stroke="currentColor"
       d="M-1,0 h2 M0,-1 v2" />
    <path
       id="gpPt1"
       stroke-width="0.111"
       stroke="currentColor"
       d="M-1,-1 L1,1 M1,-1 L-1,1" />
    <path
       id="gpPt2"
       stroke-width="0.111"
       stroke="currentColor"
       d="M-1,0 L1,0 M0,-1 L0,1 M-1,-1 L1,1 M-1,1 L1,-1" />
    <rect
       id="gpPt3"
       stroke-width="0.111"
       stroke="currentColor"
       x="-1"
       y="-1"
       width="2"
       height="2" />
    <rect
       id="gpPt4"
       stroke-width="0.111"
       stroke="currentColor"
       fill="currentColor"
       x="-1"
       y="-1"
       width="2"
       height="2" />
    <circle
       id="gpPt5"
       stroke-width="0.111"
       stroke="currentColor"
       cx="0"
       cy="0"
       r="1" />
    <use
       xlink:href="#gpPt5"
       id="gpPt6"
       fill="currentColor"
       stroke="none" />
    <path
       id="gpPt7"
       stroke-width="0.111"
       stroke="currentColor"
       d="M0,-1.33 L-1.33,0.67 L1.33,0.67 z" />
    <use
       xlink:href="#gpPt7"
       id="gpPt8"
       fill="currentColor"
       stroke="none" />
    <use
       xlink:href="#gpPt7"
       id="gpPt9"
       stroke="currentColor"
       transform="rotate(180)" />
    <use
       xlink:href="#gpPt9"
       id="gpPt10"
       fill="currentColor"
       stroke="none" />
    <use
       xlink:href="#gpPt3"
       id="gpPt11"
       stroke="currentColor"
       transform="rotate(45)" />
    <use
       xlink:href="#gpPt11"
       id="gpPt12"
       fill="currentColor"
       stroke="none" />
  </defs>
  <g
     style="fill:none; color:white; stroke:currentColor; stroke-width:1.00; stroke-linecap:butt; stroke-linejoin:miter"
     id="g3803" />
  <g
     style="fill:none; color:black; stroke:currentColor; stroke-width:1.00; stroke-linecap:butt; stroke-linejoin:miter"
     id="g3805">
    <path
       d="M141.9,528.0 L159.9,528.0 M758.2,528.0 L740.2,528.0 "
       id="path3807" />
    <g
       transform="translate(125.2,537.0)"
       style="stroke:none; fill:black; font-family:Arial; font-size:24.00pt; text-anchor:end"
       id="g3809">
      <text
         id="text3811">
        <tspan
           id="tspan3813"> 0</tspan>
      </text>
    </g>
    <path
       d="M141.9,466.2 L159.9,466.2 M758.2,466.2 L740.2,466.2 "
       id="path3815" />
    <g
       transform="translate(125.2,475.2)"
       style="stroke:none; fill:black; font-family:Arial; font-size:24.00pt; text-anchor:end"
       id="g3817">
      <text
         id="text3819">
        <tspan
           id="tspan3821"> 0.5</tspan>
      </text>
    </g>
    <path
       d="M141.9,404.3 L159.9,404.3 M758.2,404.3 L740.2,404.3 "
       id="path3823" />
    <g
       transform="translate(125.2,413.3)"
       style="stroke:none; fill:black; font-family:Arial; font-size:24.00pt; text-anchor:end"
       id="g3825">
      <text
         id="text3827">
        <tspan
           id="tspan3829"> 1</tspan>
      </text>
    </g>
    <path
       d="M141.9,342.5 L159.9,342.5 M758.2,342.5 L740.2,342.5 "
       id="path3831" />
    <g
       transform="translate(125.2,351.5)"
       style="stroke:none; fill:black; font-family:Arial; font-size:24.00pt; text-anchor:end"
       id="g3833">
      <text
         id="text3835">
        <tspan
           id="tspan3837"> 1.5</tspan>
      </text>
    </g>
    <path
       d="M141.9,280.7 L159.9,280.7 M758.2,280.7 L740.2,280.7 "
       id="path3839" />
    <g
       transform="translate(125.2,289.7)"
       style="stroke:none; fill:black; font-family:Arial; font-size:24.00pt; text-anchor:end"
       id="g3841">
      <text
         id="text3843">
        <tspan
           id="tspan3845"> 2</tspan>
      </text>
    </g>
    <path
       d="M141.9,218.9 L159.9,218.9 M758.2,218.9 L740.2,218.9 "
       id="path3847" />
    <g
       transform="translate(125.2,227.9)"
       style="stroke:none; fill:black; font-family:Arial; font-size:24.00pt; text-anchor:end"
       id="g3849">
      <text
         id="text3851">
        <tspan
           id="tspan3853"> 2.5</tspan>
      </text>
    </g>
    <path
       d="M141.9,157.0 L159.9,157.0 M758.2,157.0 L740.2,157.0 "
       id="path3855" />
    <g
       transform="translate(125.2,166.0)"
       style="stroke:none; fill:black; font-family:Arial; font-size:24.00pt; text-anchor:end"
       id="g3857">
      <text
         id="text3859">
        <tspan
           id="tspan3861"> 3</tspan>
      </text>
    </g>
    <path
       d="M141.9,95.2 L159.9,95.2 M758.2,95.2 L740.2,95.2 "
       id="path3863" />
    <g
       transform="translate(125.2,104.2)"
       style="stroke:none; fill:black; font-family:Arial; font-size:24.00pt; text-anchor:end"
       id="g3865">
      <text
         id="text3867">
        <tspan
           id="tspan3869"> 3.5</tspan>
      </text>
    </g>
    <path
       d="M141.9,33.4 L159.9,33.4 M758.2,33.4 L740.2,33.4 "
       id="path3871" />
    <g
       transform="translate(125.2,42.4)"
       style="stroke:none; fill:black; font-family:Arial; font-size:24.00pt; text-anchor:end"
       id="g3873">
      <text
         id="text3875">
        <tspan
           id="tspan3877"> 4</tspan>
      </text>
    </g>
    <path
       d="M141.9,528.0 L141.9,510.0 M141.9,33.4 L141.9,51.4 "
       id="path3879" />
    <g
       transform="translate(141.9,573.0)"
       style="stroke:none; fill:black; font-family:Arial; font-size:24.00pt; text-anchor:middle"
       id="g3881">
      <text
         id="text3883">
        <tspan
           id="tspan3885"> 0</tspan>
      </text>
    </g>
    <path
       d="M203.5,528.0 L203.5,510.0 M203.5,33.4 L203.5,51.4 "
       id="path3887" />
    <g
       transform="translate(203.5,573.0)"
       style="stroke:none; fill:black; font-family:Arial; font-size:24.00pt; text-anchor:middle"
       id="g3889">
      <text
         id="text3891">
        <tspan
           id="tspan3893"> 0.1</tspan>
      </text>
    </g>
    <path
       d="M265.2,528.0 L265.2,510.0 M265.2,33.4 L265.2,51.4 "
       id="path3895" />
    <g
       transform="translate(265.2,573.0)"
       style="stroke:none; fill:black; font-family:Arial; font-size:24.00pt; text-anchor:middle"
       id="g3897">
      <text
         id="text3899">
        <tspan
           id="tspan3901"> 0.2</tspan>
      </text>
    </g>
    <path
       d="M326.8,528.0 L326.8,510.0 M326.8,33.4 L326.8,51.4 "
       id="path3903" />
    <g
       transform="translate(326.8,573.0)"
       style="stroke:none; fill:black; font-family:Arial; font-size:24.00pt; text-anchor:middle"
       id="g3905">
      <text
         id="text3907">
        <tspan
           id="tspan3909"> 0.3</tspan>
      </text>
    </g>
    <path
       d="M388.4,528.0 L388.4,510.0 M388.4,33.4 L388.4,51.4 "
       id="path3911" />
    <g
       transform="translate(388.4,573.0)"
       style="stroke:none; fill:black; font-family:Arial; font-size:24.00pt; text-anchor:middle"
       id="g3913">
      <text
         id="text3915">
        <tspan
           id="tspan3917"> 0.4</tspan>
      </text>
    </g>
    <path
       d="M450.1,528.0 L450.1,510.0 M450.1,33.4 L450.1,51.4 "
       id="path3919" />
    <g
       transform="translate(450.1,573.0)"
       style="stroke:none; fill:black; font-family:Arial; font-size:24.00pt; text-anchor:middle"
       id="g3921">
      <text
         id="text3923">
        <tspan
           id="tspan3925"> 0.5</tspan>
      </text>
    </g>
    <path
       d="M511.7,528.0 L511.7,510.0 M511.7,33.4 L511.7,51.4 "
       id="path3927" />
    <g
       transform="translate(511.7,573.0)"
       style="stroke:none; fill:black; font-family:Arial; font-size:24.00pt; text-anchor:middle"
       id="g3929">
      <text
         id="text3931">
        <tspan
           id="tspan3933"> 0.6</tspan>
      </text>
    </g>
    <path
       d="M573.3,528.0 L573.3,510.0 M573.3,33.4 L573.3,51.4 "
       id="path3935" />
    <g
       transform="translate(573.3,573.0)"
       style="stroke:none; fill:black; font-family:Arial; font-size:24.00pt; text-anchor:middle"
       id="g3937">
      <text
         id="text3939">
        <tspan
           id="tspan3941"> 0.7</tspan>
      </text>
    </g>
    <path
       d="M634.9,528.0 L634.9,510.0 M634.9,33.4 L634.9,51.4 "
       id="path3943" />
    <g
       transform="translate(634.9,573.0)"
       style="stroke:none; fill:black; font-family:Arial; font-size:24.00pt; text-anchor:middle"
       id="g3945">
      <text
         id="text3947">
        <tspan
           id="tspan3949"> 0.8</tspan>
      </text>
    </g>
    <path
       d="M696.6,528.0 L696.6,510.0 M696.6,33.4 L696.6,51.4 "
       id="path3951" />
    <g
       transform="translate(696.6,573.0)"
       style="stroke:none; fill:black; font-family:Arial; font-size:24.00pt; text-anchor:middle"
       id="g3953">
      <text
         id="text3955">
        <tspan
           id="tspan3957"> 0.9</tspan>
      </text>
    </g>
    <path
       d="M758.2,528.0 L758.2,510.0 M758.2,33.4 L758.2,51.4 "
       id="path3959" />
    <g
       transform="translate(758.2,573.0)"
       style="stroke:none; fill:black; font-family:Arial; font-size:24.00pt; text-anchor:middle"
       id="g3961">
      <text
         id="text3963">
        <tspan
           id="tspan3965"> 1</tspan>
      </text>
    </g>
    <path
       stroke="rgb(  0,   0,   0)"
       d="M141.9,528.0 L758.2,528.0 M141.9,528.0 L141.9,33.4 L141.9,528.0 L758.2,528.0 L758.2,33.4 L141.9,33.4    Z "
       id="path3967" />
  </g>
  <g
     style="fill:none; color:black; stroke:currentColor; stroke-width:5.00; stroke-linecap:butt; stroke-linejoin:miter"
     id="g3969" />
  <g
     style="fill:none; color:red; stroke:currentColor; stroke-width:5.00; stroke-linecap:butt; stroke-linejoin:miter"
     id="g3971" />
  <g
     style="fill:none; color:black; stroke:currentColor; stroke-width:5.00; stroke-linecap:butt; stroke-linejoin:miter"
     id="g3973">
    <g
       transform="translate(325.6,78.4)"
       style="stroke:none; fill:black; font-family:Arial; font-size:24.00pt; text-anchor:end"
       id="g3975">
      <text
         id="text3977">
        <tspan
           id="tspan3979">α=1, β=1</tspan>
      </text>
    </g>
  </g>
  <g
     style="fill:none; color:red; stroke:currentColor; stroke-width:5.00; stroke-linecap:butt; stroke-linejoin:miter"
     id="g3981">
    <path
       stroke="rgb(160,  32, 240)"
       d="M342.3,69.4 L427.1,69.4 M141.9,404.3 L143.1,404.3 L144.4,404.3 L145.6,404.3 L146.8,404.3 L148.1,404.3    L149.3,404.3 L150.5,404.3 L151.8,404.3 L153.0,404.3 L154.3,404.3 L155.5,404.3 L156.7,404.3 L158.0,404.3    L159.2,404.3 L160.4,404.3 L161.7,404.3 L162.9,404.3 L164.1,404.3 L165.4,404.3 L166.6,404.3 L167.8,404.3    L169.1,404.3 L170.3,404.3 L171.5,404.3 L172.8,404.3 L174.0,404.3 L175.2,404.3 L176.5,404.3 L177.7,404.3    L179.0,404.3 L180.2,404.3 L181.4,404.3 L182.7,404.3 L183.9,404.3 L185.1,404.3 L186.4,404.3 L187.6,404.3    L188.8,404.3 L190.1,404.3 L191.3,404.3 L192.5,404.3 L193.8,404.3 L195.0,404.3 L196.2,404.3 L197.5,404.3    L198.7,404.3 L199.9,404.3 L201.2,404.3 L202.4,404.3 L203.7,404.3 L204.9,404.3 L206.1,404.3 L207.4,404.3    L208.6,404.3 L209.8,404.3 L211.1,404.3 L212.3,404.3 L213.5,404.3 L214.8,404.3 L216.0,404.3 L217.2,404.3    L218.5,404.3 L219.7,404.3 L220.9,404.3 L222.2,404.3 L223.4,404.3 L224.6,404.3 L225.9,404.3 L227.1,404.3    L228.4,404.3 L229.6,404.3 L230.8,404.3 L232.1,404.3 L233.3,404.3 L234.5,404.3 L235.8,404.3 L237.0,404.3    L238.2,404.3 L239.5,404.3 L240.7,404.3 L241.9,404.3 L243.2,404.3 L244.4,404.3 L245.6,404.3 L246.9,404.3    L248.1,404.3 L249.4,404.3 L250.6,404.3 L251.8,404.3 L253.1,404.3 L254.3,404.3 L255.5,404.3 L256.8,404.3    L258.0,404.3 L259.2,404.3 L260.5,404.3 L261.7,404.3 L262.9,404.3 L264.2,404.3 L265.4,404.3 L266.6,404.3    L267.9,404.3 L269.1,404.3 L270.3,404.3 L271.6,404.3 L272.8,404.3 L274.1,404.3 L275.3,404.3 L276.5,404.3    L277.8,404.3 L279.0,404.3 L280.2,404.3 L281.5,404.3 L282.7,404.3 L283.9,404.3 L285.2,404.3 L286.4,404.3    L287.6,404.3 L288.9,404.3 L290.1,404.3 L291.3,404.3 L292.6,404.3 L293.8,404.3 L295.0,404.3 L296.3,404.3    L297.5,404.3 L298.8,404.3 L300.0,404.3 L301.2,404.3 L302.5,404.3 L303.7,404.3 L304.9,404.3 L306.2,404.3    L307.4,404.3 L308.6,404.3 L309.9,404.3 L311.1,404.3 L312.3,404.3 L313.6,404.3 L314.8,404.3 L316.0,404.3    L317.3,404.3 L318.5,404.3 L319.8,404.3 L321.0,404.3 L322.2,404.3 L323.5,404.3 L324.7,404.3 L325.9,404.3    L327.2,404.3 L328.4,404.3 L329.6,404.3 L330.9,404.3 L332.1,404.3 L333.3,404.3 L334.6,404.3 L335.8,404.3    L337.0,404.3 L338.3,404.3 L339.5,404.3 L340.7,404.3 L342.0,404.3 L343.2,404.3 L344.5,404.3 L345.7,404.3    L346.9,404.3 L348.2,404.3 L349.4,404.3 L350.6,404.3 L351.9,404.3 L353.1,404.3 L354.3,404.3 L355.6,404.3    L356.8,404.3 L358.0,404.3 L359.3,404.3 L360.5,404.3 L361.7,404.3 L363.0,404.3 L364.2,404.3 L365.4,404.3    L366.7,404.3 L367.9,404.3 L369.2,404.3 L370.4,404.3 L371.6,404.3 L372.9,404.3 L374.1,404.3 L375.3,404.3    L376.6,404.3 L377.8,404.3 L379.0,404.3 L380.3,404.3 L381.5,404.3 L382.7,404.3 L384.0,404.3 L385.2,404.3    L386.4,404.3 L387.7,404.3 L388.9,404.3 L390.1,404.3 L391.4,404.3 L392.6,404.3 L393.9,404.3 L395.1,404.3    L396.3,404.3 L397.6,404.3 L398.8,404.3 L400.0,404.3 L401.3,404.3 L402.5,404.3 L403.7,404.3 L405.0,404.3    L406.2,404.3 L407.4,404.3 L408.7,404.3 L409.9,404.3 L411.1,404.3 L412.4,404.3 L413.6,404.3 L414.9,404.3    L416.1,404.3 L417.3,404.3 L418.6,404.3 L419.8,404.3 L421.0,404.3 L422.3,404.3 L423.5,404.3 L424.7,404.3    L426.0,404.3 L427.2,404.3 L428.4,404.3 L429.7,404.3 L430.9,404.3 L432.1,404.3 L433.4,404.3 L434.6,404.3    L435.8,404.3 L437.1,404.3 L438.3,404.3 L439.6,404.3 L440.8,404.3 L442.0,404.3 L443.3,404.3 L444.5,404.3    L445.7,404.3 L447.0,404.3 L448.2,404.3 L449.4,404.3 L450.7,404.3 L451.9,404.3 L453.1,404.3 L454.4,404.3    L455.6,404.3 L456.8,404.3 L458.1,404.3 L459.3,404.3 L460.5,404.3 L461.8,404.3 L463.0,404.3 L464.3,404.3    L465.5,404.3 L466.7,404.3 L468.0,404.3 L469.2,404.3 L470.4,404.3 L471.7,404.3 L472.9,404.3 L474.1,404.3    L475.4,404.3 L476.6,404.3 L477.8,404.3 L479.1,404.3 L480.3,404.3 L481.5,404.3 L482.8,404.3 L484.0,404.3    L485.2,404.3 L486.5,404.3 L487.7,404.3 L489.0,404.3 L490.2,404.3 L491.4,404.3 L492.7,404.3 L493.9,404.3    L495.1,404.3 L496.4,404.3 L497.6,404.3 L498.8,404.3 L500.1,404.3 L501.3,404.3 L502.5,404.3 L503.8,404.3    L505.0,404.3 L506.2,404.3 L507.5,404.3 L508.7,404.3 L510.0,404.3 L511.2,404.3 L512.4,404.3 L513.7,404.3    L514.9,404.3 L516.1,404.3 L517.4,404.3 L518.6,404.3 L519.8,404.3 L521.1,404.3 L522.3,404.3 L523.5,404.3    L524.8,404.3 L526.0,404.3 L527.2,404.3 L528.5,404.3 L529.7,404.3 L530.9,404.3 L532.2,404.3 L533.4,404.3    L534.7,404.3 L535.9,404.3 L537.1,404.3 L538.4,404.3 L539.6,404.3 L540.8,404.3 L542.1,404.3 L543.3,404.3    L544.5,404.3 L545.8,404.3 L547.0,404.3 L548.2,404.3 L549.5,404.3 L550.7,404.3 L551.9,404.3 L553.2,404.3    L554.4,404.3 L555.6,404.3 L556.9,404.3 L558.1,404.3 L559.4,404.3 L560.6,404.3 L561.8,404.3 L563.1,404.3    L564.3,404.3 L565.5,404.3 L566.8,404.3 L568.0,404.3 L569.2,404.3 L570.5,404.3 L571.7,404.3 L572.9,404.3    L574.2,404.3 L575.4,404.3 L576.6,404.3 L577.9,404.3 L579.1,404.3 L580.3,404.3 L581.6,404.3 L582.8,404.3    L584.1,404.3 L585.3,404.3 L586.5,404.3 L587.8,404.3 L589.0,404.3 L590.2,404.3 L591.5,404.3 L592.7,404.3    L593.9,404.3 L595.2,404.3 L596.4,404.3 L597.6,404.3 L598.9,404.3 L600.1,404.3 L601.3,404.3 L602.6,404.3    L603.8,404.3 L605.1,404.3 L606.3,404.3 L607.5,404.3 L608.8,404.3 L610.0,404.3 L611.2,404.3 L612.5,404.3    L613.7,404.3 L614.9,404.3 L616.2,404.3 L617.4,404.3 L618.6,404.3 L619.9,404.3 L621.1,404.3 L622.3,404.3    L623.6,404.3 L624.8,404.3 L626.0,404.3 L627.3,404.3 L628.5,404.3 L629.8,404.3 L631.0,404.3 L632.2,404.3    L633.5,404.3 L634.7,404.3 L635.9,404.3 L637.2,404.3 L638.4,404.3 L639.6,404.3 L640.9,404.3 L642.1,404.3    L643.3,404.3 L644.6,404.3 L645.8,404.3 L647.0,404.3 L648.3,404.3 L649.5,404.3 L650.7,404.3 L652.0,404.3    L653.2,404.3 L654.5,404.3 L655.7,404.3 L656.9,404.3 L658.2,404.3 L659.4,404.3 L660.6,404.3 L661.9,404.3    L663.1,404.3 L664.3,404.3 L665.6,404.3 L666.8,404.3 L668.0,404.3 L669.3,404.3 L670.5,404.3 L671.7,404.3    L673.0,404.3 L674.2,404.3 L675.5,404.3 L676.7,404.3 L677.9,404.3 L679.2,404.3 L680.4,404.3 L681.6,404.3    L682.9,404.3 L684.1,404.3 L685.3,404.3 L686.6,404.3 L687.8,404.3 L689.0,404.3 L690.3,404.3 L691.5,404.3    L692.7,404.3 L694.0,404.3 L695.2,404.3 L696.4,404.3 L697.7,404.3 L698.9,404.3 L700.2,404.3 L701.4,404.3    L702.6,404.3 L703.9,404.3 L705.1,404.3 L706.3,404.3 L707.6,404.3 L708.8,404.3 L710.0,404.3 L711.3,404.3    L712.5,404.3 L713.7,404.3 L715.0,404.3 L716.2,404.3 L717.4,404.3 L718.7,404.3 L719.9,404.3 L721.1,404.3    L722.4,404.3 L723.6,404.3 L724.9,404.3 L726.1,404.3 L727.3,404.3 L728.6,404.3 L729.8,404.3 L731.0,404.3    L732.3,404.3 L733.5,404.3 L734.7,404.3 L736.0,404.3 L737.2,404.3 L738.4,404.3 L739.7,404.3 L740.9,404.3    L742.1,404.3 L743.4,404.3 L744.6,404.3 L745.8,404.3 L747.1,404.3 L748.3,404.3 L749.6,404.3 L750.8,404.3    L752.0,404.3 L753.3,404.3 L754.5,404.3 L755.7,404.3 L757.0,404.3 L758.2,404.3 "
       id="path3983" />
  </g>
  <g
     style="fill:none; color:green; stroke:currentColor; stroke-width:5.00; stroke-linecap:butt; stroke-linejoin:miter"
     id="g3985" />
  <g
     style="fill:none; color:black; stroke:currentColor; stroke-width:5.00; stroke-linecap:butt; stroke-linejoin:miter"
     id="g3987">
    <g
       transform="translate(325.6,114.4)"
       style="stroke:none; fill:black; font-family:Arial; font-size:24.00pt; text-anchor:end"
       id="g3989">
      <text
         id="text3991">
        <tspan
           id="tspan3993">α=1, β=2</tspan>
      </text>
    </g>
  </g>
  <g
     style="fill:none; color:green; stroke:currentColor; stroke-width:5.00; stroke-linecap:butt; stroke-linejoin:miter"
     id="g3995">
    <path
       stroke="rgb(255,   0,   0)"
       d="M342.3,105.4 L427.1,105.4 M141.9,280.7 L143.1,281.2 L144.4,281.7 L145.6,282.2 L146.8,282.7 L148.1,283.2    L149.3,283.7 L150.5,284.2 L151.8,284.7 L153.0,285.2 L154.3,285.7 L155.5,286.2 L156.7,286.6 L158.0,287.1    L159.2,287.6 L160.4,288.1 L161.7,288.6 L162.9,289.1 L164.1,289.6 L165.4,290.1 L166.6,290.6 L167.8,291.1    L169.1,291.6 L170.3,292.1 L171.5,292.6 L172.8,293.1 L174.0,293.6 L175.2,294.1 L176.5,294.6 L177.7,295.1    L179.0,295.6 L180.2,296.1 L181.4,296.6 L182.7,297.1 L183.9,297.6 L185.1,298.0 L186.4,298.5 L187.6,299.0    L188.8,299.5 L190.1,300.0 L191.3,300.5 L192.5,301.0 L193.8,301.5 L195.0,302.0 L196.2,302.5 L197.5,303.0    L198.7,303.5 L199.9,304.0 L201.2,304.5 L202.4,305.0 L203.7,305.5 L204.9,306.0 L206.1,306.5 L207.4,307.0    L208.6,307.5 L209.8,308.0 L211.1,308.5 L212.3,308.9 L213.5,309.4 L214.8,309.9 L216.0,310.4 L217.2,310.9    L218.5,311.4 L219.7,311.9 L220.9,312.4 L222.2,312.9 L223.4,313.4 L224.6,313.9 L225.9,314.4 L227.1,314.9    L228.4,315.4 L229.6,315.9 L230.8,316.4 L232.1,316.9 L233.3,317.4 L234.5,317.9 L235.8,318.4 L237.0,318.9    L238.2,319.4 L239.5,319.9 L240.7,320.3 L241.9,320.8 L243.2,321.3 L244.4,321.8 L245.6,322.3 L246.9,322.8    L248.1,323.3 L249.4,323.8 L250.6,324.3 L251.8,324.8 L253.1,325.3 L254.3,325.8 L255.5,326.3 L256.8,326.8    L258.0,327.3 L259.2,327.8 L260.5,328.3 L261.7,328.8 L262.9,329.3 L264.2,329.8 L265.4,330.3 L266.6,330.8    L267.9,331.3 L269.1,331.7 L270.3,332.2 L271.6,332.7 L272.8,333.2 L274.1,333.7 L275.3,334.2 L276.5,334.7    L277.8,335.2 L279.0,335.7 L280.2,336.2 L281.5,336.7 L282.7,337.2 L283.9,337.7 L285.2,338.2 L286.4,338.7    L287.6,339.2 L288.9,339.7 L290.1,340.2 L291.3,340.7 L292.6,341.2 L293.8,341.7 L295.0,342.2 L296.3,342.6    L297.5,343.1 L298.8,343.6 L300.0,344.1 L301.2,344.6 L302.5,345.1 L303.7,345.6 L304.9,346.1 L306.2,346.6    L307.4,347.1 L308.6,347.6 L309.9,348.1 L311.1,348.6 L312.3,349.1 L313.6,349.6 L314.8,350.1 L316.0,350.6    L317.3,351.1 L318.5,351.6 L319.8,352.1 L321.0,352.6 L322.2,353.1 L323.5,353.6 L324.7,354.0 L325.9,354.5    L327.2,355.0 L328.4,355.5 L329.6,356.0 L330.9,356.5 L332.1,357.0 L333.3,357.5 L334.6,358.0 L335.8,358.5    L337.0,359.0 L338.3,359.5 L339.5,360.0 L340.7,360.5 L342.0,361.0 L343.2,361.5 L344.5,362.0 L345.7,362.5    L346.9,363.0 L348.2,363.5 L349.4,364.0 L350.6,364.5 L351.9,365.0 L353.1,365.4 L354.3,365.9 L355.6,366.4    L356.8,366.9 L358.0,367.4 L359.3,367.9 L360.5,368.4 L361.7,368.9 L363.0,369.4 L364.2,369.9 L365.4,370.4    L366.7,370.9 L367.9,371.4 L369.2,371.9 L370.4,372.4 L371.6,372.9 L372.9,373.4 L374.1,373.9 L375.3,374.4    L376.6,374.9 L377.8,375.4 L379.0,375.9 L380.3,376.3 L381.5,376.8 L382.7,377.3 L384.0,377.8 L385.2,378.3    L386.4,378.8 L387.7,379.3 L388.9,379.8 L390.1,380.3 L391.4,380.8 L392.6,381.3 L393.9,381.8 L395.1,382.3    L396.3,382.8 L397.6,383.3 L398.8,383.8 L400.0,384.3 L401.3,384.8 L402.5,385.3 L403.7,385.8 L405.0,386.3    L406.2,386.8 L407.4,387.3 L408.7,387.7 L409.9,388.2 L411.1,388.7 L412.4,389.2 L413.6,389.7 L414.9,390.2    L416.1,390.7 L417.3,391.2 L418.6,391.7 L419.8,392.2 L421.0,392.7 L422.3,393.2 L423.5,393.7 L424.7,394.2    L426.0,394.7 L427.2,395.2 L428.4,395.7 L429.7,396.2 L430.9,396.7 L432.1,397.2 L433.4,397.7 L434.6,398.2    L435.8,398.7 L437.1,399.1 L438.3,399.6 L439.6,400.1 L440.8,400.6 L442.0,401.1 L443.3,401.6 L444.5,402.1    L445.7,402.6 L447.0,403.1 L448.2,403.6 L449.4,404.1 L450.7,404.6 L451.9,405.1 L453.1,405.6 L454.4,406.1    L455.6,406.6 L456.8,407.1 L458.1,407.6 L459.3,408.1 L460.5,408.6 L461.8,409.1 L463.0,409.6 L464.3,410.0    L465.5,410.5 L466.7,411.0 L468.0,411.5 L469.2,412.0 L470.4,412.5 L471.7,413.0 L472.9,413.5 L474.1,414.0    L475.4,414.5 L476.6,415.0 L477.8,415.5 L479.1,416.0 L480.3,416.5 L481.5,417.0 L482.8,417.5 L484.0,418.0    L485.2,418.5 L486.5,419.0 L487.7,419.5 L489.0,420.0 L490.2,420.5 L491.4,421.0 L492.7,421.4 L493.9,421.9    L495.1,422.4 L496.4,422.9 L497.6,423.4 L498.8,423.9 L500.1,424.4 L501.3,424.9 L502.5,425.4 L503.8,425.9    L505.0,426.4 L506.2,426.9 L507.5,427.4 L508.7,427.9 L510.0,428.4 L511.2,428.9 L512.4,429.4 L513.7,429.9    L514.9,430.4 L516.1,430.9 L517.4,431.4 L518.6,431.9 L519.8,432.4 L521.1,432.8 L522.3,433.3 L523.5,433.8    L524.8,434.3 L526.0,434.8 L527.2,435.3 L528.5,435.8 L529.7,436.3 L530.9,436.8 L532.2,437.3 L533.4,437.8    L534.7,438.3 L535.9,438.8 L537.1,439.3 L538.4,439.8 L539.6,440.3 L540.8,440.8 L542.1,441.3 L543.3,441.8    L544.5,442.3 L545.8,442.8 L547.0,443.3 L548.2,443.7 L549.5,444.2 L550.7,444.7 L551.9,445.2 L553.2,445.7    L554.4,446.2 L555.6,446.7 L556.9,447.2 L558.1,447.7 L559.4,448.2 L560.6,448.7 L561.8,449.2 L563.1,449.7    L564.3,450.2 L565.5,450.7 L566.8,451.2 L568.0,451.7 L569.2,452.2 L570.5,452.7 L571.7,453.2 L572.9,453.7    L574.2,454.2 L575.4,454.7 L576.6,455.1 L577.9,455.6 L579.1,456.1 L580.3,456.6 L581.6,457.1 L582.8,457.6    L584.1,458.1 L585.3,458.6 L586.5,459.1 L587.8,459.6 L589.0,460.1 L590.2,460.6 L591.5,461.1 L592.7,461.6    L593.9,462.1 L595.2,462.6 L596.4,463.1 L597.6,463.6 L598.9,464.1 L600.1,464.6 L601.3,465.1 L602.6,465.6    L603.8,466.1 L605.1,466.5 L606.3,467.0 L607.5,467.5 L608.8,468.0 L610.0,468.5 L611.2,469.0 L612.5,469.5    L613.7,470.0 L614.9,470.5 L616.2,471.0 L617.4,471.5 L618.6,472.0 L619.9,472.5 L621.1,473.0 L622.3,473.5    L623.6,474.0 L624.8,474.5 L626.0,475.0 L627.3,475.5 L628.5,476.0 L629.8,476.5 L631.0,477.0 L632.2,477.4    L633.5,477.9 L634.7,478.4 L635.9,478.9 L637.2,479.4 L638.4,479.9 L639.6,480.4 L640.9,480.9 L642.1,481.4    L643.3,481.9 L644.6,482.4 L645.8,482.9 L647.0,483.4 L648.3,483.9 L649.5,484.4 L650.7,484.9 L652.0,485.4    L653.2,485.9 L654.5,486.4 L655.7,486.9 L656.9,487.4 L658.2,487.9 L659.4,488.4 L660.6,488.8 L661.9,489.3    L663.1,489.8 L664.3,490.3 L665.6,490.8 L666.8,491.3 L668.0,491.8 L669.3,492.3 L670.5,492.8 L671.7,493.3    L673.0,493.8 L674.2,494.3 L675.5,494.8 L676.7,495.3 L677.9,495.8 L679.2,496.3 L680.4,496.8 L681.6,497.3    L682.9,497.8 L684.1,498.3 L685.3,498.8 L686.6,499.3 L687.8,499.8 L689.0,500.2 L690.3,500.7 L691.5,501.2    L692.7,501.7 L694.0,502.2 L695.2,502.7 L696.4,503.2 L697.7,503.7 L698.9,504.2 L700.2,504.7 L701.4,505.2    L702.6,505.7 L703.9,506.2 L705.1,506.7 L706.3,507.2 L707.6,507.7 L708.8,508.2 L710.0,508.7 L711.3,509.2    L712.5,509.7 L713.7,510.2 L715.0,510.7 L716.2,511.1 L717.4,511.6 L718.7,512.1 L719.9,512.6 L721.1,513.1    L722.4,513.6 L723.6,514.1 L724.9,514.6 L726.1,515.1 L727.3,515.6 L728.6,516.1 L729.8,516.6 L731.0,517.1    L732.3,517.6 L733.5,518.1 L734.7,518.6 L736.0,519.1 L737.2,519.6 L738.4,520.1 L739.7,520.6 L740.9,521.1    L742.1,521.6 L743.4,522.1 L744.6,522.5 L745.8,523.0 L747.1,523.5 L748.3,524.0 L749.6,524.5 L750.8,525.0    L752.0,525.5 L753.3,526.0 L754.5,526.5 L755.7,527.0 L757.0,527.5 L758.2,528.0 "
       id="path3997" />
  </g>
  <g
     style="fill:none; color:blue; stroke:currentColor; stroke-width:5.00; stroke-linecap:butt; stroke-linejoin:miter"
     id="g3999" />
  <g
     style="fill:none; color:black; stroke:currentColor; stroke-width:5.00; stroke-linecap:butt; stroke-linejoin:miter"
     id="g4001">
    <g
       transform="translate(325.6,150.4)"
       style="stroke:none; fill:black; font-family:Arial; font-size:24.00pt; text-anchor:end"
       id="g4003">
      <text
         id="text4005">
        <tspan
           id="tspan4007">α=2, β=1</tspan>
      </text>
    </g>
  </g>
  <g
     style="fill:none; color:blue; stroke:currentColor; stroke-width:5.00; stroke-linecap:butt; stroke-linejoin:miter"
     id="g4009">
    <path
       stroke="rgb(  0,   0,   0)"
       d="M342.3,141.4 L427.1,141.4 M141.9,528.0 L143.1,527.5 L144.4,527.0 L145.6,526.5 L146.8,526.0 L148.1,525.5    L149.3,525.0 L150.5,524.5 L151.8,524.0 L153.0,523.5 L154.3,523.0 L155.5,522.5 L156.7,522.1 L158.0,521.6    L159.2,521.1 L160.4,520.6 L161.7,520.1 L162.9,519.6 L164.1,519.1 L165.4,518.6 L166.6,518.1 L167.8,517.6    L169.1,517.1 L170.3,516.6 L171.5,516.1 L172.8,515.6 L174.0,515.1 L175.2,514.6 L176.5,514.1 L177.7,513.6    L179.0,513.1 L180.2,512.6 L181.4,512.1 L182.7,511.6 L183.9,511.1 L185.1,510.7 L186.4,510.2 L187.6,509.7    L188.8,509.2 L190.1,508.7 L191.3,508.2 L192.5,507.7 L193.8,507.2 L195.0,506.7 L196.2,506.2 L197.5,505.7    L198.7,505.2 L199.9,504.7 L201.2,504.2 L202.4,503.7 L203.7,503.2 L204.9,502.7 L206.1,502.2 L207.4,501.7    L208.6,501.2 L209.8,500.7 L211.1,500.2 L212.3,499.8 L213.5,499.3 L214.8,498.8 L216.0,498.3 L217.2,497.8    L218.5,497.3 L219.7,496.8 L220.9,496.3 L222.2,495.8 L223.4,495.3 L224.6,494.8 L225.9,494.3 L227.1,493.8    L228.4,493.3 L229.6,492.8 L230.8,492.3 L232.1,491.8 L233.3,491.3 L234.5,490.8 L235.8,490.3 L237.0,489.8    L238.2,489.3 L239.5,488.8 L240.7,488.4 L241.9,487.9 L243.2,487.4 L244.4,486.9 L245.6,486.4 L246.9,485.9    L248.1,485.4 L249.4,484.9 L250.6,484.4 L251.8,483.9 L253.1,483.4 L254.3,482.9 L255.5,482.4 L256.8,481.9    L258.0,481.4 L259.2,480.9 L260.5,480.4 L261.7,479.9 L262.9,479.4 L264.2,478.9 L265.4,478.4 L266.6,477.9    L267.9,477.4 L269.1,477.0 L270.3,476.5 L271.6,476.0 L272.8,475.5 L274.1,475.0 L275.3,474.5 L276.5,474.0    L277.8,473.5 L279.0,473.0 L280.2,472.5 L281.5,472.0 L282.7,471.5 L283.9,471.0 L285.2,470.5 L286.4,470.0    L287.6,469.5 L288.9,469.0 L290.1,468.5 L291.3,468.0 L292.6,467.5 L293.8,467.0 L295.0,466.5 L296.3,466.1    L297.5,465.6 L298.8,465.1 L300.0,464.6 L301.2,464.1 L302.5,463.6 L303.7,463.1 L304.9,462.6 L306.2,462.1    L307.4,461.6 L308.6,461.1 L309.9,460.6 L311.1,460.1 L312.3,459.6 L313.6,459.1 L314.8,458.6 L316.0,458.1    L317.3,457.6 L318.5,457.1 L319.8,456.6 L321.0,456.1 L322.2,455.6 L323.5,455.1 L324.7,454.7 L325.9,454.2    L327.2,453.7 L328.4,453.2 L329.6,452.7 L330.9,452.2 L332.1,451.7 L333.3,451.2 L334.6,450.7 L335.8,450.2    L337.0,449.7 L338.3,449.2 L339.5,448.7 L340.7,448.2 L342.0,447.7 L343.2,447.2 L344.5,446.7 L345.7,446.2    L346.9,445.7 L348.2,445.2 L349.4,444.7 L350.6,444.2 L351.9,443.7 L353.1,443.3 L354.3,442.8 L355.6,442.3    L356.8,441.8 L358.0,441.3 L359.3,440.8 L360.5,440.3 L361.7,439.8 L363.0,439.3 L364.2,438.8 L365.4,438.3    L366.7,437.8 L367.9,437.3 L369.2,436.8 L370.4,436.3 L371.6,435.8 L372.9,435.3 L374.1,434.8 L375.3,434.3    L376.6,433.8 L377.8,433.3 L379.0,432.8 L380.3,432.4 L381.5,431.9 L382.7,431.4 L384.0,430.9 L385.2,430.4    L386.4,429.9 L387.7,429.4 L388.9,428.9 L390.1,428.4 L391.4,427.9 L392.6,427.4 L393.9,426.9 L395.1,426.4    L396.3,425.9 L397.6,425.4 L398.8,424.9 L400.0,424.4 L401.3,423.9 L402.5,423.4 L403.7,422.9 L405.0,422.4    L406.2,421.9 L407.4,421.4 L408.7,421.0 L409.9,420.5 L411.1,420.0 L412.4,419.5 L413.6,419.0 L414.9,418.5    L416.1,418.0 L417.3,417.5 L418.6,417.0 L419.8,416.5 L421.0,416.0 L422.3,415.5 L423.5,415.0 L424.7,414.5    L426.0,414.0 L427.2,413.5 L428.4,413.0 L429.7,412.5 L430.9,412.0 L432.1,411.5 L433.4,411.0 L434.6,410.5    L435.8,410.0 L437.1,409.6 L438.3,409.1 L439.6,408.6 L440.8,408.1 L442.0,407.6 L443.3,407.1 L444.5,406.6    L445.7,406.1 L447.0,405.6 L448.2,405.1 L449.4,404.6 L450.7,404.1 L451.9,403.6 L453.1,403.1 L454.4,402.6    L455.6,402.1 L456.8,401.6 L458.1,401.1 L459.3,400.6 L460.5,400.1 L461.8,399.6 L463.0,399.1 L464.3,398.7    L465.5,398.2 L466.7,397.7 L468.0,397.2 L469.2,396.7 L470.4,396.2 L471.7,395.7 L472.9,395.2 L474.1,394.7    L475.4,394.2 L476.6,393.7 L477.8,393.2 L479.1,392.7 L480.3,392.2 L481.5,391.7 L482.8,391.2 L484.0,390.7    L485.2,390.2 L486.5,389.7 L487.7,389.2 L489.0,388.7 L490.2,388.2 L491.4,387.7 L492.7,387.3 L493.9,386.8    L495.1,386.3 L496.4,385.8 L497.6,385.3 L498.8,384.8 L500.1,384.3 L501.3,383.8 L502.5,383.3 L503.8,382.8    L505.0,382.3 L506.2,381.8 L507.5,381.3 L508.7,380.8 L510.0,380.3 L511.2,379.8 L512.4,379.3 L513.7,378.8    L514.9,378.3 L516.1,377.8 L517.4,377.3 L518.6,376.8 L519.8,376.3 L521.1,375.9 L522.3,375.4 L523.5,374.9    L524.8,374.4 L526.0,373.9 L527.2,373.4 L528.5,372.9 L529.7,372.4 L530.9,371.9 L532.2,371.4 L533.4,370.9    L534.7,370.4 L535.9,369.9 L537.1,369.4 L538.4,368.9 L539.6,368.4 L540.8,367.9 L542.1,367.4 L543.3,366.9    L544.5,366.4 L545.8,365.9 L547.0,365.4 L548.2,365.0 L549.5,364.5 L550.7,364.0 L551.9,363.5 L553.2,363.0    L554.4,362.5 L555.6,362.0 L556.9,361.5 L558.1,361.0 L559.4,360.5 L560.6,360.0 L561.8,359.5 L563.1,359.0    L564.3,358.5 L565.5,358.0 L566.8,357.5 L568.0,357.0 L569.2,356.5 L570.5,356.0 L571.7,355.5 L572.9,355.0    L574.2,354.5 L575.4,354.0 L576.6,353.6 L577.9,353.1 L579.1,352.6 L580.3,352.1 L581.6,351.6 L582.8,351.1    L584.1,350.6 L585.3,350.1 L586.5,349.6 L587.8,349.1 L589.0,348.6 L590.2,348.1 L591.5,347.6 L592.7,347.1    L593.9,346.6 L595.2,346.1 L596.4,345.6 L597.6,345.1 L598.9,344.6 L600.1,344.1 L601.3,343.6 L602.6,343.1    L603.8,342.6 L605.1,342.2 L606.3,341.7 L607.5,341.2 L608.8,340.7 L610.0,340.2 L611.2,339.7 L612.5,339.2    L613.7,338.7 L614.9,338.2 L616.2,337.7 L617.4,337.2 L618.6,336.7 L619.9,336.2 L621.1,335.7 L622.3,335.2    L623.6,334.7 L624.8,334.2 L626.0,333.7 L627.3,333.2 L628.5,332.7 L629.8,332.2 L631.0,331.7 L632.2,331.3    L633.5,330.8 L634.7,330.3 L635.9,329.8 L637.2,329.3 L638.4,328.8 L639.6,328.3 L640.9,327.8 L642.1,327.3    L643.3,326.8 L644.6,326.3 L645.8,325.8 L647.0,325.3 L648.3,324.8 L649.5,324.3 L650.7,323.8 L652.0,323.3    L653.2,322.8 L654.5,322.3 L655.7,321.8 L656.9,321.3 L658.2,320.8 L659.4,320.3 L660.6,319.9 L661.9,319.4    L663.1,318.9 L664.3,318.4 L665.6,317.9 L666.8,317.4 L668.0,316.9 L669.3,316.4 L670.5,315.9 L671.7,315.4    L673.0,314.9 L674.2,314.4 L675.5,313.9 L676.7,313.4 L677.9,312.9 L679.2,312.4 L680.4,311.9 L681.6,311.4    L682.9,310.9 L684.1,310.4 L685.3,309.9 L686.6,309.4 L687.8,308.9 L689.0,308.5 L690.3,308.0 L691.5,307.5    L692.7,307.0 L694.0,306.5 L695.2,306.0 L696.4,305.5 L697.7,305.0 L698.9,304.5 L700.2,304.0 L701.4,303.5    L702.6,303.0 L703.9,302.5 L705.1,302.0 L706.3,301.5 L707.6,301.0 L708.8,300.5 L710.0,300.0 L711.3,299.5    L712.5,299.0 L713.7,298.5 L715.0,298.0 L716.2,297.6 L717.4,297.1 L718.7,296.6 L719.9,296.1 L721.1,295.6    L722.4,295.1 L723.6,294.6 L724.9,294.1 L726.1,293.6 L727.3,293.1 L728.6,292.6 L729.8,292.1 L731.0,291.6    L732.3,291.1 L733.5,290.6 L734.7,290.1 L736.0,289.6 L737.2,289.1 L738.4,288.6 L739.7,288.1 L740.9,287.6    L742.1,287.1 L743.4,286.6 L744.6,286.2 L745.8,285.7 L747.1,285.2 L748.3,284.7 L749.6,284.2 L750.8,283.7    L752.0,283.2 L753.3,282.7 L754.5,282.2 L755.7,281.7 L757.0,281.2 L758.2,280.7 "
       id="path4011" />
  </g>
  <g
     style="fill:none; color:cyan; stroke:currentColor; stroke-width:5.00; stroke-linecap:butt; stroke-linejoin:miter"
     id="g4013" />
  <g
     style="fill:none; color:black; stroke:currentColor; stroke-width:5.00; stroke-linecap:butt; stroke-linejoin:miter"
     id="g4015">
    <g
       transform="translate(325.6,186.4)"
       style="stroke:none; fill:black; font-family:Arial; font-size:24.00pt; text-anchor:end"
       id="g4017">
      <text
         id="text4019">
        <tspan
           id="tspan4021">α=10, β=2</tspan>
      </text>
    </g>
  </g>
  <g
     style="fill:none; color:cyan; stroke:currentColor; stroke-width:5.00; stroke-linecap:butt; stroke-linejoin:miter"
     id="g4023">
    <path
       stroke="rgb(  0,   0, 255)"
       d="M342.3,177.4 L427.1,177.4 M141.9,528.0 L143.1,528.0 L144.4,528.0 L145.6,527.9 L146.8,527.9 L148.1,527.9    L149.3,527.8 L150.5,527.7 L151.8,527.6 L153.0,527.5 L154.3,527.4 L155.5,527.3 L156.7,527.2 L158.0,527.0    L159.2,526.9 L160.4,526.7 L161.7,526.5 L162.9,526.3 L164.1,526.1 L165.4,525.9 L166.6,525.7 L167.8,525.5    L169.1,525.2 L170.3,525.0 L171.5,524.7 L172.8,524.5 L174.0,524.2 L175.2,523.9 L176.5,523.6 L177.7,523.3    L179.0,523.0 L180.2,522.6 L181.4,522.3 L182.7,521.9 L183.9,521.6 L185.1,521.2 L186.4,520.8 L187.6,520.4    L188.8,520.1 L190.1,519.6 L191.3,519.2 L192.5,518.8 L193.8,518.4 L195.0,517.9 L196.2,517.5 L197.5,517.0    L198.7,516.6 L199.9,516.1 L201.2,515.6 L202.4,515.1 L203.7,514.6 L204.9,514.1 L206.1,513.6 L207.4,513.0    L208.6,512.5 L209.8,512.0 L211.1,511.4 L212.3,510.9 L213.5,510.3 L214.8,509.7 L216.0,509.1 L217.2,508.5    L218.5,507.9 L219.7,507.3 L220.9,506.7 L222.2,506.1 L223.4,505.5 L224.6,504.8 L225.9,504.2 L227.1,503.6    L228.4,502.9 L229.6,502.2 L230.8,501.6 L232.1,500.9 L233.3,500.2 L234.5,499.5 L235.8,498.8 L237.0,498.1    L238.2,497.4 L239.5,496.7 L240.7,496.0 L241.9,495.2 L243.2,494.5 L244.4,493.8 L245.6,493.0 L246.9,492.3    L248.1,491.5 L249.4,490.8 L250.6,490.0 L251.8,489.2 L253.1,488.4 L254.3,487.7 L255.5,486.9 L256.8,486.1    L258.0,485.3 L259.2,484.5 L260.5,483.6 L261.7,482.8 L262.9,482.0 L264.2,481.2 L265.4,480.4 L266.6,479.5    L267.9,478.7 L269.1,477.8 L270.3,477.0 L271.6,476.1 L272.8,475.3 L274.1,474.4 L275.3,473.5 L276.5,472.7    L277.8,471.8 L279.0,470.9 L280.2,470.0 L281.5,469.1 L282.7,468.2 L283.9,467.4 L285.2,466.5 L286.4,465.6    L287.6,464.6 L288.9,463.7 L290.1,462.8 L291.3,461.9 L292.6,461.0 L293.8,460.1 L295.0,459.1 L296.3,458.2    L297.5,457.3 L298.8,456.3 L300.0,455.4 L301.2,454.5 L302.5,453.5 L303.7,452.6 L304.9,451.6 L306.2,450.7    L307.4,449.7 L308.6,448.8 L309.9,447.8 L311.1,446.9 L312.3,445.9 L313.6,444.9 L314.8,444.0 L316.0,443.0    L317.3,442.0 L318.5,441.1 L319.8,440.1 L321.0,439.1 L322.2,438.1 L323.5,437.2 L324.7,436.2 L325.9,435.2    L327.2,434.2 L328.4,433.2 L329.6,432.3 L330.9,431.3 L332.1,430.3 L333.3,429.3 L334.6,428.3 L335.8,427.3    L337.0,426.3 L338.3,425.4 L339.5,424.4 L340.7,423.4 L342.0,422.4 L343.2,421.4 L344.5,420.4 L345.7,419.4    L346.9,418.4 L348.2,417.4 L349.4,416.4 L350.6,415.4 L351.9,414.5 L353.1,413.5 L354.3,412.5 L355.6,411.5    L356.8,410.5 L358.0,409.5 L359.3,408.5 L360.5,407.5 L361.7,406.5 L363.0,405.6 L364.2,404.6 L365.4,403.6    L366.7,402.6 L367.9,401.6 L369.2,400.6 L370.4,399.7 L371.6,398.7 L372.9,397.7 L374.1,396.7 L375.3,395.8    L376.6,394.8 L377.8,393.8 L379.0,392.9 L380.3,391.9 L381.5,390.9 L382.7,390.0 L384.0,389.0 L385.2,388.0    L386.4,387.1 L387.7,386.1 L388.9,385.2 L390.1,384.2 L391.4,383.3 L392.6,382.3 L393.9,381.4 L395.1,380.5    L396.3,379.5 L397.6,378.6 L398.8,377.7 L400.0,376.7 L401.3,375.8 L402.5,374.9 L403.7,374.0 L405.0,373.0    L406.2,372.1 L407.4,371.2 L408.7,370.3 L409.9,369.4 L411.1,368.5 L412.4,367.6 L413.6,366.7 L414.9,365.9    L416.1,365.0 L417.3,364.1 L418.6,363.2 L419.8,362.4 L421.0,361.5 L422.3,360.6 L423.5,359.8 L424.7,358.9    L426.0,358.1 L427.2,357.2 L428.4,356.4 L429.7,355.5 L430.9,354.7 L432.1,353.9 L433.4,353.1 L434.6,352.3    L435.8,351.4 L437.1,350.6 L438.3,349.8 L439.6,349.1 L440.8,348.3 L442.0,347.5 L443.3,346.7 L444.5,345.9    L445.7,345.2 L447.0,344.4 L448.2,343.6 L449.4,342.9 L450.7,342.2 L451.9,341.4 L453.1,340.7 L454.4,340.0    L455.6,339.2 L456.8,338.5 L458.1,337.8 L459.3,337.1 L460.5,336.4 L461.8,335.7 L463.0,335.1 L464.3,334.4    L465.5,333.7 L466.7,333.1 L468.0,332.4 L469.2,331.8 L470.4,331.1 L471.7,330.5 L472.9,329.9 L474.1,329.3    L475.4,328.6 L476.6,328.0 L477.8,327.4 L479.1,326.9 L480.3,326.3 L481.5,325.7 L482.8,325.1 L484.0,324.6    L485.2,324.0 L486.5,323.5 L487.7,323.0 L489.0,322.4 L490.2,321.9 L491.4,321.4 L492.7,320.9 L493.9,320.4    L495.1,319.9 L496.4,319.5 L497.6,319.0 L498.8,318.5 L500.1,318.1 L501.3,317.7 L502.5,317.2 L503.8,316.8    L505.0,316.4 L506.2,316.0 L507.5,315.6 L508.7,315.2 L510.0,314.8 L511.2,314.5 L512.4,314.1 L513.7,313.8    L514.9,313.4 L516.1,313.1 L517.4,312.8 L518.6,312.5 L519.8,312.2 L521.1,311.9 L522.3,311.6 L523.5,311.4    L524.8,311.1 L526.0,310.9 L527.2,310.6 L528.5,310.4 L529.7,310.2 L530.9,310.0 L532.2,309.8 L533.4,309.6    L534.7,309.4 L535.9,309.3 L537.1,309.1 L538.4,309.0 L539.6,308.8 L540.8,308.7 L542.1,308.6 L543.3,308.5    L544.5,308.4 L545.8,308.4 L547.0,308.3 L548.2,308.3 L549.5,308.2 L550.7,308.2 L551.9,308.2 L553.2,308.2    L554.4,308.2 L555.6,308.2 L556.9,308.2 L558.1,308.3 L559.4,308.3 L560.6,308.4 L561.8,308.5 L563.1,308.6    L564.3,308.7 L565.5,308.8 L566.8,309.0 L568.0,309.1 L569.2,309.3 L570.5,309.4 L571.7,309.6 L572.9,309.8    L574.2,310.0 L575.4,310.3 L576.6,310.5 L577.9,310.7 L579.1,311.0 L580.3,311.3 L581.6,311.6 L582.8,311.9    L584.1,312.2 L585.3,312.5 L586.5,312.9 L587.8,313.2 L589.0,313.6 L590.2,314.0 L591.5,314.4 L592.7,314.8    L593.9,315.2 L595.2,315.7 L596.4,316.1 L597.6,316.6 L598.9,317.1 L600.1,317.6 L601.3,318.1 L602.6,318.7    L603.8,319.2 L605.1,319.8 L606.3,320.3 L607.5,320.9 L608.8,321.5 L610.0,322.2 L611.2,322.8 L612.5,323.4    L613.7,324.1 L614.9,324.8 L616.2,325.5 L617.4,326.2 L618.6,326.9 L619.9,327.7 L621.1,328.4 L622.3,329.2    L623.6,330.0 L624.8,330.8 L626.0,331.7 L627.3,332.5 L628.5,333.3 L629.8,334.2 L631.0,335.1 L632.2,336.0    L633.5,336.9 L634.7,337.9 L635.9,338.8 L637.2,339.8 L638.4,340.8 L639.6,341.8 L640.9,342.8 L642.1,343.9    L643.3,344.9 L644.6,346.0 L645.8,347.1 L647.0,348.2 L648.3,349.3 L649.5,350.5 L650.7,351.6 L652.0,352.8    L653.2,354.0 L654.5,355.2 L655.7,356.5 L656.9,357.7 L658.2,359.0 L659.4,360.3 L660.6,361.6 L661.9,362.9    L663.1,364.2 L664.3,365.6 L665.6,367.0 L666.8,368.4 L668.0,369.8 L669.3,371.2 L670.5,372.7 L671.7,374.2    L673.0,375.6 L674.2,377.2 L675.5,378.7 L676.7,380.2 L677.9,381.8 L679.2,383.4 L680.4,385.0 L681.6,386.6    L682.9,388.3 L684.1,389.9 L685.3,391.6 L686.6,393.3 L687.8,395.0 L689.0,396.8 L690.3,398.5 L691.5,400.3    L692.7,402.1 L694.0,403.9 L695.2,405.8 L696.4,407.6 L697.7,409.5 L698.9,411.4 L700.2,413.3 L701.4,415.3    L702.6,417.2 L703.9,419.2 L705.1,421.2 L706.3,423.2 L707.6,425.3 L708.8,427.4 L710.0,429.5 L711.3,431.6    L712.5,433.7 L713.7,435.8 L715.0,438.0 L716.2,440.2 L717.4,442.4 L718.7,444.7 L719.9,446.9 L721.1,449.2    L722.4,451.5 L723.6,453.8 L724.9,456.2 L726.1,458.5 L727.3,460.9 L728.6,463.3 L729.8,465.8 L731.0,468.2    L732.3,470.7 L733.5,473.2 L734.7,475.7 L736.0,478.3 L737.2,480.8 L738.4,483.4 L739.7,486.0 L740.9,488.7    L742.1,491.3 L743.4,494.0 L744.6,496.7 L745.8,499.4 L747.1,502.2 L748.3,505.0 L749.6,507.8 L750.8,510.6    L752.0,513.4 L753.3,516.3 L754.5,519.2 L755.7,522.1 L757.0,525.0 L758.2,528.0 "
       id="path4025" />
  </g>
  <g
     style="fill:none; color:#157545; stroke:currentColor; stroke-width:5.00; stroke-linecap:butt; stroke-linejoin:miter"
     id="g4027" />
  <g
     style="fill:none; color:black; stroke:currentColor; stroke-width:5.00; stroke-linecap:butt; stroke-linejoin:miter"
     id="g4029">
    <g
       transform="translate(325.6,222.4)"
       style="stroke:none; fill:black; font-family:Arial; font-size:24.00pt; text-anchor:end"
       id="g4031">
      <text
         id="text4033">
        <tspan
           id="tspan4035">α=20, β=1</tspan>
      </text>
    </g>
  </g>
  <g
     style="fill:none; color:#157545; stroke:currentColor; stroke-width:5.00; stroke-linecap:butt; stroke-linejoin:miter"
     id="g4037">
    <path
       stroke="rgb(  0, 255,   0)"
       d="M342.3,213.4 L427.1,213.4 M141.9,528.0 L143.1,528.0 L144.4,528.0 L145.6,528.0 L146.8,528.0 L148.1,528.0    L149.3,528.0 L150.5,528.0 L151.8,528.0 L153.0,528.0 L154.3,528.0 L155.5,528.0 L156.7,528.0 L158.0,528.0    L159.2,528.0 L160.4,528.0 L161.7,528.0 L162.9,528.0 L164.1,528.0 L165.4,528.0 L166.6,528.0 L167.8,528.0    L169.1,528.0 L170.3,528.0 L171.5,527.9 L172.8,527.9 L174.0,527.9 L175.2,527.9 L176.5,527.9 L177.7,527.9    L179.0,527.9 L180.2,527.9 L181.4,527.9 L182.7,527.9 L183.9,527.8 L185.1,527.8 L186.4,527.8 L187.6,527.8    L188.8,527.8 L190.1,527.8 L191.3,527.7 L192.5,527.7 L193.8,527.7 L195.0,527.7 L196.2,527.7 L197.5,527.6    L198.7,527.6 L199.9,527.6 L201.2,527.6 L202.4,527.5 L203.7,527.5 L204.9,527.5 L206.1,527.4 L207.4,527.4    L208.6,527.4 L209.8,527.3 L211.1,527.3 L212.3,527.3 L213.5,527.2 L214.8,527.2 L216.0,527.1 L217.2,527.1    L218.5,527.1 L219.7,527.0 L220.9,527.0 L222.2,526.9 L223.4,526.9 L224.6,526.8 L225.9,526.7 L227.1,526.7    L228.4,526.6 L229.6,526.6 L230.8,526.5 L232.1,526.5 L233.3,526.4 L234.5,526.3 L235.8,526.3 L237.0,526.2    L238.2,526.1 L239.5,526.0 L240.7,526.0 L241.9,525.9 L243.2,525.8 L244.4,525.7 L245.6,525.6 L246.9,525.6    L248.1,525.5 L249.4,525.4 L250.6,525.3 L251.8,525.2 L253.1,525.1 L254.3,525.0 L255.5,524.9 L256.8,524.8    L258.0,524.7 L259.2,524.6 L260.5,524.5 L261.7,524.4 L262.9,524.3 L264.2,524.1 L265.4,524.0 L266.6,523.9    L267.9,523.8 L269.1,523.7 L270.3,523.5 L271.6,523.4 L272.8,523.3 L274.1,523.1 L275.3,523.0 L276.5,522.8    L277.8,522.7 L279.0,522.6 L280.2,522.4 L281.5,522.3 L282.7,522.1 L283.9,521.9 L285.2,521.8 L286.4,521.6    L287.6,521.5 L288.9,521.3 L290.1,521.1 L291.3,520.9 L292.6,520.8 L293.8,520.6 L295.0,520.4 L296.3,520.2    L297.5,520.0 L298.8,519.8 L300.0,519.7 L301.2,519.5 L302.5,519.3 L303.7,519.1 L304.9,518.8 L306.2,518.6    L307.4,518.4 L308.6,518.2 L309.9,518.0 L311.1,517.8 L312.3,517.5 L313.6,517.3 L314.8,517.1 L316.0,516.8    L317.3,516.6 L318.5,516.4 L319.8,516.1 L321.0,515.9 L322.2,515.6 L323.5,515.4 L324.7,515.1 L325.9,514.8    L327.2,514.6 L328.4,514.3 L329.6,514.0 L330.9,513.7 L332.1,513.5 L333.3,513.2 L334.6,512.9 L335.8,512.6    L337.0,512.3 L338.3,512.0 L339.5,511.7 L340.7,511.4 L342.0,511.1 L343.2,510.8 L344.5,510.4 L345.7,510.1    L346.9,509.8 L348.2,509.5 L349.4,509.1 L350.6,508.8 L351.9,508.4 L353.1,508.1 L354.3,507.7 L355.6,507.4    L356.8,507.0 L358.0,506.7 L359.3,506.3 L360.5,505.9 L361.7,505.6 L363.0,505.2 L364.2,504.8 L365.4,504.4    L366.7,504.0 L367.9,503.6 L369.2,503.2 L370.4,502.8 L371.6,502.4 L372.9,502.0 L374.1,501.5 L375.3,501.1    L376.6,500.7 L377.8,500.3 L379.0,499.8 L380.3,499.4 L381.5,498.9 L382.7,498.5 L384.0,498.0 L385.2,497.6    L386.4,497.1 L387.7,496.6 L388.9,496.2 L390.1,495.7 L391.4,495.2 L392.6,494.7 L393.9,494.2 L395.1,493.7    L396.3,493.2 L397.6,492.7 L398.8,492.2 L400.0,491.7 L401.3,491.1 L402.5,490.6 L403.7,490.1 L405.0,489.5    L406.2,489.0 L407.4,488.4 L408.7,487.9 L409.9,487.3 L411.1,486.8 L412.4,486.2 L413.6,485.6 L414.9,485.0    L416.1,484.4 L417.3,483.9 L418.6,483.3 L419.8,482.7 L421.0,482.1 L422.3,481.4 L423.5,480.8 L424.7,480.2    L426.0,479.6 L427.2,478.9 L428.4,478.3 L429.7,477.6 L430.9,477.0 L432.1,476.3 L433.4,475.7 L434.6,475.0    L435.8,474.3 L437.1,473.7 L438.3,473.0 L439.6,472.3 L440.8,471.6 L442.0,470.9 L443.3,470.2 L444.5,469.5    L445.7,468.7 L447.0,468.0 L448.2,467.3 L449.4,466.5 L450.7,465.8 L451.9,465.1 L453.1,464.3 L454.4,463.5    L455.6,462.8 L456.8,462.0 L458.1,461.2 L459.3,460.4 L460.5,459.6 L461.8,458.8 L463.0,458.0 L464.3,457.2    L465.5,456.4 L466.7,455.6 L468.0,454.8 L469.2,453.9 L470.4,453.1 L471.7,452.2 L472.9,451.4 L474.1,450.5    L475.4,449.6 L476.6,448.8 L477.8,447.9 L479.1,447.0 L480.3,446.1 L481.5,445.2 L482.8,444.3 L484.0,443.4    L485.2,442.5 L486.5,441.5 L487.7,440.6 L489.0,439.7 L490.2,438.7 L491.4,437.8 L492.7,436.8 L493.9,435.9    L495.1,434.9 L496.4,433.9 L497.6,432.9 L498.8,431.9 L500.1,430.9 L501.3,429.9 L502.5,428.9 L503.8,427.9    L505.0,426.8 L506.2,425.8 L507.5,424.8 L508.7,423.7 L510.0,422.7 L511.2,421.6 L512.4,420.5 L513.7,419.4    L514.9,418.4 L516.1,417.3 L517.4,416.2 L518.6,415.1 L519.8,413.9 L521.1,412.8 L522.3,411.7 L523.5,410.6    L524.8,409.4 L526.0,408.3 L527.2,407.1 L528.5,405.9 L529.7,404.8 L530.9,403.6 L532.2,402.4 L533.4,401.2    L534.7,400.0 L535.9,398.8 L537.1,397.6 L538.4,396.3 L539.6,395.1 L540.8,393.9 L542.1,392.6 L543.3,391.4    L544.5,390.1 L545.8,388.8 L547.0,387.5 L548.2,386.2 L549.5,384.9 L550.7,383.6 L551.9,382.3 L553.2,381.0    L554.4,379.7 L555.6,378.3 L556.9,377.0 L558.1,375.7 L559.4,374.3 L560.6,372.9 L561.8,371.5 L563.1,370.2    L564.3,368.8 L565.5,367.4 L566.8,366.0 L568.0,364.5 L569.2,363.1 L570.5,361.7 L571.7,360.2 L572.9,358.8    L574.2,357.3 L575.4,355.9 L576.6,354.4 L577.9,352.9 L579.1,351.4 L580.3,349.9 L581.6,348.4 L582.8,346.9    L584.1,345.4 L585.3,343.8 L586.5,342.3 L587.8,340.7 L589.0,339.2 L590.2,337.6 L591.5,336.0 L592.7,334.4    L593.9,332.8 L595.2,331.2 L596.4,329.6 L597.6,328.0 L598.9,326.4 L600.1,324.7 L601.3,323.1 L602.6,321.4    L603.8,319.8 L605.1,318.1 L606.3,316.4 L607.5,314.7 L608.8,313.0 L610.0,311.3 L611.2,309.6 L612.5,307.8    L613.7,306.1 L614.9,304.4 L616.2,302.6 L617.4,300.8 L618.6,299.1 L619.9,297.3 L621.1,295.5 L622.3,293.7    L623.6,291.9 L624.8,290.1 L626.0,288.2 L627.3,286.4 L628.5,284.5 L629.8,282.7 L631.0,280.8 L632.2,278.9    L633.5,277.0 L634.7,275.1 L635.9,273.2 L637.2,271.3 L638.4,269.4 L639.6,267.5 L640.9,265.5 L642.1,263.6    L643.3,261.6 L644.6,259.6 L645.8,257.6 L647.0,255.7 L648.3,253.7 L649.5,251.6 L650.7,249.6 L652.0,247.6    L653.2,245.5 L654.5,243.5 L655.7,241.4 L656.9,239.4 L658.2,237.3 L659.4,235.2 L660.6,233.1 L661.9,231.0    L663.1,228.8 L664.3,226.7 L665.6,224.6 L666.8,222.4 L668.0,220.3 L669.3,218.1 L670.5,215.9 L671.7,213.7    L673.0,211.5 L674.2,209.3 L675.5,207.1 L676.7,204.8 L677.9,202.6 L679.2,200.3 L680.4,198.1 L681.6,195.8    L682.9,193.5 L684.1,191.2 L685.3,188.9 L686.6,186.6 L687.8,184.3 L689.0,181.9 L690.3,179.6 L691.5,177.2    L692.7,174.9 L694.0,172.5 L695.2,170.1 L696.4,167.7 L697.7,165.3 L698.9,162.8 L700.2,160.4 L701.4,158.0    L702.6,155.5 L703.9,153.0 L705.1,150.6 L706.3,148.1 L707.6,145.6 L708.8,143.1 L710.0,140.5 L711.3,138.0    L712.5,135.5 L713.7,132.9 L715.0,130.3 L716.2,127.8 L717.4,125.2 L718.7,122.6 L719.9,120.0 L721.1,117.4    L722.4,114.7 L723.6,112.1 L724.9,109.4 L726.1,106.8 L727.3,104.1 L728.6,101.4 L729.8,98.7 L731.0,96.0    L732.3,93.3 L733.5,90.5 L734.7,87.8 L736.0,85.0 L737.2,82.2 L738.4,79.5 L739.7,76.7 L740.9,73.9    L742.1,71.1 L743.4,68.2 L744.6,65.4 L745.8,62.5 L747.1,59.7 L748.3,56.8 L749.6,53.9 L750.8,51.0    L752.0,48.1 L753.3,45.2 L754.5,42.3 L755.7,39.3 L757.0,36.4 L758.2,33.4 "
       id="path4039" />
  </g>
  <g
     style="fill:none; color:#000094; stroke:currentColor; stroke-width:5.00; stroke-linecap:butt; stroke-linejoin:miter"
     id="g4041" />
  <g
     style="fill:none; color:black; stroke:currentColor; stroke-width:5.00; stroke-linecap:butt; stroke-linejoin:miter"
     id="g4043">
    <g
       transform="translate(325.6,258.4)"
       style="stroke:none; fill:black; font-family:Arial; font-size:24.00pt; text-anchor:end"
       id="g4045">
      <text
         id="text4047">
        <tspan
           id="tspan4049">α=20, β=20</tspan>
      </text>
    </g>
  </g>
  <g
     style="fill:none; color:#000094; stroke:currentColor; stroke-width:5.00; stroke-linecap:butt; stroke-linejoin:miter"
     id="g4051">
    <path
       stroke="rgb(190, 190, 190)"
       d="M342.3,249.4 L427.1,249.4 M141.9,528.0 L143.1,528.0 L144.4,528.0 L145.6,528.0 L146.8,528.0 L148.1,528.0    L149.3,528.0 L150.5,528.0 L151.8,527.9 L153.0,527.9 L154.3,527.9 L155.5,527.8 L156.7,527.8 L158.0,527.7    L159.2,527.6 L160.4,527.6 L161.7,527.5 L162.9,527.4 L164.1,527.3 L165.4,527.1 L166.6,527.0 L167.8,526.9    L169.1,526.7 L170.3,526.5 L171.5,526.3 L172.8,526.1 L174.0,525.9 L175.2,525.7 L176.5,525.4 L177.7,525.2    L179.0,524.9 L180.2,524.6 L181.4,524.3 L182.7,523.9 L183.9,523.6 L185.1,523.2 L186.4,522.8 L187.6,522.4    L188.8,522.0 L190.1,521.5 L191.3,521.1 L192.5,520.6 L193.8,520.1 L195.0,519.5 L196.2,519.0 L197.5,518.4    L198.7,517.9 L199.9,517.2 L201.2,516.6 L202.4,516.0 L203.7,515.3 L204.9,514.6 L206.1,513.9 L207.4,513.2    L208.6,512.4 L209.8,511.7 L211.1,510.9 L212.3,510.1 L213.5,509.2 L214.8,508.4 L216.0,507.5 L217.2,506.6    L218.5,505.7 L219.7,504.8 L220.9,503.8 L222.2,502.8 L223.4,501.8 L224.6,500.8 L225.9,499.8 L227.1,498.7    L228.4,497.6 L229.6,496.5 L230.8,495.4 L232.1,494.3 L233.3,493.1 L234.5,491.9 L235.8,490.7 L237.0,489.5    L238.2,488.3 L239.5,487.0 L240.7,485.8 L241.9,484.5 L243.2,483.2 L244.4,481.8 L245.6,480.5 L246.9,479.1    L248.1,477.8 L249.4,476.4 L250.6,474.9 L251.8,473.5 L253.1,472.1 L254.3,470.6 L255.5,469.1 L256.8,467.6    L258.0,466.1 L259.2,464.6 L260.5,463.1 L261.7,461.5 L262.9,459.9 L264.2,458.4 L265.4,456.8 L266.6,455.2    L267.9,453.5 L269.1,451.9 L270.3,450.3 L271.6,448.6 L272.8,446.9 L274.1,445.3 L275.3,443.6 L276.5,441.9    L277.8,440.1 L279.0,438.4 L280.2,436.7 L281.5,435.0 L282.7,433.2 L283.9,431.4 L285.2,429.7 L286.4,427.9    L287.6,426.1 L288.9,424.3 L290.1,422.5 L291.3,420.7 L292.6,418.9 L293.8,417.1 L295.0,415.3 L296.3,413.4    L297.5,411.6 L298.8,409.8 L300.0,407.9 L301.2,406.1 L302.5,404.2 L303.7,402.4 L304.9,400.5 L306.2,398.7    L307.4,396.8 L308.6,394.9 L309.9,393.1 L311.1,391.2 L312.3,389.4 L313.6,387.5 L314.8,385.6 L316.0,383.8    L317.3,381.9 L318.5,380.1 L319.8,378.2 L321.0,376.4 L322.2,374.5 L323.5,372.7 L324.7,370.8 L325.9,369.0    L327.2,367.1 L328.4,365.3 L329.6,363.5 L330.9,361.7 L332.1,359.8 L333.3,358.0 L334.6,356.2 L335.8,354.4    L337.0,352.6 L338.3,350.8 L339.5,349.1 L340.7,347.3 L342.0,345.5 L343.2,343.8 L344.5,342.1 L345.7,340.3    L346.9,338.6 L348.2,336.9 L349.4,335.2 L350.6,333.5 L351.9,331.8 L353.1,330.2 L354.3,328.5 L355.6,326.9    L356.8,325.2 L358.0,323.6 L359.3,322.0 L360.5,320.4 L361.7,318.8 L363.0,317.3 L364.2,315.7 L365.4,314.2    L366.7,312.7 L367.9,311.2 L369.2,309.7 L370.4,308.2 L371.6,306.7 L372.9,305.3 L374.1,303.9 L375.3,302.5    L376.6,301.1 L377.8,299.7 L379.0,298.4 L380.3,297.0 L381.5,295.7 L382.7,294.4 L384.0,293.1 L385.2,291.9    L386.4,290.6 L387.7,289.4 L388.9,288.2 L390.1,287.0 L391.4,285.9 L392.6,284.7 L393.9,283.6 L395.1,282.5    L396.3,281.4 L397.6,280.4 L398.8,279.4 L400.0,278.3 L401.3,277.3 L402.5,276.4 L403.7,275.4 L405.0,274.5    L406.2,273.6 L407.4,272.7 L408.7,271.9 L409.9,271.1 L411.1,270.2 L412.4,269.5 L413.6,268.7 L414.9,268.0    L416.1,267.3 L417.3,266.6 L418.6,265.9 L419.8,265.3 L421.0,264.7 L422.3,264.1 L423.5,263.5 L424.7,263.0    L426.0,262.4 L427.2,262.0 L428.4,261.5 L429.7,261.0 L430.9,260.6 L432.1,260.2 L433.4,259.9 L434.6,259.5    L435.8,259.2 L437.1,259.0 L438.3,258.7 L439.6,258.5 L440.8,258.2 L442.0,258.1 L443.3,257.9 L444.5,257.8    L445.7,257.7 L447.0,257.6 L448.2,257.5 L449.4,257.5 L450.7,257.5 L451.9,257.5 L453.1,257.6 L454.4,257.7    L455.6,257.8 L456.8,257.9 L458.1,258.1 L459.3,258.2 L460.5,258.5 L461.8,258.7 L463.0,259.0 L464.3,259.2    L465.5,259.5 L466.7,259.9 L468.0,260.2 L469.2,260.6 L470.4,261.0 L471.7,261.5 L472.9,262.0 L474.1,262.4    L475.4,263.0 L476.6,263.5 L477.8,264.1 L479.1,264.7 L480.3,265.3 L481.5,265.9 L482.8,266.6 L484.0,267.3    L485.2,268.0 L486.5,268.7 L487.7,269.5 L489.0,270.2 L490.2,271.1 L491.4,271.9 L492.7,272.7 L493.9,273.6    L495.1,274.5 L496.4,275.4 L497.6,276.4 L498.8,277.3 L500.1,278.3 L501.3,279.4 L502.5,280.4 L503.8,281.4    L505.0,282.5 L506.2,283.6 L507.5,284.7 L508.7,285.9 L510.0,287.0 L511.2,288.2 L512.4,289.4 L513.7,290.6    L514.9,291.9 L516.1,293.1 L517.4,294.4 L518.6,295.7 L519.8,297.0 L521.1,298.4 L522.3,299.7 L523.5,301.1    L524.8,302.5 L526.0,303.9 L527.2,305.3 L528.5,306.7 L529.7,308.2 L530.9,309.7 L532.2,311.2 L533.4,312.7    L534.7,314.2 L535.9,315.7 L537.1,317.3 L538.4,318.8 L539.6,320.4 L540.8,322.0 L542.1,323.6 L543.3,325.2    L544.5,326.9 L545.8,328.5 L547.0,330.2 L548.2,331.8 L549.5,333.5 L550.7,335.2 L551.9,336.9 L553.2,338.6    L554.4,340.3 L555.6,342.1 L556.9,343.8 L558.1,345.5 L559.4,347.3 L560.6,349.1 L561.8,350.8 L563.1,352.6    L564.3,354.4 L565.5,356.2 L566.8,358.0 L568.0,359.8 L569.2,361.7 L570.5,363.5 L571.7,365.3 L572.9,367.1    L574.2,369.0 L575.4,370.8 L576.6,372.7 L577.9,374.5 L579.1,376.4 L580.3,378.2 L581.6,380.1 L582.8,381.9    L584.1,383.8 L585.3,385.6 L586.5,387.5 L587.8,389.4 L589.0,391.2 L590.2,393.1 L591.5,394.9 L592.7,396.8    L593.9,398.7 L595.2,400.5 L596.4,402.4 L597.6,404.2 L598.9,406.1 L600.1,407.9 L601.3,409.8 L602.6,411.6    L603.8,413.4 L605.1,415.3 L606.3,417.1 L607.5,418.9 L608.8,420.7 L610.0,422.5 L611.2,424.3 L612.5,426.1    L613.7,427.9 L614.9,429.7 L616.2,431.4 L617.4,433.2 L618.6,435.0 L619.9,436.7 L621.1,438.4 L622.3,440.1    L623.6,441.9 L624.8,443.6 L626.0,445.3 L627.3,446.9 L628.5,448.6 L629.8,450.3 L631.0,451.9 L632.2,453.5    L633.5,455.2 L634.7,456.8 L635.9,458.4 L637.2,459.9 L638.4,461.5 L639.6,463.1 L640.9,464.6 L642.1,466.1    L643.3,467.6 L644.6,469.1 L645.8,470.6 L647.0,472.1 L648.3,473.5 L649.5,474.9 L650.7,476.4 L652.0,477.8    L653.2,479.1 L654.5,480.5 L655.7,481.8 L656.9,483.2 L658.2,484.5 L659.4,485.8 L660.6,487.0 L661.9,488.3    L663.1,489.5 L664.3,490.7 L665.6,491.9 L666.8,493.1 L668.0,494.3 L669.3,495.4 L670.5,496.5 L671.7,497.6    L673.0,498.7 L674.2,499.8 L675.5,500.8 L676.7,501.8 L677.9,502.8 L679.2,503.8 L680.4,504.8 L681.6,505.7    L682.9,506.6 L684.1,507.5 L685.3,508.4 L686.6,509.2 L687.8,510.1 L689.0,510.9 L690.3,511.7 L691.5,512.4    L692.7,513.2 L694.0,513.9 L695.2,514.6 L696.4,515.3 L697.7,516.0 L698.9,516.6 L700.2,517.2 L701.4,517.9    L702.6,518.4 L703.9,519.0 L705.1,519.5 L706.3,520.1 L707.6,520.6 L708.8,521.1 L710.0,521.5 L711.3,522.0    L712.5,522.4 L713.7,522.8 L715.0,523.2 L716.2,523.6 L717.4,523.9 L718.7,524.3 L719.9,524.6 L721.1,524.9    L722.4,525.2 L723.6,525.4 L724.9,525.7 L726.1,525.9 L727.3,526.1 L728.6,526.3 L729.8,526.5 L731.0,526.7    L732.3,526.9 L733.5,527.0 L734.7,527.1 L736.0,527.3 L737.2,527.4 L738.4,527.5 L739.7,527.6 L740.9,527.6    L742.1,527.7 L743.4,527.8 L744.6,527.8 L745.8,527.9 L747.1,527.9 L748.3,527.9 L749.6,528.0 L750.8,528.0    L752.0,528.0 L753.3,528.0 L754.5,528.0 L755.7,528.0 L757.0,528.0 L758.2,528.0 "
       id="path4053" />
  </g>
  <g
     style="fill:none; color:#000094; stroke:rgb(190, 190, 190); stroke-width:1.00; stroke-linecap:butt; stroke-linejoin:miter"
     id="g4055" />
  <g
     style="fill:none; color:black; stroke:currentColor; stroke-width:1.00; stroke-linecap:butt; stroke-linejoin:miter"
     id="g4057">
    <path
       d="M141.9,33.4 L141.9,528.0 L758.2,528.0 L758.2,33.4 L141.9,33.4 Z "
       id="path4059" />
  </g>
</svg>
