<?xml version="1.0" encoding="UTF-8" standalone="no"?>
<svg
   xmlns:dc="http://purl.org/dc/elements/1.1/"
   xmlns:cc="http://creativecommons.org/ns#"
   xmlns:rdf="http://www.w3.org/1999/02/22-rdf-syntax-ns#"
   xmlns:svg="http://www.w3.org/2000/svg"
   xmlns="http://www.w3.org/2000/svg"
   xmlns:xlink="http://www.w3.org/1999/xlink"
   xmlns:sodipodi="http://sodipodi.sourceforge.net/DTD/sodipodi-0.dtd"
   xmlns:inkscape="http://www.inkscape.org/namespaces/inkscape"
   width="600"
   height="480"
   viewBox="0 0 600 480"
   id="svg3182"
   version="1.1"
   inkscape:version="0.48.4 r9939"
   sodipodi:docname="inv_gamma_pdf.svg">
  <metadata
     id="metadata3377">
    <rdf:RDF>
      <cc:Work
         rdf:about="">
        <dc:format>image/svg+xml</dc:format>
        <dc:type
           rdf:resource="http://purl.org/dc/dcmitype/StillImage" />
      </cc:Work>
    </rdf:RDF>
  </metadata>
  <defs
     id="defs3375" />
  <sodipodi:namedview
     pagecolor="#ffffff"
     bordercolor="#666666"
     borderopacity="1"
     objecttolerance="10"
     gridtolerance="10"
     guidetolerance="10"
     inkscape:pageopacity="0"
     inkscape:pageshadow="2"
     inkscape:window-width="1366"
     inkscape:window-height="706"
     id="namedview3373"
     showgrid="false"
     inkscape:zoom="1.3906433"
     inkscape:cx="300"
     inkscape:cy="342.23783"
     inkscape:window-x="-8"
     inkscape:window-y="-8"
     inkscape:window-maximized="1"
     inkscape:current-layer="svg3182" />
  <title
     id="title3184">Gnuplot</title>
  <desc
     id="desc3186">Produced by GNUPLOT 4.6 patchlevel 3 </desc>
  <g
     id="gnuplot_canvas">
    <rect
       x="0"
       y="0"
       width="600"
       height="480"
       fill="none"
       id="rect3189" />
    <defs
       id="defs3191">
      <circle
         id="gpDot"
         r="0.5"
         stroke-width="0.5" />
      <path
         id="gpPt0"
         stroke-width="0.099"
         stroke="currentColor"
         d="M-1,0 h2 M0,-1 v2" />
      <path
         id="gpPt1"
         stroke-width="0.099"
         stroke="currentColor"
         d="M-1,-1 L1,1 M1,-1 L-1,1" />
      <path
         id="gpPt2"
         stroke-width="0.099"
         stroke="currentColor"
         d="M-1,0 L1,0 M0,-1 L0,1 M-1,-1 L1,1 M-1,1 L1,-1" />
      <rect
         id="gpPt3"
         stroke-width="0.099"
         stroke="currentColor"
         x="-1"
         y="-1"
         width="2"
         height="2" />
      <rect
         id="gpPt4"
         stroke-width="0.099"
         stroke="currentColor"
         fill="currentColor"
         x="-1"
         y="-1"
         width="2"
         height="2" />
      <circle
         id="gpPt5"
         stroke-width="0.099"
         stroke="currentColor"
         cx="0"
         cy="0"
         r="1" />
      <use
         xlink:href="#gpPt5"
         id="gpPt6"
         fill="currentColor"
         stroke="none" />
      <path
         id="gpPt7"
         stroke-width="0.099"
         stroke="currentColor"
         d="M0,-1.33 L-1.33,0.67 L1.33,0.67 z" />
      <use
         xlink:href="#gpPt7"
         id="gpPt8"
         fill="currentColor"
         stroke="none" />
      <use
         xlink:href="#gpPt7"
         id="gpPt9"
         stroke="currentColor"
         transform="rotate(180)" />
      <use
         xlink:href="#gpPt9"
         id="gpPt10"
         fill="currentColor"
         stroke="none" />
      <use
         xlink:href="#gpPt3"
         id="gpPt11"
         stroke="currentColor"
         transform="rotate(45)" />
      <use
         xlink:href="#gpPt11"
         id="gpPt12"
         fill="currentColor"
         stroke="none" />
    </defs>
    <g
       style="fill:none; color:white; stroke:currentColor; stroke-width:1.00; stroke-linecap:butt; stroke-linejoin:miter"
       id="g3207" />
    <g
       style="fill:none; color:black; stroke:currentColor; stroke-width:1.00; stroke-linecap:butt; stroke-linejoin:miter"
       id="g3209">
      <path
         stroke="black"
         d="M122.8,399.2 L143.0,399.2 M543.2,399.2 L523.0,399.2  h0.01"
         id="path3211" />
      <g
         transform="translate(103.9,409.3)"
         style="stroke:none; fill:black; font-family:Times; font-size:27.00pt; text-anchor:end"
         id="g3213">
        <text
           id="text3215"> 0</text>
      </g>
      <path
         stroke="black"
         d="M122.8,363.1 L143.0,363.1 M543.2,363.1 L523.0,363.1  h0.01"
         id="path3217" />
      <g
         transform="translate(103.9,373.2)"
         style="stroke:none; fill:black; font-family:Times; font-size:27.00pt; text-anchor:end"
         id="g3219">
        <text
           id="text3221"> 0.5</text>
      </g>
      <path
         stroke="black"
         d="M122.8,326.9 L143.0,326.9 M543.2,326.9 L523.0,326.9  h0.01"
         id="path3223" />
      <g
         transform="translate(103.9,337.0)"
         style="stroke:none; fill:black; font-family:Times; font-size:27.00pt; text-anchor:end"
         id="g3225">
        <text
           id="text3227"> 1</text>
      </g>
      <path
         stroke="black"
         d="M122.8,290.8 L143.0,290.8 M543.2,290.8 L523.0,290.8  h0.01"
         id="path3229" />
      <g
         transform="translate(103.9,300.9)"
         style="stroke:none; fill:black; font-family:Times; font-size:27.00pt; text-anchor:end"
         id="g3231">
        <text
           id="text3233"> 1.5</text>
      </g>
      <path
         stroke="black"
         d="M122.8,254.7 L143.0,254.7 M543.2,254.7 L523.0,254.7  h0.01"
         id="path3235" />
      <g
         transform="translate(103.9,264.8)"
         style="stroke:none; fill:black; font-family:Times; font-size:27.00pt; text-anchor:end"
         id="g3237">
        <text
           id="text3239"> 2</text>
      </g>
      <path
         stroke="black"
         d="M122.8,218.5 L143.0,218.5 M543.2,218.5 L523.0,218.5  h0.01"
         id="path3241" />
      <g
         transform="translate(103.9,228.6)"
         style="stroke:none; fill:black; font-family:Times; font-size:27.00pt; text-anchor:end"
         id="g3243">
        <text
           id="text3245"> 2.5</text>
      </g>
      <path
         stroke="black"
         d="M122.8,182.4 L143.0,182.4 M543.2,182.4 L523.0,182.4  h0.01"
         id="path3247" />
      <g
         transform="translate(103.9,192.5)"
         style="stroke:none; fill:black; font-family:Times; font-size:27.00pt; text-anchor:end"
         id="g3249">
        <text
           id="text3251"> 3</text>
      </g>
      <path
         stroke="black"
         d="M122.8,146.3 L143.0,146.3 M543.2,146.3 L523.0,146.3  h0.01"
         id="path3253" />
      <g
         transform="translate(103.9,156.4)"
         style="stroke:none; fill:black; font-family:Times; font-size:27.00pt; text-anchor:end"
         id="g3255">
        <text
           id="text3257"> 3.5</text>
      </g>
      <path
         stroke="black"
         d="M122.8,110.2 L143.0,110.2 M543.2,110.2 L523.0,110.2  h0.01"
         id="path3259" />
      <g
         transform="translate(103.9,120.3)"
         style="stroke:none; fill:black; font-family:Times; font-size:27.00pt; text-anchor:end"
         id="g3261">
        <text
           id="text3263"> 4</text>
      </g>
      <path
         stroke="black"
         d="M122.8,74.0 L143.0,74.0 M543.2,74.0 L523.0,74.0  h0.01"
         id="path3265" />
      <g
         transform="translate(103.9,84.1)"
         style="stroke:none; fill:black; font-family:Times; font-size:27.00pt; text-anchor:end"
         id="g3267">
        <text
           id="text3269"> 4.5</text>
      </g>
      <path
         stroke="black"
         d="M122.8,37.9 L143.0,37.9 M543.2,37.9 L523.0,37.9  h0.01"
         id="path3271" />
      <g
         transform="translate(103.9,48.0)"
         style="stroke:none; fill:black; font-family:Times; font-size:27.00pt; text-anchor:end"
         id="g3273">
        <text
           id="text3275"> 5</text>
      </g>
      <path
         stroke="black"
         d="M122.8,399.2 L122.8,379.0 M122.8,37.9 L122.8,58.1  h0.01"
         id="path3277" />
      <g
         transform="translate(122.8,449.7)"
         style="stroke:none; fill:black; font-family:Times; font-size:27.00pt; text-anchor:middle"
         id="g3279">
        <text
           id="text3281"> 0</text>
      </g>
      <path
         stroke="black"
         d="M192.9,399.2 L192.9,379.0 M192.9,37.9 L192.9,58.1  h0.01"
         id="path3283" />
      <g
         transform="translate(192.9,449.7)"
         style="stroke:none; fill:black; font-family:Times; font-size:27.00pt; text-anchor:middle"
         id="g3285">
        <text
           id="text3287"> 0.5</text>
      </g>
      <path
         stroke="black"
         d="M262.9,399.2 L262.9,379.0 M262.9,37.9 L262.9,58.1  h0.01"
         id="path3289" />
      <g
         transform="translate(262.9,449.7)"
         style="stroke:none; fill:black; font-family:Times; font-size:27.00pt; text-anchor:middle"
         id="g3291">
        <text
           id="text3293"> 1</text>
      </g>
      <path
         stroke="black"
         d="M333.0,399.2 L333.0,379.0 M333.0,37.9 L333.0,58.1  h0.01"
         id="path3295" />
      <g
         transform="translate(333.0,449.7)"
         style="stroke:none; fill:black; font-family:Times; font-size:27.00pt; text-anchor:middle"
         id="g3297">
        <text
           id="text3299"> 1.5</text>
      </g>
      <path
         stroke="black"
         d="M403.1,399.2 L403.1,379.0 M403.1,37.9 L403.1,58.1  h0.01"
         id="path3301" />
      <g
         transform="translate(403.1,449.7)"
         style="stroke:none; fill:black; font-family:Times; font-size:27.00pt; text-anchor:middle"
         id="g3303">
        <text
           id="text3305"> 2</text>
      </g>
      <path
         stroke="black"
         d="M473.1,399.2 L473.1,379.0 M473.1,37.9 L473.1,58.1  h0.01"
         id="path3307" />
      <g
         transform="translate(473.1,449.7)"
         style="stroke:none; fill:black; font-family:Times; font-size:27.00pt; text-anchor:middle"
         id="g3309">
        <text
           id="text3311"> 2.5</text>
      </g>
      <path
         stroke="black"
         d="M543.2,399.2 L543.2,379.0 M543.2,37.9 L543.2,58.1  h0.01"
         id="path3313" />
      <g
         transform="translate(543.2,449.7)"
         style="stroke:none; fill:black; font-family:Times; font-size:27.00pt; text-anchor:middle"
         id="g3315">
        <text
           id="text3317"> 3</text>
      </g>
      <path
         stroke="black"
         d="M122.8,37.9 L122.8,399.2 L543.2,399.2 L543.2,37.9 L122.8,37.9 Z  h0.01"
         id="path3319" />
    </g>
    <g
       id="gnuplot_plot_1">
      <title
         id="title3322">gnuplot_plot_1</title>
      <g
         style="fill:none; color:white; stroke:black; stroke-width:2.00; stroke-linecap:butt; stroke-linejoin:miter"
         id="g3324" />
      <g
         style="fill:none; color:red; stroke:currentColor; stroke-width:2.00; stroke-linecap:butt; stroke-linejoin:miter"
         id="g3326">
        <g
           transform="translate(390.7,88.4)"
           style="stroke:none; fill:black; font-family:Times; font-size:27.00pt; text-anchor:end"
           id="g3328">
          <text
             id="text3330">α= 1, β= 1</text>
        </g>
        <path
           d="M409.6,78.3 L505.4,78.3 M123.2,399.2 L123.6,399.2 L124.1,399.2 L124.5,399.2 L124.9,399.2 L125.3,399.2    L125.7,399.2 L126.2,399.2 L126.6,399.2 L127.0,399.2 L127.4,399.2 L127.8,399.2 L128.3,399.2 L128.7,399.2    L129.1,399.2 L129.5,399.2 L129.9,399.2 L130.4,399.2 L130.8,399.2 L131.2,399.2 L131.6,399.2 L132.0,399.2    L132.5,399.2 L132.9,399.2 L133.3,399.2 L133.7,399.2 L134.2,399.2 L134.6,399.1 L135.0,399.1 L135.4,399.1    L135.8,399.0 L136.3,399.0 L136.7,398.9 L137.1,398.8 L137.5,398.7 L137.9,398.6 L138.4,398.5 L138.8,398.3    L139.2,398.2 L139.6,398.0 L140.0,397.8 L140.5,397.6 L140.9,397.3 L141.3,397.1 L141.7,396.8 L142.1,396.5    L142.6,396.2 L143.0,395.8 L143.4,395.5 L143.8,395.1 L144.2,394.7 L144.7,394.3 L145.1,393.9 L145.5,393.5    L145.9,393.0 L146.3,392.5 L146.8,392.1 L147.2,391.6 L147.6,391.1 L148.0,390.6 L148.4,390.1 L148.9,389.5    L149.3,389.0 L149.7,388.5 L150.1,387.9 L150.5,387.4 L151.0,386.8 L151.4,386.3 L151.8,385.7 L152.2,385.2    L152.6,384.6 L153.1,384.1 L153.5,383.5 L153.9,383.0 L154.3,382.4 L154.8,381.9 L155.2,381.4 L155.6,380.8    L156.0,380.3 L156.4,379.8 L156.9,379.2 L157.3,378.7 L157.7,378.2 L158.1,377.7 L158.5,377.2 L159.0,376.7    L159.4,376.2 L159.8,375.7 L160.2,375.3 L160.6,374.8 L161.1,374.3 L161.5,373.9 L161.9,373.4 L162.3,373.0    L162.7,372.6 L163.2,372.2 L163.6,371.7 L164.0,371.3 L164.4,370.9 L164.8,370.6 L165.3,370.2 L165.7,369.8    L166.1,369.4 L166.5,369.1 L166.9,368.8 L167.4,368.4 L167.8,368.1 L168.2,367.8 L168.6,367.5 L169.0,367.2    L169.5,366.9 L169.9,366.6 L170.3,366.3 L170.7,366.0 L171.1,365.7 L171.6,365.5 L172.0,365.2 L172.4,365.0    L172.8,364.8 L173.2,364.5 L173.7,364.3 L174.1,364.1 L174.5,363.9 L174.9,363.7 L175.4,363.5 L175.8,363.3    L176.2,363.1 L176.6,363.0 L177.0,362.8 L177.5,362.6 L177.9,362.5 L178.3,362.3 L178.7,362.2 L179.1,362.0    L179.6,361.9 L180.0,361.8 L180.4,361.7 L180.8,361.5 L181.2,361.4 L181.7,361.3 L182.1,361.2 L182.5,361.1    L182.9,361.0 L183.3,361.0 L183.8,360.9 L184.2,360.8 L184.6,360.7 L185.0,360.7 L185.4,360.6 L185.9,360.5    L186.3,360.5 L186.7,360.4 L187.1,360.4 L187.5,360.3 L188.0,360.3 L188.4,360.3 L188.8,360.2 L189.2,360.2    L189.6,360.2 L190.1,360.1 L190.5,360.1 L190.9,360.1 L191.3,360.1 L191.7,360.1 L192.2,360.1 L192.6,360.1    L193.0,360.1 L193.4,360.1 L193.8,360.1 L194.3,360.1 L194.7,360.1 L195.1,360.1 L195.5,360.1 L195.9,360.2    L196.4,360.2 L196.8,360.2 L197.2,360.2 L197.6,360.2 L198.1,360.3 L198.5,360.3 L198.9,360.3 L199.3,360.4    L199.7,360.4 L200.2,360.5 L200.6,360.5 L201.0,360.5 L201.4,360.6 L201.8,360.6 L202.3,360.7 L202.7,360.7    L203.1,360.8 L203.5,360.8 L203.9,360.9 L204.4,360.9 L204.8,361.0 L205.2,361.0 L205.6,361.1 L206.0,361.2    L206.5,361.2 L206.9,361.3 L207.3,361.4 L207.7,361.4 L208.1,361.5 L208.6,361.6 L209.0,361.6 L209.4,361.7    L209.8,361.8 L210.2,361.8 L210.7,361.9 L211.1,362.0 L211.5,362.0 L211.9,362.1 L212.3,362.2 L212.8,362.3    L213.2,362.3 L213.6,362.4 L214.0,362.5 L214.4,362.6 L214.9,362.7 L215.3,362.7 L215.7,362.8 L216.1,362.9    L216.5,363.0 L217.0,363.1 L217.4,363.2 L217.8,363.2 L218.2,363.3 L218.7,363.4 L219.1,363.5 L219.5,363.6    L219.9,363.7 L220.3,363.7 L220.8,363.8 L221.2,363.9 L221.6,364.0 L222.0,364.1 L222.4,364.2 L222.9,364.3    L223.3,364.4 L223.7,364.4 L224.1,364.5 L224.5,364.6 L225.0,364.7 L225.4,364.8 L225.8,364.9 L226.2,365.0    L226.6,365.1 L227.1,365.2 L227.5,365.2 L227.9,365.3 L228.3,365.4 L228.7,365.5 L229.2,365.6 L229.6,365.7    L230.0,365.8 L230.4,365.9 L230.8,366.0 L231.3,366.1 L231.7,366.2 L232.1,366.2 L232.5,366.3 L232.9,366.4    L233.4,366.5 L233.8,366.6 L234.2,366.7 L234.6,366.8 L235.0,366.9 L235.5,367.0 L235.9,367.1 L236.3,367.2    L236.7,367.2 L237.1,367.3 L237.6,367.4 L238.0,367.5 L238.4,367.6 L238.8,367.7 L239.3,367.8 L239.7,367.9    L240.1,368.0 L240.5,368.1 L240.9,368.1 L241.4,368.2 L241.8,368.3 L242.2,368.4 L242.6,368.5 L243.0,368.6    L243.5,368.7 L243.9,368.8 L244.3,368.9 L244.7,369.0 L245.1,369.0 L245.6,369.1 L246.0,369.2 L246.4,369.3    L246.8,369.4 L247.2,369.5 L247.7,369.6 L248.1,369.7 L248.5,369.7 L248.9,369.8 L249.3,369.9 L249.8,370.0    L250.2,370.1 L250.6,370.2 L251.0,370.3 L251.4,370.4 L251.9,370.4 L252.3,370.5 L252.7,370.6 L253.1,370.7    L253.5,370.8 L254.0,370.9 L254.4,370.9 L254.8,371.0 L255.2,371.1 L255.6,371.2 L256.1,371.3 L256.5,371.4    L256.9,371.4 L257.3,371.5 L257.7,371.6 L258.2,371.7 L258.6,371.8 L259.0,371.9 L259.4,371.9 L259.9,372.0    L260.3,372.1 L260.7,372.2 L261.1,372.3 L261.5,372.3 L262.0,372.4 L262.4,372.5 L262.8,372.6 L263.2,372.7    L263.6,372.7 L264.1,372.8 L264.5,372.9 L264.9,373.0 L265.3,373.1 L265.7,373.1 L266.2,373.2 L266.6,373.3    L267.0,373.4 L267.4,373.5 L267.8,373.5 L268.3,373.6 L268.7,373.7 L269.1,373.8 L269.5,373.8 L269.9,373.9    L270.4,374.0 L270.8,374.1 L271.2,374.1 L271.6,374.2 L272.0,374.3 L272.5,374.4 L272.9,374.4 L273.3,374.5    L273.7,374.6 L274.1,374.7 L274.6,374.7 L275.0,374.8 L275.4,374.9 L275.8,374.9 L276.2,375.0 L276.7,375.1    L277.1,375.2 L277.5,375.2 L277.9,375.3 L278.3,375.4 L278.8,375.4 L279.2,375.5 L279.6,375.6 L280.0,375.7    L280.5,375.7 L280.9,375.8 L281.3,375.9 L281.7,375.9 L282.1,376.0 L282.6,376.1 L283.0,376.1 L283.4,376.2    L283.8,376.3 L284.2,376.3 L284.7,376.4 L285.1,376.5 L285.5,376.5 L285.9,376.6 L286.3,376.7 L286.8,376.7    L287.2,376.8 L287.6,376.9 L288.0,376.9 L288.4,377.0 L288.9,377.1 L289.3,377.1 L289.7,377.2 L290.1,377.3    L290.5,377.3 L291.0,377.4 L291.4,377.5 L291.8,377.5 L292.2,377.6 L292.6,377.6 L293.1,377.7 L293.5,377.8    L293.9,377.8 L294.3,377.9 L294.7,378.0 L295.2,378.0 L295.6,378.1 L296.0,378.1 L296.4,378.2 L296.8,378.3    L297.3,378.3 L297.7,378.4 L298.1,378.4 L298.5,378.5 L298.9,378.6 L299.4,378.6 L299.8,378.7 L300.2,378.7    L300.6,378.8 L301.0,378.9 L301.5,378.9 L301.9,379.0 L302.3,379.0 L302.7,379.1 L303.2,379.1 L303.6,379.2    L304.0,379.3 L304.4,379.3 L304.8,379.4 L305.3,379.4 L305.7,379.5 L306.1,379.5 L306.5,379.6 L306.9,379.6    L307.4,379.7 L307.8,379.8 L308.2,379.8 L308.6,379.9 L309.0,379.9 L309.5,380.0 L309.9,380.0 L310.3,380.1    L310.7,380.1 L311.1,380.2 L311.6,380.2 L312.0,380.3 L312.4,380.3 L312.8,380.4 L313.2,380.5 L313.7,380.5    L314.1,380.6 L314.5,380.6 L314.9,380.7 L315.3,380.7 L315.8,380.8 L316.2,380.8 L316.6,380.9 L317.0,380.9    L317.4,381.0 L317.9,381.0 L318.3,381.1 L318.7,381.1 L319.1,381.2 L319.5,381.2 L320.0,381.3 L320.4,381.3    L320.8,381.4 L321.2,381.4 L321.6,381.5 L322.1,381.5 L322.5,381.6 L322.9,381.6 L323.3,381.7 L323.8,381.7    L324.2,381.8 L324.6,381.8 L325.0,381.8 L325.4,381.9 L325.9,381.9 L326.3,382.0 L326.7,382.0 L327.1,382.1    L327.5,382.1 L328.0,382.2 L328.4,382.2 L328.8,382.3 L329.2,382.3 L329.6,382.4 L330.1,382.4 L330.5,382.4    L330.9,382.5 L331.3,382.5 L331.7,382.6 L332.2,382.6 L332.6,382.7 L333.0,382.7 L333.4,382.8 L333.8,382.8    L334.3,382.8 L334.7,382.9 L335.1,382.9 L335.5,383.0 L335.9,383.0 L336.4,383.1 L336.8,383.1 L337.2,383.1    L337.6,383.2 L338.0,383.2 L338.5,383.3 L338.9,383.3 L339.3,383.4 L339.7,383.4 L340.1,383.4 L340.6,383.5    L341.0,383.5 L341.4,383.6 L341.8,383.6 L342.2,383.6 L342.7,383.7 L343.1,383.7 L343.5,383.8 L343.9,383.8    L344.4,383.8 L344.8,383.9 L345.2,383.9 L345.6,384.0 L346.0,384.0 L346.5,384.0 L346.9,384.1 L347.3,384.1    L347.7,384.2 L348.1,384.2 L348.6,384.2 L349.0,384.3 L349.4,384.3 L349.8,384.3 L350.2,384.4 L350.7,384.4    L351.1,384.5 L351.5,384.5 L351.9,384.5 L352.3,384.6 L352.8,384.6 L353.2,384.6 L353.6,384.7 L354.0,384.7    L354.4,384.8 L354.9,384.8 L355.3,384.8 L355.7,384.9 L356.1,384.9 L356.5,384.9 L357.0,385.0 L357.4,385.0    L357.8,385.0 L358.2,385.1 L358.6,385.1 L359.1,385.2 L359.5,385.2 L359.9,385.2 L360.3,385.3 L360.7,385.3    L361.2,385.3 L361.6,385.4 L362.0,385.4 L362.4,385.4 L362.8,385.5 L363.3,385.5 L363.7,385.5 L364.1,385.6    L364.5,385.6 L365.0,385.6 L365.4,385.7 L365.8,385.7 L366.2,385.7 L366.6,385.8 L367.1,385.8 L367.5,385.8    L367.9,385.9 L368.3,385.9 L368.7,385.9 L369.2,386.0 L369.6,386.0 L370.0,386.0 L370.4,386.1 L370.8,386.1    L371.3,386.1 L371.7,386.2 L372.1,386.2 L372.5,386.2 L372.9,386.2 L373.4,386.3 L373.8,386.3 L374.2,386.3    L374.6,386.4 L375.0,386.4 L375.5,386.4 L375.9,386.5 L376.3,386.5 L376.7,386.5 L377.1,386.6 L377.6,386.6    L378.0,386.6 L378.4,386.6 L378.8,386.7 L379.2,386.7 L379.7,386.7 L380.1,386.8 L380.5,386.8 L380.9,386.8    L381.3,386.9 L381.8,386.9 L382.2,386.9 L382.6,386.9 L383.0,387.0 L383.4,387.0 L383.9,387.0 L384.3,387.1    L384.7,387.1 L385.1,387.1 L385.6,387.1 L386.0,387.2 L386.4,387.2 L386.8,387.2 L387.2,387.3 L387.7,387.3    L388.1,387.3 L388.5,387.3 L388.9,387.4 L389.3,387.4 L389.8,387.4 L390.2,387.4 L390.6,387.5 L391.0,387.5    L391.4,387.5 L391.9,387.6 L392.3,387.6 L392.7,387.6 L393.1,387.6 L393.5,387.7 L394.0,387.7 L394.4,387.7    L394.8,387.7 L395.2,387.8 L395.6,387.8 L396.1,387.8 L396.5,387.8 L396.9,387.9 L397.3,387.9 L397.7,387.9    L398.2,387.9 L398.6,388.0 L399.0,388.0 L399.4,388.0 L399.8,388.1 L400.3,388.1 L400.7,388.1 L401.1,388.1    L401.5,388.2 L401.9,388.2 L402.4,388.2 L402.8,388.2 L403.2,388.3 L403.6,388.3 L404.0,388.3 L404.5,388.3    L404.9,388.3 L405.3,388.4 L405.7,388.4 L406.1,388.4 L406.6,388.4 L407.0,388.5 L407.4,388.5 L407.8,388.5    L408.3,388.5 L408.7,388.6 L409.1,388.6 L409.5,388.6 L409.9,388.6 L410.4,388.7 L410.8,388.7 L411.2,388.7    L411.6,388.7 L412.0,388.8 L412.5,388.8 L412.9,388.8 L413.3,388.8 L413.7,388.8 L414.1,388.9 L414.6,388.9    L415.0,388.9 L415.4,388.9 L415.8,389.0 L416.2,389.0 L416.7,389.0 L417.1,389.0 L417.5,389.0 L417.9,389.1    L418.3,389.1 L418.8,389.1 L419.2,389.1 L419.6,389.2 L420.0,389.2 L420.4,389.2 L420.9,389.2 L421.3,389.2    L421.7,389.3 L422.1,389.3 L422.5,389.3 L423.0,389.3 L423.4,389.3 L423.8,389.4 L424.2,389.4 L424.6,389.4    L425.1,389.4 L425.5,389.5 L425.9,389.5 L426.3,389.5 L426.7,389.5 L427.2,389.5 L427.6,389.6 L428.0,389.6    L428.4,389.6 L428.9,389.6 L429.3,389.6 L429.7,389.7 L430.1,389.7 L430.5,389.7 L431.0,389.7 L431.4,389.7    L431.8,389.8 L432.2,389.8 L432.6,389.8 L433.1,389.8 L433.5,389.8 L433.9,389.9 L434.3,389.9 L434.7,389.9    L435.2,389.9 L435.6,389.9 L436.0,390.0 L436.4,390.0 L436.8,390.0 L437.3,390.0 L437.7,390.0 L438.1,390.0    L438.5,390.1 L438.9,390.1 L439.4,390.1 L439.8,390.1 L440.2,390.1 L440.6,390.2 L441.0,390.2 L441.5,390.2    L441.9,390.2 L442.3,390.2 L442.7,390.3 L443.1,390.3 L443.6,390.3 L444.0,390.3 L444.4,390.3 L444.8,390.3    L445.2,390.4 L445.7,390.4 L446.1,390.4 L446.5,390.4 L446.9,390.4 L447.3,390.5 L447.8,390.5 L448.2,390.5    L448.6,390.5 L449.0,390.5 L449.5,390.5 L449.9,390.6 L450.3,390.6 L450.7,390.6 L451.1,390.6 L451.6,390.6    L452.0,390.6 L452.4,390.7 L452.8,390.7 L453.2,390.7 L453.7,390.7 L454.1,390.7 L454.5,390.7 L454.9,390.8    L455.3,390.8 L455.8,390.8 L456.2,390.8 L456.6,390.8 L457.0,390.8 L457.4,390.9 L457.9,390.9 L458.3,390.9    L458.7,390.9 L459.1,390.9 L459.5,390.9 L460.0,391.0 L460.4,391.0 L460.8,391.0 L461.2,391.0 L461.6,391.0    L462.1,391.0 L462.5,391.1 L462.9,391.1 L463.3,391.1 L463.7,391.1 L464.2,391.1 L464.6,391.1 L465.0,391.2    L465.4,391.2 L465.8,391.2 L466.3,391.2 L466.7,391.2 L467.1,391.2 L467.5,391.2 L467.9,391.3 L468.4,391.3    L468.8,391.3 L469.2,391.3 L469.6,391.3 L470.1,391.3 L470.5,391.4 L470.9,391.4 L471.3,391.4 L471.7,391.4    L472.2,391.4 L472.6,391.4 L473.0,391.4 L473.4,391.5 L473.8,391.5 L474.3,391.5 L474.7,391.5 L475.1,391.5    L475.5,391.5 L475.9,391.5 L476.4,391.6 L476.8,391.6 L477.2,391.6 L477.6,391.6 L478.0,391.6 L478.5,391.6    L478.9,391.6 L479.3,391.7 L479.7,391.7 L480.1,391.7 L480.6,391.7 L481.0,391.7 L481.4,391.7 L481.8,391.7    L482.2,391.8 L482.7,391.8 L483.1,391.8 L483.5,391.8 L483.9,391.8 L484.3,391.8 L484.8,391.8 L485.2,391.9    L485.6,391.9 L486.0,391.9 L486.4,391.9 L486.9,391.9 L487.3,391.9 L487.7,391.9 L488.1,392.0 L488.5,392.0    L489.0,392.0 L489.4,392.0 L489.8,392.0 L490.2,392.0 L490.7,392.0 L491.1,392.0 L491.5,392.1 L491.9,392.1    L492.3,392.1 L492.8,392.1 L493.2,392.1 L493.6,392.1 L494.0,392.1 L494.4,392.2 L494.9,392.2 L495.3,392.2    L495.7,392.2 L496.1,392.2 L496.5,392.2 L497.0,392.2 L497.4,392.2 L497.8,392.3 L498.2,392.3 L498.6,392.3    L499.1,392.3 L499.5,392.3 L499.9,392.3 L500.3,392.3 L500.7,392.3 L501.2,392.4 L501.6,392.4 L502.0,392.4    L502.4,392.4 L502.8,392.4 L503.3,392.4 L503.7,392.4 L504.1,392.4 L504.5,392.5 L504.9,392.5 L505.4,392.5    L505.8,392.5 L506.2,392.5 L506.6,392.5 L507.0,392.5 L507.5,392.5 L507.9,392.5 L508.3,392.6 L508.7,392.6    L509.1,392.6 L509.6,392.6 L510.0,392.6 L510.4,392.6 L510.8,392.6 L511.2,392.6 L511.7,392.7 L512.1,392.7    L512.5,392.7 L512.9,392.7 L513.4,392.7 L513.8,392.7 L514.2,392.7 L514.6,392.7 L515.0,392.7 L515.5,392.8    L515.9,392.8 L516.3,392.8 L516.7,392.8 L517.1,392.8 L517.6,392.8 L518.0,392.8 L518.4,392.8 L518.8,392.8    L519.2,392.9 L519.7,392.9 L520.1,392.9 L520.5,392.9 L520.9,392.9 L521.3,392.9 L521.8,392.9 L522.2,392.9    L522.6,392.9 L523.0,393.0 L523.4,393.0 L523.9,393.0 L524.3,393.0 L524.7,393.0 L525.1,393.0 L525.5,393.0    L526.0,393.0 L526.4,393.0 L526.8,393.1 L527.2,393.1 L527.6,393.1 L528.1,393.1 L528.5,393.1 L528.9,393.1    L529.3,393.1 L529.7,393.1 L530.2,393.1 L530.6,393.1 L531.0,393.2 L531.4,393.2 L531.8,393.2 L532.3,393.2    L532.7,393.2 L533.1,393.2 L533.5,393.2 L534.0,393.2 L534.4,393.2 L534.8,393.3 L535.2,393.3 L535.6,393.3    L536.1,393.3 L536.5,393.3 L536.9,393.3 L537.3,393.3 L537.7,393.3 L538.2,393.3 L538.6,393.3 L539.0,393.3    L539.4,393.4 L539.8,393.4 L540.3,393.4 L540.7,393.4 L541.1,393.4 L541.5,393.4 L541.9,393.4 L542.4,393.4    L542.8,393.4 L543.2,393.4  h0.01"
           id="path3332" />
      </g>
    </g>
    <g
       id="gnuplot_plot_2">
      <title
         id="title3335">gnuplot_plot_2</title>
      <g
         style="fill:none; color:green; stroke:currentColor; stroke-width:2.00; stroke-linecap:butt; stroke-linejoin:miter"
         id="g3337">
        <g
           transform="translate(390.7,128.8)"
           style="stroke:none; fill:black; font-family:Times; font-size:27.00pt; text-anchor:end"
           id="g3339">
          <text
             id="text3341">α= 2, β= 1</text>
        </g>
        <path
           d="M409.6,118.7 L505.4,118.7 M123.2,399.2 L123.6,399.2 L124.1,399.2 L124.5,399.2 L124.9,399.2 L125.3,399.2    L125.7,399.2 L126.2,399.2 L126.6,399.2 L127.0,399.2 L127.4,399.2 L127.8,399.2 L128.3,399.2 L128.7,399.2    L129.1,399.2 L129.5,399.2 L129.9,399.2 L130.4,399.2 L130.8,399.2 L131.2,399.2 L131.6,399.2 L132.0,399.1    L132.5,399.1 L132.9,399.0 L133.3,398.9 L133.7,398.8 L134.2,398.6 L134.6,398.4 L135.0,398.1 L135.4,397.7    L135.8,397.3 L136.3,396.8 L136.7,396.1 L137.1,395.4 L137.5,394.6 L137.9,393.7 L138.4,392.7 L138.8,391.6    L139.2,390.4 L139.6,389.1 L140.0,387.8 L140.5,386.3 L140.9,384.7 L141.3,383.1 L141.7,381.4 L142.1,379.6    L142.6,377.8 L143.0,375.9 L143.4,373.9 L143.8,372.0 L144.2,369.9 L144.7,367.9 L145.1,365.8 L145.5,363.8    L145.9,361.7 L146.3,359.6 L146.8,357.5 L147.2,355.4 L147.6,353.4 L148.0,351.3 L148.4,349.3 L148.9,347.3    L149.3,345.3 L149.7,343.3 L150.1,341.4 L150.5,339.6 L151.0,337.7 L151.4,335.9 L151.8,334.2 L152.2,332.5    L152.6,330.8 L153.1,329.2 L153.5,327.7 L153.9,326.2 L154.3,324.7 L154.8,323.3 L155.2,321.9 L155.6,320.6    L156.0,319.4 L156.4,318.2 L156.9,317.0 L157.3,315.9 L157.7,314.8 L158.1,313.8 L158.5,312.9 L159.0,312.0    L159.4,311.1 L159.8,310.3 L160.2,309.5 L160.6,308.8 L161.1,308.1 L161.5,307.4 L161.9,306.8 L162.3,306.3    L162.7,305.8 L163.2,305.3 L163.6,304.8 L164.0,304.4 L164.4,304.1 L164.8,303.7 L165.3,303.4 L165.7,303.2    L166.1,302.9 L166.5,302.7 L166.9,302.5 L167.4,302.4 L167.8,302.3 L168.2,302.2 L168.6,302.1 L169.0,302.1    L169.5,302.1 L169.9,302.1 L170.3,302.1 L170.7,302.2 L171.1,302.2 L171.6,302.3 L172.0,302.4 L172.4,302.6    L172.8,302.7 L173.2,302.9 L173.7,303.1 L174.1,303.3 L174.5,303.5 L174.9,303.7 L175.4,304.0 L175.8,304.2    L176.2,304.5 L176.6,304.8 L177.0,305.1 L177.5,305.4 L177.9,305.7 L178.3,306.1 L178.7,306.4 L179.1,306.8    L179.6,307.1 L180.0,307.5 L180.4,307.9 L180.8,308.2 L181.2,308.6 L181.7,309.0 L182.1,309.4 L182.5,309.8    L182.9,310.2 L183.3,310.7 L183.8,311.1 L184.2,311.5 L184.6,311.9 L185.0,312.4 L185.4,312.8 L185.9,313.3    L186.3,313.7 L186.7,314.2 L187.1,314.6 L187.5,315.1 L188.0,315.5 L188.4,316.0 L188.8,316.5 L189.2,316.9    L189.6,317.4 L190.1,317.8 L190.5,318.3 L190.9,318.8 L191.3,319.2 L191.7,319.7 L192.2,320.2 L192.6,320.7    L193.0,321.1 L193.4,321.6 L193.8,322.1 L194.3,322.5 L194.7,323.0 L195.1,323.5 L195.5,323.9 L195.9,324.4    L196.4,324.9 L196.8,325.3 L197.2,325.8 L197.6,326.3 L198.1,326.7 L198.5,327.2 L198.9,327.6 L199.3,328.1    L199.7,328.5 L200.2,329.0 L200.6,329.5 L201.0,329.9 L201.4,330.4 L201.8,330.8 L202.3,331.2 L202.7,331.7    L203.1,332.1 L203.5,332.6 L203.9,333.0 L204.4,333.4 L204.8,333.9 L205.2,334.3 L205.6,334.7 L206.0,335.2    L206.5,335.6 L206.9,336.0 L207.3,336.4 L207.7,336.9 L208.1,337.3 L208.6,337.7 L209.0,338.1 L209.4,338.5    L209.8,338.9 L210.2,339.3 L210.7,339.7 L211.1,340.1 L211.5,340.5 L211.9,340.9 L212.3,341.3 L212.8,341.7    L213.2,342.1 L213.6,342.5 L214.0,342.8 L214.4,343.2 L214.9,343.6 L215.3,344.0 L215.7,344.3 L216.1,344.7    L216.5,345.1 L217.0,345.4 L217.4,345.8 L217.8,346.2 L218.2,346.5 L218.7,346.9 L219.1,347.2 L219.5,347.6    L219.9,347.9 L220.3,348.3 L220.8,348.6 L221.2,348.9 L221.6,349.3 L222.0,349.6 L222.4,349.9 L222.9,350.3    L223.3,350.6 L223.7,350.9 L224.1,351.2 L224.5,351.6 L225.0,351.9 L225.4,352.2 L225.8,352.5 L226.2,352.8    L226.6,353.1 L227.1,353.4 L227.5,353.7 L227.9,354.1 L228.3,354.4 L228.7,354.6 L229.2,354.9 L229.6,355.2    L230.0,355.5 L230.4,355.8 L230.8,356.1 L231.3,356.4 L231.7,356.7 L232.1,357.0 L232.5,357.2 L232.9,357.5    L233.4,357.8 L233.8,358.0 L234.2,358.3 L234.6,358.6 L235.0,358.9 L235.5,359.1 L235.9,359.4 L236.3,359.6    L236.7,359.9 L237.1,360.2 L237.6,360.4 L238.0,360.7 L238.4,360.9 L238.8,361.2 L239.3,361.4 L239.7,361.6    L240.1,361.9 L240.5,362.1 L240.9,362.4 L241.4,362.6 L241.8,362.8 L242.2,363.1 L242.6,363.3 L243.0,363.5    L243.5,363.8 L243.9,364.0 L244.3,364.2 L244.7,364.4 L245.1,364.7 L245.6,364.9 L246.0,365.1 L246.4,365.3    L246.8,365.5 L247.2,365.7 L247.7,365.9 L248.1,366.2 L248.5,366.4 L248.9,366.6 L249.3,366.8 L249.8,367.0    L250.2,367.2 L250.6,367.4 L251.0,367.6 L251.4,367.8 L251.9,368.0 L252.3,368.2 L252.7,368.4 L253.1,368.5    L253.5,368.7 L254.0,368.9 L254.4,369.1 L254.8,369.3 L255.2,369.5 L255.6,369.7 L256.1,369.8 L256.5,370.0    L256.9,370.2 L257.3,370.4 L257.7,370.6 L258.2,370.7 L258.6,370.9 L259.0,371.1 L259.4,371.2 L259.9,371.4    L260.3,371.6 L260.7,371.7 L261.1,371.9 L261.5,372.1 L262.0,372.2 L262.4,372.4 L262.8,372.6 L263.2,372.7    L263.6,372.9 L264.1,373.0 L264.5,373.2 L264.9,373.3 L265.3,373.5 L265.7,373.7 L266.2,373.8 L266.6,374.0    L267.0,374.1 L267.4,374.3 L267.8,374.4 L268.3,374.5 L268.7,374.7 L269.1,374.8 L269.5,375.0 L269.9,375.1    L270.4,375.3 L270.8,375.4 L271.2,375.5 L271.6,375.7 L272.0,375.8 L272.5,375.9 L272.9,376.1 L273.3,376.2    L273.7,376.3 L274.1,376.5 L274.6,376.6 L275.0,376.7 L275.4,376.9 L275.8,377.0 L276.2,377.1 L276.7,377.2    L277.1,377.4 L277.5,377.5 L277.9,377.6 L278.3,377.7 L278.8,377.9 L279.2,378.0 L279.6,378.1 L280.0,378.2    L280.5,378.3 L280.9,378.5 L281.3,378.6 L281.7,378.7 L282.1,378.8 L282.6,378.9 L283.0,379.0 L283.4,379.1    L283.8,379.2 L284.2,379.4 L284.7,379.5 L285.1,379.6 L285.5,379.7 L285.9,379.8 L286.3,379.9 L286.8,380.0    L287.2,380.1 L287.6,380.2 L288.0,380.3 L288.4,380.4 L288.9,380.5 L289.3,380.6 L289.7,380.7 L290.1,380.8    L290.5,380.9 L291.0,381.0 L291.4,381.1 L291.8,381.2 L292.2,381.3 L292.6,381.4 L293.1,381.5 L293.5,381.6    L293.9,381.7 L294.3,381.8 L294.7,381.9 L295.2,382.0 L295.6,382.1 L296.0,382.2 L296.4,382.3 L296.8,382.3    L297.3,382.4 L297.7,382.5 L298.1,382.6 L298.5,382.7 L298.9,382.8 L299.4,382.9 L299.8,383.0 L300.2,383.0    L300.6,383.1 L301.0,383.2 L301.5,383.3 L301.9,383.4 L302.3,383.5 L302.7,383.5 L303.2,383.6 L303.6,383.7    L304.0,383.8 L304.4,383.9 L304.8,383.9 L305.3,384.0 L305.7,384.1 L306.1,384.2 L306.5,384.2 L306.9,384.3    L307.4,384.4 L307.8,384.5 L308.2,384.5 L308.6,384.6 L309.0,384.7 L309.5,384.8 L309.9,384.8 L310.3,384.9    L310.7,385.0 L311.1,385.1 L311.6,385.1 L312.0,385.2 L312.4,385.3 L312.8,385.3 L313.2,385.4 L313.7,385.5    L314.1,385.5 L314.5,385.6 L314.9,385.7 L315.3,385.7 L315.8,385.8 L316.2,385.9 L316.6,385.9 L317.0,386.0    L317.4,386.1 L317.9,386.1 L318.3,386.2 L318.7,386.3 L319.1,386.3 L319.5,386.4 L320.0,386.5 L320.4,386.5    L320.8,386.6 L321.2,386.6 L321.6,386.7 L322.1,386.8 L322.5,386.8 L322.9,386.9 L323.3,386.9 L323.8,387.0    L324.2,387.1 L324.6,387.1 L325.0,387.2 L325.4,387.2 L325.9,387.3 L326.3,387.3 L326.7,387.4 L327.1,387.5    L327.5,387.5 L328.0,387.6 L328.4,387.6 L328.8,387.7 L329.2,387.7 L329.6,387.8 L330.1,387.8 L330.5,387.9    L330.9,387.9 L331.3,388.0 L331.7,388.1 L332.2,388.1 L332.6,388.2 L333.0,388.2 L333.4,388.3 L333.8,388.3    L334.3,388.4 L334.7,388.4 L335.1,388.5 L335.5,388.5 L335.9,388.6 L336.4,388.6 L336.8,388.7 L337.2,388.7    L337.6,388.8 L338.0,388.8 L338.5,388.8 L338.9,388.9 L339.3,388.9 L339.7,389.0 L340.1,389.0 L340.6,389.1    L341.0,389.1 L341.4,389.2 L341.8,389.2 L342.2,389.3 L342.7,389.3 L343.1,389.4 L343.5,389.4 L343.9,389.4    L344.4,389.5 L344.8,389.5 L345.2,389.6 L345.6,389.6 L346.0,389.7 L346.5,389.7 L346.9,389.7 L347.3,389.8    L347.7,389.8 L348.1,389.9 L348.6,389.9 L349.0,390.0 L349.4,390.0 L349.8,390.0 L350.2,390.1 L350.7,390.1    L351.1,390.2 L351.5,390.2 L351.9,390.2 L352.3,390.3 L352.8,390.3 L353.2,390.3 L353.6,390.4 L354.0,390.4    L354.4,390.5 L354.9,390.5 L355.3,390.5 L355.7,390.6 L356.1,390.6 L356.5,390.7 L357.0,390.7 L357.4,390.7    L357.8,390.8 L358.2,390.8 L358.6,390.8 L359.1,390.9 L359.5,390.9 L359.9,390.9 L360.3,391.0 L360.7,391.0    L361.2,391.0 L361.6,391.1 L362.0,391.1 L362.4,391.1 L362.8,391.2 L363.3,391.2 L363.7,391.2 L364.1,391.3    L364.5,391.3 L365.0,391.3 L365.4,391.4 L365.8,391.4 L366.2,391.4 L366.6,391.5 L367.1,391.5 L367.5,391.5    L367.9,391.6 L368.3,391.6 L368.7,391.6 L369.2,391.7 L369.6,391.7 L370.0,391.7 L370.4,391.8 L370.8,391.8    L371.3,391.8 L371.7,391.9 L372.1,391.9 L372.5,391.9 L372.9,391.9 L373.4,392.0 L373.8,392.0 L374.2,392.0    L374.6,392.1 L375.0,392.1 L375.5,392.1 L375.9,392.1 L376.3,392.2 L376.7,392.2 L377.1,392.2 L377.6,392.3    L378.0,392.3 L378.4,392.3 L378.8,392.3 L379.2,392.4 L379.7,392.4 L380.1,392.4 L380.5,392.5 L380.9,392.5    L381.3,392.5 L381.8,392.5 L382.2,392.6 L382.6,392.6 L383.0,392.6 L383.4,392.6 L383.9,392.7 L384.3,392.7    L384.7,392.7 L385.1,392.7 L385.6,392.8 L386.0,392.8 L386.4,392.8 L386.8,392.8 L387.2,392.9 L387.7,392.9    L388.1,392.9 L388.5,392.9 L388.9,393.0 L389.3,393.0 L389.8,393.0 L390.2,393.0 L390.6,393.1 L391.0,393.1    L391.4,393.1 L391.9,393.1 L392.3,393.2 L392.7,393.2 L393.1,393.2 L393.5,393.2 L394.0,393.3 L394.4,393.3    L394.8,393.3 L395.2,393.3 L395.6,393.3 L396.1,393.4 L396.5,393.4 L396.9,393.4 L397.3,393.4 L397.7,393.5    L398.2,393.5 L398.6,393.5 L399.0,393.5 L399.4,393.5 L399.8,393.6 L400.3,393.6 L400.7,393.6 L401.1,393.6    L401.5,393.6 L401.9,393.7 L402.4,393.7 L402.8,393.7 L403.2,393.7 L403.6,393.7 L404.0,393.8 L404.5,393.8    L404.9,393.8 L405.3,393.8 L405.7,393.8 L406.1,393.9 L406.6,393.9 L407.0,393.9 L407.4,393.9 L407.8,393.9    L408.3,394.0 L408.7,394.0 L409.1,394.0 L409.5,394.0 L409.9,394.0 L410.4,394.1 L410.8,394.1 L411.2,394.1    L411.6,394.1 L412.0,394.1 L412.5,394.2 L412.9,394.2 L413.3,394.2 L413.7,394.2 L414.1,394.2 L414.6,394.2    L415.0,394.3 L415.4,394.3 L415.8,394.3 L416.2,394.3 L416.7,394.3 L417.1,394.4 L417.5,394.4 L417.9,394.4    L418.3,394.4 L418.8,394.4 L419.2,394.4 L419.6,394.5 L420.0,394.5 L420.4,394.5 L420.9,394.5 L421.3,394.5    L421.7,394.5 L422.1,394.6 L422.5,394.6 L423.0,394.6 L423.4,394.6 L423.8,394.6 L424.2,394.6 L424.6,394.7    L425.1,394.7 L425.5,394.7 L425.9,394.7 L426.3,394.7 L426.7,394.7 L427.2,394.7 L427.6,394.8 L428.0,394.8    L428.4,394.8 L428.9,394.8 L429.3,394.8 L429.7,394.8 L430.1,394.9 L430.5,394.9 L431.0,394.9 L431.4,394.9    L431.8,394.9 L432.2,394.9 L432.6,394.9 L433.1,395.0 L433.5,395.0 L433.9,395.0 L434.3,395.0 L434.7,395.0    L435.2,395.0 L435.6,395.0 L436.0,395.1 L436.4,395.1 L436.8,395.1 L437.3,395.1 L437.7,395.1 L438.1,395.1    L438.5,395.1 L438.9,395.2 L439.4,395.2 L439.8,395.2 L440.2,395.2 L440.6,395.2 L441.0,395.2 L441.5,395.2    L441.9,395.3 L442.3,395.3 L442.7,395.3 L443.1,395.3 L443.6,395.3 L444.0,395.3 L444.4,395.3 L444.8,395.3    L445.2,395.4 L445.7,395.4 L446.1,395.4 L446.5,395.4 L446.9,395.4 L447.3,395.4 L447.8,395.4 L448.2,395.4    L448.6,395.5 L449.0,395.5 L449.5,395.5 L449.9,395.5 L450.3,395.5 L450.7,395.5 L451.1,395.5 L451.6,395.5    L452.0,395.6 L452.4,395.6 L452.8,395.6 L453.2,395.6 L453.7,395.6 L454.1,395.6 L454.5,395.6 L454.9,395.6    L455.3,395.7 L455.8,395.7 L456.2,395.7 L456.6,395.7 L457.0,395.7 L457.4,395.7 L457.9,395.7 L458.3,395.7    L458.7,395.7 L459.1,395.8 L459.5,395.8 L460.0,395.8 L460.4,395.8 L460.8,395.8 L461.2,395.8 L461.6,395.8    L462.1,395.8 L462.5,395.8 L462.9,395.9 L463.3,395.9 L463.7,395.9 L464.2,395.9 L464.6,395.9 L465.0,395.9    L465.4,395.9 L465.8,395.9 L466.3,395.9 L466.7,395.9 L467.1,396.0 L467.5,396.0 L467.9,396.0 L468.4,396.0    L468.8,396.0 L469.2,396.0 L469.6,396.0 L470.1,396.0 L470.5,396.0 L470.9,396.0 L471.3,396.1 L471.7,396.1    L472.2,396.1 L472.6,396.1 L473.0,396.1 L473.4,396.1 L473.8,396.1 L474.3,396.1 L474.7,396.1 L475.1,396.1    L475.5,396.2 L475.9,396.2 L476.4,396.2 L476.8,396.2 L477.2,396.2 L477.6,396.2 L478.0,396.2 L478.5,396.2    L478.9,396.2 L479.3,396.2 L479.7,396.2 L480.1,396.3 L480.6,396.3 L481.0,396.3 L481.4,396.3 L481.8,396.3    L482.2,396.3 L482.7,396.3 L483.1,396.3 L483.5,396.3 L483.9,396.3 L484.3,396.3 L484.8,396.4 L485.2,396.4    L485.6,396.4 L486.0,396.4 L486.4,396.4 L486.9,396.4 L487.3,396.4 L487.7,396.4 L488.1,396.4 L488.5,396.4    L489.0,396.4 L489.4,396.4 L489.8,396.5 L490.2,396.5 L490.7,396.5 L491.1,396.5 L491.5,396.5 L491.9,396.5    L492.3,396.5 L492.8,396.5 L493.2,396.5 L493.6,396.5 L494.0,396.5 L494.4,396.5 L494.9,396.6 L495.3,396.6    L495.7,396.6 L496.1,396.6 L496.5,396.6 L497.0,396.6 L497.4,396.6 L497.8,396.6 L498.2,396.6 L498.6,396.6    L499.1,396.6 L499.5,396.6 L499.9,396.6 L500.3,396.7 L500.7,396.7 L501.2,396.7 L501.6,396.7 L502.0,396.7    L502.4,396.7 L502.8,396.7 L503.3,396.7 L503.7,396.7 L504.1,396.7 L504.5,396.7 L504.9,396.7 L505.4,396.7    L505.8,396.7 L506.2,396.8 L506.6,396.8 L507.0,396.8 L507.5,396.8 L507.9,396.8 L508.3,396.8 L508.7,396.8    L509.1,396.8 L509.6,396.8 L510.0,396.8 L510.4,396.8 L510.8,396.8 L511.2,396.8 L511.7,396.8 L512.1,396.8    L512.5,396.9 L512.9,396.9 L513.4,396.9 L513.8,396.9 L514.2,396.9 L514.6,396.9 L515.0,396.9 L515.5,396.9    L515.9,396.9 L516.3,396.9 L516.7,396.9 L517.1,396.9 L517.6,396.9 L518.0,396.9 L518.4,396.9 L518.8,397.0    L519.2,397.0 L519.7,397.0 L520.1,397.0 L520.5,397.0 L520.9,397.0 L521.3,397.0 L521.8,397.0 L522.2,397.0    L522.6,397.0 L523.0,397.0 L523.4,397.0 L523.9,397.0 L524.3,397.0 L524.7,397.0 L525.1,397.0 L525.5,397.1    L526.0,397.1 L526.4,397.1 L526.8,397.1 L527.2,397.1 L527.6,397.1 L528.1,397.1 L528.5,397.1 L528.9,397.1    L529.3,397.1 L529.7,397.1 L530.2,397.1 L530.6,397.1 L531.0,397.1 L531.4,397.1 L531.8,397.1 L532.3,397.1    L532.7,397.1 L533.1,397.2 L533.5,397.2 L534.0,397.2 L534.4,397.2 L534.8,397.2 L535.2,397.2 L535.6,397.2    L536.1,397.2 L536.5,397.2 L536.9,397.2 L537.3,397.2 L537.7,397.2 L538.2,397.2 L538.6,397.2 L539.0,397.2    L539.4,397.2 L539.8,397.2 L540.3,397.2 L540.7,397.3 L541.1,397.3 L541.5,397.3 L541.9,397.3 L542.4,397.3    L542.8,397.3 L543.2,397.3  h0.01"
           id="path3343" />
      </g>
    </g>
    <g
       id="gnuplot_plot_3">
      <title
         id="title3346">gnuplot_plot_3</title>
      <g
         style="fill:none; color:blue; stroke:currentColor; stroke-width:2.00; stroke-linecap:butt; stroke-linejoin:miter"
         id="g3348">
        <g
           transform="translate(390.7,169.2)"
           style="stroke:none; fill:black; font-family:Times; font-size:27.00pt; text-anchor:end"
           id="g3350">
          <text
             id="text3352">α= 3, β= 1</text>
        </g>
        <path
           d="M409.6,159.1 L505.4,159.1 M123.2,399.2 L123.6,399.2 L124.1,399.2 L124.5,399.2 L124.9,399.2 L125.3,399.2    L125.7,399.2 L126.2,399.2 L126.6,399.2 L127.0,399.2 L127.4,399.2 L127.8,399.2 L128.3,399.2 L128.7,399.2    L129.1,399.2 L129.5,399.2 L129.9,399.2 L130.4,399.2 L130.8,399.1 L131.2,399.0 L131.6,398.9 L132.0,398.7    L132.5,398.4 L132.9,398.0 L133.3,397.4 L133.7,396.6 L134.2,395.6 L134.6,394.3 L135.0,392.8 L135.4,391.0    L135.8,388.9 L136.3,386.5 L136.7,383.8 L137.1,380.8 L137.5,377.5 L137.9,373.9 L138.4,370.1 L138.8,366.0    L139.2,361.8 L139.6,357.3 L140.0,352.7 L140.5,348.0 L140.9,343.1 L141.3,338.2 L141.7,333.2 L142.1,328.2    L142.6,323.2 L143.0,318.2 L143.4,313.3 L143.8,308.4 L144.2,303.6 L144.7,298.9 L145.1,294.3 L145.5,289.8    L145.9,285.5 L146.3,281.3 L146.8,277.3 L147.2,273.4 L147.6,269.7 L148.0,266.1 L148.4,262.8 L148.9,259.6    L149.3,256.6 L149.7,253.8 L150.1,251.1 L150.5,248.6 L151.0,246.3 L151.4,244.2 L151.8,242.2 L152.2,240.4    L152.6,238.7 L153.1,237.2 L153.5,235.9 L153.9,234.7 L154.3,233.6 L154.8,232.7 L155.2,232.0 L155.6,231.3    L156.0,230.8 L156.4,230.4 L156.9,230.1 L157.3,229.9 L157.7,229.8 L158.1,229.8 L158.5,229.9 L159.0,230.1    L159.4,230.4 L159.8,230.8 L160.2,231.2 L160.6,231.7 L161.1,232.3 L161.5,233.0 L161.9,233.7 L162.3,234.5    L162.7,235.3 L163.2,236.1 L163.6,237.1 L164.0,238.0 L164.4,239.0 L164.8,240.1 L165.3,241.2 L165.7,242.3    L166.1,243.4 L166.5,244.6 L166.9,245.8 L167.4,247.0 L167.8,248.2 L168.2,249.5 L168.6,250.8 L169.0,252.0    L169.5,253.4 L169.9,254.7 L170.3,256.0 L170.7,257.3 L171.1,258.7 L171.6,260.0 L172.0,261.4 L172.4,262.7    L172.8,264.1 L173.2,265.5 L173.7,266.8 L174.1,268.2 L174.5,269.5 L174.9,270.9 L175.4,272.3 L175.8,273.6    L176.2,275.0 L176.6,276.3 L177.0,277.6 L177.5,279.0 L177.9,280.3 L178.3,281.6 L178.7,282.9 L179.1,284.2    L179.6,285.5 L180.0,286.8 L180.4,288.1 L180.8,289.3 L181.2,290.6 L181.7,291.8 L182.1,293.1 L182.5,294.3    L182.9,295.5 L183.3,296.7 L183.8,297.9 L184.2,299.1 L184.6,300.3 L185.0,301.4 L185.4,302.6 L185.9,303.7    L186.3,304.8 L186.7,306.0 L187.1,307.1 L187.5,308.2 L188.0,309.2 L188.4,310.3 L188.8,311.4 L189.2,312.4    L189.6,313.4 L190.1,314.5 L190.5,315.5 L190.9,316.5 L191.3,317.4 L191.7,318.4 L192.2,319.4 L192.6,320.3    L193.0,321.3 L193.4,322.2 L193.8,323.1 L194.3,324.0 L194.7,324.9 L195.1,325.8 L195.5,326.7 L195.9,327.6    L196.4,328.4 L196.8,329.2 L197.2,330.1 L197.6,330.9 L198.1,331.7 L198.5,332.5 L198.9,333.3 L199.3,334.1    L199.7,334.9 L200.2,335.6 L200.6,336.4 L201.0,337.1 L201.4,337.8 L201.8,338.6 L202.3,339.3 L202.7,340.0    L203.1,340.7 L203.5,341.4 L203.9,342.0 L204.4,342.7 L204.8,343.4 L205.2,344.0 L205.6,344.7 L206.0,345.3    L206.5,345.9 L206.9,346.5 L207.3,347.2 L207.7,347.8 L208.1,348.4 L208.6,348.9 L209.0,349.5 L209.4,350.1    L209.8,350.7 L210.2,351.2 L210.7,351.8 L211.1,352.3 L211.5,352.8 L211.9,353.4 L212.3,353.9 L212.8,354.4    L213.2,354.9 L213.6,355.4 L214.0,355.9 L214.4,356.4 L214.9,356.9 L215.3,357.4 L215.7,357.8 L216.1,358.3    L216.5,358.7 L217.0,359.2 L217.4,359.6 L217.8,360.1 L218.2,360.5 L218.7,360.9 L219.1,361.4 L219.5,361.8    L219.9,362.2 L220.3,362.6 L220.8,363.0 L221.2,363.4 L221.6,363.8 L222.0,364.2 L222.4,364.6 L222.9,364.9    L223.3,365.3 L223.7,365.7 L224.1,366.0 L224.5,366.4 L225.0,366.7 L225.4,367.1 L225.8,367.4 L226.2,367.8    L226.6,368.1 L227.1,368.4 L227.5,368.8 L227.9,369.1 L228.3,369.4 L228.7,369.7 L229.2,370.0 L229.6,370.4    L230.0,370.7 L230.4,371.0 L230.8,371.3 L231.3,371.5 L231.7,371.8 L232.1,372.1 L232.5,372.4 L232.9,372.7    L233.4,373.0 L233.8,373.2 L234.2,373.5 L234.6,373.8 L235.0,374.0 L235.5,374.3 L235.9,374.5 L236.3,374.8    L236.7,375.0 L237.1,375.3 L237.6,375.5 L238.0,375.8 L238.4,376.0 L238.8,376.2 L239.3,376.5 L239.7,376.7    L240.1,376.9 L240.5,377.1 L240.9,377.4 L241.4,377.6 L241.8,377.8 L242.2,378.0 L242.6,378.2 L243.0,378.4    L243.5,378.6 L243.9,378.8 L244.3,379.0 L244.7,379.2 L245.1,379.4 L245.6,379.6 L246.0,379.8 L246.4,380.0    L246.8,380.2 L247.2,380.4 L247.7,380.5 L248.1,380.7 L248.5,380.9 L248.9,381.1 L249.3,381.2 L249.8,381.4    L250.2,381.6 L250.6,381.8 L251.0,381.9 L251.4,382.1 L251.9,382.2 L252.3,382.4 L252.7,382.6 L253.1,382.7    L253.5,382.9 L254.0,383.0 L254.4,383.2 L254.8,383.3 L255.2,383.5 L255.6,383.6 L256.1,383.8 L256.5,383.9    L256.9,384.1 L257.3,384.2 L257.7,384.3 L258.2,384.5 L258.6,384.6 L259.0,384.7 L259.4,384.9 L259.9,385.0    L260.3,385.1 L260.7,385.3 L261.1,385.4 L261.5,385.5 L262.0,385.6 L262.4,385.7 L262.8,385.9 L263.2,386.0    L263.6,386.1 L264.1,386.2 L264.5,386.3 L264.9,386.5 L265.3,386.6 L265.7,386.7 L266.2,386.8 L266.6,386.9    L267.0,387.0 L267.4,387.1 L267.8,387.2 L268.3,387.3 L268.7,387.4 L269.1,387.5 L269.5,387.6 L269.9,387.7    L270.4,387.8 L270.8,387.9 L271.2,388.0 L271.6,388.1 L272.0,388.2 L272.5,388.3 L272.9,388.4 L273.3,388.5    L273.7,388.6 L274.1,388.7 L274.6,388.8 L275.0,388.9 L275.4,388.9 L275.8,389.0 L276.2,389.1 L276.7,389.2    L277.1,389.3 L277.5,389.4 L277.9,389.5 L278.3,389.5 L278.8,389.6 L279.2,389.7 L279.6,389.8 L280.0,389.8    L280.5,389.9 L280.9,390.0 L281.3,390.1 L281.7,390.2 L282.1,390.2 L282.6,390.3 L283.0,390.4 L283.4,390.4    L283.8,390.5 L284.2,390.6 L284.7,390.7 L285.1,390.7 L285.5,390.8 L285.9,390.9 L286.3,390.9 L286.8,391.0    L287.2,391.1 L287.6,391.1 L288.0,391.2 L288.4,391.3 L288.9,391.3 L289.3,391.4 L289.7,391.4 L290.1,391.5    L290.5,391.6 L291.0,391.6 L291.4,391.7 L291.8,391.7 L292.2,391.8 L292.6,391.9 L293.1,391.9 L293.5,392.0    L293.9,392.0 L294.3,392.1 L294.7,392.1 L295.2,392.2 L295.6,392.3 L296.0,392.3 L296.4,392.4 L296.8,392.4    L297.3,392.5 L297.7,392.5 L298.1,392.6 L298.5,392.6 L298.9,392.7 L299.4,392.7 L299.8,392.8 L300.2,392.8    L300.6,392.9 L301.0,392.9 L301.5,393.0 L301.9,393.0 L302.3,393.1 L302.7,393.1 L303.2,393.1 L303.6,393.2    L304.0,393.2 L304.4,393.3 L304.8,393.3 L305.3,393.4 L305.7,393.4 L306.1,393.5 L306.5,393.5 L306.9,393.5    L307.4,393.6 L307.8,393.6 L308.2,393.7 L308.6,393.7 L309.0,393.7 L309.5,393.8 L309.9,393.8 L310.3,393.9    L310.7,393.9 L311.1,393.9 L311.6,394.0 L312.0,394.0 L312.4,394.1 L312.8,394.1 L313.2,394.1 L313.7,394.2    L314.1,394.2 L314.5,394.2 L314.9,394.3 L315.3,394.3 L315.8,394.3 L316.2,394.4 L316.6,394.4 L317.0,394.4    L317.4,394.5 L317.9,394.5 L318.3,394.5 L318.7,394.6 L319.1,394.6 L319.5,394.6 L320.0,394.7 L320.4,394.7    L320.8,394.7 L321.2,394.8 L321.6,394.8 L322.1,394.8 L322.5,394.9 L322.9,394.9 L323.3,394.9 L323.8,394.9    L324.2,395.0 L324.6,395.0 L325.0,395.0 L325.4,395.1 L325.9,395.1 L326.3,395.1 L326.7,395.1 L327.1,395.2    L327.5,395.2 L328.0,395.2 L328.4,395.3 L328.8,395.3 L329.2,395.3 L329.6,395.3 L330.1,395.4 L330.5,395.4    L330.9,395.4 L331.3,395.4 L331.7,395.5 L332.2,395.5 L332.6,395.5 L333.0,395.5 L333.4,395.6 L333.8,395.6    L334.3,395.6 L334.7,395.6 L335.1,395.7 L335.5,395.7 L335.9,395.7 L336.4,395.7 L336.8,395.7 L337.2,395.8    L337.6,395.8 L338.0,395.8 L338.5,395.8 L338.9,395.9 L339.3,395.9 L339.7,395.9 L340.1,395.9 L340.6,395.9    L341.0,396.0 L341.4,396.0 L341.8,396.0 L342.2,396.0 L342.7,396.0 L343.1,396.1 L343.5,396.1 L343.9,396.1    L344.4,396.1 L344.8,396.1 L345.2,396.2 L345.6,396.2 L346.0,396.2 L346.5,396.2 L346.9,396.2 L347.3,396.3    L347.7,396.3 L348.1,396.3 L348.6,396.3 L349.0,396.3 L349.4,396.4 L349.8,396.4 L350.2,396.4 L350.7,396.4    L351.1,396.4 L351.5,396.4 L351.9,396.5 L352.3,396.5 L352.8,396.5 L353.2,396.5 L353.6,396.5 L354.0,396.5    L354.4,396.6 L354.9,396.6 L355.3,396.6 L355.7,396.6 L356.1,396.6 L356.5,396.6 L357.0,396.7 L357.4,396.7    L357.8,396.7 L358.2,396.7 L358.6,396.7 L359.1,396.7 L359.5,396.7 L359.9,396.8 L360.3,396.8 L360.7,396.8    L361.2,396.8 L361.6,396.8 L362.0,396.8 L362.4,396.8 L362.8,396.9 L363.3,396.9 L363.7,396.9 L364.1,396.9    L364.5,396.9 L365.0,396.9 L365.4,396.9 L365.8,397.0 L366.2,397.0 L366.6,397.0 L367.1,397.0 L367.5,397.0    L367.9,397.0 L368.3,397.0 L368.7,397.0 L369.2,397.1 L369.6,397.1 L370.0,397.1 L370.4,397.1 L370.8,397.1    L371.3,397.1 L371.7,397.1 L372.1,397.1 L372.5,397.2 L372.9,397.2 L373.4,397.2 L373.8,397.2 L374.2,397.2    L374.6,397.2 L375.0,397.2 L375.5,397.2 L375.9,397.2 L376.3,397.3 L376.7,397.3 L377.1,397.3 L377.6,397.3    L378.0,397.3 L378.4,397.3 L378.8,397.3 L379.2,397.3 L379.7,397.3 L380.1,397.4 L380.5,397.4 L380.9,397.4    L381.3,397.4 L381.8,397.4 L382.2,397.4 L382.6,397.4 L383.0,397.4 L383.4,397.4 L383.9,397.4 L384.3,397.5    L384.7,397.5 L385.1,397.5 L385.6,397.5 L386.0,397.5 L386.4,397.5 L386.8,397.5 L387.2,397.5 L387.7,397.5    L388.1,397.5 L388.5,397.6 L388.9,397.6 L389.3,397.6 L389.8,397.6 L390.2,397.6 L390.6,397.6 L391.0,397.6    L391.4,397.6 L391.9,397.6 L392.3,397.6 L392.7,397.6 L393.1,397.6 L393.5,397.7 L394.0,397.7 L394.4,397.7    L394.8,397.7 L395.2,397.7 L395.6,397.7 L396.1,397.7 L396.5,397.7 L396.9,397.7 L397.3,397.7 L397.7,397.7    L398.2,397.7 L398.6,397.8 L399.0,397.8 L399.4,397.8 L399.8,397.8 L400.3,397.8 L400.7,397.8 L401.1,397.8    L401.5,397.8 L401.9,397.8 L402.4,397.8 L402.8,397.8 L403.2,397.8 L403.6,397.8 L404.0,397.8 L404.5,397.9    L404.9,397.9 L405.3,397.9 L405.7,397.9 L406.1,397.9 L406.6,397.9 L407.0,397.9 L407.4,397.9 L407.8,397.9    L408.3,397.9 L408.7,397.9 L409.1,397.9 L409.5,397.9 L409.9,397.9 L410.4,397.9 L410.8,398.0 L411.2,398.0    L411.6,398.0 L412.0,398.0 L412.5,398.0 L412.9,398.0 L413.3,398.0 L413.7,398.0 L414.1,398.0 L414.6,398.0    L415.0,398.0 L415.4,398.0 L415.8,398.0 L416.2,398.0 L416.7,398.0 L417.1,398.0 L417.5,398.1 L417.9,398.1    L418.3,398.1 L418.8,398.1 L419.2,398.1 L419.6,398.1 L420.0,398.1 L420.4,398.1 L420.9,398.1 L421.3,398.1    L421.7,398.1 L422.1,398.1 L422.5,398.1 L423.0,398.1 L423.4,398.1 L423.8,398.1 L424.2,398.1 L424.6,398.1    L425.1,398.2 L425.5,398.2 L425.9,398.2 L426.3,398.2 L426.7,398.2 L427.2,398.2 L427.6,398.2 L428.0,398.2    L428.4,398.2 L428.9,398.2 L429.3,398.2 L429.7,398.2 L430.1,398.2 L430.5,398.2 L431.0,398.2 L431.4,398.2    L431.8,398.2 L432.2,398.2 L432.6,398.2 L433.1,398.2 L433.5,398.2 L433.9,398.3 L434.3,398.3 L434.7,398.3    L435.2,398.3 L435.6,398.3 L436.0,398.3 L436.4,398.3 L436.8,398.3 L437.3,398.3 L437.7,398.3 L438.1,398.3    L438.5,398.3 L438.9,398.3 L439.4,398.3 L439.8,398.3 L440.2,398.3 L440.6,398.3 L441.0,398.3 L441.5,398.3    L441.9,398.3 L442.3,398.3 L442.7,398.3 L443.1,398.3 L443.6,398.3 L444.0,398.4 L444.4,398.4 L444.8,398.4    L445.2,398.4 L445.7,398.4 L446.1,398.4 L446.5,398.4 L446.9,398.4 L447.3,398.4 L447.8,398.4 L448.2,398.4    L448.6,398.4 L449.0,398.4 L449.5,398.4 L449.9,398.4 L450.3,398.4 L450.7,398.4 L451.1,398.4 L451.6,398.4    L452.0,398.4 L452.4,398.4 L452.8,398.4 L453.2,398.4 L453.7,398.4 L454.1,398.4 L454.5,398.4 L454.9,398.4    L455.3,398.5 L455.8,398.5 L456.2,398.5 L456.6,398.5 L457.0,398.5 L457.4,398.5 L457.9,398.5 L458.3,398.5    L458.7,398.5 L459.1,398.5 L459.5,398.5 L460.0,398.5 L460.4,398.5 L460.8,398.5 L461.2,398.5 L461.6,398.5    L462.1,398.5 L462.5,398.5 L462.9,398.5 L463.3,398.5 L463.7,398.5 L464.2,398.5 L464.6,398.5 L465.0,398.5    L465.4,398.5 L465.8,398.5 L466.3,398.5 L466.7,398.5 L467.1,398.5 L467.5,398.5 L467.9,398.5 L468.4,398.5    L468.8,398.6 L469.2,398.6 L469.6,398.6 L470.1,398.6 L470.5,398.6 L470.9,398.6 L471.3,398.6 L471.7,398.6    L472.2,398.6 L472.6,398.6 L473.0,398.6 L473.4,398.6 L473.8,398.6 L474.3,398.6 L474.7,398.6 L475.1,398.6    L475.5,398.6 L475.9,398.6 L476.4,398.6 L476.8,398.6 L477.2,398.6 L477.6,398.6 L478.0,398.6 L478.5,398.6    L478.9,398.6 L479.3,398.6 L479.7,398.6 L480.1,398.6 L480.6,398.6 L481.0,398.6 L481.4,398.6 L481.8,398.6    L482.2,398.6 L482.7,398.6 L483.1,398.6 L483.5,398.6 L483.9,398.6 L484.3,398.6 L484.8,398.6 L485.2,398.7    L485.6,398.7 L486.0,398.7 L486.4,398.7 L486.9,398.7 L487.3,398.7 L487.7,398.7 L488.1,398.7 L488.5,398.7    L489.0,398.7 L489.4,398.7 L489.8,398.7 L490.2,398.7 L490.7,398.7 L491.1,398.7 L491.5,398.7 L491.9,398.7    L492.3,398.7 L492.8,398.7 L493.2,398.7 L493.6,398.7 L494.0,398.7 L494.4,398.7 L494.9,398.7 L495.3,398.7    L495.7,398.7 L496.1,398.7 L496.5,398.7 L497.0,398.7 L497.4,398.7 L497.8,398.7 L498.2,398.7 L498.6,398.7    L499.1,398.7 L499.5,398.7 L499.9,398.7 L500.3,398.7 L500.7,398.7 L501.2,398.7 L501.6,398.7 L502.0,398.7    L502.4,398.7 L502.8,398.7 L503.3,398.7 L503.7,398.7 L504.1,398.7 L504.5,398.7 L504.9,398.7 L505.4,398.7    L505.8,398.8 L506.2,398.8 L506.6,398.8 L507.0,398.8 L507.5,398.8 L507.9,398.8 L508.3,398.8 L508.7,398.8    L509.1,398.8 L509.6,398.8 L510.0,398.8 L510.4,398.8 L510.8,398.8 L511.2,398.8 L511.7,398.8 L512.1,398.8    L512.5,398.8 L512.9,398.8 L513.4,398.8 L513.8,398.8 L514.2,398.8 L514.6,398.8 L515.0,398.8 L515.5,398.8    L515.9,398.8 L516.3,398.8 L516.7,398.8 L517.1,398.8 L517.6,398.8 L518.0,398.8 L518.4,398.8 L518.8,398.8    L519.2,398.8 L519.7,398.8 L520.1,398.8 L520.5,398.8 L520.9,398.8 L521.3,398.8 L521.8,398.8 L522.2,398.8    L522.6,398.8 L523.0,398.8 L523.4,398.8 L523.9,398.8 L524.3,398.8 L524.7,398.8 L525.1,398.8 L525.5,398.8    L526.0,398.8 L526.4,398.8 L526.8,398.8 L527.2,398.8 L527.6,398.8 L528.1,398.8 L528.5,398.8 L528.9,398.8    L529.3,398.8 L529.7,398.8 L530.2,398.8 L530.6,398.8 L531.0,398.8 L531.4,398.8 L531.8,398.8 L532.3,398.8    L532.7,398.8 L533.1,398.9 L533.5,398.9 L534.0,398.9 L534.4,398.9 L534.8,398.9 L535.2,398.9 L535.6,398.9    L536.1,398.9 L536.5,398.9 L536.9,398.9 L537.3,398.9 L537.7,398.9 L538.2,398.9 L538.6,398.9 L539.0,398.9    L539.4,398.9 L539.8,398.9 L540.3,398.9 L540.7,398.9 L541.1,398.9 L541.5,398.9 L541.9,398.9 L542.4,398.9    L542.8,398.9 L543.2,398.9  h0.01"
           id="path3354" />
      </g>
    </g>
    <g
       id="gnuplot_plot_4">
      <title
         id="title3357">gnuplot_plot_4</title>
      <g
         style="fill:none; color:cyan; stroke:currentColor; stroke-width:2.00; stroke-linecap:butt; stroke-linejoin:miter"
         id="g3359">
        <g
           transform="translate(390.7,209.6)"
           style="stroke:none; fill:black; font-family:Times; font-size:27.00pt; text-anchor:end"
           id="g3361">
          <text
             id="text3363">α= 3, β= 0.5</text>
        </g>
        <path
           d="M409.6,199.5 L505.4,199.5 M123.2,399.2 L123.6,399.2 L124.1,399.2 L124.5,399.2 L124.9,399.2 L125.3,399.2    L125.7,399.2 L126.2,399.2 L126.6,399.1 L127.0,398.9 L127.4,398.2 L127.8,396.7 L128.3,393.9 L128.7,389.4    L129.1,382.7 L129.5,373.7 L129.9,362.3 L130.4,348.6 L130.8,332.9 L131.2,315.4 L131.6,296.7 L132.0,277.2    L132.5,257.2 L132.9,237.2 L133.3,217.5 L133.7,198.5 L134.2,180.4 L134.6,163.4 L135.0,147.6 L135.4,133.1    L135.8,120.0 L136.3,108.3 L136.7,98.0 L137.1,89.1 L137.5,81.5 L137.9,75.3 L138.4,70.2 L138.8,66.3    L139.2,63.4 L139.6,61.5 L140.0,60.6 L140.5,60.4 L140.9,61.1 L141.3,62.4 L141.7,64.3 L142.1,66.7    L142.6,69.7 L143.0,73.1 L143.4,76.9 L143.8,81.0 L144.2,85.3 L144.7,89.9 L145.1,94.8 L145.5,99.8    L145.9,104.9 L146.3,110.1 L146.8,115.5 L147.2,120.8 L147.6,126.3 L148.0,131.7 L148.4,137.2 L148.9,142.6    L149.3,148.0 L149.7,153.4 L150.1,158.7 L150.5,164.0 L151.0,169.2 L151.4,174.4 L151.8,179.5 L152.2,184.5    L152.6,189.4 L153.1,194.2 L153.5,199.0 L153.9,203.7 L154.3,208.2 L154.8,212.7 L155.2,217.1 L155.6,221.4    L156.0,225.6 L156.4,229.7 L156.9,233.7 L157.3,237.6 L157.7,241.5 L158.1,245.2 L158.5,248.9 L159.0,252.4    L159.4,255.9 L159.8,259.3 L160.2,262.6 L160.6,265.8 L161.1,269.0 L161.5,272.0 L161.9,275.0 L162.3,277.9    L162.7,280.8 L163.2,283.5 L163.6,286.2 L164.0,288.8 L164.4,291.4 L164.8,293.9 L165.3,296.3 L165.7,298.7    L166.1,301.0 L166.5,303.2 L166.9,305.4 L167.4,307.5 L167.8,309.6 L168.2,311.6 L168.6,313.6 L169.0,315.5    L169.5,317.4 L169.9,319.2 L170.3,321.0 L170.7,322.7 L171.1,324.4 L171.6,326.0 L172.0,327.6 L172.4,329.2    L172.8,330.7 L173.2,332.2 L173.7,333.6 L174.1,335.0 L174.5,336.4 L174.9,337.7 L175.4,339.0 L175.8,340.3    L176.2,341.5 L176.6,342.7 L177.0,343.9 L177.5,345.0 L177.9,346.2 L178.3,347.2 L178.7,348.3 L179.1,349.3    L179.6,350.4 L180.0,351.3 L180.4,352.3 L180.8,353.3 L181.2,354.2 L181.7,355.1 L182.1,355.9 L182.5,356.8    L182.9,357.6 L183.3,358.4 L183.8,359.2 L184.2,360.0 L184.6,360.8 L185.0,361.5 L185.4,362.2 L185.9,362.9    L186.3,363.6 L186.7,364.3 L187.1,365.0 L187.5,365.6 L188.0,366.2 L188.4,366.9 L188.8,367.5 L189.2,368.0    L189.6,368.6 L190.1,369.2 L190.5,369.7 L190.9,370.3 L191.3,370.8 L191.7,371.3 L192.2,371.8 L192.6,372.3    L193.0,372.8 L193.4,373.2 L193.8,373.7 L194.3,374.2 L194.7,374.6 L195.1,375.0 L195.5,375.4 L195.9,375.9    L196.4,376.3 L196.8,376.7 L197.2,377.0 L197.6,377.4 L198.1,377.8 L198.5,378.2 L198.9,378.5 L199.3,378.9    L199.7,379.2 L200.2,379.5 L200.6,379.9 L201.0,380.2 L201.4,380.5 L201.8,380.8 L202.3,381.1 L202.7,381.4    L203.1,381.7 L203.5,382.0 L203.9,382.3 L204.4,382.5 L204.8,382.8 L205.2,383.1 L205.6,383.3 L206.0,383.6    L206.5,383.8 L206.9,384.1 L207.3,384.3 L207.7,384.5 L208.1,384.8 L208.6,385.0 L209.0,385.2 L209.4,385.4    L209.8,385.6 L210.2,385.8 L210.7,386.0 L211.1,386.2 L211.5,386.4 L211.9,386.6 L212.3,386.8 L212.8,387.0    L213.2,387.2 L213.6,387.4 L214.0,387.5 L214.4,387.7 L214.9,387.9 L215.3,388.0 L215.7,388.2 L216.1,388.4    L216.5,388.5 L217.0,388.7 L217.4,388.8 L217.8,389.0 L218.2,389.1 L218.7,389.3 L219.1,389.4 L219.5,389.5    L219.9,389.7 L220.3,389.8 L220.8,389.9 L221.2,390.1 L221.6,390.2 L222.0,390.3 L222.4,390.5 L222.9,390.6    L223.3,390.7 L223.7,390.8 L224.1,390.9 L224.5,391.0 L225.0,391.1 L225.4,391.3 L225.8,391.4 L226.2,391.5    L226.6,391.6 L227.1,391.7 L227.5,391.8 L227.9,391.9 L228.3,392.0 L228.7,392.1 L229.2,392.2 L229.6,392.2    L230.0,392.3 L230.4,392.4 L230.8,392.5 L231.3,392.6 L231.7,392.7 L232.1,392.8 L232.5,392.9 L232.9,392.9    L233.4,393.0 L233.8,393.1 L234.2,393.2 L234.6,393.2 L235.0,393.3 L235.5,393.4 L235.9,393.5 L236.3,393.5    L236.7,393.6 L237.1,393.7 L237.6,393.7 L238.0,393.8 L238.4,393.9 L238.8,393.9 L239.3,394.0 L239.7,394.1    L240.1,394.1 L240.5,394.2 L240.9,394.3 L241.4,394.3 L241.8,394.4 L242.2,394.4 L242.6,394.5 L243.0,394.5    L243.5,394.6 L243.9,394.7 L244.3,394.7 L244.7,394.8 L245.1,394.8 L245.6,394.9 L246.0,394.9 L246.4,395.0    L246.8,395.0 L247.2,395.1 L247.7,395.1 L248.1,395.2 L248.5,395.2 L248.9,395.3 L249.3,395.3 L249.8,395.3    L250.2,395.4 L250.6,395.4 L251.0,395.5 L251.4,395.5 L251.9,395.6 L252.3,395.6 L252.7,395.6 L253.1,395.7    L253.5,395.7 L254.0,395.8 L254.4,395.8 L254.8,395.8 L255.2,395.9 L255.6,395.9 L256.1,395.9 L256.5,396.0    L256.9,396.0 L257.3,396.0 L257.7,396.1 L258.2,396.1 L258.6,396.1 L259.0,396.2 L259.4,396.2 L259.9,396.2    L260.3,396.3 L260.7,396.3 L261.1,396.3 L261.5,396.4 L262.0,396.4 L262.4,396.4 L262.8,396.5 L263.2,396.5    L263.6,396.5 L264.1,396.5 L264.5,396.6 L264.9,396.6 L265.3,396.6 L265.7,396.6 L266.2,396.7 L266.6,396.7    L267.0,396.7 L267.4,396.7 L267.8,396.8 L268.3,396.8 L268.7,396.8 L269.1,396.8 L269.5,396.9 L269.9,396.9    L270.4,396.9 L270.8,396.9 L271.2,397.0 L271.6,397.0 L272.0,397.0 L272.5,397.0 L272.9,397.0 L273.3,397.1    L273.7,397.1 L274.1,397.1 L274.6,397.1 L275.0,397.2 L275.4,397.2 L275.8,397.2 L276.2,397.2 L276.7,397.2    L277.1,397.2 L277.5,397.3 L277.9,397.3 L278.3,397.3 L278.8,397.3 L279.2,397.3 L279.6,397.4 L280.0,397.4    L280.5,397.4 L280.9,397.4 L281.3,397.4 L281.7,397.4 L282.1,397.5 L282.6,397.5 L283.0,397.5 L283.4,397.5    L283.8,397.5 L284.2,397.5 L284.7,397.6 L285.1,397.6 L285.5,397.6 L285.9,397.6 L286.3,397.6 L286.8,397.6    L287.2,397.6 L287.6,397.7 L288.0,397.7 L288.4,397.7 L288.9,397.7 L289.3,397.7 L289.7,397.7 L290.1,397.7    L290.5,397.8 L291.0,397.8 L291.4,397.8 L291.8,397.8 L292.2,397.8 L292.6,397.8 L293.1,397.8 L293.5,397.8    L293.9,397.9 L294.3,397.9 L294.7,397.9 L295.2,397.9 L295.6,397.9 L296.0,397.9 L296.4,397.9 L296.8,397.9    L297.3,397.9 L297.7,398.0 L298.1,398.0 L298.5,398.0 L298.9,398.0 L299.4,398.0 L299.8,398.0 L300.2,398.0    L300.6,398.0 L301.0,398.0 L301.5,398.0 L301.9,398.1 L302.3,398.1 L302.7,398.1 L303.2,398.1 L303.6,398.1    L304.0,398.1 L304.4,398.1 L304.8,398.1 L305.3,398.1 L305.7,398.1 L306.1,398.1 L306.5,398.2 L306.9,398.2    L307.4,398.2 L307.8,398.2 L308.2,398.2 L308.6,398.2 L309.0,398.2 L309.5,398.2 L309.9,398.2 L310.3,398.2    L310.7,398.2 L311.1,398.2 L311.6,398.3 L312.0,398.3 L312.4,398.3 L312.8,398.3 L313.2,398.3 L313.7,398.3    L314.1,398.3 L314.5,398.3 L314.9,398.3 L315.3,398.3 L315.8,398.3 L316.2,398.3 L316.6,398.3 L317.0,398.3    L317.4,398.4 L317.9,398.4 L318.3,398.4 L318.7,398.4 L319.1,398.4 L319.5,398.4 L320.0,398.4 L320.4,398.4    L320.8,398.4 L321.2,398.4 L321.6,398.4 L322.1,398.4 L322.5,398.4 L322.9,398.4 L323.3,398.4 L323.8,398.4    L324.2,398.5 L324.6,398.5 L325.0,398.5 L325.4,398.5 L325.9,398.5 L326.3,398.5 L326.7,398.5 L327.1,398.5    L327.5,398.5 L328.0,398.5 L328.4,398.5 L328.8,398.5 L329.2,398.5 L329.6,398.5 L330.1,398.5 L330.5,398.5    L330.9,398.5 L331.3,398.5 L331.7,398.5 L332.2,398.6 L332.6,398.6 L333.0,398.6 L333.4,398.6 L333.8,398.6    L334.3,398.6 L334.7,398.6 L335.1,398.6 L335.5,398.6 L335.9,398.6 L336.4,398.6 L336.8,398.6 L337.2,398.6    L337.6,398.6 L338.0,398.6 L338.5,398.6 L338.9,398.6 L339.3,398.6 L339.7,398.6 L340.1,398.6 L340.6,398.6    L341.0,398.6 L341.4,398.6 L341.8,398.7 L342.2,398.7 L342.7,398.7 L343.1,398.7 L343.5,398.7 L343.9,398.7    L344.4,398.7 L344.8,398.7 L345.2,398.7 L345.6,398.7 L346.0,398.7 L346.5,398.7 L346.9,398.7 L347.3,398.7    L347.7,398.7 L348.1,398.7 L348.6,398.7 L349.0,398.7 L349.4,398.7 L349.8,398.7 L350.2,398.7 L350.7,398.7    L351.1,398.7 L351.5,398.7 L351.9,398.7 L352.3,398.7 L352.8,398.7 L353.2,398.7 L353.6,398.7 L354.0,398.7    L354.4,398.8 L354.9,398.8 L355.3,398.8 L355.7,398.8 L356.1,398.8 L356.5,398.8 L357.0,398.8 L357.4,398.8    L357.8,398.8 L358.2,398.8 L358.6,398.8 L359.1,398.8 L359.5,398.8 L359.9,398.8 L360.3,398.8 L360.7,398.8    L361.2,398.8 L361.6,398.8 L362.0,398.8 L362.4,398.8 L362.8,398.8 L363.3,398.8 L363.7,398.8 L364.1,398.8    L364.5,398.8 L365.0,398.8 L365.4,398.8 L365.8,398.8 L366.2,398.8 L366.6,398.8 L367.1,398.8 L367.5,398.8    L367.9,398.8 L368.3,398.8 L368.7,398.8 L369.2,398.8 L369.6,398.8 L370.0,398.8 L370.4,398.9 L370.8,398.9    L371.3,398.9 L371.7,398.9 L372.1,398.9 L372.5,398.9 L372.9,398.9 L373.4,398.9 L373.8,398.9 L374.2,398.9    L374.6,398.9 L375.0,398.9 L375.5,398.9 L375.9,398.9 L376.3,398.9 L376.7,398.9 L377.1,398.9 L377.6,398.9    L378.0,398.9 L378.4,398.9 L378.8,398.9 L379.2,398.9 L379.7,398.9 L380.1,398.9 L380.5,398.9 L380.9,398.9    L381.3,398.9 L381.8,398.9 L382.2,398.9 L382.6,398.9 L383.0,398.9 L383.4,398.9 L383.9,398.9 L384.3,398.9    L384.7,398.9 L385.1,398.9 L385.6,398.9 L386.0,398.9 L386.4,398.9 L386.8,398.9 L387.2,398.9 L387.7,398.9    L388.1,398.9 L388.5,398.9 L388.9,398.9 L389.3,398.9 L389.8,398.9 L390.2,398.9 L390.6,398.9 L391.0,398.9    L391.4,398.9 L391.9,398.9 L392.3,398.9 L392.7,398.9 L393.1,398.9 L393.5,398.9 L394.0,399.0 L394.4,399.0    L394.8,399.0 L395.2,399.0 L395.6,399.0 L396.1,399.0 L396.5,399.0 L396.9,399.0 L397.3,399.0 L397.7,399.0    L398.2,399.0 L398.6,399.0 L399.0,399.0 L399.4,399.0 L399.8,399.0 L400.3,399.0 L400.7,399.0 L401.1,399.0    L401.5,399.0 L401.9,399.0 L402.4,399.0 L402.8,399.0 L403.2,399.0 L403.6,399.0 L404.0,399.0 L404.5,399.0    L404.9,399.0 L405.3,399.0 L405.7,399.0 L406.1,399.0 L406.6,399.0 L407.0,399.0 L407.4,399.0 L407.8,399.0    L408.3,399.0 L408.7,399.0 L409.1,399.0 L409.5,399.0 L409.9,399.0 L410.4,399.0 L410.8,399.0 L411.2,399.0    L411.6,399.0 L412.0,399.0 L412.5,399.0 L412.9,399.0 L413.3,399.0 L413.7,399.0 L414.1,399.0 L414.6,399.0    L415.0,399.0 L415.4,399.0 L415.8,399.0 L416.2,399.0 L416.7,399.0 L417.1,399.0 L417.5,399.0 L417.9,399.0    L418.3,399.0 L418.8,399.0 L419.2,399.0 L419.6,399.0 L420.0,399.0 L420.4,399.0 L420.9,399.0 L421.3,399.0    L421.7,399.0 L422.1,399.0 L422.5,399.0 L423.0,399.0 L423.4,399.0 L423.8,399.0 L424.2,399.0 L424.6,399.0    L425.1,399.0 L425.5,399.0 L425.9,399.0 L426.3,399.0 L426.7,399.0 L427.2,399.0 L427.6,399.0 L428.0,399.0    L428.4,399.0 L428.9,399.0 L429.3,399.0 L429.7,399.0 L430.1,399.0 L430.5,399.0 L431.0,399.0 L431.4,399.0    L431.8,399.0 L432.2,399.0 L432.6,399.0 L433.1,399.1 L433.5,399.1 L433.9,399.1 L434.3,399.1 L434.7,399.1    L435.2,399.1 L435.6,399.1 L436.0,399.1 L436.4,399.1 L436.8,399.1 L437.3,399.1 L437.7,399.1 L438.1,399.1    L438.5,399.1 L438.9,399.1 L439.4,399.1 L439.8,399.1 L440.2,399.1 L440.6,399.1 L441.0,399.1 L441.5,399.1    L441.9,399.1 L442.3,399.1 L442.7,399.1 L443.1,399.1 L443.6,399.1 L444.0,399.1 L444.4,399.1 L444.8,399.1    L445.2,399.1 L445.7,399.1 L446.1,399.1 L446.5,399.1 L446.9,399.1 L447.3,399.1 L447.8,399.1 L448.2,399.1    L448.6,399.1 L449.0,399.1 L449.5,399.1 L449.9,399.1 L450.3,399.1 L450.7,399.1 L451.1,399.1 L451.6,399.1    L452.0,399.1 L452.4,399.1 L452.8,399.1 L453.2,399.1 L453.7,399.1 L454.1,399.1 L454.5,399.1 L454.9,399.1    L455.3,399.1 L455.8,399.1 L456.2,399.1 L456.6,399.1 L457.0,399.1 L457.4,399.1 L457.9,399.1 L458.3,399.1    L458.7,399.1 L459.1,399.1 L459.5,399.1 L460.0,399.1 L460.4,399.1 L460.8,399.1 L461.2,399.1 L461.6,399.1    L462.1,399.1 L462.5,399.1 L462.9,399.1 L463.3,399.1 L463.7,399.1 L464.2,399.1 L464.6,399.1 L465.0,399.1    L465.4,399.1 L465.8,399.1 L466.3,399.1 L466.7,399.1 L467.1,399.1 L467.5,399.1 L467.9,399.1 L468.4,399.1    L468.8,399.1 L469.2,399.1 L469.6,399.1 L470.1,399.1 L470.5,399.1 L470.9,399.1 L471.3,399.1 L471.7,399.1    L472.2,399.1 L472.6,399.1 L473.0,399.1 L473.4,399.1 L473.8,399.1 L474.3,399.1 L474.7,399.1 L475.1,399.1    L475.5,399.1 L475.9,399.1 L476.4,399.1 L476.8,399.1 L477.2,399.1 L477.6,399.1 L478.0,399.1 L478.5,399.1    L478.9,399.1 L479.3,399.1 L479.7,399.1 L480.1,399.1 L480.6,399.1 L481.0,399.1 L481.4,399.1 L481.8,399.1    L482.2,399.1 L482.7,399.1 L483.1,399.1 L483.5,399.1 L483.9,399.1 L484.3,399.1 L484.8,399.1 L485.2,399.1    L485.6,399.1 L486.0,399.1 L486.4,399.1 L486.9,399.1 L487.3,399.1 L487.7,399.1 L488.1,399.1 L488.5,399.1    L489.0,399.1 L489.4,399.1 L489.8,399.1 L490.2,399.1 L490.7,399.1 L491.1,399.1 L491.5,399.1 L491.9,399.1    L492.3,399.1 L492.8,399.1 L493.2,399.1 L493.6,399.1 L494.0,399.1 L494.4,399.1 L494.9,399.1 L495.3,399.1    L495.7,399.1 L496.1,399.1 L496.5,399.1 L497.0,399.1 L497.4,399.1 L497.8,399.1 L498.2,399.1 L498.6,399.1    L499.1,399.1 L499.5,399.1 L499.9,399.1 L500.3,399.1 L500.7,399.1 L501.2,399.1 L501.6,399.1 L502.0,399.1    L502.4,399.1 L502.8,399.1 L503.3,399.1 L503.7,399.1 L504.1,399.1 L504.5,399.1 L504.9,399.1 L505.4,399.1    L505.8,399.1 L506.2,399.1 L506.6,399.1 L507.0,399.1 L507.5,399.1 L507.9,399.1 L508.3,399.1 L508.7,399.1    L509.1,399.1 L509.6,399.1 L510.0,399.1 L510.4,399.1 L510.8,399.1 L511.2,399.1 L511.7,399.1 L512.1,399.1    L512.5,399.1 L512.9,399.1 L513.4,399.1 L513.8,399.1 L514.2,399.1 L514.6,399.1 L515.0,399.1 L515.5,399.1    L515.9,399.1 L516.3,399.1 L516.7,399.1 L517.1,399.1 L517.6,399.1 L518.0,399.1 L518.4,399.1 L518.8,399.1    L519.2,399.1 L519.7,399.1 L520.1,399.1 L520.5,399.1 L520.9,399.1 L521.3,399.1 L521.8,399.1 L522.2,399.1    L522.6,399.1 L523.0,399.1 L523.4,399.1 L523.9,399.1 L524.3,399.1 L524.7,399.1 L525.1,399.1 L525.5,399.1    L526.0,399.1 L526.4,399.1 L526.8,399.1 L527.2,399.1 L527.6,399.1 L528.1,399.1 L528.5,399.1 L528.9,399.1    L529.3,399.1 L529.7,399.1 L530.2,399.1 L530.6,399.1 L531.0,399.1 L531.4,399.1 L531.8,399.1 L532.3,399.1    L532.7,399.1 L533.1,399.1 L533.5,399.1 L534.0,399.1 L534.4,399.1 L534.8,399.1 L535.2,399.1 L535.6,399.1    L536.1,399.1 L536.5,399.1 L536.9,399.1 L537.3,399.2 L537.7,399.2 L538.2,399.2 L538.6,399.2 L539.0,399.2    L539.4,399.2 L539.8,399.2 L540.3,399.2 L540.7,399.2 L541.1,399.2 L541.5,399.2 L541.9,399.2 L542.4,399.2    L542.8,399.2 L543.2,399.2  h0.01"
           id="path3365" />
      </g>
    </g>
    <g
       style="fill:none; color:white; stroke:currentColor; stroke-width:1.00; stroke-linecap:butt; stroke-linejoin:miter"
       id="g3367" />
    <g
       style="fill:none; color:black; stroke:currentColor; stroke-width:1.00; stroke-linecap:butt; stroke-linejoin:miter"
       id="g3369">
      <path
         stroke="black"
         d="M122.8,37.9 L122.8,399.2 L543.2,399.2 L543.2,37.9 L122.8,37.9 Z  h0.01"
         id="path3371" />
    </g>
  </g>
</svg>
