<?xml version="1.0" encoding="utf-8" standalone="no"?>
<!DOCTYPE svg PUBLIC "-//W3C//DTD SVG 1.1//EN"
  "http://www.w3.org/Graphics/SVG/1.1/DTD/svg11.dtd">
<!-- Created with matplotlib (http://matplotlib.org/) -->
<svg height="258pt" version="1.1" viewBox="0 0 320 258" width="320pt" xmlns="http://www.w3.org/2000/svg" xmlns:xlink="http://www.w3.org/1999/xlink">
 <defs>
  <style type="text/css">
*{stroke-linecap:square;stroke-linejoin:round;}
  </style>
 </defs>
 <g id="figure_1">
  <g id="patch_1">
   <path d="
M0 258.3
L320.4 258.3
L320.4 0
L0 0
z
" style="fill:#ffffff;"/>
  </g>
  <g id="axes_1">
   <g id="patch_2">
    <path d="
M54.468 224.721
L307.584 224.721
L307.584 18.081
L54.468 18.081
z
" style="fill:#ffffff;"/>
   </g>
   <g id="line2d_1">
    <path clip-path="url(#p19633d48e9)" d="
M54.468 18.081
L155.816 224.721
L307.483 224.721
L307.483 224.721" style="fill:none;stroke:#ffa500;stroke-width:2.5;"/>
   </g>
   <g id="line2d_2">
    <path clip-path="url(#p19633d48e9)" d="
M54.468 224.721
L64.9976 182.205
L70.5662 160.671
L75.1223 143.92
L79.0709 130.224
L82.6145 118.708
L85.8544 108.916
L88.7905 100.72
L91.5242 93.7228
L94.0553 87.8329
L96.384 82.9486
L98.6114 78.7843
L100.636 75.452
L102.56 72.705
L104.382 70.4945
L106.002 68.8616
L107.521 67.6241
L108.939 66.7327
L110.356 66.1027
L111.672 65.7579
L112.988 65.6498
L114.203 65.7648
L115.418 66.0906
L116.735 66.6862
L118.051 67.5395
L119.367 68.656
L120.784 70.159
L122.202 71.9803
L123.721 74.2927
L125.34 77.18
L127.062 80.735
L128.783 84.8038
L130.605 89.6855
L132.529 95.4941
L134.554 102.354
L136.579 109.999
L138.705 118.893
L140.932 129.185
L143.261 141.043
L145.59 154.05
L148.02 168.882
L150.551 185.736
L153.183 204.825
L155.917 224.721
L307.483 224.721
L307.483 224.721" style="fill:none;stroke:#800080;stroke-width:2.5;"/>
   </g>
   <g id="line2d_3">
    <path clip-path="url(#p19633d48e9)" d="
M54.468 224.721
L65.3014 202.862
L71.0724 191.731
L75.831 183.019
L80.0833 175.683
L83.9307 169.471
L87.5756 164.002
L91.018 159.239
L94.2578 155.134
L97.2952 151.633
L100.231 148.579
L103.066 145.945
L105.8 143.702
L108.432 141.819
L111.065 140.209
L113.596 138.917
L116.127 137.873
L118.658 137.074
L121.189 136.516
L123.721 136.192
L126.252 136.097
L128.783 136.223
L131.415 136.58
L134.149 137.182
L136.984 138.044
L139.92 139.176
L142.957 140.586
L146.197 142.334
L149.741 144.508
L153.588 147.141
L157.841 150.331
L162.7 154.268
L168.573 159.328
L177.077 166.984
L190.847 179.369
L197.63 185.154
L203.604 189.958
L209.071 194.073
L214.235 197.688
L219.297 200.962
L224.258 203.906
L229.118 206.536
L234.079 208.966
L239.04 211.147
L244.103 213.128
L249.266 214.909
L254.632 216.522
L260.201 217.961
L266.073 219.247
L272.35 220.388
L279.033 221.374
L286.322 222.223
L294.422 222.94
L303.737 223.535
L307.483 223.719
L307.483 223.719" style="fill:none;stroke:#add8e6;stroke-width:2.5;"/>
   </g>
   <g id="line2d_4">
    <path clip-path="url(#p19633d48e9)" d="
M54.468 121.401
L57.4041 127.143
L60.4415 132.593
L63.5802 137.759
L66.7188 142.502
L69.9587 147.002
L73.2998 151.267
L76.7422 155.304
L80.2858 159.122
L83.9307 162.73
L87.7781 166.224
L91.7267 169.512
L95.8778 172.678
L100.231 175.715
L104.787 178.617
L109.546 181.381
L114.507 184.006
L119.772 186.54
L125.34 188.97
L131.213 191.29
L137.49 193.529
L144.172 195.674
L151.361 197.743
L159.056 199.723
L167.358 201.624
L176.267 203.432
L185.886 205.156
L196.415 206.813
L207.856 208.386
L220.411 209.885
L234.282 211.314
L249.671 212.669
L266.782 213.949
L285.917 215.152
L307.483 216.282
L307.483 216.282" style="fill:none;stroke:#ffc0cb;stroke-width:2.5;"/>
   </g>
   <g id="matplotlib.axis_1">
    <g id="xtick_1">
     <g id="line2d_5">
      <defs>
       <path d="
M0 0
L0 -4" id="mcb557df647" style="stroke:#000000;stroke-linecap:butt;stroke-width:0.5;"/>
      </defs>
      <g>
       <use style="stroke:#000000;stroke-linecap:butt;stroke-width:0.5;" x="54.468" xlink:href="#mcb557df647" y="224.721"/>
      </g>
     </g>
     <g id="line2d_6">
      <defs>
       <path d="
M0 0
L0 4" id="mdad270ee8e" style="stroke:#000000;stroke-linecap:butt;stroke-width:0.5;"/>
      </defs>
      <g>
       <use style="stroke:#000000;stroke-linecap:butt;stroke-width:0.5;" x="54.468" xlink:href="#mdad270ee8e" y="18.081"/>
      </g>
     </g>
     <g id="text_1">
      <!-- 0.0 -->
      <defs>
       <path d="
M31.7812 66.4062
Q24.1719 66.4062 20.3281 58.9062
Q16.5 51.4219 16.5 36.375
Q16.5 21.3906 20.3281 13.8906
Q24.1719 6.39062 31.7812 6.39062
Q39.4531 6.39062 43.2812 13.8906
Q47.125 21.3906 47.125 36.375
Q47.125 51.4219 43.2812 58.9062
Q39.4531 66.4062 31.7812 66.4062
M31.7812 74.2188
Q44.0469 74.2188 50.5156 64.5156
Q56.9844 54.8281 56.9844 36.375
Q56.9844 17.9688 50.5156 8.26562
Q44.0469 -1.42188 31.7812 -1.42188
Q19.5312 -1.42188 13.0625 8.26562
Q6.59375 17.9688 6.59375 36.375
Q6.59375 54.8281 13.0625 64.5156
Q19.5312 74.2188 31.7812 74.2188" id="BitstreamVeraSans-Roman-30"/>
       <path d="
M10.6875 12.4062
L21 12.4062
L21 0
L10.6875 0
z
" id="BitstreamVeraSans-Roman-2e"/>
      </defs>
      <g transform="translate(45.7201875 237.62725)scale(0.12 -0.12)">
       <use xlink:href="#BitstreamVeraSans-Roman-30"/>
       <use x="63.623046875" xlink:href="#BitstreamVeraSans-Roman-2e"/>
       <use x="95.41015625" xlink:href="#BitstreamVeraSans-Roman-30"/>
      </g>
     </g>
    </g>
    <g id="xtick_2">
     <g id="line2d_7">
      <g>
       <use style="stroke:#000000;stroke-linecap:butt;stroke-width:0.5;" x="105.0912" xlink:href="#mcb557df647" y="224.721"/>
      </g>
     </g>
     <g id="line2d_8">
      <g>
       <use style="stroke:#000000;stroke-linecap:butt;stroke-width:0.5;" x="105.0912" xlink:href="#mdad270ee8e" y="18.081"/>
      </g>
     </g>
     <g id="text_2">
      <!-- 0.5 -->
      <defs>
       <path d="
M10.7969 72.9062
L49.5156 72.9062
L49.5156 64.5938
L19.8281 64.5938
L19.8281 46.7344
Q21.9688 47.4688 24.1094 47.8281
Q26.2656 48.1875 28.4219 48.1875
Q40.625 48.1875 47.75 41.5
Q54.8906 34.8125 54.8906 23.3906
Q54.8906 11.625 47.5625 5.09375
Q40.2344 -1.42188 26.9062 -1.42188
Q22.3125 -1.42188 17.5469 -0.640625
Q12.7969 0.140625 7.71875 1.70312
L7.71875 11.625
Q12.1094 9.23438 16.7969 8.0625
Q21.4844 6.89062 26.7031 6.89062
Q35.1562 6.89062 40.0781 11.3281
Q45.0156 15.7656 45.0156 23.3906
Q45.0156 31 40.0781 35.4375
Q35.1562 39.8906 26.7031 39.8906
Q22.75 39.8906 18.8125 39.0156
Q14.8906 38.1406 10.7969 36.2812
z
" id="BitstreamVeraSans-Roman-35"/>
      </defs>
      <g transform="translate(96.4690125 237.62725)scale(0.12 -0.12)">
       <use xlink:href="#BitstreamVeraSans-Roman-30"/>
       <use x="63.623046875" xlink:href="#BitstreamVeraSans-Roman-2e"/>
       <use x="95.41015625" xlink:href="#BitstreamVeraSans-Roman-35"/>
      </g>
     </g>
    </g>
    <g id="xtick_3">
     <g id="line2d_9">
      <g>
       <use style="stroke:#000000;stroke-linecap:butt;stroke-width:0.5;" x="155.7144" xlink:href="#mcb557df647" y="224.721"/>
      </g>
     </g>
     <g id="line2d_10">
      <g>
       <use style="stroke:#000000;stroke-linecap:butt;stroke-width:0.5;" x="155.7144" xlink:href="#mdad270ee8e" y="18.081"/>
      </g>
     </g>
     <g id="text_3">
      <!-- 1.0 -->
      <defs>
       <path d="
M12.4062 8.29688
L28.5156 8.29688
L28.5156 63.9219
L10.9844 60.4062
L10.9844 69.3906
L28.4219 72.9062
L38.2812 72.9062
L38.2812 8.29688
L54.3906 8.29688
L54.3906 0
L12.4062 0
z
" id="BitstreamVeraSans-Roman-31"/>
      </defs>
      <g transform="translate(147.230025 237.62725)scale(0.12 -0.12)">
       <use xlink:href="#BitstreamVeraSans-Roman-31"/>
       <use x="63.623046875" xlink:href="#BitstreamVeraSans-Roman-2e"/>
       <use x="95.41015625" xlink:href="#BitstreamVeraSans-Roman-30"/>
      </g>
     </g>
    </g>
    <g id="xtick_4">
     <g id="line2d_11">
      <g>
       <use style="stroke:#000000;stroke-linecap:butt;stroke-width:0.5;" x="206.3376" xlink:href="#mcb557df647" y="224.721"/>
      </g>
     </g>
     <g id="line2d_12">
      <g>
       <use style="stroke:#000000;stroke-linecap:butt;stroke-width:0.5;" x="206.3376" xlink:href="#mdad270ee8e" y="18.081"/>
      </g>
     </g>
     <g id="text_4">
      <!-- 1.5 -->
      <g transform="translate(197.97885 237.46975)scale(0.12 -0.12)">
       <use xlink:href="#BitstreamVeraSans-Roman-31"/>
       <use x="63.623046875" xlink:href="#BitstreamVeraSans-Roman-2e"/>
       <use x="95.41015625" xlink:href="#BitstreamVeraSans-Roman-35"/>
      </g>
     </g>
    </g>
    <g id="xtick_5">
     <g id="line2d_13">
      <g>
       <use style="stroke:#000000;stroke-linecap:butt;stroke-width:0.5;" x="256.9608" xlink:href="#mcb557df647" y="224.721"/>
      </g>
     </g>
     <g id="line2d_14">
      <g>
       <use style="stroke:#000000;stroke-linecap:butt;stroke-width:0.5;" x="256.9608" xlink:href="#mdad270ee8e" y="18.081"/>
      </g>
     </g>
     <g id="text_5">
      <!-- 2.0 -->
      <defs>
       <path d="
M19.1875 8.29688
L53.6094 8.29688
L53.6094 0
L7.32812 0
L7.32812 8.29688
Q12.9375 14.1094 22.625 23.8906
Q32.3281 33.6875 34.8125 36.5312
Q39.5469 41.8438 41.4219 45.5312
Q43.3125 49.2188 43.3125 52.7812
Q43.3125 58.5938 39.2344 62.25
Q35.1562 65.9219 28.6094 65.9219
Q23.9688 65.9219 18.8125 64.3125
Q13.6719 62.7031 7.8125 59.4219
L7.8125 69.3906
Q13.7656 71.7812 18.9375 73
Q24.125 74.2188 28.4219 74.2188
Q39.75 74.2188 46.4844 68.5469
Q53.2188 62.8906 53.2188 53.4219
Q53.2188 48.9219 51.5312 44.8906
Q49.8594 40.875 45.4062 35.4062
Q44.1875 33.9844 37.6406 27.2188
Q31.1094 20.4531 19.1875 8.29688" id="BitstreamVeraSans-Roman-32"/>
      </defs>
      <g transform="translate(248.25705 237.62725)scale(0.12 -0.12)">
       <use xlink:href="#BitstreamVeraSans-Roman-32"/>
       <use x="63.623046875" xlink:href="#BitstreamVeraSans-Roman-2e"/>
       <use x="95.41015625" xlink:href="#BitstreamVeraSans-Roman-30"/>
      </g>
     </g>
    </g>
    <g id="xtick_6">
     <g id="line2d_15">
      <g>
       <use style="stroke:#000000;stroke-linecap:butt;stroke-width:0.5;" x="307.584" xlink:href="#mcb557df647" y="224.721"/>
      </g>
     </g>
     <g id="line2d_16">
      <g>
       <use style="stroke:#000000;stroke-linecap:butt;stroke-width:0.5;" x="307.584" xlink:href="#mdad270ee8e" y="18.081"/>
      </g>
     </g>
     <g id="text_6">
      <!-- 2.5 -->
      <g transform="translate(299.005875 237.62725)scale(0.12 -0.12)">
       <use xlink:href="#BitstreamVeraSans-Roman-32"/>
       <use x="63.623046875" xlink:href="#BitstreamVeraSans-Roman-2e"/>
       <use x="95.41015625" xlink:href="#BitstreamVeraSans-Roman-35"/>
      </g>
     </g>
    </g>
    <g id="text_7">
     <!-- x -->
     <defs>
      <path d="
M54.8906 54.6875
L35.1094 28.0781
L55.9062 0
L45.3125 0
L29.3906 21.4844
L13.4844 0
L2.875 0
L24.125 28.6094
L4.6875 54.6875
L15.2812 54.6875
L29.7812 35.2031
L44.2812 54.6875
z
" id="BitstreamVeraSans-Roman-78"/>
     </defs>
     <g transform="translate(177.844125 249.360375)scale(0.12 -0.12)">
      <use xlink:href="#BitstreamVeraSans-Roman-78"/>
     </g>
    </g>
   </g>
   <g id="matplotlib.axis_2">
    <g id="ytick_1">
     <g id="line2d_17">
      <defs>
       <path d="
M0 0
L4 0" id="mc8fcea1516" style="stroke:#000000;stroke-linecap:butt;stroke-width:0.5;"/>
      </defs>
      <g>
       <use style="stroke:#000000;stroke-linecap:butt;stroke-width:0.5;" x="54.468" xlink:href="#mc8fcea1516" y="224.721"/>
      </g>
     </g>
     <g id="line2d_18">
      <defs>
       <path d="
M0 0
L-4 0" id="m0d5b0a6425" style="stroke:#000000;stroke-linecap:butt;stroke-width:0.5;"/>
      </defs>
      <g>
       <use style="stroke:#000000;stroke-linecap:butt;stroke-width:0.5;" x="307.584" xlink:href="#m0d5b0a6425" y="224.721"/>
      </g>
     </g>
     <g id="text_8">
      <!-- 0.0 -->
      <g transform="translate(32.972375 229.0888125)scale(0.12 -0.12)">
       <use xlink:href="#BitstreamVeraSans-Roman-30"/>
       <use x="63.623046875" xlink:href="#BitstreamVeraSans-Roman-2e"/>
       <use x="95.41015625" xlink:href="#BitstreamVeraSans-Roman-30"/>
      </g>
     </g>
    </g>
    <g id="ytick_2">
     <g id="line2d_19">
      <g>
       <use style="stroke:#000000;stroke-linecap:butt;stroke-width:0.5;" x="54.468" xlink:href="#mc8fcea1516" y="173.061"/>
      </g>
     </g>
     <g id="line2d_20">
      <g>
       <use style="stroke:#000000;stroke-linecap:butt;stroke-width:0.5;" x="307.584" xlink:href="#m0d5b0a6425" y="173.061"/>
      </g>
     </g>
     <g id="text_9">
      <!-- 0.5 -->
      <g transform="translate(33.223625 177.4288125)scale(0.12 -0.12)">
       <use xlink:href="#BitstreamVeraSans-Roman-30"/>
       <use x="63.623046875" xlink:href="#BitstreamVeraSans-Roman-2e"/>
       <use x="95.41015625" xlink:href="#BitstreamVeraSans-Roman-35"/>
      </g>
     </g>
    </g>
    <g id="ytick_3">
     <g id="line2d_21">
      <g>
       <use style="stroke:#000000;stroke-linecap:butt;stroke-width:0.5;" x="54.468" xlink:href="#mc8fcea1516" y="121.401"/>
      </g>
     </g>
     <g id="line2d_22">
      <g>
       <use style="stroke:#000000;stroke-linecap:butt;stroke-width:0.5;" x="307.584" xlink:href="#m0d5b0a6425" y="121.401"/>
      </g>
     </g>
     <g id="text_10">
      <!-- 1.0 -->
      <g transform="translate(33.49925 125.7688125)scale(0.12 -0.12)">
       <use xlink:href="#BitstreamVeraSans-Roman-31"/>
       <use x="63.623046875" xlink:href="#BitstreamVeraSans-Roman-2e"/>
       <use x="95.41015625" xlink:href="#BitstreamVeraSans-Roman-30"/>
      </g>
     </g>
    </g>
    <g id="ytick_4">
     <g id="line2d_23">
      <g>
       <use style="stroke:#000000;stroke-linecap:butt;stroke-width:0.5;" x="54.468" xlink:href="#mc8fcea1516" y="69.741"/>
      </g>
     </g>
     <g id="line2d_24">
      <g>
       <use style="stroke:#000000;stroke-linecap:butt;stroke-width:0.5;" x="307.584" xlink:href="#m0d5b0a6425" y="69.741"/>
      </g>
     </g>
     <g id="text_11">
      <!-- 1.5 -->
      <g transform="translate(33.7505 74.0300625)scale(0.12 -0.12)">
       <use xlink:href="#BitstreamVeraSans-Roman-31"/>
       <use x="63.623046875" xlink:href="#BitstreamVeraSans-Roman-2e"/>
       <use x="95.41015625" xlink:href="#BitstreamVeraSans-Roman-35"/>
      </g>
     </g>
    </g>
    <g id="ytick_5">
     <g id="line2d_25">
      <g>
       <use style="stroke:#000000;stroke-linecap:butt;stroke-width:0.5;" x="54.468" xlink:href="#mc8fcea1516" y="18.081"/>
      </g>
     </g>
     <g id="line2d_26">
      <g>
       <use style="stroke:#000000;stroke-linecap:butt;stroke-width:0.5;" x="307.584" xlink:href="#m0d5b0a6425" y="18.081"/>
      </g>
     </g>
     <g id="text_12">
      <!-- 2.0 -->
      <g transform="translate(33.0605 22.4488125)scale(0.12 -0.12)">
       <use xlink:href="#BitstreamVeraSans-Roman-32"/>
       <use x="63.623046875" xlink:href="#BitstreamVeraSans-Roman-2e"/>
       <use x="95.41015625" xlink:href="#BitstreamVeraSans-Roman-30"/>
      </g>
     </g>
    </g>
    <g id="text_13">
     <!-- P(x) -->
     <defs>
      <path d="
M19.6719 64.7969
L19.6719 37.4062
L32.0781 37.4062
Q38.9688 37.4062 42.7188 40.9688
Q46.4844 44.5312 46.4844 51.125
Q46.4844 57.6719 42.7188 61.2344
Q38.9688 64.7969 32.0781 64.7969
z

M9.8125 72.9062
L32.0781 72.9062
Q44.3438 72.9062 50.6094 67.3594
Q56.8906 61.8125 56.8906 51.125
Q56.8906 40.3281 50.6094 34.8125
Q44.3438 29.2969 32.0781 29.2969
L19.6719 29.2969
L19.6719 0
L9.8125 0
z
" id="BitstreamVeraSans-Roman-50"/>
      <path d="
M31 75.875
Q24.4688 64.6562 21.2812 53.6562
Q18.1094 42.6719 18.1094 31.3906
Q18.1094 20.125 21.3125 9.0625
Q24.5156 -2 31 -13.1875
L23.1875 -13.1875
Q15.875 -1.70312 12.2344 9.375
Q8.59375 20.4531 8.59375 31.3906
Q8.59375 42.2812 12.2031 53.3125
Q15.8281 64.3594 23.1875 75.875
z
" id="BitstreamVeraSans-Roman-28"/>
      <path d="
M8.01562 75.875
L15.8281 75.875
Q23.1406 64.3594 26.7812 53.3125
Q30.4219 42.2812 30.4219 31.3906
Q30.4219 20.4531 26.7812 9.375
Q23.1406 -1.70312 15.8281 -13.1875
L8.01562 -13.1875
Q14.5 -2 17.7031 9.0625
Q20.9062 20.125 20.9062 31.3906
Q20.9062 42.6719 17.7031 53.6562
Q14.5 64.6562 8.01562 75.875" id="BitstreamVeraSans-Roman-29"/>
     </defs>
     <g transform="translate(27.972375 130.5650625)rotate(-90.0)scale(0.12 -0.12)">
      <use xlink:href="#BitstreamVeraSans-Roman-50"/>
      <use x="60.302734375" xlink:href="#BitstreamVeraSans-Roman-28"/>
      <use x="99.31640625" xlink:href="#BitstreamVeraSans-Roman-78"/>
      <use x="158.49609375" xlink:href="#BitstreamVeraSans-Roman-29"/>
     </g>
    </g>
   </g>
   <g id="patch_3">
    <path d="
M54.468 18.081
L307.584 18.081" style="fill:none;stroke:#000000;"/>
   </g>
   <g id="patch_4">
    <path d="
M307.584 224.721
L307.584 18.081" style="fill:none;stroke:#000000;"/>
   </g>
   <g id="patch_5">
    <path d="
M54.468 224.721
L307.584 224.721" style="fill:none;stroke:#000000;"/>
   </g>
   <g id="patch_6">
    <path d="
M54.468 224.721
L54.468 18.081" style="fill:none;stroke:#000000;"/>
   </g>
   <g id="legend_1">
    <g id="line2d_27">
     <path d="
M146.016 36.9427
L174.816 36.9427" style="fill:none;stroke:#ffa500;stroke-width:2.5;"/>
    </g>
    <g id="line2d_28"/>
    <g id="text_14">
     <!-- $\kappa=1,q=0,\lambda=1$ -->
     <defs>
      <path d="
M9.28125 0
L9.28125 3.51562
Q21.7812 3.51562 21.7812 6.6875
L21.7812 59.1875
Q16.6094 56.6875 8.6875 56.6875
L8.6875 60.2031
Q20.9531 60.2031 27.2031 66.6094
L28.6094 66.6094
Q28.9531 66.6094 29.2656 66.3281
Q29.5938 66.0625 29.5938 65.7188
L29.5938 6.6875
Q29.5938 3.51562 42.0938 3.51562
L42.0938 0
z
" id="Cmr10-31"/>
      <path d="
M25 -2.20312
Q12.75 -2.20312 8.32812 7.875
Q3.90625 17.9688 3.90625 31.8906
Q3.90625 40.5781 5.48438 48.2344
Q7.07812 55.9062 11.7812 61.25
Q16.5 66.6094 25 66.6094
Q31.5938 66.6094 35.7812 63.375
Q39.9844 60.1562 42.1875 55.0469
Q44.3906 49.9531 45.1875 44.1094
Q46 38.2812 46 31.8906
Q46 23.2969 44.4062 15.7969
Q42.8281 8.29688 38.1875 3.04688
Q33.5469 -2.20312 25 -2.20312
M25 0.390625
Q30.5625 0.390625 33.2969 6.09375
Q36.0312 11.8125 36.6719 18.75
Q37.3125 25.6875 37.3125 33.5
Q37.3125 41.0156 36.6719 47.3594
Q36.0312 53.7188 33.3125 58.8594
Q30.6094 64.0156 25 64.0156
Q19.3438 64.0156 16.6094 58.8281
Q13.875 53.6562 13.2344 47.3281
Q12.5938 41.0156 12.5938 33.5
Q12.5938 27.9375 12.8594 23
Q13.1406 18.0625 14.3125 12.8125
Q15.4844 7.5625 18.0938 3.96875
Q20.7031 0.390625 25 0.390625" id="Cmr10-30"/>
      <path d="
M14.7031 -18.1094
Q15.0469 -15.9219 16.0156 -15.9219
Q19.625 -15.9219 21.7031 -15.3281
Q23.7812 -14.75 24.4219 -12.5
L28.7188 4.5
Q23 -1.125 17.2812 -1.125
Q10.9844 -1.125 7.39062 3.64062
Q3.8125 8.40625 3.8125 14.8906
Q3.8125 21.2969 7.10938 28.1719
Q10.4062 35.0625 16.0469 39.625
Q21.6875 44.1875 28.2188 44.1875
Q31.25 44.1875 33.6875 42.375
Q36.1406 40.5781 37.4062 37.5938
Q37.9844 38.7656 40.6406 41.4688
Q43.3125 44.1875 44.3906 44.1875
Q45.5156 44.1875 45.5156 42.9219
L31.5 -12.8906
Q31.25 -14.3594 31.2031 -14.5938
Q31.2031 -15.9219 37.7969 -15.9219
Q38.2812 -15.9219 38.5469 -16.3125
Q38.8125 -16.7031 38.8125 -17.1875
Q38.4844 -18.5 38.25 -18.9375
Q38.0312 -19.3906 37.1094 -19.3906
L15.7188 -19.3906
Q14.7031 -19.3906 14.7031 -18.1094
M17.4844 1.51562
Q21 1.51562 24.3438 4.17188
Q27.6875 6.84375 30.1719 10.5
L35.7969 33.0156
Q35.2031 36.5312 33.2188 39.0625
Q31.25 41.6094 27.9844 41.6094
Q24.6094 41.6094 21.7031 38.8438
Q18.7969 36.0781 16.7969 32.3281
Q14.8438 28.3281 13.0625 21.3438
Q11.2812 14.3594 11.2812 10.5
Q11.2812 7.03125 12.7656 4.26562
Q14.2656 1.51562 17.4844 1.51562" id="Cmmi10-71"/>
      <path d="
M5.07812 1.70312
Q5.07812 3.17188 6.39062 4.5
L34.5156 32.0781
L24.6094 59.9062
Q23.4375 63.0938 22.1406 64.9375
Q20.8438 66.7969 18.4062 66.7969
Q17.2812 66.7969 17.2812 68.1094
Q17.3906 68.7031 17.7812 69.0469
Q18.1719 69.3906 18.7969 69.3906
Q29.2969 69.3906 31.5 63.1875
L51.8125 6.5
Q53.125 2.25 54.5 0.78125
Q54.9844 0.046875 54.9844 -0.203125
Q54.9844 -1.125 54.2031 -1.125
L48.7812 -1.125
Q46.2969 -0.390625 44.8281 3.21875
L35.6875 28.8125
L11.5312 0.390625
Q9.71875 -1.3125 8.29688 -1.3125
Q7.03125 -1.3125 6.04688 -0.4375
Q5.07812 0.4375 5.07812 1.70312" id="Cmmi10-b8"/>
      <path d="
M7.51562 13.2812
Q6.6875 13.2812 6.14062 13.9062
Q5.60938 14.5469 5.60938 15.2812
Q5.60938 16.1094 6.14062 16.6875
Q6.6875 17.2812 7.51562 17.2812
L70.3125 17.2812
Q71.0469 17.2812 71.5781 16.6875
Q72.125 16.1094 72.125 15.2812
Q72.125 14.5469 71.5781 13.9062
Q71.0469 13.2812 70.3125 13.2812
z

M7.51562 32.7188
Q6.6875 32.7188 6.14062 33.2969
Q5.60938 33.8906 5.60938 34.7188
Q5.60938 35.4531 6.14062 36.0781
Q6.6875 36.7188 7.51562 36.7188
L70.3125 36.7188
Q71.0469 36.7188 71.5781 36.0781
Q72.125 35.4531 72.125 34.7188
Q72.125 33.8906 71.5781 33.2969
Q71.0469 32.7188 70.3125 32.7188
z
" id="Cmr10-3d"/>
      <path d="
M5.32812 1.70312
Q5.32812 2.29688 5.42188 2.59375
L14.9844 41.0156
Q15.375 42.4375 16.5469 43.3125
Q17.7188 44.1875 19.1875 44.1875
Q20.4531 44.1875 21.3281 43.4219
Q22.2188 42.6719 22.2188 41.4062
Q22.2188 41.1094 22.1875 40.9375
Q22.1719 40.7656 22.125 40.5781
L18.5 26.125
Q22.5156 27.4375 29.1562 32.9844
Q35.7969 38.5312 39.1875 40.8125
Q42.5781 43.1094 47.5156 43.1094
Q49.125 43.1094 50.2188 42.1094
Q51.3125 41.1094 51.3125 39.4062
Q51.3125 37.0625 49.625 35.4219
Q47.9531 33.7969 45.6094 33.7969
Q44 33.7969 42.8906 34.8438
Q41.7969 35.8906 41.7969 37.5
Q41.7969 38.625 42.1875 39.4062
Q39.7969 38.4219 37.2812 36.6562
Q34.7656 34.9062 32.7188 33.125
Q30.6719 31.3438 27.7812 28.9531
Q24.9062 26.5625 22.6094 25.2969
Q26.7031 25.2969 31 24.4062
Q35.2969 23.5312 38.4531 21.1875
Q41.6094 18.8438 41.6094 14.7969
Q41.6094 13.1875 41.2188 12.0156
Q40.2812 8.01562 40.2812 6
Q40.2812 1.51562 43.4062 1.51562
Q46.9688 1.51562 48.875 5.46875
Q50.7812 9.42188 52 14.7031
Q52.2031 15.2812 52.7812 15.2812
L54 15.2812
Q54.3906 15.2812 54.6406 15.0156
Q54.8906 14.75 54.8906 14.4062
Q54.8906 14.3125 54.7812 14.1094
Q51.125 -1.125 43.2188 -1.125
Q40.375 -1.125 38.2031 0.1875
Q36.0312 1.51562 34.8594 3.78125
Q33.6875 6.0625 33.6875 8.89062
Q33.6875 10.6875 34.0781 12.2031
Q34.4219 13.5781 34.4219 14.5
Q34.4219 17.7188 31.5625 19.5781
Q28.7188 21.4375 24.8281 22.1094
Q20.9531 22.7969 17.5781 22.7969
L12.5 2.20312
Q12.1562 0.828125 10.9531 -0.140625
Q9.76562 -1.125 8.29688 -1.125
Q7.07812 -1.125 6.20312 -0.34375
Q5.32812 0.4375 5.32812 1.70312" id="Cmmi10-2219"/>
      <path d="
M9.90625 -18.0156
Q9.90625 -17.5781 10.2969 -17.1875
Q13.9219 -13.7188 15.9219 -9.17188
Q17.9219 -4.64062 17.9219 0.390625
L17.9219 1.60938
Q16.3125 0 13.9219 0
Q11.625 0 10.0156 1.60938
Q8.40625 3.21875 8.40625 5.51562
Q8.40625 7.85938 10.0156 9.42188
Q11.625 10.9844 13.9219 10.9844
Q17.4844 10.9844 19 7.6875
Q20.5156 4.39062 20.5156 0.390625
Q20.5156 -5.17188 18.2812 -10.1719
Q16.0625 -15.1875 12.0156 -19.1875
Q11.625 -19.3906 11.375 -19.3906
Q10.8906 -19.3906 10.3906 -18.9375
Q9.90625 -18.5 9.90625 -18.0156" id="Cmmi10-3b"/>
     </defs>
     <g transform="translate(174.816 44.86275)scale(0.144 -0.144)">
      <use transform="translate(0.0 20.609375)" xlink:href="#Cmmi10-2219"/>
      <use transform="translate(75.17578125 20.609375)" xlink:href="#Cmr10-3d"/>
      <use transform="translate(159.234375 20.609375)" xlink:href="#Cmr10-31"/>
      <use transform="translate(209.234375 20.609375)" xlink:href="#Cmmi10-3b"/>
      <use transform="translate(238.90234375 20.609375)" xlink:href="#Cmmi10-71"/>
      <use transform="translate(301.041015625 20.609375)" xlink:href="#Cmr10-3d"/>
      <use transform="translate(385.099609375 20.609375)" xlink:href="#Cmr10-30"/>
      <use transform="translate(435.099609375 20.609375)" xlink:href="#Cmmi10-3b"/>
      <use transform="translate(464.767578125 20.609375)" xlink:href="#Cmmi10-b8"/>
      <use transform="translate(540.626953125 20.609375)" xlink:href="#Cmr10-3d"/>
      <use transform="translate(624.685546875 20.609375)" xlink:href="#Cmr10-31"/>
     </g>
    </g>
    <g id="line2d_29">
     <path d="
M146.016 58.0792
L174.816 58.0792" style="fill:none;stroke:#800080;stroke-width:2.5;"/>
    </g>
    <g id="line2d_30"/>
    <g id="text_15">
     <!-- $\kappa=2,q=0,\lambda=1$ -->
     <defs>
      <path d="
M4.98438 0
L4.98438 2.6875
Q4.98438 2.9375 5.17188 3.21875
L20.7031 20.4062
Q24.2188 24.2188 26.4062 26.7969
Q28.6094 29.3906 30.75 32.7656
Q32.9062 36.1406 34.1562 39.625
Q35.4062 43.1094 35.4062 47.0156
Q35.4062 51.125 33.8906 54.8594
Q32.375 58.5938 29.375 60.8438
Q26.375 63.0938 22.125 63.0938
Q17.7812 63.0938 14.3125 60.4688
Q10.8438 57.8594 9.42188 53.7188
Q9.8125 53.8125 10.5 53.8125
Q12.75 53.8125 14.3281 52.2969
Q15.9219 50.7812 15.9219 48.3906
Q15.9219 46.0938 14.3281 44.5
Q12.75 42.9219 10.5 42.9219
Q8.15625 42.9219 6.5625 44.5469
Q4.98438 46.1875 4.98438 48.3906
Q4.98438 52.1562 6.39062 55.4375
Q7.8125 58.7344 10.4688 61.2969
Q13.1406 63.875 16.4844 65.2344
Q19.8281 66.6094 23.5781 66.6094
Q29.2969 66.6094 34.2188 64.1875
Q39.1562 61.7656 42.0312 57.3438
Q44.9219 52.9375 44.9219 47.0156
Q44.9219 42.6719 43.0156 38.7656
Q41.1094 34.8594 38.125 31.6562
Q35.1562 28.4688 30.5156 24.4062
Q25.875 20.3594 24.4219 19
L13.0938 8.10938
L22.7031 8.10938
Q29.7812 8.10938 34.5469 8.21875
Q39.3125 8.34375 39.5938 8.59375
Q40.7656 9.85938 42 17.8281
L44.9219 17.8281
L42.0938 0
z
" id="Cmr10-32"/>
     </defs>
     <g transform="translate(174.816 65.99925)scale(0.144 -0.144)">
      <use transform="translate(0.0 20.609375)" xlink:href="#Cmmi10-2219"/>
      <use transform="translate(75.17578125 20.609375)" xlink:href="#Cmr10-3d"/>
      <use transform="translate(159.234375 20.609375)" xlink:href="#Cmr10-32"/>
      <use transform="translate(209.234375 20.609375)" xlink:href="#Cmmi10-3b"/>
      <use transform="translate(238.90234375 20.609375)" xlink:href="#Cmmi10-71"/>
      <use transform="translate(301.041015625 20.609375)" xlink:href="#Cmr10-3d"/>
      <use transform="translate(385.099609375 20.609375)" xlink:href="#Cmr10-30"/>
      <use transform="translate(435.099609375 20.609375)" xlink:href="#Cmmi10-3b"/>
      <use transform="translate(464.767578125 20.609375)" xlink:href="#Cmmi10-b8"/>
      <use transform="translate(540.626953125 20.609375)" xlink:href="#Cmr10-3d"/>
      <use transform="translate(624.685546875 20.609375)" xlink:href="#Cmr10-31"/>
     </g>
    </g>
    <g id="line2d_31">
     <path d="
M146.016 79.2157
L174.816 79.2157" style="fill:none;stroke:#add8e6;stroke-width:2.5;"/>
    </g>
    <g id="line2d_32"/>
    <g id="text_16">
     <!-- $\kappa=2,q=1,\lambda=1$ -->
     <g transform="translate(174.816 87.13575)scale(0.144 -0.144)">
      <use transform="translate(0.0 20.609375)" xlink:href="#Cmmi10-2219"/>
      <use transform="translate(75.17578125 20.609375)" xlink:href="#Cmr10-3d"/>
      <use transform="translate(159.234375 20.609375)" xlink:href="#Cmr10-32"/>
      <use transform="translate(209.234375 20.609375)" xlink:href="#Cmmi10-3b"/>
      <use transform="translate(238.90234375 20.609375)" xlink:href="#Cmmi10-71"/>
      <use transform="translate(301.041015625 20.609375)" xlink:href="#Cmr10-3d"/>
      <use transform="translate(385.099609375 20.609375)" xlink:href="#Cmr10-31"/>
      <use transform="translate(435.099609375 20.609375)" xlink:href="#Cmmi10-3b"/>
      <use transform="translate(464.767578125 20.609375)" xlink:href="#Cmmi10-b8"/>
      <use transform="translate(540.626953125 20.609375)" xlink:href="#Cmr10-3d"/>
      <use transform="translate(624.685546875 20.609375)" xlink:href="#Cmr10-31"/>
     </g>
    </g>
    <g id="line2d_33">
     <path d="
M146.016 100.352
L174.816 100.352" style="fill:none;stroke:#ffc0cb;stroke-width:2.5;"/>
    </g>
    <g id="line2d_34"/>
    <g id="text_17">
     <!-- $\kappa=1,q=1.5,\lambda=0.5$ -->
     <defs>
      <path d="
M8.6875 11.375
Q9.71875 8.45312 11.8438 6.04688
Q13.9688 3.65625 16.875 2.3125
Q19.7812 0.984375 22.9062 0.984375
Q30.125 0.984375 32.8594 6.59375
Q35.5938 12.2031 35.5938 20.2188
Q35.5938 23.6875 35.4688 26.0469
Q35.3594 28.4219 34.8125 30.6094
Q33.8906 34.125 31.5625 36.7656
Q29.25 39.4062 25.875 39.4062
Q22.5156 39.4062 20.0938 38.375
Q17.6719 37.3594 16.1562 35.9844
Q14.6562 34.625 13.4844 33.1094
Q12.3125 31.5938 12.0156 31.5
L10.8906 31.5
Q10.6406 31.5 10.2656 31.8125
Q9.90625 32.125 9.90625 32.4219
L9.90625 65.8281
Q9.90625 66.0625 10.2188 66.3281
Q10.5469 66.6094 10.8906 66.6094
L11.1875 66.6094
Q17.9219 63.375 25.4844 63.375
Q32.9062 63.375 39.7969 66.6094
L40.0938 66.6094
Q40.4375 66.6094 40.7188 66.3594
Q41.0156 66.1094 41.0156 65.8281
L41.0156 64.8906
Q41.0156 64.4062 40.8281 64.4062
Q37.4062 59.8594 32.25 57.3125
Q27.0938 54.7812 21.5781 54.7812
Q17.5781 54.7812 13.375 55.9062
L13.375 37.0156
Q16.7031 39.7031 19.3125 40.8438
Q21.9219 42 25.9844 42
Q31.5 42 35.8594 38.8125
Q40.2344 35.6406 42.5781 30.5312
Q44.9219 25.4375 44.9219 20.125
Q44.9219 14.1094 41.9688 8.98438
Q39.0156 3.85938 33.9375 0.828125
Q28.8594 -2.20312 22.9062 -2.20312
Q17.9688 -2.20312 13.8438 0.328125
Q9.71875 2.875 7.34375 7.17188
Q4.98438 11.4688 4.98438 16.3125
Q4.98438 18.5625 6.4375 19.9688
Q7.90625 21.3906 10.1094 21.3906
Q12.3125 21.3906 13.7969 19.9375
Q15.2812 18.5 15.2812 16.3125
Q15.2812 14.1562 13.7969 12.6719
Q12.3125 11.1875 10.1094 11.1875
Q9.76562 11.1875 9.32812 11.25
Q8.89062 11.3281 8.6875 11.375" id="Cmr10-35"/>
      <path d="
M8.40625 5.51562
Q8.40625 7.76562 10.0625 9.375
Q11.7188 10.9844 13.9219 10.9844
Q15.2812 10.9844 16.5938 10.25
Q17.9219 9.51562 18.6562 8.20312
Q19.3906 6.89062 19.3906 5.51562
Q19.3906 3.32812 17.7656 1.65625
Q16.1562 0 13.9219 0
Q11.7188 0 10.0625 1.65625
Q8.40625 3.32812 8.40625 5.51562" id="Cmmi10-3a"/>
     </defs>
     <g transform="translate(174.816 108.27225)scale(0.144 -0.144)">
      <use transform="translate(0.0 20.609375)" xlink:href="#Cmmi10-2219"/>
      <use transform="translate(75.17578125 20.609375)" xlink:href="#Cmr10-3d"/>
      <use transform="translate(159.234375 20.609375)" xlink:href="#Cmr10-31"/>
      <use transform="translate(209.234375 20.609375)" xlink:href="#Cmmi10-3b"/>
      <use transform="translate(238.90234375 20.609375)" xlink:href="#Cmmi10-71"/>
      <use transform="translate(301.041015625 20.609375)" xlink:href="#Cmr10-3d"/>
      <use transform="translate(385.099609375 20.609375)" xlink:href="#Cmr10-31"/>
      <use transform="translate(435.099609375 20.609375)" xlink:href="#Cmmi10-3a"/>
      <use transform="translate(463.642578125 20.609375)" xlink:href="#Cmr10-35"/>
      <use transform="translate(513.642578125 20.609375)" xlink:href="#Cmmi10-3b"/>
      <use transform="translate(543.310546875 20.609375)" xlink:href="#Cmmi10-b8"/>
      <use transform="translate(619.169921875 20.609375)" xlink:href="#Cmr10-3d"/>
      <use transform="translate(703.228515625 20.609375)" xlink:href="#Cmr10-30"/>
      <use transform="translate(753.228515625 20.609375)" xlink:href="#Cmmi10-3a"/>
      <use transform="translate(781.771484375 20.609375)" xlink:href="#Cmr10-35"/>
     </g>
    </g>
   </g>
  </g>
 </g>
 <defs>
  <clipPath id="p19633d48e9">
   <rect height="206.64" width="253.116" x="54.468" y="18.081"/>
  </clipPath>
 </defs>
</svg>
