<?xml version="1.0" encoding="UTF-8" standalone="no"?>
<svg
   xmlns:dc="http://purl.org/dc/elements/1.1/"
   xmlns:cc="http://creativecommons.org/ns#"
   xmlns:rdf="http://www.w3.org/1999/02/22-rdf-syntax-ns#"
   xmlns:svg="http://www.w3.org/2000/svg"
   xmlns="http://www.w3.org/2000/svg"
   xmlns:xlink="http://www.w3.org/1999/xlink"
   xmlns:sodipodi="http://sodipodi.sourceforge.net/DTD/sodipodi-0.dtd"
   xmlns:inkscape="http://www.inkscape.org/namespaces/inkscape"
   width="800"
   height="600"
   viewBox="0 0 800 600"
   id="svg3223"
   version="1.1"
   inkscape:version="0.48.4 r9939"
   sodipodi:docname="tukey.svg">
  <metadata
     id="metadata3459">
    <rdf:RDF>
      <cc:Work
         rdf:about="">
        <dc:format>image/svg+xml</dc:format>
        <dc:type
           rdf:resource="http://purl.org/dc/dcmitype/StillImage" />
      </cc:Work>
    </rdf:RDF>
  </metadata>
  <sodipodi:namedview
     pagecolor="#ffffff"
     bordercolor="#666666"
     borderopacity="1"
     objecttolerance="10"
     gridtolerance="10"
     guidetolerance="10"
     inkscape:pageopacity="0"
     inkscape:pageshadow="2"
     inkscape:window-width="1366"
     inkscape:window-height="706"
     id="namedview3457"
     showgrid="false"
     inkscape:zoom="0.865"
     inkscape:cx="400"
     inkscape:cy="300"
     inkscape:window-x="-8"
     inkscape:window-y="-8"
     inkscape:window-maximized="1"
     inkscape:current-layer="svg3223" />
  <desc
     id="desc3225">Produced by GNUPLOT 4.2 patchlevel 6  </desc>
  <defs
     id="defs3227">
    <circle
       id="gpDot"
       r="0.5"
       stroke-width="0.5" />
    <path
       id="gpPt0"
       stroke-width="0.111"
       stroke="currentColor"
       d="M-1,0 h2 M0,-1 v2" />
    <path
       id="gpPt1"
       stroke-width="0.111"
       stroke="currentColor"
       d="M-1,-1 L1,1 M1,-1 L-1,1" />
    <path
       id="gpPt2"
       stroke-width="0.111"
       stroke="currentColor"
       d="M-1,0 L1,0 M0,-1 L0,1 M-1,-1 L1,1 M-1,1 L1,-1" />
    <rect
       id="gpPt3"
       stroke-width="0.111"
       stroke="currentColor"
       x="-1"
       y="-1"
       width="2"
       height="2" />
    <rect
       id="gpPt4"
       stroke-width="0.111"
       stroke="currentColor"
       fill="currentColor"
       x="-1"
       y="-1"
       width="2"
       height="2" />
    <circle
       id="gpPt5"
       stroke-width="0.111"
       stroke="currentColor"
       cx="0"
       cy="0"
       r="1" />
    <use
       xlink:href="#gpPt5"
       id="gpPt6"
       fill="currentColor"
       stroke="none" />
    <path
       id="gpPt7"
       stroke-width="0.111"
       stroke="currentColor"
       d="M0,-1.33 L-1.33,0.67 L1.33,0.67 z" />
    <use
       xlink:href="#gpPt7"
       id="gpPt8"
       fill="currentColor"
       stroke="none" />
    <use
       xlink:href="#gpPt7"
       id="gpPt9"
       stroke="currentColor"
       transform="rotate(180)" />
    <use
       xlink:href="#gpPt9"
       id="gpPt10"
       fill="currentColor"
       stroke="none" />
    <use
       xlink:href="#gpPt3"
       id="gpPt11"
       stroke="currentColor"
       transform="rotate(45)" />
    <use
       xlink:href="#gpPt11"
       id="gpPt12"
       fill="currentColor"
       stroke="none" />
  </defs>
  <g
     style="fill:none; color:white; stroke:currentColor; stroke-width:1.00; stroke-linecap:butt; stroke-linejoin:miter"
     id="g3243" />
  <g
     style="fill:none; color:black; stroke:currentColor; stroke-width:1.00; stroke-linecap:butt; stroke-linejoin:miter"
     id="g3245">
    <path
       d="M141.9,528.0 L159.9,528.0 M758.2,528.0 L740.2,528.0 "
       id="path3247" />
    <g
       transform="translate(125.2,537.0)"
       style="stroke:none; fill:black; font-family:Arial; font-size:24.00pt; text-anchor:end"
       id="g3249">
      <text
         id="text3251">
        <tspan
           id="tspan3253"> 0</tspan>
      </text>
    </g>
    <path
       d="M141.9,483.0 L159.9,483.0 M758.2,483.0 L740.2,483.0 "
       id="path3255" />
    <g
       transform="translate(125.2,492.0)"
       style="stroke:none; fill:black; font-family:Arial; font-size:24.00pt; text-anchor:end"
       id="g3257">
      <text
         id="text3259">
        <tspan
           id="tspan3261"> 0.1</tspan>
      </text>
    </g>
    <path
       d="M141.9,438.1 L159.9,438.1 M758.2,438.1 L740.2,438.1 "
       id="path3263" />
    <g
       transform="translate(125.2,447.1)"
       style="stroke:none; fill:black; font-family:Arial; font-size:24.00pt; text-anchor:end"
       id="g3265">
      <text
         id="text3267">
        <tspan
           id="tspan3269"> 0.2</tspan>
      </text>
    </g>
    <path
       d="M141.9,393.1 L159.9,393.1 M758.2,393.1 L740.2,393.1 "
       id="path3271" />
    <g
       transform="translate(125.2,402.1)"
       style="stroke:none; fill:black; font-family:Arial; font-size:24.00pt; text-anchor:end"
       id="g3273">
      <text
         id="text3275">
        <tspan
           id="tspan3277"> 0.3</tspan>
      </text>
    </g>
    <path
       d="M141.9,348.1 L159.9,348.1 M758.2,348.1 L740.2,348.1 "
       id="path3279" />
    <g
       transform="translate(125.2,357.1)"
       style="stroke:none; fill:black; font-family:Arial; font-size:24.00pt; text-anchor:end"
       id="g3281">
      <text
         id="text3283">
        <tspan
           id="tspan3285"> 0.4</tspan>
      </text>
    </g>
    <path
       d="M141.9,303.2 L159.9,303.2 M758.2,303.2 L740.2,303.2 "
       id="path3287" />
    <g
       transform="translate(125.2,312.2)"
       style="stroke:none; fill:black; font-family:Arial; font-size:24.00pt; text-anchor:end"
       id="g3289">
      <text
         id="text3291">
        <tspan
           id="tspan3293"> 0.5</tspan>
      </text>
    </g>
    <path
       d="M141.9,258.2 L159.9,258.2 M758.2,258.2 L740.2,258.2 "
       id="path3295" />
    <g
       transform="translate(125.2,267.2)"
       style="stroke:none; fill:black; font-family:Arial; font-size:24.00pt; text-anchor:end"
       id="g3297">
      <text
         id="text3299">
        <tspan
           id="tspan3301"> 0.6</tspan>
      </text>
    </g>
    <path
       d="M141.9,213.3 L159.9,213.3 M758.2,213.3 L740.2,213.3 "
       id="path3303" />
    <g
       transform="translate(125.2,222.3)"
       style="stroke:none; fill:black; font-family:Arial; font-size:24.00pt; text-anchor:end"
       id="g3305">
      <text
         id="text3307">
        <tspan
           id="tspan3309"> 0.7</tspan>
      </text>
    </g>
    <path
       d="M141.9,168.3 L159.9,168.3 M758.2,168.3 L740.2,168.3 "
       id="path3311" />
    <g
       transform="translate(125.2,177.3)"
       style="stroke:none; fill:black; font-family:Arial; font-size:24.00pt; text-anchor:end"
       id="g3313">
      <text
         id="text3315">
        <tspan
           id="tspan3317"> 0.8</tspan>
      </text>
    </g>
    <path
       d="M141.9,123.3 L159.9,123.3 M758.2,123.3 L740.2,123.3 "
       id="path3319" />
    <g
       transform="translate(125.2,132.3)"
       style="stroke:none; fill:black; font-family:Arial; font-size:24.00pt; text-anchor:end"
       id="g3321">
      <text
         id="text3323">
        <tspan
           id="tspan3325"> 0.9</tspan>
      </text>
    </g>
    <path
       d="M141.9,78.4 L159.9,78.4 M758.2,78.4 L740.2,78.4 "
       id="path3327" />
    <g
       transform="translate(125.2,87.4)"
       style="stroke:none; fill:black; font-family:Arial; font-size:24.00pt; text-anchor:end"
       id="g3329">
      <text
         id="text3331">
        <tspan
           id="tspan3333"> 1</tspan>
      </text>
    </g>
    <path
       d="M141.9,33.4 L159.9,33.4 M758.2,33.4 L740.2,33.4 "
       id="path3335" />
    <g
       transform="translate(125.2,42.4)"
       style="stroke:none; fill:black; font-family:Arial; font-size:24.00pt; text-anchor:end"
       id="g3337">
      <text
         id="text3339">
        <tspan
           id="tspan3341"> 1.1</tspan>
      </text>
    </g>
    <path
       d="M141.9,528.0 L141.9,510.0 M141.9,33.4 L141.9,51.4 "
       id="path3343" />
    <g
       transform="translate(141.9,573.0)"
       style="stroke:none; fill:black; font-family:Arial; font-size:24.00pt; text-anchor:middle"
       id="g3345">
      <text
         id="text3347">
        <tspan
           id="tspan3349">-4</tspan>
      </text>
    </g>
    <path
       d="M296.0,528.0 L296.0,510.0 M296.0,33.4 L296.0,51.4 "
       id="path3351" />
    <g
       transform="translate(296.0,573.0)"
       style="stroke:none; fill:black; font-family:Arial; font-size:24.00pt; text-anchor:middle"
       id="g3353">
      <text
         id="text3355">
        <tspan
           id="tspan3357">-2</tspan>
      </text>
    </g>
    <path
       d="M450.1,528.0 L450.1,510.0 M450.1,33.4 L450.1,51.4 "
       id="path3359" />
    <g
       transform="translate(450.1,573.0)"
       style="stroke:none; fill:black; font-family:Arial; font-size:24.00pt; text-anchor:middle"
       id="g3361">
      <text
         id="text3363">
        <tspan
           id="tspan3365"> 0</tspan>
      </text>
    </g>
    <path
       d="M604.1,528.0 L604.1,510.0 M604.1,33.4 L604.1,51.4 "
       id="path3367" />
    <g
       transform="translate(604.1,573.0)"
       style="stroke:none; fill:black; font-family:Arial; font-size:24.00pt; text-anchor:middle"
       id="g3369">
      <text
         id="text3371">
        <tspan
           id="tspan3373"> 2</tspan>
      </text>
    </g>
    <path
       d="M758.2,528.0 L758.2,510.0 M758.2,33.4 L758.2,51.4 "
       id="path3375" />
    <g
       transform="translate(758.2,573.0)"
       style="stroke:none; fill:black; font-family:Arial; font-size:24.00pt; text-anchor:middle"
       id="g3377">
      <text
         id="text3379">
        <tspan
           id="tspan3381"> 4</tspan>
      </text>
    </g>
    <path
       stroke="rgb(  0,   0,   0)"
       d="M141.9,528.0 L758.2,528.0 M450.1,528.0 L450.1,33.4 M141.9,33.4 L141.9,528.0 L758.2,528.0 L758.2,33.4    L141.9,33.4 Z "
       id="path3383" />
  </g>
  <g
     style="fill:none; color:black; stroke:currentColor; stroke-width:5.00; stroke-linecap:butt; stroke-linejoin:miter"
     id="g3385" />
  <g
     style="fill:none; color:red; stroke:currentColor; stroke-width:5.00; stroke-linecap:butt; stroke-linejoin:miter"
     id="g3387" />
  <g
     style="fill:none; color:black; stroke:currentColor; stroke-width:5.00; stroke-linecap:butt; stroke-linejoin:miter"
     id="g3389">
    <g
       transform="translate(623.3,78.4)"
       style="stroke:none; fill:black; font-family:Arial; font-size:24.00pt; text-anchor:end"
       id="g3391">
      <text
         id="text3393">位 =-1</text>
    </g>
  </g>
  <g
     style="fill:none; color:red; stroke:currentColor; stroke-width:5.00; stroke-linecap:butt; stroke-linejoin:miter"
     id="g3399">
    <path
       stroke="rgb(255,   0,   0)"
       d="M640.0,69.4 L724.8,69.4 M141.9,512.5 L148.1,512.0 L154.4,511.6 L160.6,511.1 L166.8,510.6 L173.0,510.1    L179.3,509.6 L185.5,509.1 L191.7,508.5 L197.9,507.9 L204.2,507.3 L210.4,506.7 L216.6,506.0 L222.8,505.3    L229.1,504.6 L235.3,503.9 L241.5,503.1 L247.7,502.3 L254.0,501.5 L260.2,500.6 L266.4,499.7 L272.6,498.8    L278.9,497.9 L285.1,496.9 L291.3,495.9 L297.5,494.8 L303.8,493.7 L310.0,492.6 L316.2,491.5 L322.4,490.3    L328.7,489.2 L334.9,488.0 L341.1,486.7 L347.3,485.5 L353.6,484.3 L359.8,483.1 L366.0,481.9 L372.2,480.7    L378.5,479.5 L384.7,478.4 L390.9,477.3 L397.1,476.3 L403.4,475.4 L409.6,474.5 L415.8,473.8 L422.0,473.2    L428.3,472.6 L434.5,472.2 L440.7,471.9 L446.9,471.8 L453.2,471.8 L459.4,471.9 L465.6,472.2 L471.8,472.6    L478.1,473.2 L484.3,473.8 L490.5,474.5 L496.7,475.4 L503.0,476.3 L509.2,477.3 L515.4,478.4 L521.6,479.5    L527.9,480.7 L534.1,481.9 L540.3,483.1 L546.5,484.3 L552.8,485.5 L559.0,486.7 L565.2,488.0 L571.4,489.2    L577.7,490.3 L583.9,491.5 L590.1,492.6 L596.3,493.7 L602.6,494.8 L608.8,495.9 L615.0,496.9 L621.2,497.9    L627.5,498.8 L633.7,499.7 L639.9,500.6 L646.1,501.5 L652.4,502.3 L658.6,503.1 L664.8,503.9 L671.0,504.6    L677.3,505.3 L683.5,506.0 L689.7,506.7 L695.9,507.3 L702.2,507.9 L708.4,508.5 L714.6,509.1 L720.8,509.6    L727.1,510.1 L733.3,510.6 L739.5,511.1 L745.7,511.6 L752.0,512.0 L758.2,512.5 "
       id="path3401" />
  </g>
  <g
     style="fill:none; color:green; stroke:currentColor; stroke-width:5.00; stroke-linecap:butt; stroke-linejoin:miter"
     id="g3403" />
  <g
     style="fill:none; color:black; stroke:currentColor; stroke-width:5.00; stroke-linecap:butt; stroke-linejoin:miter"
     id="g3405">
    <g
       transform="translate(623.3,114.4)"
       style="stroke:none; fill:black; font-family:Arial; font-size:24.00pt; text-anchor:end"
       id="g3407">
      <text
         id="text3409">位 = 0</text>
    </g>
  </g>
  <g
     style="fill:none; color:green; stroke:currentColor; stroke-width:5.00; stroke-linecap:butt; stroke-linejoin:miter"
     id="g3415">
    <path
       stroke="rgb(  0,   0,   0)"
       d="M640.0,105.4 L724.8,105.4 M141.9,520.1 L148.1,519.4 L154.4,518.7 L160.6,518.0 L166.8,517.2 L173.0,516.3    L179.3,515.4 L185.5,514.4 L191.7,513.3 L197.9,512.2 L204.2,511.0 L210.4,509.6 L216.6,508.2 L222.8,506.7    L229.1,505.1 L235.3,503.4 L241.5,501.6 L247.7,499.7 L254.0,497.7 L260.2,495.5 L266.4,493.2 L272.6,490.9    L278.9,488.3 L285.1,485.7 L291.3,482.9 L297.5,480.1 L303.8,477.1 L310.0,474.0 L316.2,470.8 L322.4,467.5    L328.7,464.1 L334.9,460.7 L341.1,457.3 L347.3,453.8 L353.6,450.3 L359.8,446.8 L366.0,443.4 L372.2,440.0    L378.5,436.8 L384.7,433.6 L390.9,430.7 L397.1,427.9 L403.4,425.3 L409.6,423.0 L415.8,421.0 L422.0,419.2    L428.3,417.8 L434.5,416.7 L440.7,416.0 L446.9,415.6 L453.2,415.6 L459.4,416.0 L465.6,416.7 L471.8,417.8    L478.1,419.2 L484.3,421.0 L490.5,423.0 L496.7,425.3 L503.0,427.9 L509.2,430.7 L515.4,433.6 L521.6,436.8    L527.9,440.0 L534.1,443.4 L540.3,446.8 L546.5,450.3 L552.8,453.8 L559.0,457.3 L565.2,460.7 L571.4,464.1    L577.7,467.5 L583.9,470.8 L590.1,474.0 L596.3,477.1 L602.6,480.1 L608.8,482.9 L615.0,485.7 L621.2,488.3    L627.5,490.9 L633.7,493.2 L639.9,495.5 L646.1,497.7 L652.4,499.7 L658.6,501.6 L664.8,503.4 L671.0,505.1    L677.3,506.7 L683.5,508.2 L689.7,509.6 L695.9,511.0 L702.2,512.2 L708.4,513.3 L714.6,514.4 L720.8,515.4    L727.1,516.3 L733.3,517.2 L739.5,518.0 L745.7,518.7 L752.0,519.4 L758.2,520.1 "
       id="path3417" />
  </g>
  <g
     style="fill:none; color:blue; stroke:currentColor; stroke-width:5.00; stroke-linecap:butt; stroke-linejoin:miter"
     id="g3419" />
  <g
     style="fill:none; color:black; stroke:currentColor; stroke-width:5.00; stroke-linecap:butt; stroke-linejoin:miter"
     id="g3421">
    <g
       transform="translate(623.3,150.4)"
       style="stroke:none; fill:black; font-family:Arial; font-size:24.00pt; text-anchor:end"
       id="g3423">
      <text
         id="text3425">位 = 1</text>
    </g>
  </g>
  <g
     style="fill:none; color:blue; stroke:currentColor; stroke-width:5.00; stroke-linecap:butt; stroke-linejoin:miter"
     id="g3431">
    <path
       stroke="rgb(  0,   0, 255)"
       d="M640.0,141.4 L724.8,141.4 M141.9,528.0 L148.1,528.0 L154.4,528.0 L160.6,528.0 L166.8,528.0 L173.0,528.0    L179.3,528.0 L185.5,528.0 L191.7,528.0 L197.9,528.0 L204.2,528.0 L210.4,528.0 L216.6,528.0 L222.8,528.0    L229.1,528.0 L235.3,528.0 L241.5,528.0 L247.7,528.0 L254.0,528.0 L260.2,528.0 L266.4,528.0 L272.6,528.0    L278.9,528.0 L285.1,528.0 L291.3,528.0 L297.5,528.0 L303.8,528.0 L310.0,528.0 L316.2,528.0 L322.4,528.0    L328.7,528.0 L334.9,528.0 L341.1,528.0 L347.3,528.0 L353.6,528.0 L359.8,528.0 L366.0,528.0 L372.2,528.0    L378.5,303.2 L384.7,303.2 L390.9,303.2 L397.1,303.2 L403.4,303.2 L409.6,303.2 L415.8,303.2 L422.0,303.2    L428.3,303.2 L434.5,303.2 L440.7,303.2 L446.9,303.2 L453.2,303.2 L459.4,303.2 L465.6,303.2 L471.8,303.2    L478.1,303.2 L484.3,303.2 L490.5,303.2 L496.7,303.2 L503.0,303.2 L509.2,303.2 L515.4,303.2 L521.6,303.2    L527.9,528.0 L534.1,528.0 L540.3,528.0 L546.5,528.0 L552.8,528.0 L559.0,528.0 L565.2,528.0 L571.4,528.0    L577.7,528.0 L583.9,528.0 L590.1,528.0 L596.3,528.0 L602.6,528.0 L608.8,528.0 L615.0,528.0 L621.2,528.0    L627.5,528.0 L633.7,528.0 L639.9,528.0 L646.1,528.0 L652.4,528.0 L658.6,528.0 L664.8,528.0 L671.0,528.0    L677.3,528.0 L683.5,528.0 L689.7,528.0 L695.9,528.0 L702.2,528.0 L708.4,528.0 L714.6,528.0 L720.8,528.0    L727.1,528.0 L733.3,528.0 L739.5,528.0 L745.7,528.0 L752.0,528.0 L758.2,528.0 "
       id="path3433" />
  </g>
  <g
     style="fill:none; color:cyan; stroke:currentColor; stroke-width:5.00; stroke-linecap:butt; stroke-linejoin:miter"
     id="g3435" />
  <g
     style="fill:none; color:black; stroke:currentColor; stroke-width:5.00; stroke-linecap:butt; stroke-linejoin:miter"
     id="g3437">
    <g
       transform="translate(623.3,186.4)"
       style="stroke:none; fill:black; font-family:Arial; font-size:24.00pt; text-anchor:end"
       id="g3439">
      <text
         id="text3441">位 = 2</text>
    </g>
  </g>
  <g
     style="fill:none; color:cyan; stroke:currentColor; stroke-width:5.00; stroke-linecap:butt; stroke-linejoin:miter"
     id="g3447">
    <path
       stroke="rgb(  0, 255,   0)"
       d="M640.0,177.4 L724.8,177.4 M141.9,528.0 L148.1,528.0 L154.4,528.0 L160.6,528.0 L166.8,528.0 L173.0,528.0    L179.3,528.0 L185.5,528.0 L191.7,528.0 L197.9,528.0 L204.2,528.0 L210.4,528.0 L216.6,528.0 L222.8,528.0    L229.1,528.0 L235.3,528.0 L241.5,528.0 L247.7,528.0 L254.0,528.0 L260.2,528.0 L266.4,528.0 L272.6,528.0    L278.9,528.0 L285.1,528.0 L291.3,528.0 L297.5,528.0 L303.8,528.0 L310.0,528.0 L316.2,528.0 L322.4,528.0    L328.7,528.0 L334.9,528.0 L341.1,528.0 L347.3,528.0 L353.6,528.0 L359.8,528.0 L366.0,528.0 L372.2,528.0    L378.5,528.0 L384.7,528.0 L390.9,528.0 L397.1,528.0 L403.4,528.0 L409.6,528.0 L415.8,78.4 L422.0,78.4    L428.3,78.4 L434.5,78.4 L440.7,78.4 L446.9,78.4 L453.2,78.4 L459.4,78.4 L465.6,78.4 L471.8,78.4    L478.1,78.4 L484.3,78.4 L490.5,528.0 L496.7,528.0 L503.0,528.0 L509.2,528.0 L515.4,528.0 L521.6,528.0    L527.9,528.0 L534.1,528.0 L540.3,528.0 L546.5,528.0 L552.8,528.0 L559.0,528.0 L565.2,528.0 L571.4,528.0    L577.7,528.0 L583.9,528.0 L590.1,528.0 L596.3,528.0 L602.6,528.0 L608.8,528.0 L615.0,528.0 L621.2,528.0    L627.5,528.0 L633.7,528.0 L639.9,528.0 L646.1,528.0 L652.4,528.0 L658.6,528.0 L664.8,528.0 L671.0,528.0    L677.3,528.0 L683.5,528.0 L689.7,528.0 L695.9,528.0 L702.2,528.0 L708.4,528.0 L714.6,528.0 L720.8,528.0    L727.1,528.0 L733.3,528.0 L739.5,528.0 L745.7,528.0 L752.0,528.0 L758.2,528.0 "
       id="path3449" />
  </g>
  <g
     style="fill:none; color:cyan; stroke:rgb(  0, 255,   0); stroke-width:1.00; stroke-linecap:butt; stroke-linejoin:miter"
     id="g3451" />
  <g
     style="fill:none; color:black; stroke:currentColor; stroke-width:1.00; stroke-linecap:butt; stroke-linejoin:miter"
     id="g3453">
    <path
       d="M141.9,33.4 L141.9,528.0 L758.2,528.0 L758.2,33.4 L141.9,33.4 Z "
       id="path3455" />
  </g>
</svg>
