<?xml version="1.0" standalone="no"?>
<!DOCTYPE svg PUBLIC "-//W3C//DTD SVG 1.1//EN"
  "http://www.w3.org/Graphics/SVG/1.1/DTD/svg11.dtd">
<!-- Created with matplotlib (http://matplotlib.sourceforge.net/) -->
<svg width="576pt" height="432pt" viewBox="0 0 576 432"
   xmlns="http://www.w3.org/2000/svg"
   xmlns:xlink="http://www.w3.org/1999/xlink"
   version="1.1"
   id="svg1">
<g id="figure1">
<path style="fill: #ffffff; stroke: #ffffff; stroke-width: 1.0; stroke-linejoin: miter; stroke-linecap: square;  opacity: 1.0"  d="M0.0 432.0L576.0 432.0L576.0 0.0L0.0 0.0L0.0 432.0"/>
<g id="axes1">
<path style="fill: #ffffff; opacity: 1.0"  d="M72.0 388.8L518.4 388.8L518.4 43.2L72.0 43.2L72.0 388.8"/>
<g id="line2d1">
<defs>
  <clipPath id="pdfe8138a4e5f5c14e3df41988c01b1aa">
<rect x="72.0" y="43.2" width="446.4" height="345.6"/>
  </clipPath>
</defs><path style="fill: none; stroke: #00ffff; stroke-width: 1.5; stroke-linejoin: miter; stroke-linecap: square;  opacity: 1.0" clip-path="url(#pdfe8138a4e5f5c14e3df41988c01b1aa)" d="M72.0 384.423866254L72.744 384.290818605L73.488 384.154190511
L74.232 384.013901222L74.976 383.869868662L75.72 383.72200942
L76.464 383.570238743L77.208 383.414470534L77.952 383.254617341
L78.696 383.090590357L79.44 382.922299416L80.184 382.749652985
L80.928 382.572558164L81.672 382.390920684L82.416 382.204644902
L83.16 382.013633805L83.904 381.817789004L84.648 381.617010738
L85.392 381.411197872L86.136 381.200247901L86.88 380.984056951
L87.624 380.762519783L88.368 380.535529795L89.112 380.302979028
L89.856 380.064758171L90.6 379.82075657L91.344 379.570862229
L92.088 379.314961824L92.832 379.05294071L93.576 378.784682929
L94.32 378.510071223L95.064 378.228987046L95.808 377.941310574
L96.552 377.646920722L97.296 377.345695156L98.04 377.037510312
L98.784 376.722241409L99.528 376.399762468L100.272 376.069946335
L101.016 375.732664694L101.76 375.387788094L102.504 375.035185969
L103.248 374.674726662L103.992 374.306277448L104.736 373.929704564
L105.48 373.54487323L106.224 373.151647682L106.968 372.749891202
L107.712 372.339466145L108.456 371.920233971L109.2 371.492055284
L109.944 371.05478986L110.688 370.608296687L111.432 370.152433999
L112.176 369.687059319L112.92 369.212029492L113.664 368.727200734
L114.408 368.232428668L115.152 367.727568373L115.896 367.212474424
L116.64 366.687000943L117.384 366.151001645L118.128 365.604329886
L118.872 365.046838718L119.616 364.478380936L120.36 363.898809135
L121.104 363.307975763L121.848 362.705733178L122.592 362.091933705
L123.336 361.466429696L124.08 360.82907359L124.824 360.179717974
L125.568 359.518215648L126.312 358.844419686L127.056 358.158183504
L127.8 357.45936093L128.544 356.747806267L129.288 356.023374366
L130.032 355.285920698L130.776 354.535301422L131.52 353.771373464
L132.264 352.99399459L133.008 352.203023481L133.752 351.398319812
L134.496 350.57974433L135.24 349.747158933L135.984 348.900426755
L136.728 348.039412242L137.472 347.16398124L138.216 346.274001078
L138.96 345.369340655L139.704 344.449870521L140.448 343.515462973
L141.192 342.565992137L141.936 341.601334059L142.68 340.621366797
L143.424 339.625970511L144.168 338.615027554L144.912 337.588422567
L145.656 336.546042572L146.4 335.487777066L147.144 334.413518115
L147.888 333.323160451L148.632 332.21660157L149.376 331.093741824
L150.12 329.954484522L150.864 328.798736027L151.608 327.626405853
L152.352 326.437406766L153.096 325.231654879L153.84 324.009069754
L154.584 322.7695745L155.328 321.513095873L156.072 320.239564373
L156.816 318.948914346L157.56 317.641084084L158.304 316.316015919
L159.048 314.973656329L159.792 313.61395603L160.536 312.236870081
L161.28 310.842357975L162.024 309.430383743L162.768 308.000916049
L163.512 306.553928283L164.256 305.089398663L165.0 303.607310325
L165.744 302.10765142L166.488 300.590415208L167.232 299.055600149
L167.976 297.503209995L168.72 295.933253882L169.464 294.345746417
L170.208 292.74070777L170.952 291.118163754L171.696 289.47814592
L172.44 287.820691633L173.184 286.145844158L173.928 284.453652743
L174.672 282.744172693L175.416 281.017465452L176.16 279.273598679
L176.904 277.512646318L177.648 275.734688673L178.392 273.939812477
L179.136 272.128110961L179.88 270.299683917L180.624 268.454637763
L181.368 266.593085604L182.112 264.715147291L182.856 262.820949475
L183.6 260.910625663L184.344 258.984316267L185.088 257.042168654
L185.832 255.084337189L186.576 253.11098328L187.32 251.122275418
L188.064 249.118389211L188.808 247.099507421L189.552 245.065819994
L190.296 243.017524085L191.04 240.954824088L191.784 238.877931653
L192.528 236.787065705L193.272 234.682452461L194.016 232.564325442
L194.76 230.432925479L195.504 228.288500719L196.248 226.131306631
L196.992 223.961606002L197.736 221.779668931L198.48 219.585772828
L199.224 217.380202399L199.968 215.163249638L200.712 212.935213807
L201.456 210.696401424L202.2 208.44712624L202.944 206.187709219
L203.688 203.918478517L204.432 201.639769457L205.176 199.351924506
L205.92 197.055293253L206.664 194.750232386L207.408 192.43710567
L208.152 190.116283932L208.896 187.788145049L209.64 185.453073935
L210.384 183.111462543L211.128 180.763709875L211.872 178.410221993
L212.616 176.051412056L213.36 173.687700361L214.104 171.31951441
L214.848 168.94728899L215.592 166.571466286L216.336 164.192496018
L217.08 161.810835608L217.824 159.426950388L218.568 157.041313852
L219.312 154.654407952L220.056 152.266723449L220.8 149.878760333
L221.544 147.491028297L222.288 145.104047305L223.032 142.718348229
L223.776 140.334473594L224.52 137.952978417L225.264 135.574431164
L226.008 133.199414836L226.752 130.828528185L227.496 128.46238708
L228.24 126.101626034L228.984 123.746899904L229.728 121.398885775
L230.472 119.058285038L231.216 116.725825681L231.96 114.402264797
L232.704 112.088391331L233.448 109.78502906L234.192 107.493039835
L234.936 105.21332707L235.68 102.946839514L236.424 100.694575275
L237.168 98.4575861307L237.912 96.2369821044L238.656 94.0339363075
L239.4 91.8496900442L240.144 89.6855581644L240.888 87.5429346478
L241.632 85.4232984017L242.376 83.3282192439L243.12 81.2593640407
L243.864 79.2185029631L244.608 77.2075158167L245.352 75.2283983968
L246.096 73.2832688115L246.84 71.3743737098L247.584 69.5040943449
L248.328 67.674952396L249.072 65.8896154659L249.816 64.1509021642
L250.56 62.4617866809L251.304 60.8254027503L252.048 59.2450468991
L252.792 57.72418087L253.536 56.2664331077L254.28 54.875599194
L255.024 53.5556411172L255.768 52.3106852606L256.512 51.145019
L257.256 50.063085801L258.0 49.0694787144L258.744 48.1689321741
L259.488 47.3663120122L260.232 46.6666036167L260.976 46.0748981696
L261.72 45.59637692L262.464 45.2362934616L263.208 44.9999540036
L263.952 44.8926956458L264.696 44.9198626867L265.44 45.0867810218
L266.184 45.3987307081L266.928 45.8609168017L267.672 46.4784385958
L268.416 47.2562574164L269.16 48.1991631566L269.904 49.3117397576
L270.648 50.598329867L271.392 52.062998931L272.136 53.7094989961
L272.88 55.5412325178L273.624 57.5612164895L274.368 59.7720472199
L275.112 62.175866098L275.856 64.7743266932L276.6 67.5685635402
L277.344 70.5591629598L278.088 73.7461362613L278.832 77.128895664
L279.576 80.7062332605L280.32 84.4763033284L281.064 88.4366082737
L281.808 92.5839884624L282.552 96.9146161672L283.296 101.42399382
L284.04 106.106956727L284.784 110.957680351L285.528 115.969692246
L286.272 121.135888644L287.016 126.4485557L287.76 131.899395287
L288.504 137.479555264L289.248 143.179664004L289.992 148.989869
L290.736 154.899879279L291.48 160.899011311L292.224 166.976238081
L292.968 173.120240948L293.712 179.319463862L294.456 185.562169521
L295.2 191.83649699L295.944 198.130520318L296.688 204.432307642
L297.432 210.729980306L298.176 217.011771481L298.92 223.2660838
L299.664 229.481545533L300.408 235.647064837L301.152 241.75188164
L301.896 247.785616754L302.64 253.738317832L303.384 259.600501828
L304.128 265.363193653L304.872 271.017960778L305.616 276.556943556
L306.36 281.972881097L307.104 287.259132585L307.848 292.409693958
L308.592 297.419209919L309.336 302.282981325L310.08 306.996967992
L310.824 311.557787059L311.568 315.962707042L312.312 320.209637781
L313.056 324.297116505L313.8 328.224290268L314.544 331.990895042
L315.288 335.597231774L316.032 339.044139728L316.776 342.33296745
L317.52 345.465541702L318.264 348.444134712L319.008 351.271430102
L319.752 353.950487821L320.496 356.484708444L321.24 358.877797145
L321.984 361.133727678L322.728 363.256706642L323.472 365.251138322
L324.216 367.121590352L324.96 368.872760439L325.704 370.509444347
L326.448 372.036505331L327.192 373.45884517L327.936 374.781376933
L328.68 376.008999575L329.424 377.146574456L330.168 378.198903817
L330.912 379.170711269L331.656 380.066624272L332.4 380.891158629
L333.144 381.64870494L333.888 382.343516973L334.632 382.9797019
L335.376 383.561212319L336.12 384.091839964L336.864 384.575211033
L337.608 385.014783006L338.352 385.413842858L339.096 385.775506556
L339.84 386.102719721L340.584 386.398259338L341.328 386.664736413
L342.072 386.904599441L342.816 387.120138605L343.56 387.313490572
L344.304 387.486643808L345.048 387.641444297L345.792 387.779601598
L346.536 387.902695126L347.28 388.012180612L348.024 388.109396646
L348.768 388.19557126L349.512 388.271828477L350.256 388.339194789
L351.0 388.398605519L351.744 388.450911018L352.488 388.496882679
L353.232 388.537218741L353.976 388.572549853L354.72 388.603444388
L355.464 388.630413498L356.208 388.653915897L356.952 388.674362374
L357.696 388.692120023L358.44 388.707516212L359.184 388.720842273
L359.928 388.732356935L360.672 388.7422895L361.416 388.750842779
L362.16 388.758195781L362.904 388.764506193L363.648 388.769912638
L364.392 388.774536734L365.136 388.778484969L365.88 388.781850396
L366.624 388.784714167L367.368 388.787146919L368.112 388.78921001
L368.856 388.790956636L369.6 388.792432828L370.344 388.793678337
L371.088 388.794727426L371.832 388.795609568L372.576 388.796350071
L373.32 388.796970619L374.064 388.797489761L374.808 388.797923329
L375.552 388.798284814L376.296 388.798585689L377.04 388.798835689
L377.784 388.799043064L378.528 388.79921479L379.272 388.799356754
L380.016 388.799473913L380.76 388.799570438L381.504 388.799649828
L382.248 388.799715013L382.992 388.799768444L383.736 388.799812166
L384.48 388.799847883L385.224 388.799877011L385.968 388.799900725
L386.712 388.799919998L387.456 388.799935635L388.2 388.799948302
L388.944 388.799958544L389.688 388.799966811L390.432 388.799973474
L391.176 388.799978834L391.92 388.799983139L392.664 388.79998659
L393.408 388.799989353L394.152 388.79999156L394.896 388.799993321
L395.64 388.799994723L396.384 388.799995838L397.128 388.799996722
L397.872 388.799997423L398.616 388.799997978L399.36 388.799998415
L400.104 388.79999876L400.848 388.799999032L401.592 388.799999245
L402.336 388.799999413L403.08 388.799999543L403.824 388.799999646
L404.568 388.799999726L405.312 388.799999788L406.056 388.799999836
L406.8 388.799999874L407.544 388.799999903L408.288 388.799999925
L409.032 388.799999943L409.776 388.799999956L410.52 388.799999967
L411.264 388.799999974L412.008 388.799999981L412.752 388.799999985
L413.496 388.799999989L414.24 388.799999991L414.984 388.799999994
L415.728 388.799999995L416.472 388.799999996L417.216 388.799999997
L417.96 388.799999998L418.704 388.799999998L419.448 388.799999999
L420.192 388.799999999L420.936 388.799999999L421.68 388.8L422.424 388.8
L423.168 388.8L423.912 388.8L424.656 388.8L425.4 388.8L426.144 388.8
L426.888 388.8L427.632 388.8L428.376 388.8L429.12 388.8L429.864 388.8
L430.608 388.8L431.352 388.8L432.096 388.8L432.84 388.8L433.584 388.8
L434.328 388.8L435.072 388.8L435.816 388.8L436.56 388.8L437.304 388.8
L438.048 388.8L438.792 388.8L439.536 388.8L440.28 388.8L441.024 388.8
L441.768 388.8L442.512 388.8L443.256 388.8L444.0 388.8L444.744 388.8
L445.488 388.8L446.232 388.8L446.976 388.8L447.72 388.8L448.464 388.8
L449.208 388.8L449.952 388.8L450.696 388.8L451.44 388.8L452.184 388.8
L452.928 388.8L453.672 388.8L454.416 388.8L455.16 388.8L455.904 388.8
L456.648 388.8L457.392 388.8L458.136 388.8L458.88 388.8L459.624 388.8
L460.368 388.8L461.112 388.8L461.856 388.8L462.6 388.8L463.344 388.8
L464.088 388.8L464.832 388.8L465.576 388.8L466.32 388.8L467.064 388.8
L467.808 388.8L468.552 388.8L469.296 388.8L470.04 388.8L470.784 388.8
L471.528 388.8L472.272 388.8L473.016 388.8L473.76 388.8L474.504 388.8
L475.248 388.8L475.992 388.8L476.736 388.8L477.48 388.8L478.224 388.8
L478.968 388.8L479.712 388.8L480.456 388.8L481.2 388.8L481.944 388.8
L482.688 388.8L483.432 388.8L484.176 388.8L484.92 388.8L485.664 388.8
L486.408 388.8L487.152 388.8L487.896 388.8L488.64 388.8L489.384 388.8
L490.128 388.8L490.872 388.8L491.616 388.8L492.36 388.8L493.104 388.8
L493.848 388.8L494.592 388.8L495.336 388.8L496.08 388.8L496.824 388.8
L497.568 388.8L498.312 388.8L499.056 388.8L499.8 388.8L500.544 388.8
L501.288 388.8L502.032 388.8L502.776 388.8L503.52 388.8L504.264 388.8
L505.008 388.8L505.752 388.8L506.496 388.8L507.24 388.8L507.984 388.8
L508.728 388.8L509.472 388.8L510.216 388.8L510.96 388.8L511.704 388.8
L512.448 388.8L513.192 388.8L513.936 388.8L514.68 388.8L515.424 388.8
L516.168 388.8L516.912 388.8L517.656 388.8"/>
</g>
<g id="line2d2">
<path style="fill: none; stroke: #00ff00; stroke-width: 1.5; stroke-linejoin: miter; stroke-linecap: square;  opacity: 1.0" clip-path="url(#pdfe8138a4e5f5c14e3df41988c01b1aa)" d="M72.0 384.429773588L72.744 384.297108404L73.488 384.160886246
L74.232 384.021027717L74.976 383.877452167L75.72 383.730077685
L76.464 383.578821102L77.208 383.423597983L77.952 383.264322631
L78.696 383.100908082L79.44 382.933266108L80.184 382.761307219
L80.928 382.584940659L81.672 382.404074415L82.416 382.218615217
L83.16 382.02846854L83.904 381.833538615L84.648 381.633728428
L85.392 381.428939734L86.136 381.219073057L86.88 381.004027704
L87.624 380.783701775L88.368 380.55799217L89.112 380.326794602
L89.856 380.090003615L90.6 379.847512589L91.344 379.599213764
L92.088 379.344998249L92.832 379.084756046L93.576 378.818376062
L94.32 378.545746137L95.064 378.266753057L95.808 377.981282583
L96.552 377.68921947L97.296 377.390447498L98.04 377.084849493
L98.784 376.772307358L99.528 376.4527021L100.272 376.125913867
L101.016 375.791821973L101.76 375.450304935L102.504 375.101240512
L103.248 374.744505735L103.992 374.379976951L104.736 374.007529863
L105.48 373.627039569L106.224 373.238380607L106.968 372.841427
L107.712 372.436052306L108.456 372.022129659L109.2 371.599531828
L109.944 371.168131264L110.688 370.727800153L111.432 370.278410477
L112.176 369.819834066L112.92 369.351942658L113.664 368.874607964
L114.408 368.387701726L115.152 367.891095785L115.896 367.384662147
L116.64 366.868273047L117.384 366.341801029L118.128 365.805119007
L118.872 365.258100347L119.616 364.700618941L120.36 364.132549281
L121.104 363.553766545L121.848 362.964146674L122.592 362.363566455
L123.336 361.75190361L124.08 361.129036882L124.824 360.494846121
L125.568 359.849212377L126.312 359.192017994L127.056 358.523146703
L127.8 357.842483716L128.544 357.149915828L129.288 356.445331515
L130.032 355.728621034L130.776 354.999676529L131.52 354.258392134
L132.264 353.504664079L133.008 352.738390798L133.752 351.95947304
L134.496 351.167813979L135.24 350.363319327L135.984 349.545897448
L136.728 348.715459471L137.472 347.87191941L138.216 347.015194281
L138.96 346.145204219L139.704 345.2618726L140.448 344.365126165
L141.192 343.454895135L141.936 342.531113343L142.68 341.59371835
L143.424 340.642651579L144.168 339.677858432L144.912 338.699288422
L145.656 337.706895298L146.4 336.700637172L147.144 335.68047665
L147.888 334.646380955L148.632 333.59832206L149.376 332.536276815
L150.12 331.460227074L150.864 330.370159826L151.608 329.266067321
L152.352 328.147947199L153.096 327.015802617L153.84 325.869642378
L154.584 324.709481053L155.328 323.535339111L156.072 322.347243041
L156.816 321.145225477L157.56 319.929325318L158.304 318.699587853
L159.048 317.456064877L159.792 316.198814813L160.536 314.927902823
L161.28 313.64340093L162.024 312.345388123L162.768 311.033950474
L163.512 309.709181242L164.256 308.371180982L165.0 307.020057644
L165.744 305.655926679L166.488 304.278911135L167.232 302.889141747
L167.976 301.486757038L168.72 300.071903397L169.464 298.644735172
L170.208 297.205414747L170.952 295.754112619L171.696 294.291007475
L172.44 292.816286257L173.184 291.33014423L173.928 289.832785043
L174.672 288.324420782L175.416 286.805272025L176.16 285.275567886
L176.904 283.735546059L177.648 282.18545285L178.392 280.625543215
L179.136 279.056080777L179.88 277.477337854L180.624 275.889595467
L181.368 274.293143353L182.112 272.688279963L182.856 271.075312462
L183.6 269.454556717L184.344 267.826337279L185.088 266.190987363
L185.832 264.548848815L186.576 262.900272079L187.32 261.245616148
L188.064 259.585248521L188.808 257.919545138L189.552 256.248890321
L190.296 254.573676697L191.04 252.894305122L191.784 251.211184595
L192.528 249.524732159L193.272 247.835372803L194.016 246.143539351
L194.76 244.449672345L195.504 242.754219919L196.248 241.057637667
L196.992 239.360388503L197.736 237.66294251L198.48 235.965776788
L199.224 234.269375283L199.968 232.574228622L200.712 230.880833928
L201.456 229.189694637L202.2 227.501320296L202.944 225.816226366
L203.688 224.134934007L204.432 222.457969861L205.176 220.785865823
L205.92 219.119158813L206.664 217.458390527L207.408 215.804107194
L208.152 214.156859319L208.896 212.517201418L209.64 210.885691748
L210.384 209.262892032L211.128 207.649367174L211.872 206.045684969
L212.616 204.452415805L213.36 202.870132361L214.104 201.299409298
L214.848 199.740822942L215.592 198.194950967L216.336 196.662372063
L217.08 195.143665609L217.824 193.639411337L218.568 192.150188984
L219.312 190.676577954L220.056 189.219156961L220.8 187.778503681
L221.544 186.355194387L222.288 184.949803592L223.032 183.562903682
L223.776 182.195064549L224.52 180.846853221L225.264 179.518833487
L226.008 178.211565525L226.752 176.925605523L227.496 175.661505304
L228.24 174.419811945L228.984 173.201067397L229.728 172.00580811
L230.472 170.834564647L231.216 169.68786131L231.96 168.566215757
L232.704 167.470138629L233.448 166.400133172L234.192 165.356694862
L234.936 164.340311036L235.68 163.35146052L236.424 162.390613267
L237.168 161.45822999L237.912 160.554761804L238.656 159.680649875
L239.4 158.836325065L240.144 158.022207589L240.888 157.238706674
L241.632 156.486220228L242.376 155.765134506L243.12 155.075823793
L243.864 154.418650085L244.608 153.793962785L245.352 153.202098399
L246.096 152.643380244L246.84 152.118118166L247.584 151.62660826
L248.328 151.169132607L249.072 150.745959012L249.816 150.35734076
L250.56 150.003516371L251.304 149.684709381L252.048 149.401128113
L252.792 149.152965478L253.536 148.940398776L254.28 148.763589509
L255.024 148.62268321L255.768 148.51780928L256.512 148.449080836
L257.256 148.416594579L258.0 148.420430662L258.744 148.460652581
L259.488 148.537307073L260.232 148.650424033L260.976 148.800016434
L261.72 148.98608027L262.464 149.208594509L263.208 149.467521055
L263.952 149.762804734L264.696 150.094373279L265.44 150.462137344
L266.184 150.865990521L266.928 151.305809376L267.672 151.781453494
L268.416 152.292765543L269.16 152.839571353L269.904 153.421679998
L270.648 154.038883905L271.392 154.690958969L272.136 155.377664679
L272.88 156.098744271L273.624 156.853924876L274.368 157.642917693
L275.112 158.465418174L275.856 159.321106219L276.6 160.209646384
L277.344 161.130688102L278.088 162.08386592L278.832 163.068799739
L279.576 164.085095078L280.32 165.132343338L281.064 166.210122087
L281.808 167.317995348L282.552 168.455513903L283.296 169.622215608
L284.04 170.817625711L284.784 172.041257192L285.528 173.292611099
L286.272 174.571176904L287.016 175.876432862L287.76 177.207846379
L288.504 178.564874392L289.248 179.94696375L289.992 181.353551609
L290.736 182.784065828L291.48 184.237925377L292.224 185.714540747
L292.968 187.213314368L293.712 188.733641028L294.456 190.274908304
L295.2 191.83649699L295.944 193.417781534L296.688 195.018130476
L297.432 196.636906886L298.176 198.273468815L298.92 199.927169734
L299.664 201.597358985L300.408 203.283382228L301.152 204.984581893
L301.896 206.700297626L302.64 208.429866741L303.384 210.172624666
L304.128 211.927905393L304.872 213.695041925L305.616 215.473366715
L306.36 217.262212112L307.104 219.060910798L307.848 220.868796222
L308.592 222.685203034L309.336 224.509467511L310.08 226.340927982
L310.824 228.178925241L311.568 230.022802967L312.312 231.871908123
L313.056 233.725591363L313.8 235.583207424L314.544 237.444115516
L315.288 239.307679698L316.032 241.173269255L316.776 243.040259064
L317.52 244.908029948L318.264 246.775969029L319.008 248.643470065
L319.752 250.509933783L320.496 252.374768203L321.24 254.237388948
L321.984 256.097219551L322.728 257.953691745L323.472 259.806245748
L324.216 261.654330539L324.96 263.497404116L325.704 265.334933754
L326.448 267.166396243L327.192 268.991278118L327.936 270.809075885
L328.68 272.619296225L329.424 274.421456191L330.168 276.215083401
L330.912 277.999716208L331.656 279.774903865L332.4 281.540206682
L333.144 283.295196162L333.888 285.039455136L334.632 286.772577881
L335.376 288.494170226L336.12 290.203849649L336.864 291.901245365
L337.608 293.585998398L338.352 295.257761644L339.096 296.916199926
L339.84 298.56099003L340.584 300.191820743L341.328 301.808392866
L342.072 303.41041923L342.816 304.99762469L343.56 306.569746116
L344.304 308.126532375L345.048 309.667744295L345.792 311.19315463
L346.536 312.702548004L347.28 314.19572086L348.024 315.672481384
L348.768 317.132649434L349.512 318.57605645L350.256 320.002545365
L351.0 321.411970499L351.744 322.80419745L352.488 324.179102979
L353.232 325.536574882L353.976 326.87651186L354.72 328.198823381
L355.464 329.503429532L356.208 330.79026087L356.952 332.059258262
L357.696 333.310372725L358.44 334.543565252L359.184 335.758806644
L359.928 336.956077326L360.672 338.135367165L361.416 339.296675285
L362.16 340.440009869L362.904 341.565387969L363.648 342.6728353
L364.392 343.762386045L365.136 344.834082646L365.88 345.887975591
L366.624 346.924123212L367.368 347.942591466L368.112 348.943453722
L368.856 349.926790546L369.6 350.892689479L370.344 351.841244825
L371.088 352.772557424L371.832 353.686734437L372.576 354.583889122
L373.32 355.464140618L374.064 356.327613717L374.808 357.174438649
L375.552 358.004750862L376.296 358.818690801L377.04 359.616403689
L377.784 360.398039316L378.528 361.163751815L379.272 361.913699455
L380.016 362.648044425L380.76 363.366952625L381.504 364.070593459
L382.248 364.759139626L382.992 365.432766919L383.736 366.091654025
L384.48 366.735982324L385.224 367.365935694L385.968 367.981700321
L386.712 368.583464507L387.456 369.171418488L388.2 369.745754245
L388.944 370.306665331L389.688 370.85434669L390.432 371.38899449
L391.176 371.91080595L391.92 372.419979179L392.664 372.916713011
L393.408 373.401206852L394.152 373.873660525L394.896 374.334274122
L395.64 374.783247857L396.384 375.220781929L397.128 375.647076381
L397.872 376.062330969L398.616 376.466745036L399.36 376.860517382
L400.104 377.243846149L400.848 377.616928705L401.592 377.979961528
L402.336 378.333140103L403.08 378.676658813L403.824 379.010710847
L404.568 379.335488099L405.312 379.651181079L406.056 379.957978824
L406.8 380.25606882L407.544 380.545636916L408.288 380.826867253
L409.032 381.099942194L409.776 381.365042252L410.52 381.622346029
L411.264 381.872030158L412.008 382.114269243L412.752 382.349235808
L413.496 382.577100248L414.24 382.798030785L414.984 383.012193421
L415.728 383.219751906L416.472 383.420867696L417.216 383.615699925
L417.96 383.804405374L418.704 383.987138444L419.448 384.164051134
L420.192 384.335293022L420.936 384.501011244L421.68 384.661350484
L422.424 384.816452957L423.168 384.966458401L423.912 385.111504073
L424.656 385.25172474L425.4 385.387252681L426.144 385.518217681
L426.888 385.644747041L427.632 385.766965574L428.376 385.88499562
L429.12 385.998957045L429.864 386.108967257L430.608 386.215141217
L431.352 386.317591452L432.096 386.416428067L432.84 386.511758766
L433.584 386.60368887L434.328 386.692321332L435.072 386.777756762
L435.816 386.860093447L436.56 386.939427376L437.304 387.015852261
L438.048 387.089459567L438.792 387.160338532L439.536 387.2285762
L440.28 387.294257447L441.024 387.357465009L441.768 387.41827951
L442.512 387.476779497L443.256 387.533041465L444.0 387.587139894
L444.744 387.639147274L445.488 387.689134145L446.232 387.737169122
L446.976 387.783318932L447.72 387.827648447L448.464 387.870220717
L449.208 387.911097002L449.952 387.950336809L450.696 387.987997921
L451.44 388.024136436L452.184 388.058806798L452.928 388.09206183
L453.672 388.123952771L454.416 388.154529307L455.16 388.183839606
L455.904 388.211930351L456.648 388.238846772L457.392 388.264632683
L458.136 388.289330511L458.88 388.312981329L459.624 388.335624892
L460.368 388.357299664L461.112 388.378042852L461.856 388.39789044
L462.6 388.416877215L463.344 388.435036802L464.088 388.452401691
L464.832 388.469003271L465.576 388.484871853L466.32 388.500036708
L467.064 388.514526085L467.808 388.52836725L468.552 388.541586504
L469.296 388.554209218L470.04 388.566259854L470.784 388.577761996
L471.528 388.588738371L472.272 388.599210879L473.016 388.609200616
L473.76 388.618727896L474.504 388.627812278L475.248 388.636472588
L475.992 388.644726942L476.736 388.65259277L477.48 388.660086834
L478.224 388.667225253L478.968 388.674023522L479.712 388.680496534
L480.456 388.686658597L481.2 388.692523456L481.944 388.698104312
L482.688 388.703413839L483.432 388.708464202L484.176 388.713267076
L484.92 388.717833661L485.664 388.7221747L486.408 388.726300497
L487.152 388.730220927L487.896 388.733945457L488.64 388.737483158
L489.384 388.740842721L490.128 388.744032467L490.872 388.747060368
L491.616 388.749934051L492.36 388.752660819L493.104 388.755247658
L493.848 388.757701251L494.592 388.760027991L495.336 388.762233989
L496.08 388.764325086L496.824 388.766306867L497.568 388.768184665
L498.312 388.769963575L499.056 388.771648465L499.8 388.773243981
L500.544 388.774754556L501.288 388.776184425L502.032 388.777537625
L502.776 388.778818008L503.52 388.780029247L504.264 388.781174844
L505.008 388.782258138L505.752 388.783282309L506.496 388.784250389
L507.24 388.785165265L507.984 388.786029686L508.728 388.786846268
L509.472 388.787617505L510.216 388.788345766L510.96 388.789033308
L511.704 388.789682276L512.448 388.79029471L513.192 388.790872551
L513.936 388.791417642L514.68 388.791931735L515.424 388.792416496
L516.168 388.792873505L516.912 388.793304265L517.656 388.7937102"/>
</g>
<g id="line2d3">
<path style="fill: none; stroke: #ff1493; stroke-width: 1.5; stroke-linejoin: miter; stroke-linecap: square;  opacity: 1.0" clip-path="url(#pdfe8138a4e5f5c14e3df41988c01b1aa)" d="M72.0 386.611933127L72.744 386.545409302L73.488 386.477095255
L74.232 386.406950611L74.976 386.334934331L75.72 386.26100471
L76.464 386.185119372L77.208 386.107235267L77.952 386.02730867
L78.696 385.945295179L79.44 385.861149708L80.184 385.774826493
L80.928 385.686279082L81.672 385.595460342L82.416 385.502322451
L83.16 385.406816902L83.904 385.308894502L84.648 385.208505369
L85.392 385.105598936L86.136 385.00012395L86.88 384.892028476
L87.624 384.781259891L88.368 384.667764897L89.112 384.551489514
L89.856 384.432379086L90.6 384.310378285L91.344 384.185431115
L92.088 384.057480912L92.832 383.926470355L93.576 383.792341465
L94.32 383.655035612L95.064 383.514493523L95.808 383.370655287
L96.552 383.223460361L97.296 383.072847578L98.04 382.918755156
L98.784 382.761120704L99.528 382.599881234L100.272 382.434973167
L101.016 382.266332347L101.76 382.093894047L102.504 381.917592984
L103.248 381.737363331L103.992 381.553138724L104.736 381.364852282
L105.48 381.172436615L106.224 380.975823841L106.968 380.774945601
L107.712 380.569733072L108.456 380.360116986L109.2 380.146027642
L109.944 379.92739493L110.688 379.704148343L111.432 379.476217
L112.176 379.243529659L112.92 379.006014746L113.664 378.763600367
L114.408 378.516214334L115.152 378.263784187L115.896 378.006237212
L116.64 377.743500472L117.384 377.475500822L118.128 377.202164943
L118.872 376.923419359L119.616 376.639190468L120.36 376.349404568
L121.104 376.053987881L121.848 375.752866589L122.592 375.445966852
L123.336 375.133214848L124.08 374.814536795L124.824 374.489858987
L125.568 374.159107824L126.312 373.822209843L127.056 373.479091752
L127.8 373.129680465L128.544 372.773903134L129.288 372.411687183
L130.032 372.042960349L130.776 371.667650711L131.52 371.285686732
L132.264 370.896997295L133.008 370.501511741L133.752 370.099159906
L134.496 369.689872165L135.24 369.273579467L135.984 368.850213378
L136.728 368.419706121L137.472 367.98199062L138.216 367.537000539
L138.96 367.084670327L139.704 366.624935261L140.448 366.157731487
L141.192 365.682996069L141.936 365.20066703L142.68 364.710683399
L143.424 364.212985255L144.168 363.707513777L144.912 363.194211283
L145.656 362.673021286L146.4 362.143888533L147.144 361.606759057
L147.888 361.061580226L148.632 360.508300785L149.376 359.946870912
L150.12 359.377242261L150.864 358.799368013L151.608 358.213202926
L152.352 357.618703383L153.096 357.015827439L153.84 356.404534877
L154.584 355.78478725L155.328 355.156547936L156.072 354.519782186
L156.816 353.874457173L157.56 353.220542042L158.304 352.55800796
L159.048 351.886828164L159.792 351.206978015L160.536 350.51843504
L161.28 349.821178987L162.024 349.115191872L162.768 348.400458024
L163.512 347.676964142L164.256 346.944699331L165.0 346.203655162
L165.744 345.45382571L166.488 344.695207604L167.232 343.927800074
L167.976 343.151604997L168.72 342.366626941L169.464 341.572873208
L170.208 340.770353884L170.952 339.959081876L171.696 339.139072959
L172.44 338.310345815L173.184 337.472922078L173.928 336.62682637
L174.672 335.772086344L175.416 334.908732723L176.16 334.036799335
L176.904 333.156323153L177.648 332.267344329L178.392 331.369906229
L179.136 330.464055468L179.88 329.549841942L180.624 328.627318859
L181.368 327.696542773L182.112 326.757573608L182.856 325.810474689
L183.6 324.855312768L184.344 323.892158052L185.088 322.921084221
L185.832 321.942168457L186.576 320.955491463L187.32 319.961137481
L188.064 318.959194312L188.808 317.949753333L189.552 316.932909513
L190.296 315.908761423L191.04 314.877411252L191.784 313.838964815
L192.528 312.793531564L193.272 311.741224592L194.016 310.68216064
L194.76 309.616460101L195.504 308.54424702L196.248 307.465649096
L196.992 306.380797677L197.736 305.289827761L198.48 304.192877983
L199.224 303.090090617L199.968 301.981611556L200.712 300.867590309
L201.456 299.748179984L202.2 298.623537271L202.944 297.493822427
L203.688 296.359199257L204.432 295.219835091L205.176 294.075900759
L205.92 292.927570568L206.664 291.775022276L207.408 290.618437057
L208.152 289.457999472L208.896 288.293897438L209.64 287.126322186
L210.384 285.955468228L211.128 284.781533314L211.872 283.604718392
L212.616 282.42522756L213.36 281.243268025L214.104 280.059050049
L214.848 278.872786902L215.592 277.684694808L216.336 276.49499289
L217.08 275.303903114L217.824 274.11165023L218.568 272.91846171
L219.312 271.724567689L220.056 270.530200893L220.8 269.33559658
L221.544 268.140992466L222.288 266.946628657L223.032 265.752747574
L223.776 264.559593881L224.52 263.367414406L225.264 262.176458066
L226.008 260.986975785L226.752 259.799220412L227.496 258.613446636
L228.24 257.429910907L228.984 256.248871341L229.728 255.070587638
L230.472 253.895320987L231.216 252.723333977L231.96 251.554890504
L232.704 250.390255677L233.448 249.229695717L234.192 248.073477866
L234.936 246.921870284L235.68 245.775141951L236.424 244.633562564
L237.168 243.497402436L237.912 242.366932392L238.656 241.242423663
L239.4 240.124147782L240.144 239.012376477L240.888 237.907381562
L241.632 236.809434831L242.376 235.718807945L243.12 234.635772326
L243.864 233.560599045L244.608 232.493558707L245.352 231.434921347
L246.096 230.38495631L246.84 229.343932141L247.584 228.312116475
L248.328 227.289775919L249.072 226.277175939L249.816 225.274580751
L250.56 224.282253201L251.304 223.300454653L252.048 222.329444879
L252.792 221.369481938L253.536 220.420822071L254.28 219.483719579
L255.024 218.558426718L255.768 217.645193581L256.512 216.744267986
L257.256 215.855895371L258.0 214.980318672L258.744 214.117778223
L259.488 213.26851164L260.232 212.432753717L260.976 211.610736313
L261.72 210.802688248L262.464 210.008835197L263.208 209.229399587
L263.952 208.464600488L264.696 207.714653517L265.44 206.97977073
L266.184 206.26016053L266.928 205.556027562L267.672 204.867572619
L268.416 204.194992547L269.16 203.538480151L269.904 202.898224101
L270.648 202.274408844L271.392 201.667214517L272.136 201.076816854
L272.88 200.50338711L273.624 199.94709197L274.368 199.408093474
L275.112 198.886548936L275.856 198.382610868L276.6 197.896426904
L277.344 197.428139733L278.088 196.977887021L278.832 196.545801353
L279.576 196.13201016L280.32 195.73663566L281.064 195.359794799
L281.808 195.001599191L282.552 194.662155062L283.296 194.341563203
L284.04 194.039918912L284.784 193.757311954L285.528 193.493826512
L286.272 193.249541149L287.016 193.024528764L287.76 192.81885656
L288.504 192.632586009L289.248 192.465772822L289.992 192.318466919
L290.736 192.190712406L291.48 192.082547556L292.224 191.994004781
L292.968 191.925110627L293.712 191.875885752L294.456 191.846344919
L295.2 191.83649699L295.944 191.846344919L296.688 191.875885752
L297.432 191.925110627L298.176 191.994004781L298.92 192.082547555
L299.664 192.190712406L300.408 192.318466919L301.152 192.465772822
L301.896 192.632586009L302.64 192.81885656L303.384 193.024528764
L304.128 193.249541149L304.872 193.493826512L305.616 193.757311954
L306.36 194.039918912L307.104 194.341563203L307.848 194.662155062
L308.592 195.001599191L309.336 195.359794799L310.08 195.73663566
L310.824 196.13201016L311.568 196.545801353L312.312 196.977887021
L313.056 197.428139733L313.8 197.896426904L314.544 198.382610868
L315.288 198.886548936L316.032 199.408093474L316.776 199.94709197
L317.52 200.50338711L318.264 201.076816854L319.008 201.667214517
L319.752 202.274408844L320.496 202.898224101L321.24 203.538480151
L321.984 204.194992547L322.728 204.867572619L323.472 205.556027562
L324.216 206.26016053L324.96 206.97977073L325.704 207.714653517
L326.448 208.464600488L327.192 209.229399587L327.936 210.008835197
L328.68 210.802688248L329.424 211.610736313L330.168 212.432753717
L330.912 213.26851164L331.656 214.117778223L332.4 214.980318672
L333.144 215.855895371L333.888 216.744267986L334.632 217.64519358
L335.376 218.558426718L336.12 219.483719579L336.864 220.42082207
L337.608 221.369481938L338.352 222.329444879L339.096 223.300454653
L339.84 224.282253201L340.584 225.274580751L341.328 226.277175939
L342.072 227.289775919L342.816 228.312116475L343.56 229.343932141
L344.304 230.38495631L345.048 231.434921347L345.792 232.493558707
L346.536 233.560599045L347.28 234.635772326L348.024 235.718807945
L348.768 236.809434831L349.512 237.907381562L350.256 239.012376477
L351.0 240.124147782L351.744 241.242423663L352.488 242.366932392
L353.232 243.497402436L353.976 244.633562564L354.72 245.775141951
L355.464 246.921870284L356.208 248.073477866L356.952 249.229695717
L357.696 250.390255677L358.44 251.554890504L359.184 252.723333977
L359.928 253.895320987L360.672 255.070587638L361.416 256.248871341
L362.16 257.429910907L362.904 258.613446636L363.648 259.799220412
L364.392 260.986975785L365.136 262.176458066L365.88 263.367414406
L366.624 264.559593881L367.368 265.752747574L368.112 266.946628657
L368.856 268.140992466L369.6 269.33559658L370.344 270.530200893
L371.088 271.724567689L371.832 272.91846171L372.576 274.11165023
L373.32 275.303903114L374.064 276.49499289L374.808 277.684694808
L375.552 278.872786902L376.296 280.059050049L377.04 281.243268025
L377.784 282.42522756L378.528 283.604718392L379.272 284.781533314
L380.016 285.955468228L380.76 287.126322186L381.504 288.293897438
L382.248 289.457999472L382.992 290.618437057L383.736 291.775022276
L384.48 292.927570568L385.224 294.075900759L385.968 295.219835091
L386.712 296.359199257L387.456 297.493822427L388.2 298.623537271
L388.944 299.748179984L389.688 300.867590309L390.432 301.981611556
L391.176 303.090090617L391.92 304.192877983L392.664 305.289827761
L393.408 306.380797677L394.152 307.465649096L394.896 308.54424702
L395.64 309.616460101L396.384 310.68216064L397.128 311.741224592
L397.872 312.793531564L398.616 313.838964815L399.36 314.877411252
L400.104 315.908761423L400.848 316.932909513L401.592 317.949753333
L402.336 318.959194312L403.08 319.961137481L403.824 320.955491463
L404.568 321.942168457L405.312 322.921084221L406.056 323.892158052
L406.8 324.855312768L407.544 325.810474689L408.288 326.757573608
L409.032 327.696542773L409.776 328.627318859L410.52 329.549841942
L411.264 330.464055468L412.008 331.369906229L412.752 332.267344329
L413.496 333.156323153L414.24 334.036799335L414.984 334.908732723
L415.728 335.772086344L416.472 336.62682637L417.216 337.472922078
L417.96 338.310345815L418.704 339.139072959L419.448 339.959081876
L420.192 340.770353884L420.936 341.572873208L421.68 342.366626941
L422.424 343.151604997L423.168 343.927800074L423.912 344.695207604
L424.656 345.45382571L425.4 346.203655162L426.144 346.944699331
L426.888 347.676964142L427.632 348.400458024L428.376 349.115191872
L429.12 349.821178987L429.864 350.51843504L430.608 351.206978015
L431.352 351.886828164L432.096 352.55800796L432.84 353.220542042
L433.584 353.874457173L434.328 354.519782186L435.072 355.156547936
L435.816 355.78478725L436.56 356.404534877L437.304 357.015827439
L438.048 357.618703383L438.792 358.213202926L439.536 358.799368013
L440.28 359.377242261L441.024 359.946870912L441.768 360.508300785
L442.512 361.061580226L443.256 361.606759057L444.0 362.143888533
L444.744 362.673021286L445.488 363.194211283L446.232 363.707513777
L446.976 364.212985255L447.72 364.710683399L448.464 365.20066703
L449.208 365.682996069L449.952 366.157731487L450.696 366.624935261
L451.44 367.084670327L452.184 367.537000539L452.928 367.98199062
L453.672 368.419706121L454.416 368.850213378L455.16 369.273579467
L455.904 369.689872165L456.648 370.099159906L457.392 370.501511741
L458.136 370.896997295L458.88 371.285686732L459.624 371.667650711
L460.368 372.042960349L461.112 372.411687183L461.856 372.773903134
L462.6 373.129680465L463.344 373.479091752L464.088 373.822209843
L464.832 374.159107824L465.576 374.489858987L466.32 374.814536795
L467.064 375.133214848L467.808 375.445966852L468.552 375.752866589
L469.296 376.053987881L470.04 376.349404568L470.784 376.639190468
L471.528 376.923419359L472.272 377.202164943L473.016 377.475500822
L473.76 377.743500472L474.504 378.006237212L475.248 378.263784187
L475.992 378.516214334L476.736 378.763600367L477.48 379.006014746
L478.224 379.243529659L478.968 379.476217L479.712 379.704148343
L480.456 379.92739493L481.2 380.146027642L481.944 380.360116986
L482.688 380.569733072L483.432 380.774945601L484.176 380.975823841
L484.92 381.172436615L485.664 381.364852282L486.408 381.553138724
L487.152 381.737363331L487.896 381.917592984L488.64 382.093894047
L489.384 382.266332347L490.128 382.434973167L490.872 382.599881234
L491.616 382.761120704L492.36 382.918755156L493.104 383.072847578
L493.848 383.223460361L494.592 383.370655287L495.336 383.514493523
L496.08 383.655035612L496.824 383.792341465L497.568 383.926470355
L498.312 384.057480912L499.056 384.185431115L499.8 384.310378285
L500.544 384.432379086L501.288 384.551489514L502.032 384.667764897
L502.776 384.781259891L503.52 384.892028476L504.264 385.00012395
L505.008 385.105598936L505.752 385.208505369L506.496 385.308894502
L507.24 385.406816902L507.984 385.502322451L508.728 385.595460342
L509.472 385.686279082L510.216 385.774826493L510.96 385.861149708
L511.704 385.945295179L512.448 386.02730867L513.192 386.107235267
L513.936 386.185119372L514.68 386.26100471L515.424 386.334934331
L516.168 386.406950611L516.912 386.477095255L517.656 386.545409302"/>
</g>
<g id="line2d4">
<path style="fill: none; stroke: #ff8c00; stroke-width: 1.5; stroke-linejoin: miter; stroke-linecap: square;  opacity: 1.0" clip-path="url(#pdfe8138a4e5f5c14e3df41988c01b1aa)" d="M72.0 388.794092666L72.744 388.7937102L73.488 388.793304265
L74.232 388.792873505L74.976 388.792416496L75.72 388.791931735
L76.464 388.791417642L77.208 388.790872551L77.952 388.79029471
L78.696 388.789682276L79.44 388.789033308L80.184 388.788345766
L80.928 388.787617505L81.672 388.786846268L82.416 388.786029686
L83.16 388.785165265L83.904 388.784250389L84.648 388.783282309
L85.392 388.782258138L86.136 388.781174844L86.88 388.780029247
L87.624 388.778818008L88.368 388.777537625L89.112 388.776184425
L89.856 388.774754556L90.6 388.773243981L91.344 388.771648465
L92.088 388.769963575L92.832 388.768184665L93.576 388.766306867
L94.32 388.764325086L95.064 388.762233989L95.808 388.760027991
L96.552 388.757701251L97.296 388.755247658L98.04 388.752660819
L98.784 388.749934051L99.528 388.747060368L100.272 388.744032467
L101.016 388.740842721L101.76 388.737483158L102.504 388.733945457
L103.248 388.730220927L103.992 388.726300497L104.736 388.7221747
L105.48 388.717833661L106.224 388.713267076L106.968 388.708464202
L107.712 388.703413839L108.456 388.698104312L109.2 388.692523456
L109.944 388.686658597L110.688 388.680496534L111.432 388.674023522
L112.176 388.667225253L112.92 388.660086834L113.664 388.65259277
L114.408 388.644726942L115.152 388.636472588L115.896 388.627812278
L116.64 388.618727896L117.384 388.609200616L118.128 388.599210879
L118.872 388.588738371L119.616 388.577761996L120.36 388.566259854
L121.104 388.554209218L121.848 388.541586504L122.592 388.52836725
L123.336 388.514526085L124.08 388.500036708L124.824 388.484871853
L125.568 388.469003271L126.312 388.452401691L127.056 388.435036802
L127.8 388.416877215L128.544 388.39789044L129.288 388.378042852
L130.032 388.357299664L130.776 388.335624892L131.52 388.312981329
L132.264 388.289330511L133.008 388.264632683L133.752 388.238846772
L134.496 388.211930351L135.24 388.183839606L135.984 388.154529307
L136.728 388.123952771L137.472 388.09206183L138.216 388.058806798
L138.96 388.024136436L139.704 387.987997921L140.448 387.950336809
L141.192 387.911097002L141.936 387.870220717L142.68 387.827648447
L143.424 387.783318932L144.168 387.737169122L144.912 387.689134145
L145.656 387.639147274L146.4 387.587139894L147.144 387.533041465
L147.888 387.476779497L148.632 387.41827951L149.376 387.357465009
L150.12 387.294257447L150.864 387.2285762L151.608 387.160338532
L152.352 387.089459567L153.096 387.015852261L153.84 386.939427376
L154.584 386.860093447L155.328 386.777756762L156.072 386.692321332
L156.816 386.60368887L157.56 386.511758766L158.304 386.416428067
L159.048 386.317591452L159.792 386.215141217L160.536 386.108967257
L161.28 385.998957045L162.024 385.88499562L162.768 385.766965574
L163.512 385.644747041L164.256 385.518217681L165.0 385.387252681
L165.744 385.25172474L166.488 385.111504073L167.232 384.966458401
L167.976 384.816452957L168.72 384.661350484L169.464 384.501011244
L170.208 384.335293022L170.952 384.164051134L171.696 383.987138444
L172.44 383.804405374L173.184 383.615699925L173.928 383.420867696
L174.672 383.219751906L175.416 383.012193421L176.16 382.798030785
L176.904 382.577100248L177.648 382.349235808L178.392 382.114269243
L179.136 381.872030158L179.88 381.622346029L180.624 381.365042252
L181.368 381.099942194L182.112 380.826867253L182.856 380.545636916
L183.6 380.25606882L184.344 379.957978824L185.088 379.651181079
L185.832 379.335488099L186.576 379.010710847L187.32 378.676658813
L188.064 378.333140103L188.808 377.979961528L189.552 377.616928705
L190.296 377.243846149L191.04 376.860517382L191.784 376.466745036
L192.528 376.062330969L193.272 375.647076381L194.016 375.220781929
L194.76 374.783247857L195.504 374.334274122L196.248 373.873660525
L196.992 373.401206852L197.736 372.916713011L198.48 372.419979179
L199.224 371.91080595L199.968 371.38899449L200.712 370.85434669
L201.456 370.306665331L202.2 369.745754245L202.944 369.171418488
L203.688 368.583464507L204.432 367.981700321L205.176 367.365935694
L205.92 366.735982324L206.664 366.091654025L207.408 365.432766919
L208.152 364.759139626L208.896 364.070593459L209.64 363.366952625
L210.384 362.648044425L211.128 361.913699455L211.872 361.163751815
L212.616 360.398039316L213.36 359.616403689L214.104 358.818690801
L214.848 358.004750862L215.592 357.174438649L216.336 356.327613717
L217.08 355.464140618L217.824 354.583889122L218.568 353.686734437
L219.312 352.772557424L220.056 351.841244825L220.8 350.892689479
L221.544 349.926790546L222.288 348.943453722L223.032 347.942591466
L223.776 346.924123212L224.52 345.887975591L225.264 344.834082646
L226.008 343.762386045L226.752 342.6728353L227.496 341.565387969
L228.24 340.44000987L228.984 339.296675285L229.728 338.135367165
L230.472 336.956077326L231.216 335.758806644L231.96 334.543565252
L232.704 333.310372725L233.448 332.059258262L234.192 330.79026087
L234.936 329.503429532L235.68 328.198823381L236.424 326.87651186
L237.168 325.536574882L237.912 324.179102979L238.656 322.80419745
L239.4 321.411970499L240.144 320.002545365L240.888 318.57605645
L241.632 317.132649434L242.376 315.672481384L243.12 314.19572086
L243.864 312.702548004L244.608 311.19315463L245.352 309.667744295
L246.096 308.126532375L246.84 306.569746116L247.584 304.99762469
L248.328 303.41041923L249.072 301.808392866L249.816 300.191820743
L250.56 298.56099003L251.304 296.916199926L252.048 295.257761644
L252.792 293.585998398L253.536 291.901245365L254.28 290.203849649
L255.024 288.494170226L255.768 286.772577881L256.512 285.039455136
L257.256 283.295196162L258.0 281.540206682L258.744 279.774903865
L259.488 277.999716208L260.232 276.215083401L260.976 274.421456191
L261.72 272.619296225L262.464 270.809075885L263.208 268.991278118
L263.952 267.166396243L264.696 265.334933754L265.44 263.497404116
L266.184 261.654330539L266.928 259.806245748L267.672 257.953691745
L268.416 256.097219551L269.16 254.237388948L269.904 252.374768203
L270.648 250.509933783L271.392 248.643470065L272.136 246.775969029
L272.88 244.908029948L273.624 243.040259064L274.368 241.173269255
L275.112 239.307679698L275.856 237.444115516L276.6 235.583207424
L277.344 233.725591363L278.088 231.871908123L278.832 230.022802967
L279.576 228.178925241L280.32 226.340927982L281.064 224.509467511
L281.808 222.685203034L282.552 220.868796222L283.296 219.060910798
L284.04 217.262212112L284.784 215.473366715L285.528 213.695041925
L286.272 211.927905393L287.016 210.172624666L287.76 208.429866741
L288.504 206.700297626L289.248 204.984581893L289.992 203.283382228
L290.736 201.597358985L291.48 199.927169734L292.224 198.273468815
L292.968 196.636906886L293.712 195.018130476L294.456 193.417781535
L295.2 191.83649699L295.944 190.274908304L296.688 188.733641028
L297.432 187.213314368L298.176 185.714540747L298.92 184.237925377
L299.664 182.784065828L300.408 181.353551609L301.152 179.94696375
L301.896 178.564874392L302.64 177.207846379L303.384 175.876432862
L304.128 174.571176904L304.872 173.292611099L305.616 172.041257192
L306.36 170.817625711L307.104 169.622215608L307.848 168.455513903
L308.592 167.317995348L309.336 166.210122087L310.08 165.132343338
L310.824 164.085095078L311.568 163.068799739L312.312 162.08386592
L313.056 161.130688103L313.8 160.209646384L314.544 159.321106219
L315.288 158.465418174L316.032 157.642917693L316.776 156.853924876
L317.52 156.098744271L318.264 155.377664679L319.008 154.690958969
L319.752 154.038883905L320.496 153.421679998L321.24 152.839571353
L321.984 152.292765543L322.728 151.781453494L323.472 151.305809376
L324.216 150.865990521L324.96 150.462137344L325.704 150.094373279
L326.448 149.762804734L327.192 149.467521055L327.936 149.208594509
L328.68 148.98608027L329.424 148.800016434L330.168 148.650424033
L330.912 148.537307073L331.656 148.460652581L332.4 148.420430662
L333.144 148.416594579L333.888 148.449080836L334.632 148.51780928
L335.376 148.62268321L336.12 148.763589509L336.864 148.940398776
L337.608 149.152965478L338.352 149.401128113L339.096 149.684709381
L339.84 150.003516371L340.584 150.35734076L341.328 150.745959012
L342.072 151.169132607L342.816 151.62660826L343.56 152.118118166
L344.304 152.643380244L345.048 153.202098399L345.792 153.793962785
L346.536 154.418650085L347.28 155.075823793L348.024 155.765134506
L348.768 156.486220228L349.512 157.238706674L350.256 158.022207589
L351.0 158.836325065L351.744 159.680649875L352.488 160.554761804
L353.232 161.45822999L353.976 162.390613267L354.72 163.35146052
L355.464 164.340311036L356.208 165.356694862L356.952 166.400133172
L357.696 167.470138629L358.44 168.566215757L359.184 169.68786131
L359.928 170.834564647L360.672 172.00580811L361.416 173.201067397
L362.16 174.419811945L362.904 175.661505304L363.648 176.925605523
L364.392 178.211565525L365.136 179.518833487L365.88 180.846853221
L366.624 182.195064549L367.368 183.562903682L368.112 184.949803592
L368.856 186.355194387L369.6 187.778503681L370.344 189.219156961
L371.088 190.676577954L371.832 192.150188984L372.576 193.639411337
L373.32 195.143665609L374.064 196.662372063L374.808 198.194950967
L375.552 199.740822942L376.296 201.299409298L377.04 202.870132361
L377.784 204.452415805L378.528 206.045684969L379.272 207.649367174
L380.016 209.262892032L380.76 210.885691748L381.504 212.517201418
L382.248 214.156859319L382.992 215.804107194L383.736 217.458390527
L384.48 219.119158813L385.224 220.785865823L385.968 222.457969861
L386.712 224.134934007L387.456 225.816226366L388.2 227.501320296
L388.944 229.189694637L389.688 230.880833928L390.432 232.574228622
L391.176 234.269375283L391.92 235.965776788L392.664 237.66294251
L393.408 239.360388503L394.152 241.057637667L394.896 242.754219919
L395.64 244.449672345L396.384 246.143539351L397.128 247.835372803
L397.872 249.524732159L398.616 251.211184595L399.36 252.894305122
L400.104 254.573676697L400.848 256.248890321L401.592 257.919545138
L402.336 259.585248521L403.08 261.245616148L403.824 262.900272079
L404.568 264.548848815L405.312 266.190987363L406.056 267.826337279
L406.8 269.454556717L407.544 271.075312462L408.288 272.688279963
L409.032 274.293143353L409.776 275.889595467L410.52 277.477337854
L411.264 279.056080777L412.008 280.625543215L412.752 282.18545285
L413.496 283.735546059L414.24 285.275567886L414.984 286.805272025
L415.728 288.324420782L416.472 289.832785043L417.216 291.33014423
L417.96 292.816286257L418.704 294.291007475L419.448 295.754112619
L420.192 297.205414747L420.936 298.644735172L421.68 300.071903397
L422.424 301.486757038L423.168 302.889141747L423.912 304.278911135
L424.656 305.655926679L425.4 307.020057644L426.144 308.371180982
L426.888 309.709181242L427.632 311.033950474L428.376 312.345388123
L429.12 313.64340093L429.864 314.927902823L430.608 316.198814813
L431.352 317.456064877L432.096 318.699587853L432.84 319.929325318
L433.584 321.145225477L434.328 322.347243041L435.072 323.535339111
L435.816 324.709481053L436.56 325.869642378L437.304 327.015802617
L438.048 328.147947199L438.792 329.266067321L439.536 330.370159826
L440.28 331.460227074L441.024 332.536276815L441.768 333.59832206
L442.512 334.646380955L443.256 335.68047665L444.0 336.700637172
L444.744 337.706895298L445.488 338.699288422L446.232 339.677858432
L446.976 340.642651579L447.72 341.59371835L448.464 342.531113343
L449.208 343.454895135L449.952 344.365126165L450.696 345.2618726
L451.44 346.145204219L452.184 347.015194281L452.928 347.87191941
L453.672 348.715459471L454.416 349.545897448L455.16 350.363319327
L455.904 351.167813979L456.648 351.95947304L457.392 352.738390798
L458.136 353.504664079L458.88 354.258392134L459.624 354.999676529
L460.368 355.728621034L461.112 356.445331515L461.856 357.149915828
L462.6 357.842483716L463.344 358.523146703L464.088 359.192017994
L464.832 359.849212377L465.576 360.494846121L466.32 361.129036882
L467.064 361.75190361L467.808 362.363566455L468.552 362.964146674
L469.296 363.553766545L470.04 364.132549281L470.784 364.700618941
L471.528 365.258100347L472.272 365.805119007L473.016 366.341801029
L473.76 366.868273047L474.504 367.384662147L475.248 367.891095785
L475.992 368.387701726L476.736 368.874607964L477.48 369.351942658
L478.224 369.819834066L478.968 370.278410477L479.712 370.727800153
L480.456 371.168131264L481.2 371.599531828L481.944 372.022129659
L482.688 372.436052306L483.432 372.841427L484.176 373.238380607
L484.92 373.627039569L485.664 374.007529863L486.408 374.379976951
L487.152 374.744505735L487.896 375.101240512L488.64 375.450304935
L489.384 375.791821973L490.128 376.125913867L490.872 376.4527021
L491.616 376.772307358L492.36 377.084849493L493.104 377.390447498
L493.848 377.68921947L494.592 377.981282583L495.336 378.266753057
L496.08 378.545746137L496.824 378.818376062L497.568 379.084756046
L498.312 379.344998249L499.056 379.599213764L499.8 379.847512589
L500.544 380.090003615L501.288 380.326794602L502.032 380.55799217
L502.776 380.783701775L503.52 381.004027704L504.264 381.219073057
L505.008 381.428939734L505.752 381.633728428L506.496 381.833538615
L507.24 382.02846854L507.984 382.218615216L508.728 382.404074415
L509.472 382.584940659L510.216 382.761307219L510.96 382.933266108
L511.704 383.100908082L512.448 383.264322631L513.192 383.423597983
L513.936 383.578821102L514.68 383.730077685L515.424 383.877452167
L516.168 384.021027717L516.912 384.160886246L517.656 384.297108404"/>
</g>
<g id="line2d5">
<path style="fill: none; stroke: #0000ff; stroke-width: 1.5; stroke-linejoin: miter; stroke-linecap: square;  opacity: 1.0" clip-path="url(#pdfe8138a4e5f5c14e3df41988c01b1aa)" d="M72.0 388.8L72.744 388.8L73.488 388.8L74.232 388.8L74.976 388.8L75.72 388.8
L76.464 388.8L77.208 388.8L77.952 388.8L78.696 388.8L79.44 388.8
L80.184 388.8L80.928 388.8L81.672 388.8L82.416 388.8L83.16 388.8
L83.904 388.8L84.648 388.8L85.392 388.8L86.136 388.8L86.88 388.8
L87.624 388.8L88.368 388.8L89.112 388.8L89.856 388.8L90.6 388.8
L91.344 388.8L92.088 388.8L92.832 388.8L93.576 388.8L94.32 388.8
L95.064 388.8L95.808 388.8L96.552 388.8L97.296 388.8L98.04 388.8
L98.784 388.8L99.528 388.8L100.272 388.8L101.016 388.8L101.76 388.8
L102.504 388.8L103.248 388.8L103.992 388.8L104.736 388.8L105.48 388.8
L106.224 388.8L106.968 388.8L107.712 388.8L108.456 388.8L109.2 388.8
L109.944 388.8L110.688 388.8L111.432 388.8L112.176 388.8L112.92 388.8
L113.664 388.8L114.408 388.8L115.152 388.8L115.896 388.8L116.64 388.8
L117.384 388.8L118.128 388.8L118.872 388.8L119.616 388.8L120.36 388.8
L121.104 388.8L121.848 388.8L122.592 388.8L123.336 388.8L124.08 388.8
L124.824 388.8L125.568 388.8L126.312 388.8L127.056 388.8L127.8 388.8
L128.544 388.8L129.288 388.8L130.032 388.8L130.776 388.8L131.52 388.8
L132.264 388.8L133.008 388.8L133.752 388.8L134.496 388.8L135.24 388.8
L135.984 388.8L136.728 388.8L137.472 388.8L138.216 388.8L138.96 388.8
L139.704 388.8L140.448 388.8L141.192 388.8L141.936 388.8L142.68 388.8
L143.424 388.8L144.168 388.8L144.912 388.8L145.656 388.8L146.4 388.8
L147.144 388.8L147.888 388.8L148.632 388.8L149.376 388.8L150.12 388.8
L150.864 388.8L151.608 388.8L152.352 388.8L153.096 388.8L153.84 388.8
L154.584 388.8L155.328 388.8L156.072 388.8L156.816 388.8L157.56 388.8
L158.304 388.8L159.048 388.8L159.792 388.8L160.536 388.8L161.28 388.8
L162.024 388.8L162.768 388.8L163.512 388.8L164.256 388.8L165.0 388.8
L165.744 388.8L166.488 388.8L167.232 388.8L167.976 388.8L168.72 388.8
L169.464 388.799999999L170.208 388.799999999L170.952 388.799999999
L171.696 388.799999998L172.44 388.799999998L173.184 388.799999997
L173.928 388.799999996L174.672 388.799999995L175.416 388.799999994
L176.16 388.799999991L176.904 388.799999989L177.648 388.799999985
L178.392 388.799999981L179.136 388.799999974L179.88 388.799999967
L180.624 388.799999956L181.368 388.799999943L182.112 388.799999925
L182.856 388.799999903L183.6 388.799999874L184.344 388.799999836
L185.088 388.799999788L185.832 388.799999726L186.576 388.799999646
L187.32 388.799999543L188.064 388.799999413L188.808 388.799999245
L189.552 388.799999032L190.296 388.79999876L191.04 388.799998415
L191.784 388.799997978L192.528 388.799997423L193.272 388.799996722
L194.016 388.799995838L194.76 388.799994723L195.504 388.799993321
L196.248 388.79999156L196.992 388.799989353L197.736 388.79998659
L198.48 388.799983139L199.224 388.799978834L199.968 388.799973474
L200.712 388.799966811L201.456 388.799958544L202.2 388.799948302
L202.944 388.799935635L203.688 388.799919998L204.432 388.799900725
L205.176 388.799877011L205.92 388.799847883L206.664 388.799812166
L207.408 388.799768444L208.152 388.799715013L208.896 388.799649828
L209.64 388.799570438L210.384 388.799473913L211.128 388.799356754
L211.872 388.79921479L212.616 388.799043064L213.36 388.798835689
L214.104 388.798585689L214.848 388.798284814L215.592 388.797923329
L216.336 388.797489761L217.08 388.796970619L217.824 388.796350071
L218.568 388.795609568L219.312 388.794727426L220.056 388.793678337
L220.8 388.792432828L221.544 388.790956636L222.288 388.78921001
L223.032 388.787146919L223.776 388.784714167L224.52 388.781850396
L225.264 388.778484969L226.008 388.774536734L226.752 388.769912638
L227.496 388.764506193L228.24 388.758195781L228.984 388.750842779
L229.728 388.7422895L230.472 388.732356935L231.216 388.720842273
L231.96 388.707516212L232.704 388.692120023L233.448 388.674362374
L234.192 388.653915897L234.936 388.630413498L235.68 388.603444388
L236.424 388.572549853L237.168 388.537218741L237.912 388.496882679
L238.656 388.450911018L239.4 388.398605519L240.144 388.339194789
L240.888 388.271828477L241.632 388.19557126L242.376 388.109396646
L243.12 388.012180612L243.864 387.902695126L244.608 387.779601598
L245.352 387.641444297L246.096 387.486643808L246.84 387.313490572
L247.584 387.120138605L248.328 386.904599441L249.072 386.664736413
L249.816 386.398259338L250.56 386.102719721L251.304 385.775506556
L252.048 385.413842858L252.792 385.014783006L253.536 384.575211033
L254.28 384.091839964L255.024 383.561212319L255.768 382.9797019
L256.512 382.343516973L257.256 381.64870494L258.0 380.891158629
L258.744 380.066624272L259.488 379.170711269L260.232 378.198903817
L260.976 377.146574456L261.72 376.008999575L262.464 374.781376933
L263.208 373.45884517L263.952 372.036505331L264.696 370.509444347
L265.44 368.872760439L266.184 367.121590352L266.928 365.251138322
L267.672 363.256706642L268.416 361.133727678L269.16 358.877797145
L269.904 356.484708444L270.648 353.950487821L271.392 351.271430102
L272.136 348.444134712L272.88 345.465541702L273.624 342.33296745
L274.368 339.044139728L275.112 335.597231774L275.856 331.990895042
L276.6 328.224290268L277.344 324.297116505L278.088 320.209637781
L278.832 315.962707042L279.576 311.557787059L280.32 306.996967992
L281.064 302.282981325L281.808 297.419209919L282.552 292.409693958
L283.296 287.259132585L284.04 281.972881097L284.784 276.556943556
L285.528 271.017960779L286.272 265.363193653L287.016 259.600501828
L287.76 253.738317832L288.504 247.785616754L289.248 241.75188164
L289.992 235.647064837L290.736 229.481545533L291.48 223.2660838
L292.224 217.011771481L292.968 210.729980306L293.712 204.432307642
L294.456 198.130520318L295.2 191.83649699L295.944 185.562169521
L296.688 179.319463862L297.432 173.120240948L298.176 166.976238081
L298.92 160.899011311L299.664 154.899879279L300.408 148.989869
L301.152 143.179664004L301.896 137.479555264L302.64 131.899395287
L303.384 126.4485557L304.128 121.135888644L304.872 115.969692246
L305.616 110.957680351L306.36 106.106956727L307.104 101.42399382
L307.848 96.9146161673L308.592 92.5839884625L309.336 88.4366082737
L310.08 84.4763033284L310.824 80.7062332605L311.568 77.128895664
L312.312 73.7461362614L313.056 70.5591629598L313.8 67.5685635403
L314.544 64.7743266933L315.288 62.175866098L316.032 59.7720472199
L316.776 57.5612164895L317.52 55.5412325179L318.264 53.7094989961
L319.008 52.062998931L319.752 50.598329867L320.496 49.3117397576
L321.24 48.1991631567L321.984 47.2562574164L322.728 46.4784385958
L323.472 45.8609168017L324.216 45.3987307081L324.96 45.0867810218
L325.704 44.9198626867L326.448 44.8926956458L327.192 44.9999540036
L327.936 45.2362934616L328.68 45.59637692L329.424 46.0748981696
L330.168 46.6666036167L330.912 47.3663120122L331.656 48.1689321741
L332.4 49.0694787144L333.144 50.063085801L333.888 51.145019
L334.632 52.3106852606L335.376 53.5556411172L336.12 54.875599194
L336.864 56.2664331077L337.608 57.72418087L338.352 59.2450468991
L339.096 60.8254027503L339.84 62.4617866809L340.584 64.1509021642
L341.328 65.8896154659L342.072 67.6749523959L342.816 69.5040943448
L343.56 71.3743737098L344.304 73.2832688115L345.048 75.2283983968
L345.792 77.2075158166L346.536 79.2185029631L347.28 81.2593640407
L348.024 83.3282192439L348.768 85.4232984017L349.512 87.5429346477
L350.256 89.6855581643L351.0 91.8496900442L351.744 94.0339363075
L352.488 96.2369821044L353.232 98.4575861306L353.976 100.694575275
L354.72 102.946839514L355.464 105.21332707L356.208 107.493039835
L356.952 109.78502906L357.696 112.088391331L358.44 114.402264797
L359.184 116.725825681L359.928 119.058285038L360.672 121.398885775
L361.416 123.746899904L362.16 126.101626034L362.904 128.46238708
L363.648 130.828528185L364.392 133.199414836L365.136 135.574431164
L365.88 137.952978417L366.624 140.334473594L367.368 142.718348229
L368.112 145.104047305L368.856 147.491028297L369.6 149.878760333
L370.344 152.266723449L371.088 154.654407952L371.832 157.041313852
L372.576 159.426950388L373.32 161.810835608L374.064 164.192496018
L374.808 166.571466286L375.552 168.947288989L376.296 171.319514409
L377.04 173.687700361L377.784 176.051412056L378.528 178.410221993
L379.272 180.763709875L380.016 183.111462543L380.76 185.453073935
L381.504 187.788145049L382.248 190.116283932L382.992 192.43710567
L383.736 194.750232386L384.48 197.055293253L385.224 199.351924506
L385.968 201.639769457L386.712 203.918478517L387.456 206.187709219
L388.2 208.44712624L388.944 210.696401424L389.688 212.935213807
L390.432 215.163249638L391.176 217.380202399L391.92 219.585772828
L392.664 221.779668931L393.408 223.961606002L394.152 226.131306631
L394.896 228.288500719L395.64 230.432925479L396.384 232.564325442
L397.128 234.682452461L397.872 236.787065705L398.616 238.877931653
L399.36 240.954824088L400.104 243.017524085L400.848 245.065819994
L401.592 247.099507421L402.336 249.118389211L403.08 251.122275418
L403.824 253.11098328L404.568 255.084337189L405.312 257.042168654
L406.056 258.984316267L406.8 260.910625663L407.544 262.820949475
L408.288 264.715147291L409.032 266.593085604L409.776 268.454637763
L410.52 270.299683917L411.264 272.128110961L412.008 273.939812477
L412.752 275.734688673L413.496 277.512646318L414.24 279.273598679
L414.984 281.017465452L415.728 282.744172693L416.472 284.453652743
L417.216 286.145844158L417.96 287.820691633L418.704 289.47814592
L419.448 291.118163754L420.192 292.74070777L420.936 294.345746417
L421.68 295.933253882L422.424 297.503209995L423.168 299.055600149
L423.912 300.590415208L424.656 302.10765142L425.4 303.607310325
L426.144 305.089398663L426.888 306.553928283L427.632 308.000916049
L428.376 309.430383743L429.12 310.842357975L429.864 312.236870081
L430.608 313.61395603L431.352 314.973656329L432.096 316.316015919
L432.84 317.641084084L433.584 318.948914346L434.328 320.239564373
L435.072 321.513095873L435.816 322.7695745L436.56 324.009069754
L437.304 325.231654879L438.048 326.437406766L438.792 327.626405853
L439.536 328.798736027L440.28 329.954484522L441.024 331.093741824
L441.768 332.21660157L442.512 333.323160451L443.256 334.413518115
L444.0 335.487777066L444.744 336.546042572L445.488 337.588422567
L446.232 338.615027554L446.976 339.625970511L447.72 340.621366797
L448.464 341.601334059L449.208 342.565992137L449.952 343.515462973
L450.696 344.449870521L451.44 345.369340655L452.184 346.274001078
L452.928 347.16398124L453.672 348.039412242L454.416 348.900426755
L455.16 349.747158933L455.904 350.57974433L456.648 351.398319812
L457.392 352.203023481L458.136 352.99399459L458.88 353.771373464
L459.624 354.535301421L460.368 355.285920698L461.112 356.023374366
L461.856 356.747806267L462.6 357.45936093L463.344 358.158183504
L464.088 358.844419686L464.832 359.518215648L465.576 360.179717974
L466.32 360.82907359L467.064 361.466429696L467.808 362.091933705
L468.552 362.705733178L469.296 363.307975763L470.04 363.898809135
L470.784 364.478380936L471.528 365.046838718L472.272 365.604329886
L473.016 366.151001645L473.76 366.687000943L474.504 367.212474424
L475.248 367.727568373L475.992 368.232428668L476.736 368.727200734
L477.48 369.212029492L478.224 369.687059319L478.968 370.152433999
L479.712 370.608296687L480.456 371.05478986L481.2 371.492055284
L481.944 371.920233971L482.688 372.339466145L483.432 372.749891202
L484.176 373.151647682L484.92 373.54487323L485.664 373.929704564
L486.408 374.306277448L487.152 374.674726662L487.896 375.035185969
L488.64 375.387788094L489.384 375.732664694L490.128 376.069946335
L490.872 376.399762468L491.616 376.722241409L492.36 377.037510312
L493.104 377.345695156L493.848 377.646920722L494.592 377.941310574
L495.336 378.228987046L496.08 378.510071223L496.824 378.784682929
L497.568 379.05294071L498.312 379.314961824L499.056 379.570862229
L499.8 379.82075657L500.544 380.064758171L501.288 380.302979028
L502.032 380.535529795L502.776 380.762519783L503.52 380.984056951
L504.264 381.200247901L505.008 381.411197872L505.752 381.617010738
L506.496 381.817789004L507.24 382.013633805L507.984 382.204644902
L508.728 382.390920684L509.472 382.572558164L510.216 382.749652985
L510.96 382.922299416L511.704 383.090590357L512.448 383.254617341
L513.192 383.414470534L513.936 383.570238743L514.68 383.72200942
L515.424 383.869868662L516.168 384.013901222L516.912 384.154190511
L517.656 384.290818605"/>
</g>
<g id="matplotlib.axis1">
<g id="xtick1">
<g id="line2d6">
<defs><path id="mffffbd93ab9c4a8848ec339ada90541e" d="M0.0 0.0L0.0 -4.0"/></defs>
<g ><use style="fill: none; stroke: #000000; stroke-width: 0.5; stroke-linejoin: miter; stroke-linecap: butt;  opacity: 1.0" xlink:href="#mffffbd93ab9c4a8848ec339ada90541e" x="72.000000" y="388.800000"/>
</g></g>
<g id="line2d7">
<defs><path id="m55446021c8a568fc6cf5567925c8a1ef" d="M0.0 0.0L0.0 4.0"/></defs>
<g ><use style="fill: none; stroke: #000000; stroke-width: 0.5; stroke-linejoin: miter; stroke-linecap: butt;  opacity: 1.0" xlink:href="#m55446021c8a568fc6cf5567925c8a1ef" x="72.000000" y="43.200000"/>
</g></g>
<defs>
<path id="c_139293c3576e2a5eaff9a02b9ab719e6" d="M10.59375 -35.5l62.59375 0.0l0.0 8.296875l-62.59375 0.0z"/>
<path id="c_1a789725981e3580f6e795985204066c" d="M40.578125 -39.3125q7.078125 1.515625 11.046875 6.3125q3.984375 4.78125 3.984375 11.8125q0.0 10.78125 -7.421875 16.703125q-7.421875 5.90625 -21.09375 5.90625q-4.578125 0.0 -9.4375 -0.90625q-4.859375 -0.90625 -10.03125 -2.71875l0.0 -9.515625q4.09375 2.390625 8.96875 3.609375q4.890625 1.21875 10.21875 1.21875q9.265625 0.0 14.125 -3.65625q4.859375 -3.65625 4.859375 -10.640625q0.0 -6.453125 -4.515625 -10.078125q-4.515625 -3.640625 -12.5625 -3.640625l-8.5 0.0l0.0 -8.109375l8.890625 0.0q7.265625 0.0 11.125 -2.90625q3.859375 -2.90625 3.859375 -8.375q0.0 -5.609375 -3.984375 -8.609375q-3.96875 -3.015625 -11.390625 -3.015625q-4.0625 0.0 -8.703125 0.890625q-4.640625 0.875 -10.203125 2.71875l0.0 -8.78125q5.625 -1.5625 10.53125 -2.34375q4.90625 -0.78125 9.25 -0.78125q11.234375 0.0 17.765625 5.109375q6.546875 5.09375 6.546875 13.78125q0.0 6.0625 -3.46875 10.234375q-3.46875 4.171875 -9.859375 5.78125"/>
</defs>
<g style="fill: #000000; opacity: 1.0" transform="translate(64.265625,401.70625)scale(0.12)">
<use xlink:href="#c_139293c3576e2a5eaff9a02b9ab719e6"/>
<use xlink:href="#c_1a789725981e3580f6e795985204066c" x="83.7890625"/>
</g>
</g>
<g id="xtick2">
<g id="line2d8">
<g ><use style="fill: none; stroke: #000000; stroke-width: 0.5; stroke-linejoin: miter; stroke-linecap: butt;  opacity: 1.0" xlink:href="#mffffbd93ab9c4a8848ec339ada90541e" x="146.400000" y="388.800000"/>
</g></g>
<g id="line2d9">
<g ><use style="fill: none; stroke: #000000; stroke-width: 0.5; stroke-linejoin: miter; stroke-linecap: butt;  opacity: 1.0" xlink:href="#m55446021c8a568fc6cf5567925c8a1ef" x="146.400000" y="43.200000"/>
</g></g>
<defs>
<path id="c_eaed548a39c8bfc1ad9c7a767102867e" d="M19.1875 -8.296875l34.421875 0.0l0.0 8.296875l-46.28125 0.0l0.0 -8.296875q5.609375 -5.8125 15.296875 -15.59375q9.703125 -9.796875 12.1875 -12.640625q4.734375 -5.3125 6.609375 -9.0q1.890625 -3.6875 1.890625 -7.25q0.0 -5.8125 -4.078125 -9.46875q-4.078125 -3.671875 -10.625 -3.671875q-4.640625 0.0 -9.796875 1.609375q-5.140625 1.609375 -11.0 4.890625l0.0 -9.96875q5.953125 -2.390625 11.125 -3.609375q5.1875 -1.21875 9.484375 -1.21875q11.328125 0.0 18.0625 5.671875q6.734375 5.65625 6.734375 15.125q0.0 4.5 -1.6875 8.53125q-1.671875 4.015625 -6.125 9.484375q-1.21875 1.421875 -7.765625 8.1875q-6.53125 6.765625 -18.453125 18.921875"/>
</defs>
<g style="fill: #000000; opacity: 1.0" transform="translate(138.7828125,401.70625)scale(0.12)">
<use xlink:href="#c_139293c3576e2a5eaff9a02b9ab719e6"/>
<use xlink:href="#c_eaed548a39c8bfc1ad9c7a767102867e" x="83.7890625"/>
</g>
</g>
<g id="xtick3">
<g id="line2d10">
<g ><use style="fill: none; stroke: #000000; stroke-width: 0.5; stroke-linejoin: miter; stroke-linecap: butt;  opacity: 1.0" xlink:href="#mffffbd93ab9c4a8848ec339ada90541e" x="220.800000" y="388.800000"/>
</g></g>
<g id="line2d11">
<g ><use style="fill: none; stroke: #000000; stroke-width: 0.5; stroke-linejoin: miter; stroke-linecap: butt;  opacity: 1.0" xlink:href="#m55446021c8a568fc6cf5567925c8a1ef" x="220.800000" y="43.200000"/>
</g></g>
<defs>
<path id="c_2322e4f977aa11305e2465866d88750f" d="M12.40625 -8.296875l16.109375 0.0l0.0 -55.625l-17.53125 3.515625l0.0 -8.984375l17.4375 -3.515625l9.859375 0.0l0.0 64.609375l16.109375 0.0l0.0 8.296875l-41.984375 0.0z"/>
</defs>
<g style="fill: #000000; opacity: 1.0" transform="translate(213.1359375,401.55)scale(0.12)">
<use xlink:href="#c_139293c3576e2a5eaff9a02b9ab719e6"/>
<use xlink:href="#c_2322e4f977aa11305e2465866d88750f" x="83.7890625"/>
</g>
</g>
<g id="xtick4">
<g id="line2d12">
<g ><use style="fill: none; stroke: #000000; stroke-width: 0.5; stroke-linejoin: miter; stroke-linecap: butt;  opacity: 1.0" xlink:href="#mffffbd93ab9c4a8848ec339ada90541e" x="295.200000" y="388.800000"/>
</g></g>
<g id="line2d13">
<g ><use style="fill: none; stroke: #000000; stroke-width: 0.5; stroke-linejoin: miter; stroke-linecap: butt;  opacity: 1.0" xlink:href="#m55446021c8a568fc6cf5567925c8a1ef" x="295.200000" y="43.200000"/>
</g></g>
<defs>
<path id="c_95f14088edd5858aea2c3b4aa58e4de2" d="M31.78125 -66.40625q-7.609375 0.0 -11.453125 7.5q-3.828125 7.484375 -3.828125 22.53125q0.0 14.984375 3.828125 22.484375q3.84375 7.5 11.453125 7.5q7.671875 0.0 11.5 -7.5q3.84375 -7.5 3.84375 -22.484375q0.0 -15.046875 -3.84375 -22.53125q-3.828125 -7.5 -11.5 -7.5M31.78125 -74.21875q12.265625 0.0 18.734375 9.703125q6.46875 9.6875 6.46875 28.140625q0.0 18.40625 -6.46875 28.109375q-6.46875 9.6875 -18.734375 9.6875q-12.25 0.0 -18.71875 -9.6875q-6.46875 -9.703125 -6.46875 -28.109375q0.0 -18.453125 6.46875 -28.140625q6.46875 -9.703125 18.71875 -9.703125"/>
</defs>
<g style="fill: #000000; opacity: 1.0" transform="translate(292.1765625,401.70625)scale(0.12)">
<use xlink:href="#c_95f14088edd5858aea2c3b4aa58e4de2"/>
</g>
</g>
<g id="xtick5">
<g id="line2d14">
<g ><use style="fill: none; stroke: #000000; stroke-width: 0.5; stroke-linejoin: miter; stroke-linecap: butt;  opacity: 1.0" xlink:href="#mffffbd93ab9c4a8848ec339ada90541e" x="369.600000" y="388.800000"/>
</g></g>
<g id="line2d15">
<g ><use style="fill: none; stroke: #000000; stroke-width: 0.5; stroke-linejoin: miter; stroke-linecap: butt;  opacity: 1.0" xlink:href="#m55446021c8a568fc6cf5567925c8a1ef" x="369.600000" y="43.200000"/>
</g></g>
<g style="fill: #000000; opacity: 1.0" transform="translate(366.990625,401.55)scale(0.12)">
<use xlink:href="#c_2322e4f977aa11305e2465866d88750f"/>
</g>
</g>
<g id="xtick6">
<g id="line2d16">
<g ><use style="fill: none; stroke: #000000; stroke-width: 0.5; stroke-linejoin: miter; stroke-linecap: butt;  opacity: 1.0" xlink:href="#mffffbd93ab9c4a8848ec339ada90541e" x="444.000000" y="388.800000"/>
</g></g>
<g id="line2d17">
<g ><use style="fill: none; stroke: #000000; stroke-width: 0.5; stroke-linejoin: miter; stroke-linecap: butt;  opacity: 1.0" xlink:href="#m55446021c8a568fc6cf5567925c8a1ef" x="444.000000" y="43.200000"/>
</g></g>
<g style="fill: #000000; opacity: 1.0" transform="translate(441.21875,401.70625)scale(0.12)">
<use xlink:href="#c_eaed548a39c8bfc1ad9c7a767102867e"/>
</g>
</g>
<g id="xtick7">
<g id="line2d18">
<g ><use style="fill: none; stroke: #000000; stroke-width: 0.5; stroke-linejoin: miter; stroke-linecap: butt;  opacity: 1.0" xlink:href="#mffffbd93ab9c4a8848ec339ada90541e" x="518.400000" y="388.800000"/>
</g></g>
<g id="line2d19">
<g ><use style="fill: none; stroke: #000000; stroke-width: 0.5; stroke-linejoin: miter; stroke-linecap: butt;  opacity: 1.0" xlink:href="#m55446021c8a568fc6cf5567925c8a1ef" x="518.400000" y="43.200000"/>
</g></g>
<g style="fill: #000000; opacity: 1.0" transform="translate(515.525,401.70625)scale(0.12)">
<use xlink:href="#c_1a789725981e3580f6e795985204066c"/>
</g>
</g>
</g>
<g id="matplotlib.axis2">
<g id="ytick1">
<g id="line2d20">
<defs><path id="m2d700b5b5d738bf2751cd81726959973" d="M0.0 0.0L4.0 0.0"/></defs>
<g ><use style="fill: none; stroke: #000000; stroke-width: 0.5; stroke-linejoin: miter; stroke-linecap: butt;  opacity: 1.0" xlink:href="#m2d700b5b5d738bf2751cd81726959973" x="72.000000" y="388.800000"/>
</g></g>
<g id="line2d21">
<defs><path id="mb380ebd9df8a07a3be12f7447ef9bdd8" d="M0.0 0.0L-4.0 0.0"/></defs>
<g ><use style="fill: none; stroke: #000000; stroke-width: 0.5; stroke-linejoin: miter; stroke-linecap: butt;  opacity: 1.0" xlink:href="#mb380ebd9df8a07a3be12f7447ef9bdd8" x="518.400000" y="388.800000"/>
</g></g>
<defs>
<path id="c_640b5960c5fe26e83b53fed68bcebad3" d="M10.6875 -12.40625l10.3125 0.0l0.0 12.40625l-10.3125 0.0z"/>
</defs>
<g style="fill: #000000; opacity: 1.0" transform="translate(50.5,393.1671875)scale(0.12)">
<use xlink:href="#c_95f14088edd5858aea2c3b4aa58e4de2"/>
<use xlink:href="#c_640b5960c5fe26e83b53fed68bcebad3" x="63.623046875"/>
<use xlink:href="#c_95f14088edd5858aea2c3b4aa58e4de2" x="95.41015625"/>
</g>
</g>
<g id="ytick2">
<g id="line2d22">
<g ><use style="fill: none; stroke: #000000; stroke-width: 0.5; stroke-linejoin: miter; stroke-linecap: butt;  opacity: 1.0" xlink:href="#m2d700b5b5d738bf2751cd81726959973" x="72.000000" y="339.428571"/>
</g></g>
<g id="line2d23">
<g ><use style="fill: none; stroke: #000000; stroke-width: 0.5; stroke-linejoin: miter; stroke-linecap: butt;  opacity: 1.0" xlink:href="#mb380ebd9df8a07a3be12f7447ef9bdd8" x="518.400000" y="339.428571"/>
</g></g>
<g style="fill: #000000; opacity: 1.0" transform="translate(50.8125,343.795758929)scale(0.12)">
<use xlink:href="#c_95f14088edd5858aea2c3b4aa58e4de2"/>
<use xlink:href="#c_640b5960c5fe26e83b53fed68bcebad3" x="63.623046875"/>
<use xlink:href="#c_2322e4f977aa11305e2465866d88750f" x="95.41015625"/>
</g>
</g>
<g id="ytick3">
<g id="line2d24">
<g ><use style="fill: none; stroke: #000000; stroke-width: 0.5; stroke-linejoin: miter; stroke-linecap: butt;  opacity: 1.0" xlink:href="#m2d700b5b5d738bf2751cd81726959973" x="72.000000" y="290.057143"/>
</g></g>
<g id="line2d25">
<g ><use style="fill: none; stroke: #000000; stroke-width: 0.5; stroke-linejoin: miter; stroke-linecap: butt;  opacity: 1.0" xlink:href="#mb380ebd9df8a07a3be12f7447ef9bdd8" x="518.400000" y="290.057143"/>
</g></g>
<g style="fill: #000000; opacity: 1.0" transform="translate(50.90625,294.424330357)scale(0.12)">
<use xlink:href="#c_95f14088edd5858aea2c3b4aa58e4de2"/>
<use xlink:href="#c_640b5960c5fe26e83b53fed68bcebad3" x="63.623046875"/>
<use xlink:href="#c_eaed548a39c8bfc1ad9c7a767102867e" x="95.41015625"/>
</g>
</g>
<g id="ytick4">
<g id="line2d26">
<g ><use style="fill: none; stroke: #000000; stroke-width: 0.5; stroke-linejoin: miter; stroke-linecap: butt;  opacity: 1.0" xlink:href="#m2d700b5b5d738bf2751cd81726959973" x="72.000000" y="240.685714"/>
</g></g>
<g id="line2d27">
<g ><use style="fill: none; stroke: #000000; stroke-width: 0.5; stroke-linejoin: miter; stroke-linecap: butt;  opacity: 1.0" xlink:href="#mb380ebd9df8a07a3be12f7447ef9bdd8" x="518.400000" y="240.685714"/>
</g></g>
<g style="fill: #000000; opacity: 1.0" transform="translate(50.671875,245.052901786)scale(0.12)">
<use xlink:href="#c_95f14088edd5858aea2c3b4aa58e4de2"/>
<use xlink:href="#c_640b5960c5fe26e83b53fed68bcebad3" x="63.623046875"/>
<use xlink:href="#c_1a789725981e3580f6e795985204066c" x="95.41015625"/>
</g>
</g>
<g id="ytick5">
<g id="line2d28">
<g ><use style="fill: none; stroke: #000000; stroke-width: 0.5; stroke-linejoin: miter; stroke-linecap: butt;  opacity: 1.0" xlink:href="#m2d700b5b5d738bf2751cd81726959973" x="72.000000" y="191.314286"/>
</g></g>
<g id="line2d29">
<g ><use style="fill: none; stroke: #000000; stroke-width: 0.5; stroke-linejoin: miter; stroke-linecap: butt;  opacity: 1.0" xlink:href="#mb380ebd9df8a07a3be12f7447ef9bdd8" x="518.400000" y="191.314286"/>
</g></g>
<defs>
<path id="c_47a349c5fab6f63bcee0b405ba445c6f" d="M37.796875 -64.3125l-24.90625 38.921875l24.90625 0.0zM35.203125 -72.90625l12.40625 0.0l0.0 47.515625l10.40625 0.0l0.0 8.203125l-10.40625 0.0l0.0 17.1875l-9.8125 0.0l0.0 -17.1875l-32.90625 0.0l0.0 -9.515625z"/>
</defs>
<g style="fill: #000000; opacity: 1.0" transform="translate(50.375,195.681473214)scale(0.12)">
<use xlink:href="#c_95f14088edd5858aea2c3b4aa58e4de2"/>
<use xlink:href="#c_640b5960c5fe26e83b53fed68bcebad3" x="63.623046875"/>
<use xlink:href="#c_47a349c5fab6f63bcee0b405ba445c6f" x="95.41015625"/>
</g>
</g>
<g id="ytick6">
<g id="line2d30">
<g ><use style="fill: none; stroke: #000000; stroke-width: 0.5; stroke-linejoin: miter; stroke-linecap: butt;  opacity: 1.0" xlink:href="#m2d700b5b5d738bf2751cd81726959973" x="72.000000" y="141.942857"/>
</g></g>
<g id="line2d31">
<g ><use style="fill: none; stroke: #000000; stroke-width: 0.5; stroke-linejoin: miter; stroke-linecap: butt;  opacity: 1.0" xlink:href="#mb380ebd9df8a07a3be12f7447ef9bdd8" x="518.400000" y="141.942857"/>
</g></g>
<defs>
<path id="c_2f869442ca5f4cfa589132f61f547ba5" d="M10.796875 -72.90625l38.71875 0.0l0.0 8.3125l-29.6875 0.0l0.0 17.859375q2.140625 -0.734375 4.28125 -1.09375q2.15625 -0.359375 4.3125 -0.359375q12.203125 0.0 19.328125 6.6875q7.140625 6.6875 7.140625 18.109375q0.0 11.765625 -7.328125 18.296875q-7.328125 6.515625 -20.65625 6.515625q-4.59375 0.0 -9.359375 -0.78125q-4.75 -0.78125 -9.828125 -2.34375l0.0 -9.921875q4.390625 2.390625 9.078125 3.5625q4.6875 1.171875 9.90625 1.171875q8.453125 0.0 13.375 -4.4375q4.9375 -4.4375 4.9375 -12.0625q0.0 -7.609375 -4.9375 -12.046875q-4.921875 -4.453125 -13.375 -4.453125q-3.953125 0.0 -7.890625 0.875q-3.921875 0.875 -8.015625 2.734375z"/>
</defs>
<g style="fill: #000000; opacity: 1.0" transform="translate(50.75,146.310044643)scale(0.12)">
<use xlink:href="#c_95f14088edd5858aea2c3b4aa58e4de2"/>
<use xlink:href="#c_640b5960c5fe26e83b53fed68bcebad3" x="63.623046875"/>
<use xlink:href="#c_2f869442ca5f4cfa589132f61f547ba5" x="95.41015625"/>
</g>
</g>
<g id="ytick7">
<g id="line2d32">
<g ><use style="fill: none; stroke: #000000; stroke-width: 0.5; stroke-linejoin: miter; stroke-linecap: butt;  opacity: 1.0" xlink:href="#m2d700b5b5d738bf2751cd81726959973" x="72.000000" y="92.571429"/>
</g></g>
<g id="line2d33">
<g ><use style="fill: none; stroke: #000000; stroke-width: 0.5; stroke-linejoin: miter; stroke-linecap: butt;  opacity: 1.0" xlink:href="#mb380ebd9df8a07a3be12f7447ef9bdd8" x="518.400000" y="92.571429"/>
</g></g>
<defs>
<path id="c_b3a8b59ce25d33f84315ee39f6514694" d="M33.015625 -40.375q-6.640625 0.0 -10.53125 4.546875q-3.875 4.53125 -3.875 12.4375q0.0 7.859375 3.875 12.4375q3.890625 4.5625 10.53125 4.5625q6.640625 0.0 10.515625 -4.5625q3.875 -4.578125 3.875 -12.4375q0.0 -7.90625 -3.875 -12.4375q-3.875 -4.546875 -10.515625 -4.546875M52.59375 -71.296875l0.0 8.984375q-3.71875 -1.75 -7.5 -2.671875q-3.78125 -0.9375 -7.5 -0.9375q-9.765625 0.0 -14.921875 6.59375q-5.140625 6.59375 -5.875 19.921875q2.875 -4.25 7.21875 -6.515625q4.359375 -2.265625 9.578125 -2.265625q10.984375 0.0 17.359375 6.671875q6.375 6.65625 6.375 18.125q0.0 11.234375 -6.640625 18.03125q-6.640625 6.78125 -17.671875 6.78125q-12.65625 0.0 -19.34375 -9.6875q-6.6875 -9.703125 -6.6875 -28.109375q0.0 -17.28125 8.203125 -27.5625q8.203125 -10.28125 22.015625 -10.28125q3.71875 0.0 7.5 0.734375q3.78125 0.734375 7.890625 2.1875"/>
</defs>
<g style="fill: #000000; opacity: 1.0" transform="translate(50.46875,96.9386160714)scale(0.12)">
<use xlink:href="#c_95f14088edd5858aea2c3b4aa58e4de2"/>
<use xlink:href="#c_640b5960c5fe26e83b53fed68bcebad3" x="63.623046875"/>
<use xlink:href="#c_b3a8b59ce25d33f84315ee39f6514694" x="95.41015625"/>
</g>
</g>
<g id="ytick8">
<g id="line2d34">
<g ><use style="fill: none; stroke: #000000; stroke-width: 0.5; stroke-linejoin: miter; stroke-linecap: butt;  opacity: 1.0" xlink:href="#m2d700b5b5d738bf2751cd81726959973" x="72.000000" y="43.200000"/>
</g></g>
<g id="line2d35">
<g ><use style="fill: none; stroke: #000000; stroke-width: 0.5; stroke-linejoin: miter; stroke-linecap: butt;  opacity: 1.0" xlink:href="#mb380ebd9df8a07a3be12f7447ef9bdd8" x="518.400000" y="43.200000"/>
</g></g>
<defs>
<path id="c_74ad5ae811677c4365c191f84676e05d" d="M8.203125 -72.90625l46.875 0.0l0.0 4.203125l-26.46875 68.703125l-10.296875 0.0l24.90625 -64.59375l-35.015625 0.0z"/>
</defs>
<g style="fill: #000000; opacity: 1.0" transform="translate(50.734375,47.5671875)scale(0.12)">
<use xlink:href="#c_95f14088edd5858aea2c3b4aa58e4de2"/>
<use xlink:href="#c_640b5960c5fe26e83b53fed68bcebad3" x="63.623046875"/>
<use xlink:href="#c_74ad5ae811677c4365c191f84676e05d" x="95.41015625"/>
</g>
</g>
<defs>
<path id="c_253991bd8207791f1c7c50d72e47b21e" d="M19.671875 -64.796875l0.0 56.6875l11.921875 0.0q15.09375 0.0 22.09375 -6.828125q7.0 -6.84375 7.0 -21.59375q0.0 -14.640625 -7.0 -21.453125q-7.0 -6.8125 -22.09375 -6.8125zM9.8125 -72.90625l20.265625 0.0q21.1875 0.0 31.09375 8.8125q9.921875 8.8125 9.921875 27.5625q0.0 18.859375 -9.96875 27.703125q-9.953125 8.828125 -31.046875 8.828125l-20.265625 0.0z"/>
<path id="c_9ba5f7895f8afffb5c1e159e8b3594f8" d="M56.203125 -29.59375l0.0 4.390625l-41.3125 0.0q0.59375 9.28125 5.59375 14.140625q5.0 4.859375 13.9375 4.859375q5.171875 0.0 10.03125 -1.265625q4.859375 -1.265625 9.65625 -3.8125l0.0 8.5q-4.84375 2.046875 -9.921875 3.125q-5.078125 1.078125 -10.296875 1.078125q-13.09375 0.0 -20.734375 -7.609375q-7.640625 -7.625 -7.640625 -20.625q0.0 -13.421875 7.25 -21.296875q7.25 -7.890625 19.5625 -7.890625q11.03125 0.0 17.453125 7.109375q6.421875 7.09375 6.421875 19.296875M47.21875 -32.234375q-0.09375 -7.359375 -4.125 -11.75q-4.03125 -4.40625 -10.671875 -4.40625q-7.515625 0.0 -12.03125 4.25q-4.515625 4.25 -5.203125 11.96875z"/>
<path id="c_ea4b10e8bc619072d4c12d4803cf87f6" d="M54.890625 -33.015625l0.0 33.015625l-8.984375 0.0l0.0 -32.71875q0.0 -7.765625 -3.03125 -11.609375q-3.03125 -3.859375 -9.078125 -3.859375q-7.28125 0.0 -11.484375 4.640625q-4.203125 4.625 -4.203125 12.640625l0.0 30.90625l-9.03125 0.0l0.0 -54.6875l9.03125 0.0l0.0 8.5q3.234375 -4.9375 7.59375 -7.375q4.375 -2.4375 10.09375 -2.4375q9.421875 0.0 14.25 5.828125q4.84375 5.828125 4.84375 17.15625"/>
<path id="c_172c370045494a373b8cd42e76c2a247" d="M44.28125 -53.078125l0.0 8.5q-3.796875 -1.953125 -7.90625 -2.921875q-4.09375 -0.984375 -8.5 -0.984375q-6.6875 0.0 -10.03125 2.046875q-3.34375 2.046875 -3.34375 6.15625q0.0 3.125 2.390625 4.90625q2.390625 1.78125 9.625 3.390625l3.078125 0.6875q9.5625 2.046875 13.59375 5.78125q4.03125 3.734375 4.03125 10.421875q0.0 7.625 -6.03125 12.078125q-6.03125 4.4375 -16.578125 4.4375q-4.390625 0.0 -9.15625 -0.859375q-4.765625 -0.859375 -10.03125 -2.5625l0.0 -9.28125q4.984375 2.59375 9.8125 3.890625q4.828125 1.28125 9.578125 1.28125q6.34375 0.0 9.75 -2.171875q3.421875 -2.171875 3.421875 -6.125q0.0 -3.65625 -2.46875 -5.609375q-2.453125 -1.953125 -10.8125 -3.765625l-3.125 -0.734375q-8.34375 -1.75 -12.0625 -5.390625q-3.703125 -3.640625 -3.703125 -9.984375q0.0 -7.71875 5.46875 -11.90625q5.46875 -4.203125 15.53125 -4.203125q4.96875 0.0 9.359375 0.734375q4.40625 0.71875 8.109375 2.1875"/>
<path id="c_8d6ee5dadaaa9460f50eedd5d62d2be4" d="M9.421875 -54.6875l8.984375 0.0l0.0 54.6875l-8.984375 0.0zM9.421875 -75.984375l8.984375 0.0l0.0 11.390625l-8.984375 0.0z"/>
<path id="c_7719cac8f98cf2bca3e99fb2bb21e785" d="M18.3125 -70.21875l0.0 15.53125l18.5 0.0l0.0 6.984375l-18.5 0.0l0.0 29.6875q0.0 6.6875 1.828125 8.59375q1.828125 1.90625 7.453125 1.90625l9.21875 0.0l0.0 7.515625l-9.21875 0.0q-10.40625 0.0 -14.359375 -3.875q-3.953125 -3.890625 -3.953125 -14.140625l0.0 -29.6875l-6.59375 0.0l0.0 -6.984375l6.59375 0.0l0.0 -15.53125z"/>
<path id="c_8e7fa73cf60e732bddcc1945b138603a" d="M32.171875 5.078125q-3.796875 9.765625 -7.421875 12.734375q-3.609375 2.984375 -9.65625 2.984375l-7.1875 0.0l0.0 -7.515625l5.28125 0.0q3.703125 0.0 5.75 -1.765625q2.0625 -1.75 4.546875 -8.296875l1.609375 -4.09375l-22.109375 -53.8125l9.515625 0.0l17.09375 42.765625l17.09375 -42.765625l9.515625 0.0z"/>
</defs>
<g style="fill: #000000; opacity: 1.0" transform="translate(45.375,235.546875)rotate(-90.0)scale(0.12)">
<use xlink:href="#c_253991bd8207791f1c7c50d72e47b21e"/>
<use xlink:href="#c_9ba5f7895f8afffb5c1e159e8b3594f8" x="77.001953125"/>
<use xlink:href="#c_ea4b10e8bc619072d4c12d4803cf87f6" x="138.525390625"/>
<use xlink:href="#c_172c370045494a373b8cd42e76c2a247" x="201.904296875"/>
<use xlink:href="#c_8d6ee5dadaaa9460f50eedd5d62d2be4" x="254.00390625"/>
<use xlink:href="#c_7719cac8f98cf2bca3e99fb2bb21e785" x="281.787109375"/>
<use xlink:href="#c_8e7fa73cf60e732bddcc1945b138603a" x="320.99609375"/>
</g>
</g>
<path style="fill: none; stroke: #000000; stroke-width: 1.0; stroke-linejoin: miter; stroke-linecap: square;  opacity: 1.0"  d="M72.0 388.8L518.4 388.8L518.4 43.2L72.0 43.2L72.0 388.8"/>
<g id="legend1">
<g id="line2d36">
<path style="fill: none; stroke: #00ffff; stroke-width: 1.5; stroke-linejoin: miter; stroke-linecap: square;  opacity: 1.0"  d="M91.6528 63.21088L113.9728 63.21088"/>
</g>
<g id="line2d37">
</g>
<g id="line2d38">
<path style="fill: none; stroke: #00ff00; stroke-width: 1.5; stroke-linejoin: miter; stroke-linecap: square;  opacity: 1.0"  d="M91.6528 79.45808L113.9728 79.45808"/>
</g>
<g id="line2d39">
</g>
<g id="line2d40">
<path style="fill: none; stroke: #ff1493; stroke-width: 1.5; stroke-linejoin: miter; stroke-linecap: square;  opacity: 1.0"  d="M91.6528 95.70528L113.9728 95.70528"/>
</g>
<g id="line2d41">
</g>
<g id="line2d42">
<path style="fill: none; stroke: #ff8c00; stroke-width: 1.5; stroke-linejoin: miter; stroke-linecap: square;  opacity: 1.0"  d="M91.6528 111.95248L113.9728 111.95248"/>
</g>
<g id="line2d43">
</g>
<g id="line2d44">
<path style="fill: none; stroke: #0000ff; stroke-width: 1.5; stroke-linejoin: miter; stroke-linecap: square;  opacity: 1.0"  d="M91.6528 128.19968L113.9728 128.19968"/>
</g>
<g id="line2d45">
</g>
<defs>
<path id="c_e1187e77a099c49110d508ec6031450a" d="M20.125 1.125q-4.75 0.0 -8.4375 -2.25q-3.671875 -2.25 -5.6875 -6.046875q-2.0 -3.8125 -2.0 -8.65625q0.0 -6.78125 3.78125 -13.421875q3.796875 -6.640625 10.0625 -10.78125q6.28125 -4.15625 13.15625 -4.15625q5.078125 0.0 8.9375 2.65625q3.859375 2.65625 5.859375 7.078125q2.0 4.421875 2.0 9.453125l0.109375 6.6875q3.40625 -4.734375 5.78125 -9.828125q2.375 -5.109375 3.640625 -10.578125q0.1875 -0.59375 0.78125 -0.59375l1.171875 0.0q0.921875 0.0 0.921875 0.9375q0.0 0.09375 -0.09375 0.28125q-1.171875 4.59375 -2.9375 8.828125q-1.75 4.21875 -4.125 8.171875q-2.359375 3.953125 -5.140625 7.171875q0.0 12.40625 2.875 12.40625q1.859375 0.0 3.046875 -1.09375q1.203125 -1.109375 2.109375 -2.71875q0.90625 -1.609375 1.140625 -1.65625l1.21875 0.0q0.78125 0.0 0.78125 0.984375q0.0 2.484375 -2.859375 4.8125q-2.84375 2.3125 -5.625 2.3125q-3.625 0.0 -6.015625 -2.34375q-2.390625 -2.34375 -3.265625 -6.109375q-4.6875 4.0 -10.15625 6.234375q-5.46875 2.21875 -11.03125 2.21875M20.3125 -1.515625q10.6875 0.0 20.515625 -8.78125q-0.0625 -0.59375 -0.15625 -1.4375q-0.09375 -0.859375 -0.09375 -0.96875l0.0 -10.78125q0.0 -18.125 -9.765625 -18.125q-5.859375 0.0 -10.265625 5.015625q-4.390625 5.0 -6.609375 11.96875q-2.21875 6.953125 -2.21875 12.703125q0.0 4.359375 2.21875 7.390625q2.21875 3.015625 6.375 3.015625"/>
<path id="c_1b653fc6177bc94dda251e01f54737f4" d="M7.515625 -13.28125q-0.828125 0.0 -1.375 -0.625q-0.53125 -0.640625 -0.53125 -1.375q0.0 -0.828125 0.53125 -1.40625q0.546875 -0.59375 1.375 -0.59375l62.796875 0.0q0.734375 0.0 1.265625 0.59375q0.546875 0.578125 0.546875 1.40625q0.0 0.734375 -0.546875 1.375q-0.53125 0.625 -1.265625 0.625zM7.515625 -32.71875q-0.828125 0.0 -1.375 -0.578125q-0.53125 -0.59375 -0.53125 -1.421875q0.0 -0.734375 0.53125 -1.359375q0.546875 -0.640625 1.375 -0.640625l62.796875 0.0q0.734375 0.0 1.265625 0.640625q0.546875 0.625 0.546875 1.359375q0.0 0.828125 -0.546875 1.421875q-0.53125 0.578125 -1.265625 0.578125z"/>
<path id="c_073e9f023486fbf00a50b3acdf0e7b64" d="M10.203125 -23.0q-0.828125 0.0 -1.375 -0.625q-0.53125 -0.640625 -0.53125 -1.375q0.0 -0.734375 0.53125 -1.359375q0.546875 -0.640625 1.375 -0.640625l57.375 0.0q0.78125 0.0 1.296875 0.640625q0.515625 0.625 0.515625 1.359375q0.0 0.734375 -0.515625 1.375q-0.515625 0.625 -1.296875 0.625z"/>
<path id="c_70f071d1a367fc7d1fd2f84263257c51" d="M2.78125 -16.5l0.0 -3.515625l30.90625 -46.09375q0.34375 -0.5 1.03125 -0.5l1.46875 0.0q1.125 0.0 1.125 1.125l0.0 45.46875l9.8125 0.0l0.0 3.515625l-9.8125 0.0l0.0 9.8125q0.0 2.046875 2.921875 2.609375q2.9375 0.5625 6.78125 0.5625l0.0 3.515625l-27.53125 0.0l0.0 -3.515625q3.859375 0.0 6.78125 -0.5625q2.9375 -0.5625 2.9375 -2.609375l0.0 -9.8125zM6.109375 -20.015625l23.671875 0.0l0.0 -35.40625z"/>
</defs>
<g id="mathtext1">
<g style="fill: #000000" transform="translate(122.9008,68.71088)">
<use xlink:href="#c_e1187e77a099c49110d508ec6031450a" transform="translate(0.0,-1.421875)scale(0.144)"/>
<use xlink:href="#c_1b653fc6177bc94dda251e01f54737f4" transform="translate(11.724697876,-1.421875)scale(0.144)"/>
<use xlink:href="#c_073e9f023486fbf00a50b3acdf0e7b64" transform="translate(23.8139892578,-1.421875)scale(0.144)"/>
<use xlink:href="#c_70f071d1a367fc7d1fd2f84263257c51" transform="translate(34.9934173584,-1.421875)scale(0.144)"/>
</g>
</g>
<defs>
<path id="c_50b899c66f3177ff586362a44f52e247" d="M9.28125 -0.0l0.0 -3.515625q12.5 0.0 12.5 -3.171875l0.0 -52.5q-5.171875 2.5 -13.09375 2.5l0.0 -3.515625q12.265625 0.0 18.515625 -6.40625l1.40625 0.0q0.34375 0.0 0.65625 0.28125q0.328125 0.265625 0.328125 0.609375l0.0 59.03125q0.0 3.171875 12.5 3.171875l0.0 3.515625z"/>
</defs>
<g id="mathtext2">
<g style="fill: #000000" transform="translate(122.9008,84.95808)">
<use xlink:href="#c_e1187e77a099c49110d508ec6031450a" transform="translate(0.0,-1.421875)scale(0.144)"/>
<use xlink:href="#c_1b653fc6177bc94dda251e01f54737f4" transform="translate(11.724697876,-1.421875)scale(0.144)"/>
<use xlink:href="#c_073e9f023486fbf00a50b3acdf0e7b64" transform="translate(23.8139892578,-1.421875)scale(0.144)"/>
<use xlink:href="#c_50b899c66f3177ff586362a44f52e247" transform="translate(34.9934173584,-1.421875)scale(0.144)"/>
</g>
</g>
<defs>
<path id="c_81c6c6c4a34e8f7c54cfb013e7684225" d="M25.0 2.203125q-12.25 0.0 -16.671875 -10.078125q-4.421875 -10.09375 -4.421875 -24.015625q0.0 -8.6875 1.578125 -16.34375q1.59375 -7.671875 6.296875 -13.015625q4.71875 -5.359375 13.21875 -5.359375q6.59375 0.0 10.78125 3.234375q4.203125 3.21875 6.40625 8.328125q2.203125 5.09375 3.0 10.9375q0.8125 5.828125 0.8125 12.21875q0.0 8.59375 -1.59375 16.09375q-1.578125 7.5 -6.21875 12.75q-4.640625 5.25 -13.1875 5.25M25.0 -0.390625q5.5625 0.0 8.296875 -5.703125q2.734375 -5.71875 3.375 -12.65625q0.640625 -6.9375 0.640625 -14.75q0.0 -7.515625 -0.640625 -13.859375q-0.640625 -6.359375 -3.359375 -11.5q-2.703125 -5.15625 -8.3125 -5.15625q-5.65625 0.0 -8.390625 5.1875q-2.734375 5.171875 -3.375 11.5q-0.640625 6.3125 -0.640625 13.828125q0.0 5.5625 0.265625 10.5q0.28125 4.9375 1.453125 10.1875q1.171875 5.25 3.78125 8.84375q2.609375 3.578125 6.90625 3.578125"/>
</defs>
<g id="mathtext3">
<g style="fill: #000000" transform="translate(122.9008,101.20528)">
<use xlink:href="#c_e1187e77a099c49110d508ec6031450a" transform="translate(0.0,-1.421875)scale(0.144)"/>
<use xlink:href="#c_1b653fc6177bc94dda251e01f54737f4" transform="translate(11.724697876,-1.421875)scale(0.144)"/>
<use xlink:href="#c_81c6c6c4a34e8f7c54cfb013e7684225" transform="translate(23.8139892578,-1.421875)scale(0.144)"/>
</g>
</g>
<g id="mathtext4">
<g style="fill: #000000" transform="translate(122.9008,117.45248)">
<use xlink:href="#c_e1187e77a099c49110d508ec6031450a" transform="translate(0.0,-1.421875)scale(0.144)"/>
<use xlink:href="#c_1b653fc6177bc94dda251e01f54737f4" transform="translate(11.724697876,-1.421875)scale(0.144)"/>
<use xlink:href="#c_50b899c66f3177ff586362a44f52e247" transform="translate(23.8139892578,-1.421875)scale(0.144)"/>
</g>
</g>
<g id="mathtext5">
<g style="fill: #000000" transform="translate(122.9008,133.69968)">
<use xlink:href="#c_e1187e77a099c49110d508ec6031450a" transform="translate(0.0,-1.421875)scale(0.144)"/>
<use xlink:href="#c_1b653fc6177bc94dda251e01f54737f4" transform="translate(11.724697876,-1.421875)scale(0.144)"/>
<use xlink:href="#c_70f071d1a367fc7d1fd2f84263257c51" transform="translate(23.8139892578,-1.421875)scale(0.144)"/>
</g>
</g>
</g>
</g>
</g>
</svg>
