<?xml version="1.0" encoding="UTF-8" standalone="no"?>
<svg
   xmlns:dc="http://purl.org/dc/elements/1.1/"
   xmlns:cc="http://creativecommons.org/ns#"
   xmlns:rdf="http://www.w3.org/1999/02/22-rdf-syntax-ns#"
   xmlns:svg="http://www.w3.org/2000/svg"
   xmlns="http://www.w3.org/2000/svg"
   xmlns:xlink="http://www.w3.org/1999/xlink"
   xmlns:sodipodi="http://sodipodi.sourceforge.net/DTD/sodipodi-0.dtd"
   xmlns:inkscape="http://www.inkscape.org/namespaces/inkscape"
   width="800"
   height="600"
   viewBox="0 0 800 600"
   id="svg3167"
   version="1.1"
   inkscape:version="0.48.4 r9939"
   sodipodi:docname="qexp.svg">
  <metadata
     id="metadata3347">
    <rdf:RDF>
      <cc:Work
         rdf:about="">
        <dc:format>image/svg+xml</dc:format>
        <dc:type
           rdf:resource="http://purl.org/dc/dcmitype/StillImage" />
      </cc:Work>
    </rdf:RDF>
  </metadata>
  <sodipodi:namedview
     pagecolor="#ffffff"
     bordercolor="#666666"
     borderopacity="1"
     objecttolerance="10"
     gridtolerance="10"
     guidetolerance="10"
     inkscape:pageopacity="0"
     inkscape:pageshadow="2"
     inkscape:window-width="1366"
     inkscape:window-height="706"
     id="namedview3345"
     showgrid="false"
     inkscape:zoom="1.53"
     inkscape:cx="400"
     inkscape:cy="509.15033"
     inkscape:window-x="-8"
     inkscape:window-y="-8"
     inkscape:window-maximized="1"
     inkscape:current-layer="svg3167" />
  <desc
     id="desc3169">Produced by GNUPLOT 4.2 patchlevel 6  </desc>
  <defs
     id="defs3171">
    <circle
       id="gpDot"
       r="0.5"
       stroke-width="0.5" />
    <path
       id="gpPt0"
       stroke-width="0.095"
       stroke="currentColor"
       d="M-1,0 h2 M0,-1 v2" />
    <path
       id="gpPt1"
       stroke-width="0.095"
       stroke="currentColor"
       d="M-1,-1 L1,1 M1,-1 L-1,1" />
    <path
       id="gpPt2"
       stroke-width="0.095"
       stroke="currentColor"
       d="M-1,0 L1,0 M0,-1 L0,1 M-1,-1 L1,1 M-1,1 L1,-1" />
    <rect
       id="gpPt3"
       stroke-width="0.095"
       stroke="currentColor"
       x="-1"
       y="-1"
       width="2"
       height="2" />
    <rect
       id="gpPt4"
       stroke-width="0.095"
       stroke="currentColor"
       fill="currentColor"
       x="-1"
       y="-1"
       width="2"
       height="2" />
    <circle
       id="gpPt5"
       stroke-width="0.095"
       stroke="currentColor"
       cx="0"
       cy="0"
       r="1" />
    <use
       xlink:href="#gpPt5"
       id="gpPt6"
       fill="currentColor"
       stroke="none" />
    <path
       id="gpPt7"
       stroke-width="0.095"
       stroke="currentColor"
       d="M0,-1.33 L-1.33,0.67 L1.33,0.67 z" />
    <use
       xlink:href="#gpPt7"
       id="gpPt8"
       fill="currentColor"
       stroke="none" />
    <use
       xlink:href="#gpPt7"
       id="gpPt9"
       stroke="currentColor"
       transform="rotate(180)" />
    <use
       xlink:href="#gpPt9"
       id="gpPt10"
       fill="currentColor"
       stroke="none" />
    <use
       xlink:href="#gpPt3"
       id="gpPt11"
       stroke="currentColor"
       transform="rotate(45)" />
    <use
       xlink:href="#gpPt11"
       id="gpPt12"
       fill="currentColor"
       stroke="none" />
  </defs>
  <g
     style="fill:none; color:white; stroke:currentColor; stroke-width:1.00; stroke-linecap:butt; stroke-linejoin:miter"
     id="g3187" />
  <g
     style="fill:none; color:black; stroke:currentColor; stroke-width:1.00; stroke-linecap:butt; stroke-linejoin:miter"
     id="g3189">
    <path
       d="M165.7,516.0 L186.7,516.0 M751.2,516.0 L730.2,516.0 "
       id="path3191" />
    <g
       transform="translate(146.2,526.5)"
       style="stroke:none; fill:black; font-family:Arial; font-size:28.00pt; text-anchor:end"
       id="g3193">
      <text
         id="text3195">
        <tspan
           id="tspan3197"> 0</tspan>
      </text>
    </g>
    <path
       d="M165.7,357.0 L186.7,357.0 M751.2,357.0 L730.2,357.0 "
       id="path3199" />
    <g
       transform="translate(146.2,367.5)"
       style="stroke:none; fill:black; font-family:Arial; font-size:28.00pt; text-anchor:end"
       id="g3201">
      <text
         id="text3203">
        <tspan
           id="tspan3205"> 0.5</tspan>
      </text>
    </g>
    <path
       d="M165.7,198.0 L186.7,198.0 M751.2,198.0 L730.2,198.0 "
       id="path3207" />
    <g
       transform="translate(146.2,208.5)"
       style="stroke:none; fill:black; font-family:Arial; font-size:28.00pt; text-anchor:end"
       id="g3209">
      <text
         id="text3211">
        <tspan
           id="tspan3213"> 1</tspan>
      </text>
    </g>
    <path
       d="M165.7,39.0 L186.7,39.0 M751.2,39.0 L730.2,39.0 "
       id="path3215" />
    <g
       transform="translate(146.2,49.5)"
       style="stroke:none; fill:black; font-family:Arial; font-size:28.00pt; text-anchor:end"
       id="g3217">
      <text
         id="text3219">
        <tspan
           id="tspan3221"> 1.5</tspan>
      </text>
    </g>
    <path
       d="M165.7,516.0 L165.7,495.0 M165.7,39.0 L165.7,60.0 "
       id="path3223" />
    <g
       transform="translate(165.7,568.5)"
       style="stroke:none; fill:black; font-family:Arial; font-size:28.00pt; text-anchor:middle"
       id="g3225">
      <text
         id="text3227">
        <tspan
           id="tspan3229"> 0</tspan>
      </text>
    </g>
    <path
       d="M312.1,516.0 L312.1,495.0 M312.1,39.0 L312.1,60.0 "
       id="path3231" />
    <g
       transform="translate(312.1,568.5)"
       style="stroke:none; fill:black; font-family:Arial; font-size:28.00pt; text-anchor:middle"
       id="g3233">
      <text
         id="text3235">
        <tspan
           id="tspan3237"> 1</tspan>
      </text>
    </g>
    <path
       d="M458.5,516.0 L458.5,495.0 M458.5,39.0 L458.5,60.0 "
       id="path3239" />
    <g
       transform="translate(458.5,568.5)"
       style="stroke:none; fill:black; font-family:Arial; font-size:28.00pt; text-anchor:middle"
       id="g3241">
      <text
         id="text3243">
        <tspan
           id="tspan3245"> 2</tspan>
      </text>
    </g>
    <path
       d="M604.8,516.0 L604.8,495.0 M604.8,39.0 L604.8,60.0 "
       id="path3247" />
    <g
       transform="translate(604.8,568.5)"
       style="stroke:none; fill:black; font-family:Arial; font-size:28.00pt; text-anchor:middle"
       id="g3249">
      <text
         id="text3251">
        <tspan
           id="tspan3253"> 3</tspan>
      </text>
    </g>
    <path
       d="M751.2,516.0 L751.2,495.0 M751.2,39.0 L751.2,60.0 "
       id="path3255" />
    <g
       transform="translate(751.2,568.5)"
       style="stroke:none; fill:black; font-family:Arial; font-size:28.00pt; text-anchor:middle"
       id="g3257">
      <text
         id="text3259">
        <tspan
           id="tspan3261"> 4</tspan>
      </text>
    </g>
    <path
       stroke="rgb(  0,   0,   0)"
       d="M165.7,516.0 L751.2,516.0 M165.7,516.0 L165.7,39.0 L165.7,516.0 L751.2,516.0 L751.2,39.0 L165.7,39.0    Z "
       id="path3263" />
  </g>
  <g
     style="fill:none; color:black; stroke:currentColor; stroke-width:5.00; stroke-linecap:butt; stroke-linejoin:miter"
     id="g3265" />
  <g
     style="fill:none; color:red; stroke:currentColor; stroke-width:5.00; stroke-linecap:butt; stroke-linejoin:miter"
     id="g3267" />
  <g
     style="fill:none; color:black; stroke:currentColor; stroke-width:5.00; stroke-linecap:butt; stroke-linejoin:miter"
     id="g3269">
    <g
       transform="translate(593.7,91.5)"
       style="stroke:none; fill:black; font-family:Arial; font-size:28.00pt; text-anchor:end"
       id="g3271">
      <text
         id="text3273">q=0.5, 位=1</text>
    </g>
  </g>
  <g
     style="fill:none; color:red; stroke:currentColor; stroke-width:5.00; stroke-linecap:butt; stroke-linejoin:miter"
     id="g3281">
    <path
       stroke="rgb(255,   0,   0)"
       d="M613.2,81.0 L712.2,81.0 M165.7,39.0 L171.6,58.1 L177.5,76.8 L183.4,95.1 L189.4,113.0 L195.3,130.5    L201.2,147.6 L207.1,164.4 L213.0,180.7 L218.9,196.7 L224.8,212.3 L230.8,227.4 L236.7,242.2 L242.6,256.6    L248.5,270.7 L254.4,284.3 L260.3,297.5 L266.2,310.4 L272.2,322.8 L278.1,334.9 L284.0,346.6 L289.9,357.9    L295.8,368.8 L301.7,379.3 L307.6,389.4 L313.6,399.1 L319.5,408.5 L325.4,417.4 L331.3,426.0 L337.2,434.2    L343.1,442.0 L349.0,449.4 L355.0,456.4 L360.9,463.0 L366.8,469.2 L372.7,475.1 L378.6,480.5 L384.5,485.6    L390.4,490.3 L396.4,494.5 L402.3,498.4 L408.2,501.9 L414.1,505.0 L420.0,507.8 L425.9,510.1 L431.8,512.1    L437.8,513.6 L443.7,514.8 L449.6,515.6 L455.5,516.0 L461.4,516.0 L467.3,516.0 L473.2,516.0 L479.1,516.0    L485.1,516.0 L491.0,516.0 L496.9,516.0 L502.8,516.0 L508.7,516.0 L514.6,516.0 L520.5,516.0 L526.5,516.0    L532.4,516.0 L538.3,516.0 L544.2,516.0 L550.1,516.0 L556.0,516.0 L561.9,516.0 L567.9,516.0 L573.8,516.0    L579.7,516.0 L585.6,516.0 L591.5,516.0 L597.4,516.0 L603.3,516.0 L609.3,516.0 L615.2,516.0 L621.1,516.0    L627.0,516.0 L632.9,516.0 L638.8,516.0 L644.7,516.0 L650.7,516.0 L656.6,516.0 L662.5,516.0 L668.4,516.0    L674.3,516.0 L680.2,516.0 L686.1,516.0 L692.1,516.0 L698.0,516.0 L703.9,516.0 L709.8,516.0 L715.7,516.0    L721.6,516.0 L727.5,516.0 L733.5,516.0 L739.4,516.0 L745.3,516.0 L751.2,516.0 "
       id="path3283" />
  </g>
  <g
     style="fill:none; color:green; stroke:currentColor; stroke-width:5.00; stroke-linecap:butt; stroke-linejoin:miter"
     id="g3285" />
  <g
     style="fill:none; color:black; stroke:currentColor; stroke-width:5.00; stroke-linecap:butt; stroke-linejoin:miter"
     id="g3287">
    <g
       transform="translate(593.7,133.5)"
       style="stroke:none; fill:black; font-family:Arial; font-size:28.00pt; text-anchor:end"
       id="g3289">
      <text
         id="text3291">q=1.0, 位=1</text>
    </g>
  </g>
  <g
     style="fill:none; color:green; stroke:currentColor; stroke-width:5.00; stroke-linecap:butt; stroke-linejoin:miter"
     id="g3299">
    <path
       stroke="rgb(  0,   0,   0)"
       d="M613.2,123.0 L712.2,123.0 M165.7,198.0 L171.6,210.6 L177.5,222.7 L183.4,234.3 L189.4,245.5 L195.3,256.2    L201.2,266.5 L207.1,276.3 L213.0,285.8 L218.9,294.9 L224.8,303.7 L230.8,312.1 L236.7,320.2 L242.6,327.9    L248.5,335.4 L254.4,342.5 L260.3,349.4 L266.2,356.0 L272.2,362.3 L278.1,368.4 L284.0,374.3 L289.9,379.9    L295.8,385.3 L301.7,390.4 L307.6,395.4 L313.6,400.2 L319.5,404.8 L325.4,409.2 L331.3,413.4 L337.2,417.5    L343.1,421.4 L349.0,425.1 L355.0,428.7 L360.9,432.2 L366.8,435.5 L372.7,438.7 L378.6,441.7 L384.5,444.7    L390.4,447.5 L396.4,450.2 L402.3,452.8 L408.2,455.3 L414.1,457.7 L420.0,460.0 L425.9,462.3 L431.8,464.4    L437.8,466.4 L443.7,468.4 L449.6,470.3 L455.5,472.1 L461.4,473.8 L467.3,475.5 L473.2,477.1 L479.1,478.6    L485.1,480.1 L491.0,481.5 L496.9,482.9 L502.8,484.2 L508.7,485.5 L514.6,486.7 L520.5,487.8 L526.5,489.0    L532.4,490.0 L538.3,491.1 L544.2,492.0 L550.1,493.0 L556.0,493.9 L561.9,494.8 L567.9,495.6 L573.8,496.4    L579.7,497.2 L585.6,497.9 L591.5,498.7 L597.4,499.3 L603.3,500.0 L609.3,500.6 L615.2,501.2 L621.1,501.8    L627.0,502.4 L632.9,502.9 L638.8,503.4 L644.7,503.9 L650.7,504.4 L656.6,504.9 L662.5,505.3 L668.4,505.7    L674.3,506.2 L680.2,506.5 L686.1,506.9 L692.1,507.3 L698.0,507.6 L703.9,508.0 L709.8,508.3 L715.7,508.6    L721.6,508.9 L727.5,509.2 L733.5,509.4 L739.4,509.7 L745.3,509.9 L751.2,510.2 "
       id="path3301" />
  </g>
  <g
     style="fill:none; color:blue; stroke:currentColor; stroke-width:5.00; stroke-linecap:butt; stroke-linejoin:miter"
     id="g3303" />
  <g
     style="fill:none; color:black; stroke:currentColor; stroke-width:5.00; stroke-linecap:butt; stroke-linejoin:miter"
     id="g3305">
    <g
       transform="translate(593.7,175.5)"
       style="stroke:none; fill:black; font-family:Arial; font-size:28.00pt; text-anchor:end"
       id="g3307">
      <text
         id="text3309">q=1.5, 位=1</text>
    </g>
  </g>
  <g
     style="fill:none; color:blue; stroke:currentColor; stroke-width:5.00; stroke-linecap:butt; stroke-linejoin:miter"
     id="g3317">
    <path
       stroke="rgb(  0,   0, 255)"
       d="M613.2,165.0 L712.2,165.0 M165.7,357.0 L171.6,363.2 L177.5,369.1 L183.4,374.7 L189.4,379.9 L195.3,384.8    L201.2,389.5 L207.1,394.0 L213.0,398.2 L218.9,402.2 L224.8,406.0 L230.8,409.6 L236.7,413.0 L242.6,416.3    L248.5,419.4 L254.4,422.4 L260.3,425.2 L266.2,427.9 L272.2,430.5 L278.1,433.0 L284.0,435.3 L289.9,437.6    L295.8,439.8 L301.7,441.9 L307.6,443.9 L313.6,445.8 L319.5,447.7 L325.4,449.4 L331.3,451.1 L337.2,452.8    L343.1,454.4 L349.0,455.9 L355.0,457.3 L360.9,458.8 L366.8,460.1 L372.7,461.4 L378.6,462.7 L384.5,463.9    L390.4,465.1 L396.4,466.3 L402.3,467.4 L408.2,468.4 L414.1,469.5 L420.0,470.5 L425.9,471.4 L431.8,472.4    L437.8,473.3 L443.7,474.2 L449.6,475.0 L455.5,475.8 L461.4,476.6 L467.3,477.4 L473.2,478.2 L479.1,478.9    L485.1,479.6 L491.0,480.3 L496.9,481.0 L502.8,481.7 L508.7,482.3 L514.6,482.9 L520.5,483.5 L526.5,484.1    L532.4,484.7 L538.3,485.2 L544.2,485.8 L550.1,486.3 L556.0,486.8 L561.9,487.3 L567.9,487.8 L573.8,488.3    L579.7,488.7 L585.6,489.2 L591.5,489.6 L597.4,490.0 L603.3,490.5 L609.3,490.9 L615.2,491.3 L621.1,491.7    L627.0,492.0 L632.9,492.4 L638.8,492.8 L644.7,493.1 L650.7,493.5 L656.6,493.8 L662.5,494.1 L668.4,494.5    L674.3,494.8 L680.2,495.1 L686.1,495.4 L692.1,495.7 L698.0,496.0 L703.9,496.3 L709.8,496.5 L715.7,496.8    L721.6,497.1 L727.5,497.3 L733.5,497.6 L739.4,497.8 L745.3,498.1 L751.2,498.3 "
       id="path3319" />
  </g>
  <g
     style="fill:none; color:cyan; stroke:currentColor; stroke-width:5.00; stroke-linecap:butt; stroke-linejoin:miter"
     id="g3321" />
  <g
     style="fill:none; color:black; stroke:currentColor; stroke-width:5.00; stroke-linecap:butt; stroke-linejoin:miter"
     id="g3323">
    <g
       transform="translate(593.7,217.5)"
       style="stroke:none; fill:black; font-family:Arial; font-size:28.00pt; text-anchor:end"
       id="g3325">
      <text
         id="text3327">q=1.5, 位=2</text>
    </g>
  </g>
  <g
     style="fill:none; color:cyan; stroke:currentColor; stroke-width:5.00; stroke-linecap:butt; stroke-linejoin:miter"
     id="g3335">
    <path
       stroke="rgb(  0, 255,   0)"
       d="M613.2,207.0 L712.2,207.0 M165.7,198.0 L171.6,222.2 L177.5,243.8 L183.4,263.0 L189.4,280.3 L195.3,295.9    L201.2,310.0 L207.1,322.8 L213.0,334.4 L218.9,345.0 L224.8,354.7 L230.8,363.6 L236.7,371.8 L242.6,379.3    L248.5,386.3 L254.4,392.7 L260.3,398.7 L266.2,404.2 L272.2,409.4 L278.1,414.2 L284.0,418.7 L289.9,422.9    L295.8,426.9 L301.7,430.6 L307.6,434.0 L313.6,437.3 L319.5,440.4 L325.4,443.3 L331.3,446.0 L337.2,448.6    L343.1,451.0 L349.0,453.3 L355.0,455.5 L360.9,457.6 L366.8,459.6 L372.7,461.4 L378.6,463.2 L384.5,464.9    L390.4,466.5 L396.4,468.1 L402.3,469.5 L408.2,470.9 L414.1,472.3 L420.0,473.6 L425.9,474.8 L431.8,476.0    L437.8,477.1 L443.7,478.2 L449.6,479.2 L455.5,480.2 L461.4,481.1 L467.3,482.1 L473.2,482.9 L479.1,483.8    L485.1,484.6 L491.0,485.4 L496.9,486.1 L502.8,486.9 L508.7,487.6 L514.6,488.2 L520.5,488.9 L526.5,489.5    L532.4,490.1 L538.3,490.7 L544.2,491.3 L550.1,491.8 L556.0,492.3 L561.9,492.9 L567.9,493.4 L573.8,493.8    L579.7,494.3 L585.6,494.8 L591.5,495.2 L597.4,495.6 L603.3,496.0 L609.3,496.4 L615.2,496.8 L621.1,497.2    L627.0,497.5 L632.9,497.9 L638.8,498.2 L644.7,498.6 L650.7,498.9 L656.6,499.2 L662.5,499.5 L668.4,499.8    L674.3,500.1 L680.2,500.4 L686.1,500.7 L692.1,500.9 L698.0,501.2 L703.9,501.5 L709.8,501.7 L715.7,502.0    L721.6,502.2 L727.5,502.4 L733.5,502.6 L739.4,502.9 L745.3,503.1 L751.2,503.3 "
       id="path3337" />
  </g>
  <g
     style="fill:none; color:cyan; stroke:rgb(  0, 255,   0); stroke-width:1.00; stroke-linecap:butt; stroke-linejoin:miter"
     id="g3339" />
  <g
     style="fill:none; color:black; stroke:currentColor; stroke-width:1.00; stroke-linecap:butt; stroke-linejoin:miter"
     id="g3341">
    <path
       d="M165.7,39.0 L165.7,516.0 L751.2,516.0 L751.2,39.0 L165.7,39.0 Z "
       id="path3343" />
  </g>
</svg>
