<?xml version="1.0" encoding="UTF-8" standalone="no"?>
<svg
   xmlns:dc="http://purl.org/dc/elements/1.1/"
   xmlns:cc="http://creativecommons.org/ns#"
   xmlns:rdf="http://www.w3.org/1999/02/22-rdf-syntax-ns#"
   xmlns:svg="http://www.w3.org/2000/svg"
   xmlns="http://www.w3.org/2000/svg"
   xmlns:xlink="http://www.w3.org/1999/xlink"
   xmlns:sodipodi="http://sodipodi.sourceforge.net/DTD/sodipodi-0.dtd"
   xmlns:inkscape="http://www.inkscape.org/namespaces/inkscape"
   width="800"
   height="600"
   viewBox="0 0 800 600"
   id="svg3544"
   version="1.1"
   inkscape:version="0.48.4 r9939"
   sodipodi:docname="qGaussian.svg">
  <metadata
     id="metadata3764">
    <rdf:RDF>
      <cc:Work
         rdf:about="">
        <dc:format>image/svg+xml</dc:format>
        <dc:type
           rdf:resource="http://purl.org/dc/dcmitype/StillImage" />
      </cc:Work>
    </rdf:RDF>
  </metadata>
  <sodipodi:namedview
     pagecolor="#ffffff"
     bordercolor="#666666"
     borderopacity="1"
     objecttolerance="10"
     gridtolerance="10"
     guidetolerance="10"
     inkscape:pageopacity="0"
     inkscape:pageshadow="2"
     inkscape:window-width="1366"
     inkscape:window-height="706"
     id="namedview3762"
     showgrid="false"
     inkscape:zoom="0.7225"
     inkscape:cx="400"
     inkscape:cy="300"
     inkscape:window-x="-8"
     inkscape:window-y="-8"
     inkscape:window-maximized="1"
     inkscape:current-layer="svg3544" />
  <desc
     id="desc3546">Produced by GNUPLOT 4.2 patchlevel 6  </desc>
  <defs
     id="defs3548">
    <circle
       id="gpDot"
       r="0.5"
       stroke-width="0.5" />
    <path
       id="gpPt0"
       stroke-width="0.111"
       stroke="currentColor"
       d="M-1,0 h2 M0,-1 v2" />
    <path
       id="gpPt1"
       stroke-width="0.111"
       stroke="currentColor"
       d="M-1,-1 L1,1 M1,-1 L-1,1" />
    <path
       id="gpPt2"
       stroke-width="0.111"
       stroke="currentColor"
       d="M-1,0 L1,0 M0,-1 L0,1 M-1,-1 L1,1 M-1,1 L1,-1" />
    <rect
       id="gpPt3"
       stroke-width="0.111"
       stroke="currentColor"
       x="-1"
       y="-1"
       width="2"
       height="2" />
    <rect
       id="gpPt4"
       stroke-width="0.111"
       stroke="currentColor"
       fill="currentColor"
       x="-1"
       y="-1"
       width="2"
       height="2" />
    <circle
       id="gpPt5"
       stroke-width="0.111"
       stroke="currentColor"
       cx="0"
       cy="0"
       r="1" />
    <use
       xlink:href="#gpPt5"
       id="gpPt6"
       fill="currentColor"
       stroke="none" />
    <path
       id="gpPt7"
       stroke-width="0.111"
       stroke="currentColor"
       d="M0,-1.33 L-1.33,0.67 L1.33,0.67 z" />
    <use
       xlink:href="#gpPt7"
       id="gpPt8"
       fill="currentColor"
       stroke="none" />
    <use
       xlink:href="#gpPt7"
       id="gpPt9"
       stroke="currentColor"
       transform="rotate(180)" />
    <use
       xlink:href="#gpPt9"
       id="gpPt10"
       fill="currentColor"
       stroke="none" />
    <use
       xlink:href="#gpPt3"
       id="gpPt11"
       stroke="currentColor"
       transform="rotate(45)" />
    <use
       xlink:href="#gpPt11"
       id="gpPt12"
       fill="currentColor"
       stroke="none" />
  </defs>
  <g
     style="fill:none; color:white; stroke:currentColor; stroke-width:1.00; stroke-linecap:butt; stroke-linejoin:miter"
     id="g3564" />
  <g
     style="fill:none; color:black; stroke:currentColor; stroke-width:1.00; stroke-linecap:butt; stroke-linejoin:miter"
     id="g3566">
    <path
       d="M141.9,528.0 L159.9,528.0 M758.2,528.0 L740.2,528.0 "
       id="path3568" />
    <g
       transform="translate(125.2,537.0)"
       style="stroke:none; fill:black; font-family:Arial; font-size:24.00pt; text-anchor:end"
       id="g3570">
      <text
         id="text3572">
        <tspan
           id="tspan3574"> 0</tspan>
      </text>
    </g>
    <path
       d="M141.9,466.2 L159.9,466.2 M758.2,466.2 L740.2,466.2 "
       id="path3576" />
    <g
       transform="translate(125.2,475.2)"
       style="stroke:none; fill:black; font-family:Arial; font-size:24.00pt; text-anchor:end"
       id="g3578">
      <text
         id="text3580">
        <tspan
           id="tspan3582"> 0.1</tspan>
      </text>
    </g>
    <path
       d="M141.9,404.3 L159.9,404.3 M758.2,404.3 L740.2,404.3 "
       id="path3584" />
    <g
       transform="translate(125.2,413.3)"
       style="stroke:none; fill:black; font-family:Arial; font-size:24.00pt; text-anchor:end"
       id="g3586">
      <text
         id="text3588">
        <tspan
           id="tspan3590"> 0.2</tspan>
      </text>
    </g>
    <path
       d="M141.9,342.5 L159.9,342.5 M758.2,342.5 L740.2,342.5 "
       id="path3592" />
    <g
       transform="translate(125.2,351.5)"
       style="stroke:none; fill:black; font-family:Arial; font-size:24.00pt; text-anchor:end"
       id="g3594">
      <text
         id="text3596">
        <tspan
           id="tspan3598"> 0.3</tspan>
      </text>
    </g>
    <path
       d="M141.9,280.7 L159.9,280.7 M758.2,280.7 L740.2,280.7 "
       id="path3600" />
    <g
       transform="translate(125.2,289.7)"
       style="stroke:none; fill:black; font-family:Arial; font-size:24.00pt; text-anchor:end"
       id="g3602">
      <text
         id="text3604">
        <tspan
           id="tspan3606"> 0.4</tspan>
      </text>
    </g>
    <path
       d="M141.9,218.9 L159.9,218.9 M758.2,218.9 L740.2,218.9 "
       id="path3608" />
    <g
       transform="translate(125.2,227.9)"
       style="stroke:none; fill:black; font-family:Arial; font-size:24.00pt; text-anchor:end"
       id="g3610">
      <text
         id="text3612">
        <tspan
           id="tspan3614"> 0.5</tspan>
      </text>
    </g>
    <path
       d="M141.9,157.0 L159.9,157.0 M758.2,157.0 L740.2,157.0 "
       id="path3616" />
    <g
       transform="translate(125.2,166.0)"
       style="stroke:none; fill:black; font-family:Arial; font-size:24.00pt; text-anchor:end"
       id="g3618">
      <text
         id="text3620">
        <tspan
           id="tspan3622"> 0.6</tspan>
      </text>
    </g>
    <path
       d="M141.9,95.2 L159.9,95.2 M758.2,95.2 L740.2,95.2 "
       id="path3624" />
    <g
       transform="translate(125.2,104.2)"
       style="stroke:none; fill:black; font-family:Arial; font-size:24.00pt; text-anchor:end"
       id="g3626">
      <text
         id="text3628">
        <tspan
           id="tspan3630"> 0.7</tspan>
      </text>
    </g>
    <path
       d="M141.9,33.4 L159.9,33.4 M758.2,33.4 L740.2,33.4 "
       id="path3632" />
    <g
       transform="translate(125.2,42.4)"
       style="stroke:none; fill:black; font-family:Arial; font-size:24.00pt; text-anchor:end"
       id="g3634">
      <text
         id="text3636">
        <tspan
           id="tspan3638"> 0.8</tspan>
      </text>
    </g>
    <path
       d="M141.9,528.0 L141.9,510.0 M141.9,33.4 L141.9,51.4 "
       id="path3640" />
    <g
       transform="translate(141.9,573.0)"
       style="stroke:none; fill:black; font-family:Arial; font-size:24.00pt; text-anchor:middle"
       id="g3642">
      <text
         id="text3644">
        <tspan
           id="tspan3646">-4</tspan>
      </text>
    </g>
    <path
       d="M296.0,528.0 L296.0,510.0 M296.0,33.4 L296.0,51.4 "
       id="path3648" />
    <g
       transform="translate(296.0,573.0)"
       style="stroke:none; fill:black; font-family:Arial; font-size:24.00pt; text-anchor:middle"
       id="g3650">
      <text
         id="text3652">
        <tspan
           id="tspan3654">-2</tspan>
      </text>
    </g>
    <path
       d="M450.1,528.0 L450.1,510.0 M450.1,33.4 L450.1,51.4 "
       id="path3656" />
    <g
       transform="translate(450.1,573.0)"
       style="stroke:none; fill:black; font-family:Arial; font-size:24.00pt; text-anchor:middle"
       id="g3658">
      <text
         id="text3660">
        <tspan
           id="tspan3662"> 0</tspan>
      </text>
    </g>
    <path
       d="M604.1,528.0 L604.1,510.0 M604.1,33.4 L604.1,51.4 "
       id="path3664" />
    <g
       transform="translate(604.1,573.0)"
       style="stroke:none; fill:black; font-family:Arial; font-size:24.00pt; text-anchor:middle"
       id="g3666">
      <text
         id="text3668">
        <tspan
           id="tspan3670"> 2</tspan>
      </text>
    </g>
    <path
       d="M758.2,528.0 L758.2,510.0 M758.2,33.4 L758.2,51.4 "
       id="path3672" />
    <g
       transform="translate(758.2,573.0)"
       style="stroke:none; fill:black; font-family:Arial; font-size:24.00pt; text-anchor:middle"
       id="g3674">
      <text
         id="text3676">
        <tspan
           id="tspan3678"> 4</tspan>
      </text>
    </g>
    <path
       stroke="rgb(  0,   0,   0)"
       d="M141.9,528.0 L758.2,528.0 M450.1,528.0 L450.1,33.4 M141.9,33.4 L141.9,528.0 L758.2,528.0 L758.2,33.4    L141.9,33.4 Z "
       id="path3680" />
  </g>
  <g
     style="fill:none; color:black; stroke:currentColor; stroke-width:5.00; stroke-linecap:butt; stroke-linejoin:miter"
     id="g3682" />
  <g
     style="fill:none; color:red; stroke:currentColor; stroke-width:5.00; stroke-linecap:butt; stroke-linejoin:miter"
     id="g3684" />
  <g
     style="fill:none; color:black; stroke:currentColor; stroke-width:5.00; stroke-linecap:butt; stroke-linejoin:miter"
     id="g3686">
    <g
       transform="translate(623.3,78.4)"
       style="stroke:none; fill:black; font-family:Arial; font-size:24.00pt; text-anchor:end"
       id="g3688">
      <text
         id="text3690">q=0, β=1</text>
    </g>
  </g>
  <g
     style="fill:none; color:red; stroke:currentColor; stroke-width:5.00; stroke-linecap:butt; stroke-linejoin:miter"
     id="g3698">
    <path
       stroke="rgb(255,   0,   0)"
       d="M640.0,69.4 L724.8,69.4 M141.9,528.0 L148.1,528.0 L154.4,528.0 L160.6,528.0 L166.8,528.0 L173.0,528.0    L179.3,528.0 L185.5,528.0 L191.7,528.0 L197.9,528.0 L204.2,528.0 L210.4,528.0 L216.6,528.0 L222.8,528.0    L229.1,528.0 L235.3,528.0 L241.5,528.0 L247.7,528.0 L254.0,528.0 L260.2,528.0 L266.4,528.0 L272.6,528.0    L278.9,528.0 L285.1,528.0 L291.3,528.0 L297.5,528.0 L303.8,528.0 L310.0,528.0 L316.2,528.0 L322.4,528.0    L328.7,528.0 L334.9,528.0 L341.1,528.0 L347.3,528.0 L353.6,528.0 L359.8,528.0 L366.0,528.0 L372.2,528.0    L378.5,464.7 L384.7,398.1 L390.9,337.6 L397.1,283.1 L403.4,234.6 L409.6,192.2 L415.8,155.9 L422.0,125.6    L428.3,101.4 L434.5,83.2 L440.7,71.1 L446.9,65.1 L453.2,65.1 L459.4,71.1 L465.6,83.2 L471.8,101.4    L478.1,125.6 L484.3,155.9 L490.5,192.2 L496.7,234.6 L503.0,283.1 L509.2,337.6 L515.4,398.1 L521.6,464.7    L527.9,528.0 L534.1,528.0 L540.3,528.0 L546.5,528.0 L552.8,528.0 L559.0,528.0 L565.2,528.0 L571.4,528.0    L577.7,528.0 L583.9,528.0 L590.1,528.0 L596.3,528.0 L602.6,528.0 L608.8,528.0 L615.0,528.0 L621.2,528.0    L627.5,528.0 L633.7,528.0 L639.9,528.0 L646.1,528.0 L652.4,528.0 L658.6,528.0 L664.8,528.0 L671.0,528.0    L677.3,528.0 L683.5,528.0 L689.7,528.0 L695.9,528.0 L702.2,528.0 L708.4,528.0 L714.6,528.0 L720.8,528.0    L727.1,528.0 L733.3,528.0 L739.5,528.0 L745.7,528.0 L752.0,528.0 L758.2,528.0 "
       id="path3700" />
  </g>
  <g
     style="fill:none; color:green; stroke:currentColor; stroke-width:5.00; stroke-linecap:butt; stroke-linejoin:miter"
     id="g3702" />
  <g
     style="fill:none; color:black; stroke:currentColor; stroke-width:5.00; stroke-linecap:butt; stroke-linejoin:miter"
     id="g3704">
    <g
       transform="translate(623.3,114.4)"
       style="stroke:none; fill:black; font-family:Arial; font-size:24.00pt; text-anchor:end"
       id="g3706">
      <text
         id="text3708">q=1, β=1</text>
    </g>
  </g>
  <g
     style="fill:none; color:green; stroke:currentColor; stroke-width:5.00; stroke-linecap:butt; stroke-linejoin:miter"
     id="g3716">
    <path
       stroke="rgb(  0,   0,   0)"
       d="M640.0,105.4 L724.8,105.4 M141.9,528.0 L148.1,528.0 L154.4,528.0 L160.6,528.0 L166.8,528.0 L173.0,528.0    L179.3,528.0 L185.5,528.0 L191.7,528.0 L197.9,528.0 L204.2,528.0 L210.4,528.0 L216.6,528.0 L222.8,527.9    L229.1,527.9 L235.3,527.9 L241.5,527.8 L247.7,527.6 L254.0,527.5 L260.2,527.2 L266.4,526.8 L272.6,526.3    L278.9,525.5 L285.1,524.4 L291.3,523.0 L297.5,521.1 L303.8,518.5 L310.0,515.2 L316.2,511.0 L322.4,505.6    L328.7,498.9 L334.9,490.7 L341.1,480.8 L347.3,469.0 L353.6,455.3 L359.8,439.6 L366.0,421.9 L372.2,402.3    L378.5,380.9 L384.7,358.2 L390.9,334.5 L397.1,310.4 L403.4,286.4 L409.6,263.3 L415.8,241.7 L422.0,222.4    L428.3,206.0 L434.5,193.1 L440.7,184.3 L446.9,179.8 L453.2,179.8 L459.4,184.3 L465.6,193.1 L471.8,206.0    L478.1,222.4 L484.3,241.7 L490.5,263.3 L496.7,286.4 L503.0,310.4 L509.2,334.5 L515.4,358.2 L521.6,380.9    L527.9,402.3 L534.1,421.9 L540.3,439.6 L546.5,455.3 L552.8,469.0 L559.0,480.8 L565.2,490.7 L571.4,498.9    L577.7,505.6 L583.9,511.0 L590.1,515.2 L596.3,518.5 L602.6,521.1 L608.8,523.0 L615.0,524.4 L621.2,525.5    L627.5,526.3 L633.7,526.8 L639.9,527.2 L646.1,527.5 L652.4,527.6 L658.6,527.8 L664.8,527.9 L671.0,527.9    L677.3,527.9 L683.5,528.0 L689.7,528.0 L695.9,528.0 L702.2,528.0 L708.4,528.0 L714.6,528.0 L720.8,528.0    L727.1,528.0 L733.3,528.0 L739.5,528.0 L745.7,528.0 L752.0,528.0 L758.2,528.0 "
       id="path3718" />
  </g>
  <g
     style="fill:none; color:blue; stroke:currentColor; stroke-width:5.00; stroke-linecap:butt; stroke-linejoin:miter"
     id="g3720" />
  <g
     style="fill:none; color:black; stroke:currentColor; stroke-width:5.00; stroke-linecap:butt; stroke-linejoin:miter"
     id="g3722">
    <g
       transform="translate(623.3,150.4)"
       style="stroke:none; fill:black; font-family:Arial; font-size:24.00pt; text-anchor:end"
       id="g3724">
      <text
         id="text3726">q=2, β=1</text>
    </g>
  </g>
  <g
     style="fill:none; color:blue; stroke:currentColor; stroke-width:5.00; stroke-linecap:butt; stroke-linejoin:miter"
     id="g3734">
    <path
       stroke="rgb(  0,   0, 255)"
       d="M640.0,141.4 L724.8,141.4 M141.9,516.4 L148.1,516.0 L154.4,515.5 L160.6,515.0 L166.8,514.4 L173.0,513.9    L179.3,513.3 L185.5,512.6 L191.7,511.9 L197.9,511.2 L204.2,510.4 L210.4,509.6 L216.6,508.7 L222.8,507.7    L229.1,506.7 L235.3,505.6 L241.5,504.4 L247.7,503.1 L254.0,501.7 L260.2,500.2 L266.4,498.6 L272.6,496.8    L278.9,494.9 L285.1,492.8 L291.3,490.5 L297.5,488.0 L303.8,485.3 L310.0,482.3 L316.2,479.0 L322.4,475.4    L328.7,471.5 L334.9,467.2 L341.1,462.4 L347.3,457.2 L353.6,451.4 L359.8,445.1 L366.0,438.1 L372.2,430.6    L378.5,422.4 L384.7,413.6 L390.9,404.2 L397.1,394.3 L403.4,384.1 L409.6,373.8 L415.8,363.7 L422.0,354.2    L428.3,345.8 L434.5,338.9 L440.7,334.1 L446.9,331.5 L453.2,331.5 L459.4,334.1 L465.6,338.9 L471.8,345.8    L478.1,354.2 L484.3,363.7 L490.5,373.8 L496.7,384.1 L503.0,394.3 L509.2,404.2 L515.4,413.6 L521.6,422.4    L527.9,430.6 L534.1,438.1 L540.3,445.1 L546.5,451.4 L552.8,457.2 L559.0,462.4 L565.2,467.2 L571.4,471.5    L577.7,475.4 L583.9,479.0 L590.1,482.3 L596.3,485.3 L602.6,488.0 L608.8,490.5 L615.0,492.8 L621.2,494.9    L627.5,496.8 L633.7,498.6 L639.9,500.2 L646.1,501.7 L652.4,503.1 L658.6,504.4 L664.8,505.6 L671.0,506.7    L677.3,507.7 L683.5,508.7 L689.7,509.6 L695.9,510.4 L702.2,511.2 L708.4,511.9 L714.6,512.6 L720.8,513.3    L727.1,513.9 L733.3,514.4 L739.5,515.0 L745.7,515.5 L752.0,516.0 L758.2,516.4 "
       id="path3736" />
  </g>
  <g
     style="fill:none; color:cyan; stroke:currentColor; stroke-width:5.00; stroke-linecap:butt; stroke-linejoin:miter"
     id="g3738" />
  <g
     style="fill:none; color:black; stroke:currentColor; stroke-width:5.00; stroke-linecap:butt; stroke-linejoin:miter"
     id="g3740">
    <g
       transform="translate(623.3,186.4)"
       style="stroke:none; fill:black; font-family:Arial; font-size:24.00pt; text-anchor:end"
       id="g3742">
      <text
         id="text3744">q=2, β=3</text>
    </g>
  </g>
  <g
     style="fill:none; color:cyan; stroke:currentColor; stroke-width:5.00; stroke-linecap:butt; stroke-linejoin:miter"
     id="g3752">
    <path
       stroke="rgb(  0, 255,   0)"
       d="M640.0,177.4 L724.8,177.4 M141.9,517.7 L148.1,517.3 L154.4,516.8 L160.6,516.3 L166.8,515.8 L173.0,515.3    L179.3,514.7 L185.5,514.1 L191.7,513.5 L197.9,512.8 L204.2,512.1 L210.4,511.3 L216.6,510.4 L222.8,509.5    L229.1,508.5 L235.3,507.4 L241.5,506.2 L247.7,505.0 L254.0,503.6 L260.2,502.1 L266.4,500.4 L272.6,498.6    L278.9,496.7 L285.1,494.5 L291.3,492.1 L297.5,489.4 L303.8,486.5 L310.0,483.2 L316.2,479.6 L322.4,475.5    L328.7,470.9 L334.9,465.7 L341.1,459.8 L347.3,453.2 L353.6,445.6 L359.8,437.0 L366.0,427.2 L372.2,415.9    L378.5,403.0 L384.7,388.3 L390.9,371.5 L397.1,352.6 L403.4,331.5 L409.6,308.3 L415.8,283.7 L422.0,258.4    L428.3,234.2 L434.5,212.9 L440.7,196.9 L446.9,188.3 L453.2,188.3 L459.4,196.9 L465.6,212.9 L471.8,234.2    L478.1,258.4 L484.3,283.7 L490.5,308.3 L496.7,331.5 L503.0,352.6 L509.2,371.5 L515.4,388.3 L521.6,403.0    L527.9,415.9 L534.1,427.2 L540.3,437.0 L546.5,445.6 L552.8,453.2 L559.0,459.8 L565.2,465.7 L571.4,470.9    L577.7,475.5 L583.9,479.6 L590.1,483.2 L596.3,486.5 L602.6,489.4 L608.8,492.1 L615.0,494.5 L621.2,496.7    L627.5,498.6 L633.7,500.4 L639.9,502.1 L646.1,503.6 L652.4,505.0 L658.6,506.2 L664.8,507.4 L671.0,508.5    L677.3,509.5 L683.5,510.4 L689.7,511.3 L695.9,512.1 L702.2,512.8 L708.4,513.5 L714.6,514.1 L720.8,514.7    L727.1,515.3 L733.3,515.8 L739.5,516.3 L745.7,516.8 L752.0,517.3 L758.2,517.7 "
       id="path3754" />
  </g>
  <g
     style="fill:none; color:cyan; stroke:rgb(  0, 255,   0); stroke-width:1.00; stroke-linecap:butt; stroke-linejoin:miter"
     id="g3756" />
  <g
     style="fill:none; color:black; stroke:currentColor; stroke-width:1.00; stroke-linecap:butt; stroke-linejoin:miter"
     id="g3758">
    <path
       d="M141.9,33.4 L141.9,528.0 L758.2,528.0 L758.2,33.4 L141.9,33.4 Z "
       id="path3760" />
  </g>
</svg>
